<svg width="44" height="44" viewBox="0 0 44 44" fill="none" xmlns="http://www.w3.org/2000/svg">
<rect x="0.5" y="0.5" width="43" height="43" rx="5.5" stroke="#7BAED3"/>
<path d="M26.976 28.0532C26.8802 26.3577 25.9131 25.8195 24.4988 25.3481C23.4182 24.9881 23.1207 23.8535 23.0391 23.2515" stroke="#7BAED3" stroke-width="1.704" stroke-miterlimit="10" stroke-linecap="round"/>
<path d="M20.9601 23.251C20.8799 23.8502 20.5881 24.9862 19.5011 25.3483C18.0868 25.8198 17.1183 26.3565 17.0225 28.052" stroke="#7BAED3" stroke-width="1.704" stroke-miterlimit="10" stroke-linecap="round"/>
<path d="M22.0002 23.4051C20.4318 23.4051 19.1602 22.1335 19.1602 20.5651V19.8551C19.1602 18.2867 20.4318 17.0151 22.0002 17.0151C23.5685 17.0151 24.8402 18.2867 24.8402 19.8551V20.5651C24.8402 22.1335 23.5685 23.4051 22.0002 23.4051Z" stroke="#7BAED3" stroke-width="1.704" stroke-miterlimit="10" stroke-linecap="round"/>
<path d="M21.9999 29.8099C26.3133 29.8099 29.8099 26.3133 29.8099 21.9999C29.8099 17.6866 26.3133 14.1899 21.9999 14.1899C17.6866 14.1899 14.1899 17.6866 14.1899 21.9999C14.1899 26.3133 17.6866 29.8099 21.9999 29.8099Z" stroke="#7BAED3" stroke-width="1.704" stroke-miterlimit="10" stroke-linecap="square"/>
</svg>
