<svg width="44" height="44" viewBox="0 0 44 44" fill="none" xmlns="http://www.w3.org/2000/svg">
<rect x="0.5" y="0.5" width="43" height="43" rx="5.5" stroke="#4D1A2D"/>
<path d="M17.71 29.8497C18.1021 29.8497 18.42 29.5318 18.42 29.1397C18.42 28.7476 18.1021 28.4297 17.71 28.4297C17.3179 28.4297 17 28.7476 17 29.1397C17 29.5318 17.3179 29.8497 17.71 29.8497Z" fill="#4D1A2D"/>
<path d="M27.71 29.8497C28.1021 29.8497 28.42 29.5318 28.42 29.1397C28.42 28.7476 28.1021 28.4297 27.71 28.4297C27.3179 28.4297 27 28.7476 27 29.1397C27 29.5318 27.3179 29.8497 27.71 29.8497Z" fill="#4D1A2D"/>
<path d="M17.71 29.8497C18.1021 29.8497 18.42 29.5318 18.42 29.1397C18.42 28.7476 18.1021 28.4297 17.71 28.4297C17.3179 28.4297 17 28.7476 17 29.1397C17 29.5318 17.3179 29.8497 17.71 29.8497Z" stroke="#4D1A2D" stroke-width="1.704" stroke-miterlimit="10" stroke-linecap="square"/>
<path d="M27.71 29.8497C28.1021 29.8497 28.42 29.5318 28.42 29.1397C28.42 28.7476 28.1021 28.4297 27.71 28.4297C27.3179 28.4297 27 28.7476 27 29.1397C27 29.5318 27.3179 29.8497 27.71 29.8497Z" stroke="#4D1A2D" stroke-width="1.704" stroke-miterlimit="10" stroke-linecap="square"/>
<path d="M16.8831 18.4348L29.0951 18.4348L27.9037 24.3931C27.7709 25.0569 27.188 25.5348 26.5114 25.5348L18.9783 25.5348C18.2668 25.5348 17.6648 25.0079 17.571 24.3022L16.3151 14.8848L14.1851 14.8848" stroke="#4D1A2D" stroke-width="1.704" stroke-miterlimit="10" stroke-linecap="round"/>
</svg>
