<svg width="14" height="14" viewBox="0 0 14 14" fill="none" xmlns="http://www.w3.org/2000/svg">
<path fill-rule="evenodd" clip-rule="evenodd" d="M5.24983 3.9375C5.1338 3.9375 5.02252 3.89141 4.94047 3.80936C4.85842 3.72731 4.81233 3.61603 4.81233 3.5C4.81233 3.38397 4.85842 3.27269 4.94047 3.19064C5.02252 3.10859 5.1338 3.0625 5.24983 3.0625H10.4998C10.6159 3.0625 10.7271 3.10859 10.8092 3.19064C10.8912 3.27269 10.9373 3.38397 10.9373 3.5V8.75C10.9373 8.86603 10.8912 8.97731 10.8092 9.05936C10.7271 9.14141 10.6159 9.1875 10.4998 9.1875C10.3838 9.1875 10.2725 9.14141 10.1905 9.05936C10.1084 8.97731 10.0623 8.86603 10.0623 8.75V4.55583L3.809 10.8092C3.72606 10.8864 3.61637 10.9285 3.50302 10.9265C3.38968 10.9245 3.28154 10.8786 3.20138 10.7984C3.12123 10.7183 3.07531 10.6101 3.07331 10.4968C3.07131 10.3835 3.11338 10.2738 3.19066 10.1908L9.444 3.9375H5.24983Z" fill="#FCFCFD"/>
</svg>
