<svg width="250" height="250" viewBox="0 0 250 250" fill="none" xmlns="http://www.w3.org/2000/svg">
<path d="M234.658 230.589C234.658 230.661 185.558 230.719 125.004 230.719C64.4293 230.719 15.3398 230.66 15.3398 230.589C15.3398 230.517 64.4293 230.459 125.004 230.459C185.558 230.459 234.658 230.517 234.658 230.589Z" fill="#263238"/>
<path d="M161.196 230.564L96.8428 230.255C89.1013 230.219 82.8548 223.915 82.8888 216.173L83.5683 54.8445C83.6023 47.0985 89.9093 40.847 97.6548 40.881C97.6613 40.881 97.6678 40.881 97.6743 40.881L162.009 41.1615C169.748 41.198 175.994 47.4995 175.963 55.239L175.283 216.587C175.262 224.327 168.97 230.585 161.23 230.564C161.219 230.564 161.207 230.564 161.196 230.564Z" fill="#263238"/>
<path d="M161.467 46.7483L149.009 46.6913L112.564 46.5203H108.179L97.2512 46.4728C91.8302 46.4463 87.4142 50.8198 87.3877 56.2408C87.3877 56.2423 87.3877 56.2443 87.3877 56.2458L86.7228 213.735C86.6993 219.156 91.0747 223.57 96.4957 223.594L160.726 223.888C166.147 223.907 170.556 219.527 170.575 214.106C170.575 214.104 170.575 214.102 170.575 214.101L171.24 56.6113C171.266 51.1903 166.893 46.7743 161.472 46.7478C161.47 46.7483 161.468 46.7483 161.467 46.7483Z" fill="#FAFAFA"/>
<path d="M162.047 61.3694C162.047 61.8129 161.688 62.1724 161.244 62.1724C160.801 62.1724 160.441 61.8129 160.441 61.3694C160.441 60.9259 160.801 60.5664 161.244 60.5664C161.246 60.5664 161.247 60.5664 161.249 60.5664C161.691 60.5694 162.047 60.9279 162.047 61.3694Z" fill="#263238"/>
<path d="M162.037 64.2782C162.035 64.7217 161.673 65.0792 161.23 65.0762C160.786 65.0737 160.429 64.7117 160.432 64.2687C160.434 63.8272 160.793 63.4707 161.235 63.4707C161.678 63.4732 162.037 63.8337 162.037 64.2782Z" fill="#263238"/>
<path d="M162.028 67.1526C162.03 67.5986 161.671 67.9626 161.225 67.9651C160.779 67.9676 160.415 67.6081 160.412 67.1621C160.41 66.7161 160.769 66.3521 161.215 66.3496C161.218 66.3496 161.222 66.3496 161.225 66.3496C161.667 66.3521 162.025 66.7101 162.028 67.1526Z" fill="#263238"/>
<path d="M97.5635 83.3223H161.913C163.041 83.3223 163.955 84.2368 163.955 85.3643V124.696C163.955 125.824 163.04 126.738 161.913 126.738H97.5635C96.4355 126.738 95.5215 125.823 95.5215 124.696V85.3643C95.5215 84.2368 96.436 83.3223 97.5635 83.3223Z" fill="#FF725E"/>
<path d="M106.79 93.2388C106.79 93.7943 106.349 94.1173 105.503 94.1173H103.846V90.9023H105.413C106.215 90.9023 106.629 91.2393 106.629 91.7383C106.635 92.0368 106.468 92.3123 106.201 92.4458C106.56 92.5393 106.804 92.8688 106.79 93.2388ZM104.582 91.4628V92.2228H105.323C105.684 92.2228 105.883 92.0943 105.883 91.8428C105.883 91.5913 105.684 91.4628 105.323 91.4628H104.582ZM106.045 93.1628C106.045 92.8923 105.836 92.7638 105.451 92.7638H104.582V93.5568H105.451C105.836 93.5568 106.045 93.4383 106.045 93.1628Z" fill="white"/>
<path d="M109.47 93.4288H107.979L107.694 94.1173H106.93L108.355 90.9023H109.091L110.515 94.1173H109.736L109.47 93.4288ZM109.238 92.8638L108.725 91.6339L108.217 92.8638H109.238Z" fill="white"/>
<path d="M113.814 90.9023V94.1173H113.202L111.601 92.1653V94.1173H110.865V90.9023H111.483L113.078 92.8543V90.9023H113.814Z" fill="white"/>
<path d="M115.743 92.8538L115.311 93.3288V94.1408H114.594V90.9258H115.335V92.4263L116.759 90.9258H117.586L116.256 92.3503L117.68 94.1313H116.811L115.743 92.8538Z" fill="white"/>
<path d="M106.188 106.597H105.599V107.371H105.295V106.597H103.633V106.378L105.195 104.422H105.532L104.027 106.321H105.304V105.642H105.599V106.321H106.188V106.597Z" fill="white"/>
<path d="M108.353 106.527C108.353 107.002 107.997 107.401 107.285 107.401C106.895 107.414 106.514 107.278 106.221 107.021L106.373 106.779C106.62 107.009 106.947 107.132 107.285 107.121C107.76 107.121 108.045 106.893 108.045 106.527C108.045 106.162 107.793 105.943 107.247 105.943H107.038V105.72L107.855 104.694H106.345V104.424H108.244V104.642L107.413 105.692C108.04 105.748 108.353 106.056 108.353 106.527Z" fill="white"/>
<path d="M110.737 106.508C110.737 107.006 110.39 107.401 109.668 107.401C109.28 107.413 108.901 107.277 108.609 107.021L108.761 106.779C109.004 107.008 109.329 107.132 109.664 107.121C110.167 107.121 110.433 106.879 110.433 106.518C110.433 106.157 110.196 105.905 109.445 105.905H108.818L108.97 104.424H110.585V104.694H109.236L109.131 105.644H109.511C110.4 105.634 110.737 105.985 110.737 106.508Z" fill="white"/>
<path d="M113.341 106.492C113.335 107.001 112.918 107.409 112.409 107.403C112.384 107.403 112.359 107.402 112.334 107.399C111.551 107.399 111.123 106.853 111.123 105.922C111.123 104.92 111.669 104.398 112.472 104.398C112.715 104.387 112.956 104.443 113.17 104.559L113.046 104.801C112.874 104.701 112.676 104.653 112.476 104.664C111.84 104.664 111.431 105.072 111.431 105.875C111.431 105.941 111.431 106.022 111.431 106.112C111.606 105.781 111.96 105.584 112.334 105.609C112.823 105.546 113.27 105.891 113.333 106.38C113.338 106.418 113.341 106.455 113.341 106.492ZM113.042 106.492C113.042 106.103 112.752 105.856 112.301 105.856C111.925 105.813 111.587 106.083 111.544 106.458C111.543 106.471 111.542 106.484 111.541 106.497C111.541 106.824 111.811 107.133 112.32 107.133C112.674 107.175 112.995 106.922 113.037 106.568C113.04 106.546 113.041 106.524 113.042 106.501V106.492Z" fill="white"/>
<path d="M119.708 107.371L119.005 106.445L118.298 107.371H117.961L118.839 106.236L118.003 105.158H118.34L119.005 106.023L119.67 105.158H120.003L119.167 106.222L120.05 107.357L119.708 107.371Z" fill="white"/>
<path d="M121.959 107.371L121.242 106.445L120.534 107.371H120.197L121.076 106.236L120.24 105.158H120.577L121.242 106.023L121.907 105.158H122.234L121.417 106.222L122.301 107.357L121.959 107.371Z" fill="white"/>
<path d="M124.21 107.371L123.507 106.445L122.8 107.371H122.463L123.337 106.236L122.501 105.158H122.838L123.507 106.023L124.172 105.158H124.5L123.664 106.222L124.552 107.357L124.21 107.371Z" fill="white"/>
<path d="M126.467 107.371L125.764 106.445L125.042 107.371H124.705L125.584 106.236L124.748 105.158H125.085L125.75 106.023L126.415 105.158H126.747L125.916 106.222L126.8 107.357L126.467 107.371Z" fill="white"/>
<path d="M134.226 107.372L133.523 106.446L132.816 107.372H132.479L133.353 106.223L132.522 105.145H132.859L133.524 106.009L134.189 105.145H134.54L133.681 106.223L134.569 107.358L134.226 107.372Z" fill="white"/>
<path d="M136.472 107.371L135.769 106.445L135.062 107.371H134.725L135.603 106.236L134.767 105.158H135.104L135.769 106.023L136.434 105.158H136.767L135.931 106.222L136.814 107.357L136.472 107.371Z" fill="white"/>
<path d="M138.724 107.372L138.021 106.446L137.314 107.372H136.977L137.865 106.223L137.029 105.145H137.366L138.031 106.009L138.696 105.145H139.023L138.183 106.223L139.066 107.358L138.724 107.372Z" fill="white"/>
<path d="M140.974 107.371L140.271 106.445L139.564 107.371H139.227L140.101 106.236L139.289 105.158H139.626L140.295 106.023L140.96 105.158H141.288L140.428 106.222L141.316 107.357L140.974 107.371Z" fill="white"/>
<path d="M147.951 104.422V107.371H147.647V104.692H146.949V104.422H147.951Z" fill="white"/>
<path d="M150.601 106.527C150.601 107.002 150.245 107.401 149.533 107.401C149.143 107.414 148.762 107.278 148.469 107.021L148.621 106.779C148.867 107.01 149.195 107.133 149.533 107.121C150.008 107.121 150.293 106.893 150.293 106.527C150.293 106.162 150.041 105.943 149.495 105.943H149.286V105.72L150.103 104.694H148.593V104.424H150.492V104.642L149.661 105.692C150.288 105.748 150.601 106.056 150.601 106.527Z" fill="white"/>
<path d="M153.536 106.597H152.943V107.371H152.644V106.597H150.977V106.378L152.539 104.422H152.876L151.371 106.321H152.648V105.642H152.943V106.321H153.536V106.597Z" fill="white"/>
<path d="M155.811 107.105V107.371H153.741V107.171L154.966 105.97C155.298 105.642 155.365 105.443 155.365 105.243C155.365 104.901 155.123 104.692 154.671 104.692C154.367 104.672 154.071 104.793 153.869 105.02L153.65 104.835C153.919 104.546 154.301 104.391 154.695 104.412C155.294 104.412 155.674 104.716 155.674 105.21C155.662 105.573 155.488 105.912 155.199 106.132L154.197 107.12L155.811 107.105Z" fill="white"/>
<path d="M102.117 113.494C102.114 113.095 102.434 112.769 102.833 112.766C102.85 112.766 102.866 112.766 102.882 112.767C103.101 112.759 103.312 112.85 103.457 113.014L103.248 113.209C103.162 113.103 103.033 113.041 102.896 113.042C102.647 113.042 102.445 113.243 102.444 113.492C102.444 113.741 102.645 113.944 102.894 113.945C102.894 113.945 102.896 113.945 102.897 113.945C103.033 113.946 103.163 113.885 103.248 113.778L103.457 113.968C103.314 114.138 103.1 114.232 102.878 114.22C102.48 114.241 102.14 113.935 102.119 113.537C102.117 113.523 102.117 113.508 102.117 113.494Z" fill="white"/>
<path d="M104.578 113.897H103.927L103.799 114.196H103.467L104.094 112.771H104.417L105.044 114.196H104.707L104.578 113.897ZM104.478 113.65L104.255 113.108L104.032 113.65H104.478Z" fill="white"/>
<path d="M106.093 114.196L105.817 113.807H105.518V114.196H105.195V112.771H105.803C106.178 112.771 106.416 112.966 106.416 113.279C106.419 113.473 106.305 113.65 106.126 113.726L106.44 114.177L106.093 114.196ZM105.784 113.057H105.518V113.532H105.784C105.983 113.532 106.083 113.442 106.083 113.285C106.083 113.128 105.983 113.057 105.784 113.057Z" fill="white"/>
<path d="M106.562 114.058L106.671 113.811C106.81 113.909 106.976 113.96 107.146 113.958C107.341 113.958 107.417 113.896 107.417 113.811C107.417 113.545 106.6 113.725 106.6 113.203C106.6 112.965 106.794 112.766 107.193 112.766C107.36 112.765 107.523 112.807 107.668 112.889L107.569 113.136C107.45 113.069 107.316 113.031 107.179 113.027C106.985 113.027 106.909 113.098 106.909 113.188C106.909 113.445 107.73 113.269 107.73 113.782C107.73 114.019 107.531 114.219 107.132 114.219C106.93 114.223 106.733 114.167 106.562 114.058Z" fill="white"/>
<path d="M109.844 112.791V114.216H109.517V113.642H108.876V114.216H108.553V112.791H108.876V113.347H109.517V112.791H109.844Z" fill="white"/>
<path d="M110.068 113.494C110.044 113.069 110.369 112.706 110.793 112.683C111.217 112.659 111.581 112.984 111.604 113.408C111.628 113.832 111.303 114.196 110.879 114.219C110.865 114.22 110.851 114.22 110.837 114.22C110.437 114.244 110.093 113.938 110.069 113.538C110.068 113.523 110.068 113.508 110.068 113.494ZM111.279 113.494C111.273 113.25 111.072 113.056 110.828 113.062C110.584 113.067 110.39 113.269 110.396 113.513C110.401 113.753 110.597 113.945 110.837 113.945C111.076 113.945 111.27 113.752 111.27 113.513C111.27 113.507 111.27 113.5 111.269 113.494H111.279Z" fill="white"/>
<path d="M111.854 112.791H112.181V113.931H112.884V114.197H111.854V112.791Z" fill="white"/>
<path d="M113.07 112.791H113.711C114.105 112.791 114.424 113.11 114.424 113.504C114.424 113.897 114.105 114.216 113.711 114.216H113.07V112.791ZM113.697 113.931C113.938 113.931 114.134 113.736 114.135 113.495C114.135 113.253 113.94 113.057 113.699 113.057C113.698 113.057 113.698 113.057 113.697 113.057H113.398V113.931H113.697Z" fill="white"/>
<path d="M115.824 113.935V114.196H114.736V112.771H115.795V113.032H115.069V113.346H115.719V113.602H115.069V113.925L115.824 113.935Z" fill="white"/>
<path d="M116.968 114.196L116.692 113.807H116.393V114.196H116.07V112.771H116.678C117.053 112.771 117.291 112.966 117.291 113.279C117.294 113.473 117.18 113.65 117.001 113.726L117.315 114.177L116.968 114.196ZM116.659 113.057H116.393V113.532H116.659C116.859 113.532 116.958 113.442 116.958 113.285C116.958 113.128 116.873 113.057 116.673 113.057H116.659Z" fill="white"/>
<path d="M102.55 117.695H121.912C122.329 117.695 122.667 118.033 122.667 118.45V118.745C122.667 119.162 122.329 119.5 121.912 119.5H102.55C102.133 119.5 101.795 119.162 101.795 118.745V118.45C101.795 118.033 102.133 117.695 102.55 117.695Z" fill="white"/>
<path d="M146.327 117.695H156.414C156.831 117.695 157.169 118.033 157.169 118.45V118.745C157.169 119.162 156.831 119.5 156.414 119.5H146.327C145.91 119.5 145.572 119.162 145.572 118.745V118.45C145.572 118.033 145.91 117.695 146.327 117.695Z" fill="white"/>
<g opacity="0.2">
<path d="M161.69 83.3223H97.7915C96.5395 83.3223 95.524 84.3358 95.5215 85.5878V97.0518C99.558 99.8678 105.105 100.376 110.025 99.3363C115.823 98.1253 121.076 95.1573 126.475 92.7258C131.875 90.2943 137.816 88.3473 143.653 89.3493C149.166 90.2993 153.863 93.7233 158.85 96.2638C160.485 97.1088 162.196 97.7988 163.96 98.3248V85.5878C163.957 84.3358 162.942 83.3223 161.69 83.3223Z" fill="white"/>
</g>
<path d="M148.93 89.3398H152.273C153.099 89.3398 153.769 90.0093 153.769 90.8358V94.1793C153.769 95.0053 153.1 95.6753 152.273 95.6753H148.93C148.104 95.6753 147.434 95.0053 147.434 94.1793V90.8358C147.434 90.0098 148.103 89.3398 148.93 89.3398Z" fill="white"/>
<path d="M100.876 147.695C100.876 148.672 100.084 149.464 99.1069 149.464C98.1299 149.464 97.3379 148.672 97.3379 147.695C97.3379 146.718 98.1299 145.926 99.1069 145.926C100.084 145.926 100.876 146.718 100.876 147.695Z" fill="#455A64"/>
<path d="M141.164 148.839H105.916C105.284 148.839 104.771 148.326 104.771 147.694C104.771 147.061 105.284 146.549 105.916 146.549H141.164C141.796 146.549 142.309 147.061 142.309 147.694C142.309 148.326 141.796 148.839 141.164 148.839Z" fill="#E0E0E0"/>
<path d="M99.1069 157.97C100.084 157.97 100.876 157.178 100.876 156.201C100.876 155.224 100.084 154.432 99.1069 154.432C98.1299 154.432 97.3379 155.224 97.3379 156.201C97.3379 157.178 98.1299 157.97 99.1069 157.97Z" fill="#455A64"/>
<path d="M119.449 157.345H105.916C105.284 157.345 104.771 156.832 104.771 156.2C104.771 155.567 105.284 155.055 105.916 155.055H119.449C120.081 155.055 120.594 155.567 120.594 156.2C120.594 156.832 120.081 157.345 119.449 157.345Z" fill="#E0E0E0"/>
<path d="M149.199 148.514C149.617 148.514 150.035 148.514 150.452 148.514C150.616 148.514 150.772 148.37 150.765 148.201C150.757 148.032 150.627 147.889 150.452 147.889C150.035 147.889 149.617 147.889 149.199 147.889C149.036 147.889 148.879 148.033 148.887 148.201C148.895 148.371 149.024 148.514 149.199 148.514Z" fill="#E0E0E0"/>
<path d="M155.276 149.163C155.072 149.347 154.774 149.45 154.38 149.471V150.066H154.122V149.476C153.87 149.462 153.633 149.413 153.41 149.328C153.188 149.244 153.012 149.136 152.885 149.004L153.035 148.709C153.156 148.827 153.314 148.925 153.508 149.004C153.703 149.084 153.907 149.13 154.122 149.144V147.783C153.883 147.724 153.685 147.662 153.527 147.594C153.368 147.527 153.236 147.429 153.131 147.299C153.026 147.17 152.973 146.998 152.973 146.784C152.973 146.519 153.07 146.295 153.263 146.114C153.456 145.933 153.742 145.827 154.122 145.796V145.201H154.381V145.791C154.577 145.798 154.768 145.83 154.952 145.887C155.137 145.943 155.297 146.019 155.431 146.112L155.302 146.417C155.16 146.327 155.01 146.257 154.852 146.205C154.693 146.153 154.536 146.124 154.381 146.116V147.488C154.636 147.55 154.845 147.613 155.007 147.676C155.169 147.74 155.306 147.838 155.416 147.969C155.526 148.1 155.581 148.272 155.581 148.486C155.581 148.753 155.479 148.978 155.276 149.163ZM153.55 147.184C153.683 147.277 153.873 147.357 154.122 147.422V146.129C153.867 146.149 153.675 146.219 153.545 146.338C153.416 146.457 153.351 146.603 153.351 146.775C153.351 146.955 153.418 147.091 153.55 147.184ZM154.996 148.943C155.134 148.829 155.203 148.684 155.203 148.508C155.203 148.322 155.132 148.182 154.991 148.089C154.85 147.996 154.646 147.917 154.38 147.851V149.144C154.653 149.124 154.858 149.057 154.996 148.943Z" fill="#E0E0E0"/>
<path d="M158.457 149.163C158.254 149.347 157.955 149.45 157.562 149.471V150.066H157.303V149.476C157.051 149.462 156.814 149.413 156.592 149.328C156.369 149.244 156.194 149.136 156.066 149.004L156.216 148.709C156.337 148.827 156.495 148.925 156.69 149.004C156.885 149.084 157.089 149.13 157.303 149.144V147.783C157.065 147.724 156.867 147.662 156.708 147.594C156.55 147.527 156.418 147.429 156.312 147.299C156.207 147.17 156.155 146.998 156.155 146.784C156.155 146.519 156.251 146.295 156.445 146.114C156.638 145.933 156.924 145.827 157.304 145.796V145.201H157.562V145.791C157.759 145.798 157.949 145.83 158.134 145.887C158.319 145.943 158.479 146.019 158.613 146.112L158.484 146.417C158.342 146.327 158.192 146.257 158.034 146.205C157.875 146.153 157.718 146.124 157.563 146.116V147.488C157.818 147.55 158.027 147.613 158.189 147.676C158.351 147.74 158.488 147.838 158.598 147.969C158.708 148.1 158.763 148.272 158.763 148.486C158.762 148.753 158.66 148.978 158.457 149.163ZM156.731 147.184C156.864 147.277 157.055 147.357 157.303 147.422V146.129C157.048 146.149 156.855 146.219 156.726 146.338C156.597 146.457 156.532 146.603 156.532 146.775C156.532 146.955 156.599 147.091 156.731 147.184ZM158.177 148.943C158.315 148.829 158.384 148.684 158.384 148.508C158.384 148.322 158.313 148.182 158.172 148.089C158.031 147.996 157.827 147.917 157.561 147.851V149.144C157.834 149.124 158.04 149.057 158.177 148.943Z" fill="#E0E0E0"/>
<path d="M99.1069 198.517C100.084 198.517 100.876 197.725 100.876 196.748C100.876 195.771 100.084 194.979 99.1069 194.979C98.1299 194.979 97.3379 195.771 97.3379 196.748C97.3379 197.725 98.1299 198.517 99.1069 198.517Z" fill="#455A64"/>
<path d="M141.164 197.892H105.916C105.284 197.892 104.771 197.379 104.771 196.747C104.771 196.114 105.284 195.602 105.916 195.602H141.164C141.796 195.602 142.309 196.114 142.309 196.747C142.309 197.379 141.796 197.892 141.164 197.892Z" fill="#E0E0E0"/>
<path d="M149.199 197.568C149.617 197.568 150.035 197.568 150.452 197.568C150.616 197.568 150.772 197.424 150.765 197.256C150.757 197.086 150.627 196.943 150.452 196.943C150.035 196.943 149.617 196.943 149.199 196.943C149.036 196.943 148.879 197.087 148.887 197.256C148.895 197.425 149.024 197.568 149.199 197.568Z" fill="#E0E0E0"/>
<path d="M155.276 198.216C155.072 198.4 154.774 198.503 154.38 198.524V199.119H154.122V198.529C153.87 198.515 153.633 198.466 153.41 198.381C153.188 198.297 153.012 198.189 152.885 198.057L153.035 197.762C153.156 197.88 153.314 197.978 153.508 198.057C153.703 198.137 153.907 198.183 154.122 198.197V196.836C153.883 196.777 153.685 196.715 153.527 196.647C153.368 196.58 153.236 196.482 153.131 196.352C153.026 196.223 152.973 196.051 152.973 195.837C152.973 195.572 153.07 195.348 153.263 195.167C153.456 194.986 153.742 194.88 154.122 194.849V194.254H154.381V194.844C154.577 194.851 154.768 194.882 154.952 194.939C155.137 194.996 155.297 195.071 155.431 195.164L155.302 195.469C155.16 195.379 155.01 195.309 154.852 195.257C154.693 195.206 154.536 195.176 154.381 195.169V196.54C154.636 196.602 154.845 196.665 155.007 196.729C155.169 196.793 155.306 196.89 155.416 197.021C155.526 197.153 155.581 197.325 155.581 197.539C155.581 197.807 155.479 198.032 155.276 198.216ZM153.55 196.237C153.683 196.33 153.873 196.41 154.122 196.475V195.182C153.867 195.202 153.675 195.272 153.545 195.391C153.416 195.51 153.351 195.656 153.351 195.828C153.351 196.008 153.418 196.144 153.55 196.237ZM154.996 197.996C155.134 197.882 155.203 197.737 155.203 197.562C155.203 197.376 155.132 197.236 154.991 197.143C154.85 197.05 154.646 196.97 154.38 196.904V198.198C154.653 198.177 154.858 198.11 154.996 197.996Z" fill="#E0E0E0"/>
<path d="M158.457 198.216C158.254 198.4 157.955 198.503 157.562 198.524V199.119H157.303V198.529C157.051 198.515 156.814 198.466 156.592 198.381C156.369 198.297 156.194 198.189 156.066 198.057L156.216 197.762C156.337 197.88 156.495 197.978 156.69 198.057C156.885 198.137 157.089 198.183 157.303 198.197V196.836C157.065 196.777 156.867 196.715 156.708 196.647C156.55 196.58 156.418 196.482 156.312 196.352C156.207 196.223 156.155 196.051 156.155 195.837C156.155 195.572 156.251 195.348 156.445 195.167C156.638 194.986 156.924 194.88 157.304 194.849V194.254H157.562V194.844C157.759 194.851 157.949 194.882 158.134 194.939C158.319 194.996 158.479 195.071 158.613 195.164L158.484 195.469C158.342 195.379 158.192 195.309 158.034 195.257C157.875 195.206 157.718 195.176 157.563 195.169V196.54C157.818 196.602 158.027 196.665 158.189 196.729C158.351 196.793 158.488 196.89 158.598 197.021C158.708 197.153 158.763 197.325 158.763 197.539C158.762 197.807 158.66 198.032 158.457 198.216ZM156.731 196.237C156.864 196.33 157.055 196.41 157.303 196.475V195.182C157.048 195.202 156.855 195.272 156.726 195.391C156.597 195.51 156.532 195.656 156.532 195.828C156.532 196.008 156.599 196.144 156.731 196.237ZM158.177 197.996C158.315 197.882 158.384 197.737 158.384 197.562C158.384 197.376 158.313 197.236 158.172 197.143C158.031 197.05 157.827 196.97 157.561 196.904V198.198C157.834 198.177 158.04 198.11 158.177 197.996Z" fill="#E0E0E0"/>
<path d="M100.876 172.404C100.876 173.381 100.084 174.173 99.1069 174.173C98.1299 174.173 97.3379 173.381 97.3379 172.404C97.3379 171.427 98.1299 170.635 99.1069 170.635C100.084 170.635 100.876 171.427 100.876 172.404Z" fill="#455A64"/>
<path d="M141.164 173.548H105.916C105.284 173.548 104.771 173.035 104.771 172.403C104.771 171.77 105.284 171.258 105.916 171.258H141.164C141.796 171.258 142.309 171.77 142.309 172.403C142.309 173.035 141.796 173.548 141.164 173.548Z" fill="#E0E0E0"/>
<path d="M149.199 173.225C149.617 173.225 150.035 173.225 150.452 173.225C150.616 173.225 150.772 173.081 150.765 172.912C150.757 172.743 150.627 172.6 150.452 172.6C150.035 172.6 149.617 172.6 149.199 172.6C149.036 172.6 148.879 172.744 148.887 172.912C148.895 173.081 149.024 173.225 149.199 173.225Z" fill="#E0E0E0"/>
<path d="M155.276 173.872C155.072 174.056 154.774 174.159 154.38 174.18V174.775H154.122V174.185C153.87 174.171 153.633 174.122 153.41 174.037C153.188 173.953 153.012 173.845 152.885 173.714L153.035 173.419C153.156 173.536 153.314 173.635 153.508 173.714C153.703 173.793 153.907 173.84 154.122 173.853V172.493C153.883 172.434 153.685 172.371 153.527 172.304C153.368 172.236 153.236 172.138 153.131 172.009C153.026 171.879 152.973 171.708 152.973 171.494C152.973 171.229 153.07 171.005 153.263 170.824C153.456 170.643 153.742 170.537 154.122 170.505V169.91H154.381V170.5C154.577 170.507 154.768 170.539 154.952 170.596C155.137 170.652 155.297 170.728 155.431 170.821L155.302 171.126C155.16 171.036 155.01 170.966 154.852 170.914C154.693 170.862 154.536 170.833 154.381 170.825V172.197C154.636 172.259 154.845 172.322 155.007 172.385C155.169 172.449 155.306 172.547 155.416 172.678C155.526 172.809 155.581 172.982 155.581 173.195C155.581 173.463 155.479 173.688 155.276 173.872ZM153.55 171.893C153.683 171.986 153.873 172.066 154.122 172.131V170.838C153.867 170.858 153.675 170.928 153.545 171.047C153.416 171.166 153.351 171.312 153.351 171.484C153.351 171.664 153.418 171.8 153.55 171.893ZM154.996 173.652C155.134 173.538 155.203 173.393 155.203 173.218C155.203 173.032 155.132 172.892 154.991 172.799C154.85 172.705 154.646 172.626 154.38 172.56V173.854C154.653 173.833 154.858 173.766 154.996 173.652Z" fill="#E0E0E0"/>
<path d="M158.457 173.872C158.254 174.056 157.955 174.159 157.562 174.18V174.775H157.303V174.185C157.051 174.171 156.814 174.122 156.592 174.037C156.369 173.953 156.194 173.845 156.066 173.714L156.216 173.419C156.337 173.536 156.495 173.635 156.69 173.714C156.885 173.793 157.089 173.84 157.303 173.853V172.493C157.065 172.434 156.867 172.371 156.708 172.304C156.55 172.236 156.418 172.138 156.312 172.009C156.207 171.879 156.155 171.708 156.155 171.494C156.155 171.229 156.251 171.005 156.445 170.824C156.638 170.643 156.924 170.537 157.304 170.505V169.91H157.562V170.5C157.759 170.507 157.949 170.539 158.134 170.596C158.319 170.652 158.479 170.728 158.613 170.821L158.484 171.126C158.342 171.036 158.192 170.966 158.034 170.914C157.875 170.862 157.718 170.833 157.563 170.825V172.197C157.818 172.259 158.027 172.322 158.189 172.385C158.351 172.449 158.488 172.547 158.598 172.678C158.708 172.809 158.763 172.982 158.763 173.195C158.762 173.463 158.66 173.688 158.457 173.872ZM156.731 171.893C156.864 171.986 157.055 172.066 157.303 172.131V170.838C157.048 170.858 156.855 170.928 156.726 171.047C156.597 171.166 156.532 171.312 156.532 171.484C156.532 171.664 156.599 171.8 156.731 171.893ZM158.177 173.652C158.315 173.538 158.384 173.393 158.384 173.218C158.384 173.032 158.313 172.892 158.172 172.799C158.031 172.705 157.827 172.626 157.561 172.56V173.854C157.834 173.833 158.04 173.766 158.177 173.652Z" fill="#E0E0E0"/>
<path d="M100.876 164.234C100.876 165.211 100.084 166.003 99.1069 166.003C98.1299 166.003 97.3379 165.211 97.3379 164.234C97.3379 163.257 98.1299 162.465 99.1069 162.465C100.084 162.464 100.876 163.257 100.876 164.234Z" fill="#FF725E"/>
<path d="M141.164 165.378H105.916C105.284 165.378 104.771 164.865 104.771 164.233C104.771 163.601 105.284 163.088 105.916 163.088H141.164C141.796 163.088 142.309 163.6 142.309 164.233C142.309 164.865 141.796 165.378 141.164 165.378Z" fill="#E0E0E0"/>
<path d="M148.483 164.744C148.9 164.744 149.318 164.744 149.736 164.744C149.899 164.744 150.056 164.6 150.048 164.432C150.041 164.262 149.911 164.119 149.736 164.119C149.318 164.119 148.9 164.119 148.483 164.119C148.319 164.119 148.163 164.263 148.17 164.432C148.178 164.601 148.308 164.744 148.483 164.744Z" fill="#E0E0E0"/>
<path d="M149.422 165.058C149.422 164.64 149.422 164.222 149.422 163.805C149.422 163.641 149.278 163.485 149.109 163.492C148.94 163.5 148.797 163.63 148.797 163.805C148.797 164.223 148.797 164.64 148.797 165.058C148.797 165.221 148.94 165.378 149.109 165.37C149.279 165.362 149.422 165.233 149.422 165.058Z" fill="#E0E0E0"/>
<path d="M154.559 165.393C154.355 165.577 154.057 165.68 153.663 165.701V166.296H153.405V165.706C153.153 165.692 152.916 165.643 152.693 165.558C152.471 165.474 152.295 165.366 152.168 165.235L152.318 164.94C152.439 165.057 152.597 165.156 152.791 165.235C152.986 165.314 153.19 165.361 153.405 165.374V164.014C153.166 163.955 152.968 163.892 152.81 163.825C152.651 163.757 152.519 163.659 152.414 163.53C152.309 163.4 152.256 163.229 152.256 163.015C152.256 162.75 152.353 162.526 152.546 162.345C152.739 162.164 153.025 162.058 153.405 162.026V161.432H153.664V162.022C153.86 162.029 154.051 162.06 154.235 162.117C154.42 162.174 154.58 162.249 154.714 162.342L154.585 162.647C154.443 162.557 154.293 162.487 154.135 162.435C153.976 162.384 153.819 162.354 153.664 162.347V163.718C153.919 163.78 154.128 163.843 154.29 163.907C154.452 163.971 154.589 164.068 154.699 164.199C154.809 164.331 154.864 164.503 154.864 164.717C154.864 164.984 154.762 165.209 154.559 165.393ZM152.833 163.414C152.966 163.507 153.156 163.587 153.405 163.653V162.359C153.15 162.38 152.957 162.45 152.828 162.569C152.699 162.688 152.634 162.833 152.634 163.006C152.634 163.185 152.7 163.321 152.833 163.414ZM154.279 165.173C154.417 165.059 154.486 164.915 154.486 164.739C154.486 164.553 154.415 164.413 154.274 164.32C154.132 164.227 153.929 164.147 153.663 164.081V165.375C153.936 165.354 154.141 165.287 154.279 165.173Z" fill="#E0E0E0"/>
<path d="M157.741 165.393C157.537 165.577 157.239 165.68 156.845 165.701V166.296H156.587V165.706C156.335 165.692 156.098 165.643 155.875 165.558C155.653 165.474 155.477 165.366 155.35 165.235L155.5 164.94C155.621 165.057 155.779 165.156 155.973 165.235C156.168 165.314 156.372 165.361 156.587 165.374V164.014C156.348 163.955 156.15 163.892 155.992 163.825C155.833 163.757 155.701 163.659 155.596 163.53C155.491 163.4 155.438 163.229 155.438 163.015C155.438 162.75 155.535 162.526 155.728 162.345C155.921 162.164 156.207 162.058 156.587 162.026V161.432H156.846V162.022C157.043 162.029 157.233 162.06 157.418 162.117C157.602 162.174 157.762 162.249 157.897 162.342L157.767 162.647C157.626 162.557 157.476 162.487 157.317 162.435C157.159 162.384 157.001 162.354 156.846 162.347V163.718C157.102 163.78 157.31 163.843 157.473 163.907C157.635 163.971 157.771 164.068 157.881 164.199C157.992 164.331 158.047 164.503 158.047 164.717C158.046 164.984 157.944 165.209 157.741 165.393ZM156.015 163.414C156.148 163.507 156.339 163.587 156.587 163.653V162.359C156.331 162.38 156.139 162.45 156.01 162.569C155.881 162.688 155.816 162.833 155.816 163.006C155.816 163.185 155.882 163.321 156.015 163.414ZM157.461 165.173C157.599 165.059 157.668 164.915 157.668 164.739C157.668 164.553 157.597 164.413 157.456 164.32C157.314 164.227 157.111 164.147 156.845 164.081V165.375C157.118 165.354 157.323 165.287 157.461 165.173Z" fill="#E0E0E0"/>
<path d="M160.922 165.393C160.719 165.577 160.42 165.68 160.027 165.701V166.296H159.768V165.706C159.516 165.692 159.279 165.643 159.057 165.558C158.834 165.474 158.659 165.366 158.531 165.235L158.681 164.94C158.802 165.057 158.96 165.156 159.155 165.235C159.35 165.314 159.554 165.361 159.768 165.374V164.014C159.53 163.955 159.332 163.892 159.173 163.825C159.015 163.757 158.883 163.659 158.777 163.53C158.672 163.4 158.62 163.229 158.62 163.015C158.62 162.75 158.716 162.526 158.91 162.345C159.103 162.164 159.389 162.058 159.769 162.026V161.432H160.027V162.022C160.224 162.029 160.414 162.06 160.599 162.117C160.784 162.174 160.943 162.249 161.078 162.342L160.949 162.647C160.807 162.557 160.657 162.487 160.499 162.435C160.34 162.384 160.183 162.354 160.028 162.347V163.718C160.283 163.78 160.492 163.843 160.654 163.907C160.816 163.971 160.953 164.068 161.063 164.199C161.173 164.331 161.228 164.503 161.228 164.717C161.228 164.984 161.126 165.209 160.922 165.393ZM159.197 163.414C159.33 163.507 159.52 163.587 159.768 163.653V162.359C159.513 162.38 159.32 162.45 159.191 162.569C159.062 162.688 158.997 162.833 158.997 163.006C158.998 163.185 159.064 163.321 159.197 163.414ZM160.643 165.173C160.781 165.059 160.85 164.915 160.85 164.739C160.85 164.553 160.779 164.413 160.638 164.32C160.496 164.227 160.293 164.147 160.027 164.081V165.375C160.299 165.354 160.505 165.287 160.643 165.173Z" fill="#E0E0E0"/>
<path d="M99.1069 182.962C100.084 182.962 100.876 182.17 100.876 181.193C100.876 180.216 100.084 179.424 99.1069 179.424C98.1299 179.424 97.3379 180.216 97.3379 181.193C97.3379 182.17 98.1299 182.962 99.1069 182.962Z" fill="#FF725E"/>
<path d="M141.164 182.337H105.916C105.284 182.337 104.771 181.824 104.771 181.192C104.771 180.559 105.284 180.047 105.916 180.047H141.164C141.796 180.047 142.309 180.559 142.309 181.192C142.309 181.824 141.796 182.337 141.164 182.337Z" fill="#E0E0E0"/>
<path d="M148.483 181.705C148.9 181.705 149.318 181.705 149.736 181.705C149.899 181.705 150.056 181.562 150.048 181.393C150.041 181.223 149.911 181.08 149.736 181.08C149.318 181.08 148.9 181.08 148.483 181.08C148.319 181.08 148.163 181.224 148.17 181.393C148.178 181.562 148.308 181.705 148.483 181.705Z" fill="#E0E0E0"/>
<path d="M149.422 182.019C149.422 181.601 149.422 181.183 149.422 180.766C149.422 180.602 149.278 180.446 149.109 180.453C148.94 180.461 148.797 180.591 148.797 180.766C148.797 181.184 148.797 181.601 148.797 182.019C148.797 182.182 148.94 182.339 149.109 182.331C149.279 182.324 149.422 182.194 149.422 182.019Z" fill="#E0E0E0"/>
<path d="M154.559 182.354C154.355 182.538 154.057 182.641 153.663 182.662V183.257H153.405V182.667C153.153 182.653 152.916 182.604 152.693 182.519C152.471 182.435 152.295 182.327 152.168 182.196L152.318 181.901C152.439 182.018 152.597 182.117 152.791 182.196C152.986 182.275 153.19 182.322 153.405 182.335V180.975C153.166 180.916 152.968 180.853 152.81 180.786C152.651 180.718 152.519 180.62 152.414 180.491C152.309 180.361 152.256 180.19 152.256 179.976C152.256 179.711 152.353 179.487 152.546 179.306C152.739 179.125 153.025 179.019 153.405 178.987V178.393H153.664V178.983C153.86 178.99 154.051 179.021 154.235 179.078C154.42 179.135 154.58 179.21 154.714 179.303L154.585 179.608C154.443 179.518 154.293 179.448 154.135 179.396C153.976 179.345 153.819 179.315 153.664 179.308V180.679C153.919 180.741 154.128 180.804 154.29 180.868C154.452 180.932 154.589 181.029 154.699 181.16C154.809 181.292 154.864 181.464 154.864 181.678C154.864 181.945 154.762 182.17 154.559 182.354ZM152.833 180.375C152.966 180.468 153.156 180.548 153.405 180.613V179.32C153.15 179.34 152.957 179.41 152.828 179.529C152.699 179.648 152.634 179.794 152.634 179.966C152.634 180.146 152.7 180.282 152.833 180.375ZM154.279 182.134C154.417 182.02 154.486 181.876 154.486 181.7C154.486 181.514 154.415 181.374 154.274 181.281C154.132 181.188 153.929 181.108 153.663 181.042V182.336C153.936 182.315 154.141 182.248 154.279 182.134Z" fill="#E0E0E0"/>
<path d="M157.741 182.354C157.537 182.538 157.239 182.641 156.845 182.662V183.257H156.587V182.667C156.335 182.653 156.098 182.604 155.875 182.519C155.653 182.435 155.477 182.327 155.35 182.196L155.5 181.901C155.621 182.018 155.779 182.117 155.973 182.196C156.168 182.275 156.372 182.322 156.587 182.335V180.975C156.348 180.916 156.15 180.853 155.992 180.786C155.833 180.718 155.701 180.62 155.596 180.491C155.491 180.361 155.438 180.19 155.438 179.976C155.438 179.711 155.535 179.487 155.728 179.306C155.921 179.125 156.207 179.019 156.587 178.987V178.393H156.846V178.983C157.043 178.99 157.233 179.021 157.418 179.078C157.602 179.135 157.762 179.21 157.897 179.303L157.767 179.608C157.626 179.518 157.476 179.448 157.317 179.396C157.159 179.345 157.001 179.315 156.846 179.308V180.679C157.102 180.741 157.31 180.804 157.473 180.868C157.635 180.932 157.771 181.029 157.881 181.16C157.992 181.292 158.047 181.464 158.047 181.678C158.046 181.945 157.944 182.17 157.741 182.354ZM156.015 180.375C156.148 180.468 156.339 180.548 156.587 180.613V179.32C156.331 179.34 156.139 179.41 156.01 179.529C155.881 179.648 155.816 179.794 155.816 179.966C155.816 180.146 155.882 180.282 156.015 180.375ZM157.461 182.134C157.599 182.02 157.668 181.876 157.668 181.7C157.668 181.514 157.597 181.374 157.456 181.281C157.314 181.188 157.111 181.108 156.845 181.042V182.336C157.118 182.315 157.323 182.248 157.461 182.134Z" fill="#E0E0E0"/>
<path d="M160.922 182.354C160.719 182.538 160.42 182.641 160.027 182.662V183.257H159.768V182.667C159.516 182.653 159.279 182.604 159.057 182.519C158.834 182.435 158.659 182.327 158.531 182.196L158.681 181.901C158.802 182.018 158.96 182.117 159.155 182.196C159.35 182.275 159.554 182.322 159.768 182.335V180.975C159.53 180.916 159.332 180.853 159.173 180.786C159.015 180.718 158.883 180.62 158.777 180.491C158.672 180.361 158.62 180.19 158.62 179.976C158.62 179.711 158.716 179.487 158.91 179.306C159.103 179.125 159.389 179.019 159.769 178.987V178.393H160.027V178.983C160.224 178.99 160.414 179.021 160.599 179.078C160.784 179.135 160.943 179.21 161.078 179.303L160.949 179.608C160.807 179.518 160.657 179.448 160.499 179.396C160.34 179.345 160.183 179.315 160.028 179.308V180.679C160.283 180.741 160.492 180.804 160.654 180.868C160.816 180.932 160.953 181.029 161.063 181.16C161.173 181.292 161.228 181.464 161.228 181.678C161.228 181.945 161.126 182.17 160.922 182.354ZM159.197 180.375C159.33 180.468 159.52 180.548 159.768 180.613V179.32C159.513 179.34 159.32 179.41 159.191 179.529C159.062 179.648 158.997 179.794 158.997 179.966C158.998 180.146 159.064 180.282 159.197 180.375ZM160.643 182.134C160.781 182.02 160.85 181.876 160.85 181.7C160.85 181.514 160.779 181.374 160.638 181.281C160.496 181.188 160.293 181.108 160.027 181.042V182.336C160.299 182.315 160.505 182.248 160.643 182.134Z" fill="#E0E0E0"/>
<path d="M99.1069 190.265C100.084 190.265 100.876 189.473 100.876 188.496C100.876 187.519 100.084 186.727 99.1069 186.727C98.1299 186.727 97.3379 187.519 97.3379 188.496C97.3379 189.473 98.1299 190.265 99.1069 190.265Z" fill="#FF725E"/>
<path d="M141.164 189.64H105.916C105.284 189.64 104.771 189.127 104.771 188.495C104.771 187.862 105.284 187.35 105.916 187.35H141.164C141.796 187.35 142.309 187.862 142.309 188.495C142.309 189.127 141.796 189.64 141.164 189.64Z" fill="#E0E0E0"/>
<path d="M148.483 189.008C148.9 189.008 149.318 189.008 149.736 189.008C149.899 189.008 150.056 188.864 150.048 188.695C150.041 188.526 149.911 188.383 149.736 188.383C149.318 188.383 148.9 188.383 148.483 188.383C148.319 188.383 148.163 188.527 148.17 188.695C148.178 188.864 148.308 189.008 148.483 189.008Z" fill="#E0E0E0"/>
<path d="M149.422 189.322C149.422 188.904 149.422 188.486 149.422 188.069C149.422 187.905 149.278 187.749 149.109 187.756C148.94 187.764 148.797 187.894 148.797 188.069C148.797 188.487 148.797 188.904 148.797 189.322C148.797 189.485 148.94 189.642 149.109 189.634C149.279 189.627 149.422 189.497 149.422 189.322Z" fill="#E0E0E0"/>
<path d="M154.559 189.655C154.355 189.839 154.057 189.942 153.663 189.963V190.558H153.405V189.968C153.153 189.954 152.916 189.905 152.693 189.82C152.471 189.736 152.295 189.628 152.168 189.497L152.318 189.202C152.439 189.319 152.597 189.418 152.791 189.497C152.986 189.576 153.19 189.623 153.405 189.636V188.276C153.166 188.217 152.968 188.154 152.81 188.087C152.651 188.019 152.519 187.921 152.414 187.792C152.309 187.662 152.256 187.491 152.256 187.277C152.256 187.012 152.353 186.788 152.546 186.607C152.739 186.426 153.025 186.32 153.405 186.288V185.693H153.664V186.283C153.86 186.29 154.051 186.322 154.235 186.379C154.42 186.435 154.58 186.511 154.714 186.604L154.585 186.909C154.443 186.819 154.293 186.749 154.135 186.697C153.976 186.645 153.819 186.616 153.664 186.608V187.98C153.919 188.042 154.128 188.105 154.29 188.168C154.452 188.232 154.589 188.33 154.699 188.461C154.809 188.592 154.864 188.764 154.864 188.978C154.864 189.246 154.762 189.471 154.559 189.655ZM152.833 187.676C152.966 187.769 153.156 187.849 153.405 187.914V186.621C153.15 186.641 152.957 186.711 152.828 186.83C152.699 186.949 152.634 187.095 152.634 187.267C152.634 187.447 152.7 187.583 152.833 187.676ZM154.279 189.435C154.417 189.321 154.486 189.176 154.486 189.001C154.486 188.815 154.415 188.675 154.274 188.582C154.132 188.488 153.929 188.409 153.663 188.343V189.637C153.936 189.616 154.141 189.549 154.279 189.435Z" fill="#E0E0E0"/>
<path d="M99.1069 207.005C100.084 207.005 100.876 206.213 100.876 205.236C100.876 204.259 100.084 203.467 99.1069 203.467C98.1299 203.467 97.3379 204.259 97.3379 205.236C97.3379 206.213 98.1299 207.005 99.1069 207.005Z" fill="#FF725E"/>
<path d="M141.164 206.38H105.916C105.284 206.38 104.771 205.867 104.771 205.235C104.771 204.602 105.284 204.09 105.916 204.09H141.164C141.796 204.09 142.309 204.602 142.309 205.235C142.309 205.867 141.796 206.38 141.164 206.38Z" fill="#E0E0E0"/>
<path d="M148.483 205.748C148.9 205.748 149.318 205.748 149.736 205.748C149.899 205.748 150.056 205.604 150.048 205.436C150.041 205.266 149.911 205.123 149.736 205.123C149.318 205.123 148.9 205.123 148.483 205.123C148.319 205.123 148.163 205.267 148.17 205.436C148.178 205.605 148.308 205.748 148.483 205.748Z" fill="#E0E0E0"/>
<path d="M149.422 206.062C149.422 205.644 149.422 205.226 149.422 204.809C149.422 204.645 149.278 204.489 149.109 204.496C148.94 204.504 148.797 204.634 148.797 204.809C148.797 205.226 148.797 205.644 148.797 206.062C148.797 206.225 148.94 206.382 149.109 206.374C149.279 206.367 149.422 206.237 149.422 206.062Z" fill="#E0E0E0"/>
<path d="M154.559 206.395C154.355 206.58 154.057 206.683 153.663 206.703V207.298H153.405V206.708C153.153 206.694 152.916 206.645 152.693 206.561C152.471 206.476 152.295 206.368 152.168 206.237L152.318 205.942C152.439 206.06 152.597 206.158 152.791 206.237C152.986 206.317 153.19 206.363 153.405 206.377V205.016C153.166 204.957 152.968 204.895 152.81 204.827C152.651 204.76 152.519 204.662 152.414 204.532C152.309 204.403 152.256 204.231 152.256 204.017C152.256 203.752 152.353 203.528 152.546 203.347C152.739 203.166 153.025 203.06 153.405 203.029V202.434H153.664V203.024C153.86 203.031 154.051 203.062 154.235 203.119C154.42 203.176 154.58 203.251 154.714 203.344L154.585 203.649C154.443 203.559 154.293 203.489 154.135 203.437C153.976 203.385 153.819 203.356 153.664 203.349V204.72C153.919 204.782 154.128 204.845 154.29 204.909C154.452 204.973 154.589 205.07 154.699 205.201C154.809 205.333 154.864 205.505 154.864 205.719C154.864 205.986 154.762 206.211 154.559 206.395ZM152.833 204.416C152.966 204.509 153.156 204.589 153.405 204.655V203.361C153.15 203.382 152.957 203.452 152.828 203.571C152.699 203.69 152.634 203.835 152.634 204.008C152.634 204.187 152.7 204.324 152.833 204.416ZM154.279 206.176C154.417 206.062 154.486 205.917 154.486 205.741C154.486 205.555 154.415 205.415 154.274 205.322C154.132 205.229 153.929 205.15 153.663 205.084V206.377C153.936 206.357 154.141 206.29 154.279 206.176Z" fill="#E0E0E0"/>
<path d="M149.199 156.225C149.617 156.225 150.035 156.225 150.452 156.225C150.616 156.225 150.772 156.081 150.765 155.912C150.757 155.743 150.627 155.6 150.452 155.6C150.035 155.6 149.617 155.6 149.199 155.6C149.036 155.6 148.879 155.744 148.887 155.912C148.895 156.082 149.024 156.225 149.199 156.225Z" fill="#E0E0E0"/>
<path d="M155.276 156.874C155.072 157.058 154.774 157.161 154.38 157.182V157.777H154.122V157.187C153.87 157.173 153.633 157.124 153.41 157.039C153.188 156.955 153.012 156.847 152.885 156.715L153.035 156.42C153.156 156.538 153.314 156.636 153.508 156.715C153.703 156.795 153.907 156.841 154.122 156.855V155.494C153.883 155.435 153.685 155.373 153.527 155.305C153.368 155.238 153.236 155.14 153.131 155.01C153.026 154.881 152.973 154.709 152.973 154.495C152.973 154.23 153.07 154.006 153.263 153.825C153.456 153.644 153.742 153.538 154.122 153.507V152.912H154.381V153.502C154.577 153.509 154.768 153.541 154.952 153.598C155.137 153.654 155.297 153.73 155.431 153.823L155.302 154.128C155.16 154.038 155.01 153.968 154.852 153.916C154.693 153.864 154.536 153.835 154.381 153.827V155.199C154.636 155.261 154.845 155.324 155.007 155.387C155.169 155.451 155.306 155.549 155.416 155.68C155.526 155.811 155.581 155.983 155.581 156.197C155.581 156.464 155.479 156.689 155.276 156.874ZM153.55 154.894C153.683 154.988 153.873 155.067 154.122 155.133V153.839C153.867 153.86 153.675 153.93 153.545 154.049C153.416 154.168 153.351 154.313 153.351 154.486C153.351 154.665 153.418 154.802 153.55 154.894ZM154.996 156.654C155.134 156.54 155.203 156.395 155.203 156.219C155.203 156.033 155.132 155.893 154.991 155.8C154.85 155.707 154.646 155.628 154.38 155.562V156.855C154.653 156.835 154.858 156.768 154.996 156.654Z" fill="#E0E0E0"/>
<path d="M133.068 217.034C133.544 215.011 132.29 212.986 130.268 212.51C128.245 212.035 126.22 213.288 125.744 215.311C125.269 217.333 126.522 219.358 128.545 219.834C130.567 220.31 132.592 219.056 133.068 217.034Z" fill="#F5F5F5"/>
<path d="M132.765 79.7228H96.71C95.9955 79.7228 95.416 79.1438 95.416 78.4288C95.416 77.7143 95.995 77.1348 96.71 77.1348H132.765C133.479 77.1348 134.059 77.7143 134.059 78.4288C134.058 79.1438 133.479 79.7228 132.765 79.7228Z" fill="#E0E0E0"/>
<path d="M149.306 66.2345H113.251C112.537 66.2345 111.957 65.6555 111.957 64.9405C111.957 64.226 112.536 63.6465 113.251 63.6465H149.306C150.02 63.6465 150.6 64.226 150.6 64.9405C150.599 65.6555 150.02 66.2345 149.306 66.2345Z" fill="#E0E0E0"/>
<path d="M125.733 136.384H98.0047C97.3407 136.384 96.8027 135.846 96.8027 135.182C96.8027 134.518 97.3407 133.98 98.0047 133.98H125.733C126.397 133.98 126.935 134.518 126.935 135.182C126.935 135.846 126.397 136.384 125.733 136.384Z" fill="#FF725E"/>
<path d="M100.882 71.216C104.313 71.216 107.095 68.4346 107.095 65.0035C107.095 61.5724 104.313 58.791 100.882 58.791C97.4514 58.791 94.6699 61.5724 94.6699 65.0035C94.6699 68.4346 97.4514 71.216 100.882 71.216Z" fill="#E0E0E0"/>
<path d="M100.882 64.9408C101.669 64.9408 102.306 64.3034 102.306 63.5173C102.306 62.7311 101.669 62.0938 100.882 62.0938C100.096 62.0938 99.459 62.7311 99.459 63.5173C99.459 64.3034 100.096 64.9408 100.882 64.9408Z" fill="white"/>
<path d="M97.709 67.9149H104.055C104.055 67.9149 103.539 65.5254 100.845 65.5254C98.381 65.5259 97.709 67.9149 97.709 67.9149Z" fill="white"/>
<g opacity="0.2">
<path d="M156.172 74.458H175.963V56.1035C175.963 48.143 169.509 41.6895 161.549 41.6895H149.451V67.737C149.452 71.4485 152.461 74.458 156.172 74.458Z" fill="black"/>
</g>
<path d="M187.151 70.0894H156.536C153.788 70.0894 151.561 67.8619 151.561 65.1139V34.4989C151.561 31.7509 153.788 29.5234 156.536 29.5234H187.151C189.899 29.5234 192.126 31.7509 192.126 34.4989V65.1134C192.126 67.8619 189.899 70.0894 187.151 70.0894Z" fill="#FF725E"/>
<path d="M171.844 36.6953L160.445 44.0993V45.5743L183.243 45.6438V44.0993L171.844 36.6953Z" fill="white"/>
<path d="M164.94 46.3477H160.625V47.0347H164.94V46.3477Z" fill="white"/>
<path d="M164.94 58.3457H160.625V59.0327H164.94V58.3457Z" fill="white"/>
<path d="M164.347 46.6914H161.219V58.6899H164.347V46.6914Z" fill="white"/>
<path d="M173.938 46.3477H169.623V47.0347H173.938V46.3477Z" fill="white"/>
<path d="M173.938 58.3457H169.623V59.0327H173.938V58.3457Z" fill="white"/>
<path d="M173.345 46.6914H170.217V58.6899H173.345V46.6914Z" fill="white"/>
<path d="M183.243 46.3477H178.928V47.0347H183.243V46.3477Z" fill="white"/>
<path d="M183.243 58.3457H178.928V59.0327H183.243V58.3457Z" fill="white"/>
<path d="M182.65 46.6914H179.521V58.6899H182.65V46.6914Z" fill="white"/>
<path d="M184.456 59.7246H159.23V61.0396H184.456V59.7246Z" fill="white"/>
<path d="M186.245 61.6035H157.441V62.9185H186.245V61.6035Z" fill="white"/>
<path d="M171.781 42.6473C172.78 42.6473 173.591 41.837 173.591 40.8373C173.591 39.8377 172.78 39.0273 171.781 39.0273C170.781 39.0273 169.971 39.8377 169.971 40.8373C169.971 41.837 170.781 42.6473 171.781 42.6473Z" fill="#E0E0E0"/>
<path d="M165.054 47.0304C165.054 47.1024 164.064 47.1604 162.842 47.1604C161.621 47.1604 160.631 47.1019 160.631 47.0304C160.631 46.9584 161.621 46.9004 162.842 46.9004C164.063 46.8999 165.054 46.9584 165.054 47.0304Z" fill="#263238"/>
<path d="M174.041 47.0304C174.041 47.1024 173.05 47.1604 171.829 47.1604C170.608 47.1604 169.617 47.1019 169.617 47.0304C169.617 46.9584 170.607 46.9004 171.829 46.9004C173.05 46.8999 174.041 46.9584 174.041 47.0304Z" fill="#263238"/>
<path d="M183.296 47.0304C183.296 47.1024 182.306 47.1604 181.085 47.1604C179.863 47.1604 178.873 47.1019 178.873 47.0304C178.873 46.9584 179.863 46.9004 181.085 46.9004C182.306 46.8999 183.296 46.9584 183.296 47.0304Z" fill="#263238"/>
<path d="M165.054 58.3214C165.054 58.3934 164.064 58.4514 162.842 58.4514C161.621 58.4514 160.631 58.3929 160.631 58.3214C160.631 58.2494 161.621 58.1914 162.842 58.1914C164.063 58.1914 165.054 58.2499 165.054 58.3214Z" fill="#263238"/>
<path d="M174.041 58.3214C174.041 58.3934 173.05 58.4514 171.829 58.4514C170.608 58.4514 169.617 58.3929 169.617 58.3214C169.617 58.2494 170.607 58.1914 171.829 58.1914C173.05 58.1914 174.041 58.2499 174.041 58.3214Z" fill="#263238"/>
<path d="M183.296 58.3214C183.296 58.3934 182.306 58.4514 181.085 58.4514C179.863 58.4514 178.873 58.3929 178.873 58.3214C178.873 58.2494 179.863 58.1914 181.085 58.1914C182.306 58.1914 183.296 58.2499 183.296 58.3214Z" fill="#263238"/>
<path d="M183.305 44.1183C183.305 44.1903 178.19 44.2483 171.883 44.2483C165.574 44.2483 160.461 44.1898 160.461 44.1183C160.461 44.0468 165.574 43.9883 171.883 43.9883C178.19 43.9883 183.305 44.0463 183.305 44.1183Z" fill="#263238"/>
<path d="M44.4727 95.9277L40.8302 95.4867C34.4007 99.7827 25.7057 98.0527 21.4097 91.6232C17.1137 85.1932 18.8437 76.4987 25.2732 72.2027C31.7027 67.9067 40.3977 69.6367 44.6937 76.0662C47.9322 80.9132 47.8287 87.2597 44.4337 91.9987L44.4727 95.9277Z" fill="white"/>
<path d="M44.472 95.9279C44.472 95.9279 44.472 95.8344 44.472 95.6579C44.472 95.4814 44.472 95.2279 44.472 94.8974C44.472 94.2254 44.439 93.2444 44.417 91.9934L44.4995 92.0319C44.4805 92.0519 44.449 92.0524 44.4295 92.0334L44.428 92.0319C44.415 92.0119 44.415 91.9859 44.428 91.9659C45.7415 90.1219 46.5835 87.9839 46.88 85.7394C47.0725 84.2729 47.0335 82.7854 46.7645 81.3314C46.4495 79.6799 45.839 78.0989 44.9625 76.6644C44.3415 75.4484 43.289 74.3079 41.188 72.6254C39.5605 71.4404 37.6895 70.6329 35.711 70.2614C33.6055 69.8704 31.439 69.9629 29.3745 70.5314C27.205 71.1374 25.2205 72.2739 23.5995 73.8374C22.7595 74.6199 22.0195 75.5024 21.3955 76.4659C21.1145 76.9564 20.8445 77.4414 20.58 77.9429L20.2495 78.7144L20.0895 79.0944L19.9625 79.4914C19.296 81.5489 19.108 83.7309 19.4115 85.8724C19.7 87.8859 20.438 89.8089 21.5715 91.4984C23.547 94.5094 26.612 96.6384 30.1235 97.4384L31.2805 97.6369C31.6605 97.6974 32.041 97.7029 32.3825 97.7414C33.095 97.7879 33.8105 97.7729 34.5205 97.6974C36.7655 97.4829 38.925 96.7264 40.813 95.4934H40.846L43.5295 95.8459L44.235 95.9449L44.483 95.9834H44.2515L43.557 95.9119L40.835 95.6144H40.868C38.979 96.8914 36.8045 97.6844 34.537 97.9234C33.818 98.0059 33.0935 98.0244 32.3715 97.9784C31.997 97.9454 31.6165 97.9399 31.231 97.8849L30.0575 97.6864C28.3805 97.3139 26.7855 96.6379 25.352 95.6919C23.758 94.6164 22.394 93.2339 21.3405 91.6254C20.185 89.9109 19.4315 87.9579 19.1365 85.9114C18.8215 83.7324 19.01 81.5099 19.6875 79.4149L19.814 79.0124L19.9795 78.6214C20.095 78.3624 20.2055 78.0704 20.3155 77.8389C20.5635 77.3209 20.8665 76.8304 21.142 76.3289C21.767 75.3509 22.507 74.4519 23.346 73.6509C24.9965 72.0674 27.015 70.9199 29.22 70.3119C31.3415 69.7144 33.572 69.6144 35.7385 70.0199C37.7515 70.3994 39.653 71.2264 41.304 72.4389C42.8295 73.5459 44.1215 74.9424 45.106 76.5494C45.993 78.0079 46.6075 79.6154 46.919 81.2939C47.182 82.7694 47.214 84.2774 47.0125 85.7629C46.6965 88.0274 45.8275 90.1789 44.4835 92.0279L44.4065 91.9619C44.4255 91.9419 44.457 91.9414 44.4765 91.9604L44.478 91.9619C44.483 91.9724 44.483 91.9844 44.478 91.9949V94.9319C44.478 95.2514 44.478 95.4829 44.478 95.6814C44.4775 95.8779 44.472 95.9279 44.472 95.9279Z" fill="#263238"/>
<path d="M26.9062 84.7097L28.6528 82.8362L32.2568 85.8282L38.8962 78.9902L40.6378 80.7422L32.1187 89.3327L26.9062 84.7097Z" fill="#FF725E"/>
<path d="M83.5107 210.764H39.5762V213.813H83.5107V210.764Z" fill="#AE7461"/>
<path d="M85.1865 191.258L88.3375 230.483H85.1865L80.627 191.258H85.1865Z" fill="#AE7461"/>
<path d="M91.8141 139.532C88.1456 134.837 82.5966 132.566 77.1641 131.142C72.0866 129.81 66.8881 129.076 61.6746 128.918L61.6741 128.883C61.4546 128.885 61.2351 128.896 61.0156 128.9C60.7961 128.896 60.5766 128.885 60.3571 128.883L60.3566 128.918C55.1431 129.076 49.9446 129.81 44.8671 131.142C39.4341 132.566 33.8851 134.837 30.2171 139.532C25.4076 145.688 22.2066 156.736 24.3306 164.553C26.4546 172.37 29.2961 181.202 33.6176 187.794L61.0156 183.628L89.7726 187.794C91.0196 186.115 94.1001 170.967 96.2246 163.15C98.3481 155.333 96.6231 145.689 91.8141 139.532Z" fill="#455A64"/>
<path d="M86.2237 191.258H36.8497C34.3277 191.258 32.2832 189.214 32.2832 186.692C32.2832 184.17 34.3277 182.125 36.8497 182.125H86.2237C88.7457 182.125 90.7902 184.17 90.7902 186.692C90.7902 189.214 88.7457 191.258 86.2237 191.258Z" fill="#455A64"/>
<path d="M86.9362 182.208C86.9362 182.28 75.6567 182.338 61.7457 182.338C47.8302 182.338 36.5527 182.28 36.5527 182.208C36.5527 182.136 47.8297 182.078 61.7457 182.078C75.6567 182.078 86.9362 182.137 86.9362 182.208Z" fill="#263238"/>
<path d="M38.8209 191.258L35.6699 230.483H38.8209L43.3804 191.258H38.8209Z" fill="#AE7461"/>
<path d="M39.606 140.825C39.6185 140.843 39.3365 141.052 38.844 141.447C38.351 141.841 37.662 142.444 36.8895 143.265C35.3445 144.888 33.525 147.522 32.6025 150.842C31.6805 154.164 31.8825 157.36 32.3695 159.547C32.6085 160.648 32.888 161.52 33.1075 162.111C33.3255 162.704 33.4595 163.028 33.4395 163.037C33.4315 163.04 33.389 162.964 33.315 162.814C33.245 162.662 33.1285 162.444 33.0125 162.148C32.763 161.564 32.454 160.694 32.1895 159.587C31.651 157.389 31.4145 154.146 32.351 150.773C33.287 147.401 35.161 144.744 36.7555 143.138C37.553 142.325 38.266 141.739 38.781 141.367C39.0325 141.174 39.245 141.047 39.383 140.953C39.525 140.862 39.601 140.818 39.606 140.825Z" fill="#263238"/>
<path d="M40.6333 182.86C40.6248 182.863 40.5898 182.764 40.5318 182.574C40.4688 182.357 40.3883 182.081 40.2898 181.741C40.0798 180.981 39.7918 179.939 39.4398 178.665C38.7233 176.069 37.7428 172.478 36.4733 168.573C36.1593 167.597 35.8138 166.659 35.3773 165.805C34.9383 164.956 34.4048 164.185 33.7353 163.628C33.0758 163.057 32.2803 162.745 31.5168 162.641C30.7468 162.554 30.0168 162.665 29.3788 162.846C28.0988 163.226 27.1568 163.799 26.5068 164.168C26.2038 164.35 25.9573 164.497 25.7633 164.613C25.5933 164.715 25.5013 164.765 25.4963 164.758C25.4913 164.75 25.5733 164.686 25.7343 164.569C25.8953 164.453 26.1358 164.286 26.4533 164.082C27.0903 163.684 28.0223 163.082 29.3263 162.669C29.9768 162.472 30.7323 162.344 31.5423 162.426C32.3453 162.524 33.1923 162.848 33.8893 163.443C34.5968 164.024 35.1523 164.821 35.6043 165.687C36.0538 166.559 36.4053 167.511 36.7208 168.491C37.9933 172.405 38.9468 176.008 39.6178 178.617C39.9368 179.9 40.1978 180.95 40.3878 181.714C40.4673 182.059 40.5318 182.339 40.5828 182.56C40.6243 182.755 40.6418 182.858 40.6333 182.86Z" fill="#263238"/>
<path d="M80.5628 140.657C80.5673 140.65 80.6458 140.689 80.7918 140.771C80.9353 140.856 81.1553 140.97 81.4183 141.148C81.9548 141.487 82.7028 142.029 83.5483 142.791C85.2383 144.296 87.2713 146.833 88.4123 150.142C89.5538 153.451 89.5163 156.703 89.1133 158.93C88.9168 160.051 88.6618 160.938 88.4488 161.536C88.3513 161.838 88.2483 162.064 88.1878 162.219C88.1233 162.374 88.0858 162.453 88.0773 162.45C88.0568 162.442 88.1713 162.111 88.3523 161.506C88.5348 160.902 88.7608 160.014 88.9318 158.901C89.2843 156.688 89.2903 153.486 88.1663 150.227C87.0428 146.969 85.0648 144.451 83.4233 142.926C82.6023 142.154 81.8773 141.595 81.3613 141.231C80.8458 140.867 80.5518 140.676 80.5628 140.657Z" fill="#263238"/>
<path d="M82.1124 182.677C82.1034 182.675 82.1149 182.571 82.1449 182.375C82.1819 182.151 82.2294 181.868 82.2874 181.519C82.4304 180.744 82.6264 179.68 82.8664 178.38C83.3764 175.735 84.1074 172.081 85.1379 168.096C85.3929 167.098 85.6859 166.126 86.0809 165.228C86.4794 164.335 86.9849 163.506 87.6554 162.883C88.3144 162.247 89.1404 161.871 89.9354 161.724C90.7389 161.592 91.5004 161.674 92.1619 161.831C93.4889 162.162 94.4554 162.706 95.1159 163.064C95.4454 163.249 95.6959 163.401 95.8634 163.507C96.0314 163.613 96.1169 163.673 96.1124 163.68C96.1079 163.688 96.0134 163.644 95.8374 163.552C95.6364 163.448 95.3819 163.316 95.0679 163.153C94.3969 162.824 93.4209 162.31 92.1204 162.01C91.4724 161.868 90.7369 161.802 89.9734 161.936C89.2179 162.086 88.4424 162.446 87.8194 163.057C87.1854 163.654 86.6999 164.457 86.3134 165.331C85.9304 166.21 85.6429 167.168 85.3894 168.161C84.3614 172.137 83.6024 175.781 83.0464 178.416C82.7729 179.709 82.5494 180.767 82.3864 181.537C82.3084 181.883 82.2454 182.163 82.1959 182.384C82.1499 182.578 82.1209 182.679 82.1124 182.677Z" fill="#263238"/>
<path d="M78.3126 124.831C78.3126 124.831 66.4561 120.358 66.1316 120.357C65.8076 120.356 55.5666 120.453 55.2421 120.372C54.9176 120.291 43.0176 125.974 43.0176 125.974L43.5436 143.573L46.8666 154.656L46.3586 161.039L54.9016 161.667L76.3661 159.461C76.3661 159.461 75.2331 154.412 75.1521 154.169C75.0711 153.926 78.3126 124.831 78.3126 124.831Z" fill="#FF725E"/>
<path d="M68.0405 124.794C68.0485 124.81 67.882 124.905 67.5725 125.064C67.419 125.146 67.227 125.238 66.997 125.328C66.768 125.421 66.5105 125.537 66.2125 125.628C65.626 125.839 64.9045 126.022 64.0935 126.171C63.28 126.303 62.374 126.389 61.4215 126.381C60.4685 126.364 59.565 126.256 58.755 126.102C57.948 125.932 57.231 125.73 56.6505 125.504C56.355 125.404 56.1005 125.282 55.8745 125.183C55.647 125.087 55.4575 124.989 55.3065 124.903C55.0015 124.736 54.8375 124.636 54.846 124.621C54.8685 124.576 55.546 124.939 56.712 125.33C57.293 125.532 58.0035 125.712 58.8 125.866C59.5995 126.004 60.488 126.104 61.425 126.121C62.3615 126.128 63.252 126.051 64.055 125.934C64.8555 125.801 65.5705 125.639 66.1565 125.453C67.332 125.094 68.019 124.75 68.0405 124.794Z" fill="#263238"/>
<path d="M86.6952 197.885L91.8837 209.943L98.7377 218.297C99.2317 218.899 99.1127 219.794 98.4782 220.246C98.1232 220.499 97.6717 220.565 97.2597 220.422C94.6387 219.509 85.0132 216.101 84.6827 215.197C84.3002 214.151 78.3652 202.841 78.3652 202.841L86.6952 197.885Z" fill="#263238"/>
<path d="M98.4784 220.247L84.3145 214.393L84.546 214.899C84.746 215.336 85.093 215.689 85.529 215.893C86.6945 216.436 89.9459 217.868 97.2244 220.44C97.6474 220.589 98.1199 220.517 98.4784 220.247Z" fill="#E0E0E0"/>
<g opacity="0.6">
<path d="M85.3587 210.782C85.7527 210.852 86.0572 211.26 86.0037 211.656C85.9317 212.185 85.2227 212.566 84.7667 212.102C84.3627 211.691 84.5047 210.949 85.0582 210.789C85.1857 210.752 85.3172 210.751 85.4352 210.8" fill="white"/>
</g>
<path d="M92.7711 215.761C92.8516 215.78 92.9856 215.043 93.6631 214.508C94.3246 213.952 95.0731 213.969 95.0706 213.886C95.0746 213.852 94.8896 213.79 94.5806 213.817C94.2741 213.842 93.8506 213.984 93.4806 214.284C93.1116 214.586 92.8876 214.972 92.8016 215.267C92.7131 215.565 92.7366 215.758 92.7711 215.761Z" fill="white"/>
<path d="M94.5068 217.173C94.5873 217.198 94.7928 216.635 95.3293 216.176C95.8553 215.704 96.4408 215.575 96.4263 215.492C96.4328 215.415 95.7423 215.425 95.1393 215.959C94.5303 216.486 94.4298 217.169 94.5068 217.173Z" fill="white"/>
<path d="M90.5141 214.496C90.5891 214.541 91.0546 213.745 91.9576 213.112C92.8511 212.465 93.7556 212.285 93.7366 212.2C93.7406 212.127 92.7501 212.186 91.7901 212.877C90.8236 213.559 90.4436 214.475 90.5141 214.496Z" fill="white"/>
<path d="M89.3005 212.297C89.365 212.354 89.8985 211.777 90.7425 211.353C91.5805 210.918 92.361 210.824 92.353 210.739C92.359 210.665 91.5135 210.631 90.6115 211.097C89.7055 211.554 89.2375 212.259 89.3005 212.297Z" fill="white"/>
<path d="M46.5671 157.272C46.5671 157.272 39.2281 167.98 39.5891 173.514C39.9501 179.049 41.9951 182.297 41.9951 182.297H52.3421C52.3421 182.297 59.9726 172.67 59.9726 172.79C59.9726 172.79 80.3146 210.428 80.4351 210.188C80.5556 209.947 92.3591 205.566 91.9981 205.566C91.6371 205.566 78.3116 168.664 73.3971 160.882C68.6511 153.366 64.1331 156.31 60.5236 157.272L55.3501 160.4L46.5671 157.272Z" fill="#263238"/>
<path d="M75.9229 159.076C76.2839 159.076 84.5854 168.581 84.1044 173.875C83.6229 179.169 80.0239 183.62 80.0239 183.62L68.2789 186.663C68.2789 186.663 63.5649 226.135 64.0924 226.142L50.5879 225.967C50.5879 225.967 52.6899 186.962 52.4494 182.51C52.2089 178.059 54.6899 172.968 59.9719 172.79L69.0424 157.82L75.9229 159.076Z" fill="#263238"/>
<path d="M71.6485 159.439C71.6485 159.439 71.7225 159.484 71.857 159.586C71.991 159.687 72.189 159.842 72.4405 160.055C72.9415 160.481 73.674 161.13 74.486 162.096C74.889 162.58 75.3145 163.145 75.672 163.831C75.76 164.003 75.837 164.186 75.9225 164.369C75.994 164.558 76.0565 164.755 76.1255 164.954C76.2625 165.346 76.387 165.757 76.5495 166.176C77.1655 167.861 77.915 169.77 78.7385 171.891C82.0535 180.366 86.7625 192.16 92.1165 205.518L92.165 205.639L92.0435 205.686C89.3685 206.718 86.5635 207.8 83.709 208.901C82.5855 209.334 81.4695 209.764 80.3865 210.181L80.28 210.222L80.2255 210.122C71.993 195.018 64.715 181.665 59.8995 172.829L59.969 172.872C58.902 172.845 57.881 173.039 57.027 173.465C56.1725 173.89 55.4825 174.494 54.963 175.15C53.9135 176.466 53.42 177.856 53.0895 178.969C52.7685 180.094 52.6335 180.989 52.551 181.591C52.518 181.887 52.4925 182.114 52.474 182.277C52.4595 182.432 52.449 182.51 52.449 182.51C52.449 182.51 52.444 182.431 52.451 182.276C52.4585 182.12 52.4745 181.889 52.5055 181.586C52.5735 180.98 52.6945 180.08 53.004 178.945C53.324 177.822 53.806 176.416 54.8625 175.069C55.386 174.398 56.0865 173.774 56.9615 173.332C57.8355 172.89 58.884 172.684 59.974 172.707L60.021 172.708L60.044 172.75C64.8795 181.575 72.1875 194.912 80.4535 209.998L80.2925 209.939C81.375 209.521 82.491 209.091 83.6145 208.658C86.47 207.557 89.275 206.476 91.9505 205.445L91.8775 205.613C86.532 192.251 81.852 180.445 78.5795 171.952C77.7665 169.826 77.0285 167.913 76.4235 166.221C76.264 165.802 76.14 165.382 76.006 164.986C75.9395 164.791 75.8805 164.598 75.812 164.413C75.7295 164.233 75.6555 164.053 75.5705 163.883C75.225 163.204 74.809 162.64 74.414 162.155C73.6185 161.186 72.898 160.528 72.409 160.091C72.1635 159.872 71.971 159.712 71.842 159.604C71.7125 159.497 71.6485 159.439 71.6485 159.439Z" fill="#455A64"/>
<path d="M53.7693 216.041L53.0323 229.148L49.4608 239.346C49.2033 240.081 49.6223 240.881 50.3733 241.087C50.7938 241.203 51.2408 241.111 51.5783 240.834C53.7273 239.077 61.5993 232.574 61.5993 231.612C61.5993 230.497 63.2943 217.838 63.2943 217.838L53.7693 216.041Z" fill="#263238"/>
<path d="M50.373 241.087L61.669 230.729L61.625 231.283C61.587 231.763 61.3825 232.213 61.043 232.554C60.1345 233.465 57.572 235.925 51.6175 240.838C51.271 241.124 50.8025 241.218 50.373 241.087Z" fill="#E0E0E0"/>
<path d="M54.1952 234.917C54.1262 234.962 53.7477 234.316 52.9272 234.046C52.1152 233.75 51.4182 234.023 51.3917 233.945C51.3762 233.914 51.5287 233.793 51.8282 233.712C52.1247 233.63 52.5707 233.618 53.0217 233.773C53.4717 233.93 53.8147 234.216 53.9967 234.464C54.1822 234.713 54.2267 234.903 54.1952 234.917Z" fill="white"/>
<path d="M53.0506 236.838C52.9841 236.89 52.5976 236.431 51.9361 236.183C51.2801 235.921 50.6861 236 50.6711 235.917C50.6386 235.848 51.2906 235.62 52.0401 235.914C52.7926 236.201 53.1216 236.808 53.0506 236.838Z" fill="white"/>
<path d="M55.8815 232.954C55.827 233.022 55.1165 232.434 54.051 232.15C52.99 231.849 52.0785 231.99 52.067 231.903C52.0385 231.836 52.989 231.552 54.1275 231.872C55.269 232.18 55.9405 232.911 55.8815 232.954Z" fill="white"/>
<path d="M56.2657 230.472C56.2247 230.547 55.5257 230.188 54.5877 230.08C53.6512 229.958 52.8862 230.138 52.8642 230.055C52.8332 229.988 53.6157 229.665 54.6227 229.793C55.6302 229.913 56.3117 230.414 56.2657 230.472Z" fill="white"/>
<path d="M64.1188 226.062C64.1188 226.134 61.0863 226.192 57.3458 226.192C53.6043 226.192 50.5723 226.133 50.5723 226.062C50.5723 225.99 53.6043 225.932 57.3458 225.932C61.0858 225.932 64.1188 225.99 64.1188 226.062Z" fill="#455A64"/>
<path d="M51.5521 160.801C51.5731 160.835 51.0536 161.182 50.2416 161.777C49.4286 162.371 48.3331 163.227 47.2016 164.263C46.0716 165.302 45.1246 166.32 44.4631 167.079C43.8011 167.838 43.4111 168.325 43.3786 168.301C43.3641 168.291 43.4451 168.156 43.6046 167.922C43.7626 167.687 44.0066 167.358 44.3216 166.961C44.9506 166.168 45.8851 165.119 47.0251 164.071C48.1661 163.026 49.2906 162.184 50.1356 161.626C50.5576 161.346 50.9066 161.131 51.1546 160.993C51.4021 160.855 51.5426 160.786 51.5521 160.801Z" fill="#455A64"/>
<g opacity="0.3">
<path d="M65.5892 145.953C63.5042 146.98 61.1202 147.552 58.8382 147.114C55.8812 146.547 53.9027 144.146 52.0547 141.77L53.4797 144.697C55.1367 147.348 56.7152 150.106 58.9577 152.587C59.6692 153.374 60.8517 154.027 61.8772 154.3C63.1397 154.636 64.4937 154.029 65.4397 153.128C68.5117 150.202 69.8057 145.746 71.3267 142.017C69.5092 143.466 67.6742 144.927 65.5892 145.953Z" fill="black"/>
</g>
<path d="M43.0172 125.973C42.6122 125.938 32.9622 131.46 42.3157 147.009C50.6242 160.82 54.3772 162.754 57.8302 163.118C61.2832 163.481 62.5027 160.427 61.8262 158.775C61.1767 157.19 50.9907 140.625 51.2857 140.33C51.2857 140.33 45.1072 126.154 43.0172 125.973Z" fill="#FF725E"/>
<path d="M78.3109 124.83C78.5539 124.911 83.6599 127.262 83.0114 132.611C82.3629 137.96 75.7094 160.409 74.4164 161.544C73.1239 162.678 71.4104 162.354 69.5924 161.868C67.7744 161.382 66.3879 159.77 66.2709 157.82C66.1539 155.871 73.7719 136.501 73.8529 136.258C73.9349 136.015 78.3109 124.83 78.3109 124.83Z" fill="#FF725E"/>
<path d="M68.5325 156.905H61.4255C60.604 156.905 59.9375 156.239 59.9375 155.417V139.489C59.9375 138.668 60.6035 138.002 61.4255 138.002H68.5325C69.354 138.002 70.02 138.668 70.02 139.489V155.417C70.02 156.239 69.354 156.905 68.5325 156.905Z" fill="#263238"/>
<g opacity="0.3">
<path d="M59.5539 155.477L55.1424 153.881C54.6194 154.919 54.2509 156.058 54.2559 157.221C54.2609 158.383 54.6704 159.573 55.5154 160.372C56.4059 161.213 57.6879 161.544 58.9124 161.501C59.4844 161.481 60.0814 161.374 60.5304 161.019C61.0729 160.59 61.3044 159.868 61.3389 159.177C61.4099 157.751 60.7144 156.309 59.5539 155.477Z" fill="black"/>
</g>
<path d="M54.6986 157.423C54.7261 157.225 55.1781 153.946 55.6576 152.428C56.1371 150.909 61.5436 146.433 62.3371 146.273C63.1306 146.113 63.1306 146.593 62.9711 147.192C62.8111 147.792 58.7801 152.016 59.1746 152.268C59.7636 152.644 59.5596 153.017 59.8941 152.827C60.2826 152.606 65.9286 149.31 66.9676 149.111C68.0066 148.911 68.1266 149.63 67.5671 150.39C67.0076 151.149 67.0076 151.149 67.0076 151.149C67.0076 151.149 67.6341 150.79 68.2801 151.429C68.9261 152.069 66.2486 153.867 66.2486 153.867C66.2486 153.867 66.4886 154.347 65.8491 155.186C65.2096 156.025 62.7716 159.424 62.0526 159.923C61.3331 160.421 59.9346 160.102 59.9346 160.102C59.9346 160.102 59.0556 160.781 58.1361 160.821C57.2166 160.86 54.5346 158.609 54.6986 157.423Z" fill="#AE7461"/>
<g opacity="0.3">
<path d="M73.5871 155.404L66.4746 157.95C67.1256 158.589 67.7886 159.227 68.5611 159.713C69.3331 160.199 70.2311 160.529 71.1426 160.489C72.0541 160.449 72.9736 159.997 73.4356 159.21C73.7836 158.618 73.8476 157.906 73.9041 157.221C73.9551 156.592 73.9861 155.893 73.5871 155.404Z" fill="black"/>
</g>
<path d="M64.7294 146.242C64.8894 146.233 69.8849 147.392 70.4444 147.912C71.0039 148.431 73.3219 153.067 73.3219 153.067C73.3219 153.067 74.2809 153.827 74.4009 154.666C74.5209 155.505 74.0394 159.462 72.1629 159.462C71.9629 159.462 68.8739 159.302 68.3804 159.182C67.8869 159.062 64.7294 156.689 64.7294 156.689L65.3524 155.851C65.3524 155.851 61.8119 153.956 61.0929 153.531C60.3739 153.107 60.0434 151.899 60.7734 151.908C61.5029 151.916 67.9669 154.346 67.9669 154.346C67.9669 154.346 61.7394 151.428 61.5359 150.589C61.3324 149.75 62.3319 149.071 62.9714 149.35C63.6109 149.63 68.3269 152.028 69.0859 152.068C69.8454 152.108 69.9249 151.708 69.9249 151.708L68.3804 149.63C68.3804 149.63 64.7294 147.832 64.4099 147.392C64.0899 146.953 64.7294 146.242 64.7294 146.242Z" fill="#AE7461"/>
<path d="M64.73 146.242C64.737 146.248 64.646 146.347 64.519 146.569C64.458 146.679 64.3855 146.824 64.3585 147.006C64.348 147.096 64.3495 147.197 64.391 147.291C64.4345 147.385 64.5195 147.455 64.62 147.527C65.4375 148.082 66.7495 148.742 68.4125 149.566L68.428 149.573L68.4385 149.587C68.904 150.207 69.4285 150.906 69.993 151.658L70.0195 151.693L70.008 151.725C69.878 152.089 69.5005 152.15 69.2125 152.159C68.896 152.161 68.604 152.035 68.3215 151.935C67.751 151.717 67.1755 151.459 66.5815 151.188C65.9905 150.91 65.38 150.622 64.7505 150.325C64.129 150.035 63.467 149.685 62.8295 149.419C62.52 149.343 62.1565 149.482 61.9145 149.721C61.7925 149.842 61.698 149.99 61.654 150.152C61.609 150.303 61.618 150.515 61.6775 150.623C61.8745 150.891 62.222 151.118 62.5385 151.333C62.8655 151.547 63.2075 151.75 63.556 151.95C64.9545 152.742 66.4585 153.491 68.02 154.232L67.9225 154.464C66.6285 153.981 65.2855 153.491 63.9035 153.006C63.2125 152.764 62.511 152.523 61.799 152.301C61.4525 152.2 61.062 152.063 60.749 152.041C60.437 152.02 60.448 152.452 60.596 152.761C60.6885 152.969 60.83 153.159 61 153.304C61.161 153.442 61.4075 153.547 61.614 153.667C62.044 153.902 62.4715 154.135 62.8965 154.366C63.7465 154.83 64.586 155.287 65.4125 155.738L65.543 155.809L65.455 155.928C65.2455 156.209 65.038 156.488 64.8315 156.766L64.8055 156.588C65.4105 157.041 66.0135 157.484 66.614 157.911C66.914 158.124 67.2135 158.334 67.5145 158.535C67.809 158.728 68.1315 158.951 68.409 159.063C69.0845 159.173 69.8095 159.204 70.494 159.254C70.84 159.275 71.1825 159.295 71.5225 159.315C71.8645 159.332 72.2045 159.369 72.49 159.296C72.7835 159.206 73.023 158.997 73.2275 158.763C73.4135 158.511 73.5785 158.241 73.697 157.949C73.946 157.372 74.0975 156.765 74.1995 156.168C74.2465 155.869 74.2855 155.571 74.301 155.278C74.3165 154.982 74.3295 154.695 74.2375 154.44C74.054 153.922 73.6605 153.488 73.2605 153.145L73.2425 153.13L73.2335 153.112C72.413 151.478 71.6575 150 70.9245 148.746C70.733 148.448 70.5675 148.107 70.327 147.921C70.0595 147.755 69.7425 147.644 69.4525 147.542C68.8645 147.338 68.3155 147.181 67.822 147.04C66.833 146.763 66.058 146.568 65.5325 146.438C65.095 146.331 64.879 146.278 64.73 146.242C64.7255 146.238 64.804 146.239 64.94 146.264C65.0775 146.286 65.2805 146.326 65.546 146.382C66.0765 146.495 66.8565 146.673 67.852 146.934C68.349 147.067 68.901 147.217 69.497 147.415C69.795 147.518 70.1035 147.615 70.4135 147.803C70.7095 148.036 70.8555 148.36 71.0595 148.665C71.8105 149.92 72.577 151.391 73.41 153.023L73.3835 152.99C73.8125 153.356 74.2195 153.789 74.4345 154.373C74.542 154.672 74.5275 154.99 74.5135 155.288C74.499 155.591 74.4605 155.895 74.414 156.202C74.313 156.813 74.162 157.434 73.905 158.038C73.7825 158.342 73.61 158.631 73.4075 158.906C73.184 159.164 72.912 159.408 72.5575 159.518C72.19 159.61 71.8475 159.564 71.5115 159.551C71.171 159.532 70.827 159.512 70.4805 159.493C69.7825 159.442 69.093 159.42 68.3525 159.301C67.962 159.148 67.694 158.941 67.378 158.741C67.0735 158.539 66.772 158.329 66.47 158.115C65.8665 157.687 65.262 157.245 64.654 156.791L64.5525 156.715L64.6285 156.612C64.8345 156.335 65.042 156.055 65.2505 155.774L65.293 155.963C64.464 155.512 63.6225 155.055 62.77 154.591C62.344 154.359 61.915 154.126 61.484 153.891C61.269 153.764 61.0515 153.682 60.8335 153.502C60.629 153.328 60.468 153.11 60.359 152.866C60.2775 152.678 60.217 152.473 60.242 152.244C60.2485 152.132 60.303 152.005 60.3955 151.912C60.494 151.816 60.626 151.786 60.739 151.78C61.18 151.813 61.506 151.95 61.877 152.052C62.5955 152.277 63.2975 152.519 63.99 152.761C65.374 153.249 66.717 153.742 68.012 154.227L67.9145 154.459C66.348 153.712 64.8455 152.959 63.4385 152.156C63.0875 151.954 62.743 151.748 62.4105 151.528C62.0815 151.297 61.747 151.1 61.482 150.743C61.2795 150.298 61.4665 149.843 61.7575 149.559C62.05 149.278 62.4685 149.106 62.8845 149.204C63.603 149.503 64.206 149.836 64.8425 150.135C65.469 150.435 66.077 150.726 66.665 151.007C67.2555 151.281 67.828 151.543 68.3885 151.762C68.672 151.866 68.942 151.982 69.2115 151.981C69.478 151.987 69.778 151.888 69.843 151.691L69.858 151.758C69.3005 151 68.783 150.296 68.324 149.672L68.35 149.693C66.692 148.848 65.3945 148.172 64.575 147.586C64.4765 147.512 64.376 147.425 64.3305 147.315C64.2855 147.204 64.288 147.092 64.3025 146.996C64.3385 146.801 64.419 146.657 64.487 146.547C64.626 146.329 64.73 146.242 64.73 146.242Z" fill="#6F4439"/>
<path d="M57.2438 150.373C57.2293 150.384 57.0853 150.217 56.8363 149.905C56.5898 149.591 56.2473 149.125 55.8503 148.532C55.0478 147.352 54.0278 145.665 52.9528 143.775C51.8783 141.885 50.9378 140.157 50.2478 138.912C49.9238 138.325 49.6508 137.832 49.4328 137.436C49.2403 137.088 49.1408 136.891 49.1558 136.881C49.1708 136.872 49.2998 137.051 49.5198 137.384C49.7383 137.718 50.0433 138.208 50.4078 138.82C51.1393 140.044 52.1058 141.758 53.1793 143.647C54.2533 145.534 55.2453 147.231 56.0048 148.432C56.3808 149.035 56.6988 149.514 56.9188 149.845C57.1413 150.175 57.2578 150.362 57.2438 150.373Z" fill="#263238"/>
<path d="M55.4047 152.279C55.4187 152.32 55.0352 152.449 54.4887 152.781C53.9492 153.115 53.2482 153.682 52.7447 154.511C52.4922 154.922 52.3167 155.35 52.2162 155.755C52.1152 156.157 52.0962 156.545 52.0327 156.872C51.9267 157.547 51.5687 157.853 51.5532 157.819C51.5222 157.795 51.7967 157.486 51.8507 156.844C51.8892 156.529 51.8882 156.138 51.9827 155.701C52.0757 155.269 52.2557 154.81 52.5227 154.375C53.0557 153.499 53.8157 152.925 54.3982 152.621C54.9892 152.319 55.3982 152.252 55.4047 152.279Z" fill="#263238"/>
<path d="M80.622 128.324C80.6445 128.349 80.2615 128.733 79.6015 129.309C78.942 129.884 78.0005 130.646 76.9155 131.426C75.83 132.206 74.808 132.857 74.053 133.3C73.298 133.743 72.813 133.985 72.7955 133.956C72.7765 133.923 73.228 133.625 73.9555 133.144C74.683 132.662 75.6835 131.991 76.7635 131.215C77.843 130.439 78.7975 129.704 79.4845 129.167C80.1715 128.629 80.597 128.295 80.622 128.324Z" fill="#263238"/>
<path d="M73.4777 136.072C73.5107 136.082 73.3967 136.609 73.1562 137.446C72.9162 138.283 72.5427 139.428 72.0632 140.668C71.5832 141.908 71.0892 143.006 70.7042 143.788C70.3192 144.569 70.0497 145.036 70.0192 145.021C69.9852 145.004 70.1962 144.509 70.5367 143.711C70.8777 142.913 71.3427 141.808 71.8202 140.574C72.2972 139.34 72.6962 138.21 72.9802 137.39C73.2652 136.57 73.4417 136.062 73.4777 136.072Z" fill="#263238"/>
<path d="M77.3359 153.31C77.2909 153.323 77.1744 152.832 76.7549 152.158C76.3404 151.485 75.5909 150.661 74.5779 149.994C73.5674 149.321 72.5449 148.884 71.8079 148.571C71.0674 148.261 70.6049 148.074 70.6174 148.038C70.6284 148.006 71.1119 148.131 71.8744 148.399C72.6329 148.67 73.6834 149.086 74.7229 149.777C75.7659 150.464 76.5269 151.344 76.9139 152.065C77.1094 152.426 77.2254 152.738 77.2814 152.959C77.3399 153.18 77.3509 153.306 77.3359 153.31Z" fill="#263238"/>
<path d="M51.9139 159.979C51.8909 160.004 51.4769 159.672 50.8524 159.085C50.2279 158.499 49.3999 157.65 48.5534 156.652C47.7079 155.653 47.0059 154.696 46.5299 153.984C46.0534 153.271 45.7944 152.808 45.8224 152.79C45.8544 152.769 46.1674 153.195 46.6799 153.877C47.1919 154.559 47.9119 155.491 48.7519 156.483C49.5924 157.475 50.3934 158.338 50.9824 158.955C51.5704 159.573 51.9399 159.951 51.9139 159.979Z" fill="#263238"/>
<path d="M48.1268 135.051C48.1413 135.023 48.3513 135.09 48.6418 135.291C48.9313 135.489 49.2883 135.839 49.5588 136.309C49.8273 136.781 49.9478 137.266 49.9723 137.616C49.9983 137.968 49.9493 138.183 49.9178 138.181C49.8388 138.185 49.8488 137.321 49.3328 136.439C48.8338 135.547 48.0833 135.117 48.1268 135.051Z" fill="#263238"/>
<path d="M50.3835 95.3309C53.0195 92.2534 56.649 90.4984 60.905 90.3889C63.306 90.3274 63.392 90.3499 65.126 90.7604C66.8595 91.1704 69.3415 92.4309 70.387 93.7649C71.629 95.3489 72.677 97.1264 72.929 99.0654C73.1875 101.057 73.914 102.866 74.233 105.356C74.4881 107.348 76.2 116.404 74.934 118.042L67.263 119.384C64.2015 119.512 61.0025 119.994 58.0125 119.384C55.0225 118.774 48.1305 120.426 46.5075 118.042C44.253 114.73 45.074 101.53 50.3835 95.3309Z" fill="#263238"/>
<path d="M56.0647 95.654L63.4062 92.6465L65.3342 92.85C69.6677 92.82 72.7062 97.5675 72.7712 101.077C72.8437 104.976 72.7782 109.738 72.1887 112.619C71.0032 118.411 66.0762 118.943 66.0762 118.943C66.0762 118.943 66.1277 119.868 66.1847 121.808C64.8792 124.782 59.9242 124.769 55.6552 121.424L55.5047 121.193L54.1367 97.6525C54.1632 96.5875 55.0007 95.719 56.0647 95.654Z" fill="#AE7461"/>
<path d="M70.1972 105.939C70.1937 106.335 69.8557 106.658 69.4422 106.662C69.0297 106.666 68.6977 106.349 68.7012 105.954C68.7047 105.558 69.0427 105.234 69.4552 105.231C69.8687 105.226 70.2007 105.544 70.1972 105.939Z" fill="#263238"/>
<path d="M71.4728 103.285C71.3758 103.379 70.8273 102.934 70.0223 102.9C69.2183 102.855 68.6093 103.243 68.5263 103.141C68.4853 103.095 68.5878 102.923 68.8533 102.747C69.1148 102.572 69.5548 102.41 70.0563 102.434C70.5578 102.459 70.9713 102.663 71.2053 102.862C71.4443 103.064 71.5203 103.244 71.4728 103.285Z" fill="#263238"/>
<path d="M66.3674 109.405C66.3654 109.359 66.8699 109.295 67.6854 109.227C67.8919 109.215 68.0884 109.183 68.1294 109.044C68.1844 108.898 68.1084 108.673 68.0194 108.429C67.8484 107.923 67.6689 107.393 67.4809 106.837C66.7359 104.571 66.2059 102.711 66.2974 102.682C66.3889 102.652 67.0674 104.466 67.8129 106.732C67.9914 107.29 68.1629 107.823 68.3254 108.332C68.3929 108.569 68.5149 108.84 68.3959 109.144C68.3339 109.295 68.1779 109.4 68.0444 109.429C67.9109 109.464 67.7954 109.461 67.6934 109.462C66.8749 109.47 66.3684 109.451 66.3674 109.405Z" fill="#263238"/>
<path d="M66.0867 118.938C66.0867 118.938 62.1512 119.017 58.3672 116.508C58.3672 116.508 60.2687 120.643 66.1312 120.357L66.0867 118.938Z" fill="#6F4439"/>
<path d="M71.1688 101.849C71.0248 102.039 70.4143 101.881 69.6913 101.909C68.9678 101.913 68.3633 102.1 68.2128 101.916C68.1463 101.826 68.2333 101.638 68.4918 101.451C68.7463 101.265 69.1798 101.102 69.6773 101.09C70.1743 101.08 70.6128 101.223 70.8738 101.397C71.1383 101.572 71.2318 101.756 71.1688 101.849Z" fill="#263238"/>
<path d="M61.821 106.027C61.804 106.422 62.125 106.762 62.538 106.787C62.9495 106.812 63.298 106.513 63.3145 106.118C63.331 105.722 63.01 105.382 62.5985 105.357C62.186 105.331 61.8375 105.631 61.821 106.027Z" fill="#263238"/>
<path d="M60.58 103.244C60.672 103.343 61.2425 102.927 62.048 102.934C62.853 102.93 63.4415 103.349 63.5295 103.251C63.573 103.207 63.479 103.031 63.2235 102.841C62.9715 102.653 62.54 102.468 62.0385 102.467C61.5365 102.466 61.113 102.648 60.869 102.835C60.62 103.024 60.5345 103.2 60.58 103.244Z" fill="#263238"/>
<path d="M61.0384 100.261C61.1959 100.445 61.8189 100.26 62.5664 100.256C63.3139 100.229 63.9459 100.389 64.0929 100.198C64.1574 100.106 64.0589 99.922 63.7834 99.7465C63.5119 99.572 63.0574 99.428 62.5434 99.438C62.0299 99.449 61.5834 99.6115 61.3224 99.7975C61.0569 99.984 60.9689 100.172 61.0384 100.261Z" fill="#263238"/>
<path d="M55.2421 107.442C55.2606 107.007 54.8036 105.961 54.3776 105.875C53.2401 105.645 51.1711 105.646 51.0226 108.554C50.8196 112.53 55.0876 111.96 55.1006 111.846C55.1106 111.757 55.1791 108.942 55.2421 107.442Z" fill="#AE7461"/>
<path d="M53.8436 110.29C53.8266 110.277 53.7716 110.335 53.6521 110.383C53.5351 110.429 53.3371 110.455 53.1336 110.367C52.7216 110.191 52.4021 109.506 52.4191 108.789C52.4276 108.426 52.5206 108.086 52.6636 107.807C52.8001 107.522 52.9986 107.329 53.2116 107.302C53.4246 107.264 53.5676 107.398 53.6106 107.512C53.6581 107.626 53.6286 107.705 53.6496 107.712C53.6601 107.723 53.7381 107.65 53.7146 107.484C53.7021 107.404 53.6606 107.308 53.5706 107.227C53.4791 107.144 53.3411 107.098 53.1926 107.106C52.8846 107.112 52.5946 107.38 52.4376 107.686C52.2641 107.992 52.1501 108.375 52.1411 108.782C52.1256 109.584 52.4976 110.355 53.0641 110.55C53.3396 110.637 53.5776 110.565 53.7031 110.477C53.8316 110.386 53.8571 110.298 53.8436 110.29Z" fill="#6F4439"/>
<path d="M65.8083 111.664C65.8083 112.363 65.2418 112.929 64.5428 112.929C63.8438 112.929 63.2773 112.363 63.2773 111.664C63.2773 110.965 63.8438 110.398 64.5428 110.398C65.2418 110.398 65.8083 110.965 65.8083 111.664Z" fill="#6F4439"/>
<path d="M66.2172 112.022C66.2347 112.086 66.0182 112.218 65.6242 112.261C65.2332 112.307 64.6762 112.237 64.1307 111.976C63.5852 111.713 63.1802 111.304 62.9952 110.949C62.8042 110.594 62.8082 110.336 62.8697 110.319C62.9442 110.294 63.0632 110.489 63.2957 110.736C63.5247 110.987 63.8902 111.28 64.3572 111.507C65.3007 111.982 66.1842 111.884 66.2172 112.022Z" fill="#263238"/>
<path d="M74.3762 100.176C74.1132 97.5564 72.6127 95.0504 70.3082 93.3819C68.0037 91.7134 64.9252 90.9044 61.9622 91.1889L57.0427 93.8464C56.0142 97.0014 57.0357 98.4339 58.4732 103.024C60.4557 102.394 64.0917 101.771 66.1922 101.626C65.9447 100.577 65.6972 99.5279 65.4497 98.4789C66.0802 99.3909 66.7102 100.302 67.3407 101.214C68.4542 100.567 68.9332 99.2104 68.4972 98.1084C68.9382 99.0159 69.2422 99.9754 69.3812 100.955C71.0687 100.831 72.7427 100.57 74.3762 100.176Z" fill="#263238"/>
<path d="M54.3762 105.874C54.3762 105.874 54.8677 108.05 55.2272 107.716C59.0267 104.183 57.0797 99.536 56.9142 99.4375L57.0112 94.6855L52.9922 96.0291L54.3762 105.874Z" fill="#263238"/>
<path d="M53.5669 105.795C53.5499 105.802 53.4799 105.657 53.3664 105.387C53.2494 105.12 53.1114 104.719 52.9704 104.215C52.6859 103.21 52.4509 101.764 52.5144 100.163C52.5829 98.5606 52.9364 97.1391 53.3029 96.1606C53.4849 95.6706 53.6554 95.2821 53.7939 95.0251C53.9289 94.7661 54.0109 94.6271 54.0269 94.6351C54.0684 94.6546 53.7919 95.2366 53.4769 96.2201C53.1599 97.2016 52.8419 98.6006 52.7744 100.174C52.7124 101.746 52.9134 103.167 53.1484 104.171C53.3824 105.176 53.6094 105.779 53.5669 105.795Z" fill="#455A64"/>
<path d="M68.7909 98.0459C68.7449 98.0609 68.5644 97.4729 68.1069 96.6049C67.8819 96.1694 67.5689 95.6759 67.1834 95.1569C66.7879 94.6459 66.3139 94.1139 65.7599 93.6139C65.1999 93.1209 64.6169 92.7104 64.0639 92.3764C63.5044 92.0529 62.9779 91.7984 62.5194 91.6249C61.6049 91.2699 61.0004 91.1579 61.0099 91.1104C61.0129 91.0929 61.1659 91.1094 61.4409 91.1544C61.7169 91.1944 62.1094 91.2934 62.5829 91.4519C63.0584 91.6064 63.6044 91.8489 64.1839 92.1684C64.7569 92.4989 65.3589 92.9139 65.9334 93.4194C66.5014 93.9319 66.9819 94.4824 67.3759 95.0134C67.7599 95.5524 68.0629 96.0674 68.2714 96.5219C68.4829 96.9739 68.6264 97.3529 68.6979 97.6224C68.7744 97.8909 68.8079 98.0404 68.7909 98.0459Z" fill="#455A64"/>
<path d="M72.8274 98.6079C72.7799 98.6284 72.5509 97.9099 71.8629 96.9379C71.1879 95.9629 69.9919 94.7934 68.4239 93.8764C66.8544 92.9584 65.2884 92.3999 64.1634 91.9954C63.6414 91.8109 63.1949 91.6529 62.8244 91.5219C62.5089 91.4069 62.3364 91.3354 62.3419 91.3184C62.3474 91.3014 62.5294 91.3399 62.8544 91.4254C63.1794 91.5109 63.6474 91.6429 64.2214 91.8214C65.3649 92.1824 66.9564 92.7174 68.5564 93.6524C70.1559 94.5874 71.3649 95.8109 72.0154 96.8344C72.3459 97.3439 72.5589 97.7879 72.6779 98.1049C72.7984 98.4209 72.8419 98.6029 72.8274 98.6079Z" fill="#455A64"/>
</svg>
