<svg width="32" height="32" viewBox="0 0 32 32" fill="none" xmlns="http://www.w3.org/2000/svg">
<rect width="32" height="32" fill="#E26861"/>
<path fill-rule="evenodd" clip-rule="evenodd" d="M18.457 7.04199H20.2103C20.9595 7.04199 21.5837 7.04199 22.0787 7.10866C22.602 7.17866 23.0745 7.33366 23.4537 7.71283C23.8337 8.09283 23.9887 8.56533 24.0587 9.08783C24.1253 9.58366 24.1253 10.2087 24.1253 10.957V23.7087H24.3337C24.4994 23.7087 24.6584 23.7745 24.7756 23.8917C24.8928 24.0089 24.9587 24.1679 24.9587 24.3337C24.9587 24.4994 24.8928 24.6584 24.7756 24.7756C24.6584 24.8928 24.4994 24.9587 24.3337 24.9587H7.66699C7.50123 24.9587 7.34226 24.8928 7.22505 24.7756C7.10784 24.6584 7.04199 24.4994 7.04199 24.3337C7.04199 24.1679 7.10784 24.0089 7.22505 23.8917C7.34226 23.7745 7.50123 23.7087 7.66699 23.7087H7.87533V13.457C7.87533 12.7087 7.87533 12.0837 7.94199 11.5887C8.01199 11.0653 8.16699 10.5928 8.54616 10.2137C8.92616 9.83366 9.39866 9.67866 9.92116 9.60866C10.417 9.54199 11.042 9.54199 11.7903 9.54199H14.5653C14.6078 8.81366 14.7428 8.18366 15.2128 7.71283C15.5928 7.33366 16.0653 7.17949 16.5878 7.10866C17.0837 7.04199 17.7087 7.04199 18.457 7.04199ZM15.1728 10.792H11.8337C11.0303 10.792 10.4903 10.7937 10.0878 10.8478C9.70366 10.8995 9.53866 10.9887 9.43033 11.0978C9.32199 11.2062 9.23283 11.3703 9.18033 11.7545C9.12783 12.157 9.12533 12.697 9.12533 13.5003V23.7087H12.8753V21.8337C12.8753 21.6679 12.9412 21.5089 13.0584 21.3917C13.1756 21.2745 13.3346 21.2087 13.5003 21.2087C13.6661 21.2087 13.8251 21.2745 13.9423 21.3917C14.0595 21.5089 14.1253 21.6679 14.1253 21.8337V23.7087H17.8753V13.5003C17.8753 12.697 17.8737 12.157 17.8203 11.7545C17.7678 11.3703 17.6787 11.2053 17.5703 11.097C17.462 10.9887 17.297 10.8995 16.912 10.847C16.5112 10.7937 15.9728 10.792 15.1728 10.792ZM19.1253 23.7087V13.457C19.1253 12.7087 19.1253 12.0837 19.0587 11.5887C18.9887 11.0653 18.8337 10.5928 18.4537 10.2137C18.0745 9.83366 17.602 9.67866 17.0787 9.60866C16.7245 9.56116 16.3037 9.54699 15.8203 9.54366C15.862 8.96033 15.9537 8.74116 16.097 8.59699C16.2053 8.48866 16.3703 8.39949 16.7553 8.34699C17.157 8.29366 17.697 8.29199 18.5003 8.29199H20.167C20.9703 8.29199 21.5103 8.29366 21.9128 8.34783C22.297 8.39949 22.462 8.48866 22.5703 8.59783C22.6787 8.70616 22.7678 8.87033 22.8203 9.25449C22.8737 9.65699 22.8753 10.197 22.8753 11.0003V23.7087H19.1253ZM10.3753 12.667C10.3753 12.5012 10.4412 12.3423 10.5584 12.2251C10.6756 12.1078 10.8346 12.042 11.0003 12.042H16.0003C16.1661 12.042 16.3251 12.1078 16.4423 12.2251C16.5595 12.3423 16.6253 12.5012 16.6253 12.667C16.6253 12.8328 16.5595 12.9917 16.4423 13.1089C16.3251 13.2261 16.1661 13.292 16.0003 13.292H11.0003C10.8346 13.292 10.6756 13.2261 10.5584 13.1089C10.4412 12.9917 10.3753 12.8328 10.3753 12.667ZM10.3753 15.167C10.3753 15.0012 10.4412 14.8423 10.5584 14.7251C10.6756 14.6078 10.8346 14.542 11.0003 14.542H16.0003C16.1661 14.542 16.3251 14.6078 16.4423 14.7251C16.5595 14.8423 16.6253 15.0012 16.6253 15.167C16.6253 15.3328 16.5595 15.4917 16.4423 15.6089C16.3251 15.7261 16.1661 15.792 16.0003 15.792H11.0003C10.8346 15.792 10.6756 15.7261 10.5584 15.6089C10.4412 15.4917 10.3753 15.3328 10.3753 15.167ZM10.3753 17.667C10.3753 17.5012 10.4412 17.3423 10.5584 17.2251C10.6756 17.1078 10.8346 17.042 11.0003 17.042H16.0003C16.1661 17.042 16.3251 17.1078 16.4423 17.2251C16.5595 17.3423 16.6253 17.5012 16.6253 17.667C16.6253 17.8328 16.5595 17.9917 16.4423 18.1089C16.3251 18.2261 16.1661 18.292 16.0003 18.292H11.0003C10.8346 18.292 10.6756 18.2261 10.5584 18.1089C10.4412 17.9917 10.3753 17.8328 10.3753 17.667Z" fill="#FCFCFD"/>
</svg>
