<svg width="45" height="45" viewBox="0 0 45 45" fill="none" xmlns="http://www.w3.org/2000/svg">
<path d="M25.635 31.7552L35.3663 29.6927C35.2538 30.8277 34.9588 31.9227 34.4813 32.9777L24.7725 35.0402C24.8725 33.8902 25.16 32.7952 25.635 31.7552ZM34.4813 26.7864L24.7725 28.8489V22.6614L21.7425 23.3102V26.7452C21.7425 27.0527 21.6575 27.3327 21.4875 27.5852L19.9088 29.9214C19.4888 30.5264 18.9263 30.8989 18.2213 31.0389L9.63379 32.8727C9.74629 31.7352 10.0413 30.6402 10.5188 29.5877L18.7088 27.8402V23.9402L11.0663 25.5639C11.1788 24.4264 11.4725 23.3389 11.9475 22.3014L18.7088 20.8464V8.82393C19.5638 7.78393 20.575 6.93393 21.7425 6.27393V20.2164L24.7725 19.5639V10.3389C25.63 9.30143 26.6338 8.45143 27.7838 7.78893V18.9302L35.3663 17.3102C35.2538 18.4477 34.9588 19.5427 34.4813 20.5952L27.7838 22.0277V25.1027L35.3663 23.5014C35.2538 24.6514 34.9588 25.7464 34.4813 26.7864Z" fill="#FC746C"/>
</svg>
