<svg width="37" height="37" viewBox="0 0 37 37" fill="none" xmlns="http://www.w3.org/2000/svg">
<path d="M13.8893 16.5729C12.5934 16.5729 11.3266 16.1886 10.2491 15.4687C9.17164 14.7487 8.33184 13.7254 7.83593 12.5282C7.34002 11.331 7.21027 10.0136 7.46308 8.74259C7.7159 7.47161 8.33992 6.30414 9.25625 5.38781C10.1726 4.47149 11.34 3.84746 12.611 3.59465C13.882 3.34184 15.1994 3.47159 16.3966 3.9675C17.5939 4.46341 18.6172 5.30321 19.3371 6.38069C20.0571 7.45818 20.4414 8.72496 20.4414 10.0208C20.4393 11.7579 19.7484 13.4233 18.52 14.6516C17.2917 15.8799 15.6264 16.5709 13.8893 16.5729ZM13.8893 5.78125C13.0508 5.78125 12.2311 6.0299 11.5339 6.49575C10.8367 6.9616 10.2933 7.62374 9.9724 8.39842C9.65152 9.1731 9.56756 10.0255 9.73115 10.8479C9.89473 11.6703 10.2985 12.4258 10.8914 13.0187C11.4843 13.6116 12.2398 14.0154 13.0622 14.179C13.8846 14.3425 14.737 14.2586 15.5117 13.9377C16.2864 13.6168 16.9485 13.0734 17.4144 12.3762C17.8802 11.679 18.1289 10.8593 18.1289 10.0208C18.128 8.89668 17.6811 7.8188 16.8862 7.0239C16.0913 6.229 15.0134 5.78207 13.8893 5.78125ZM20.0421 33.5313H7.70873C3.97789 33.5313 1.92285 31.4885 1.92285 27.7793C1.92285 23.6754 4.2446 18.8854 10.7874 18.8854H16.9541C23.4969 18.8854 25.8187 23.6754 25.8187 27.7793C25.8233 31.4885 23.7683 33.5313 20.0421 33.5313ZM10.7921 21.1979C9.91175 21.1298 9.02714 21.2536 8.19932 21.5607C7.3715 21.8678 6.62019 22.3509 5.99725 22.9766C5.37431 23.6023 4.89458 24.3558 4.59119 25.185C4.2878 26.0141 4.16797 26.8993 4.23998 27.7793C4.23998 30.1905 5.27906 31.2188 7.71335 31.2188H20.0421C22.4764 31.2188 23.5154 30.1905 23.5154 27.7793C23.5875 26.8989 23.4676 26.0133 23.1639 25.1838C22.8603 24.3542 22.3801 23.6005 21.7567 22.9747C21.1332 22.3489 20.3813 21.8659 19.5529 21.5592C18.7245 21.2524 17.8394 21.1291 16.9587 21.1979H10.7921ZM25.5304 17.2513C24.1477 17.256 22.8187 16.7166 21.8304 15.7497C21.643 15.5308 21.5441 15.2498 21.5531 14.9618C21.562 14.6737 21.6782 14.3995 21.8789 14.1926C22.0795 13.9858 22.3502 13.8614 22.6378 13.8437C22.9254 13.826 23.2092 13.9163 23.4337 14.097C23.9926 14.6418 24.7438 14.9443 25.5242 14.9388C25.9243 14.9431 26.3211 14.8675 26.6916 14.7164C27.062 14.5653 27.3985 14.3418 27.6814 14.0589C27.9643 13.776 28.1879 13.4395 28.339 13.069C28.49 12.6986 28.5656 12.3017 28.5613 11.9017C28.5601 11.0966 28.2397 10.3248 27.6704 9.75548C27.1011 9.18618 26.3293 8.86581 25.5242 8.86459C25.0818 8.85754 24.6442 8.95639 24.2477 9.15288C23.9744 9.2921 23.657 9.31704 23.3652 9.22221C23.0735 9.12738 22.8314 8.92055 22.6922 8.64721C22.553 8.37388 22.528 8.05643 22.6229 7.76471C22.7177 7.47299 22.9245 7.23089 23.1979 7.09167C23.921 6.72769 24.7209 6.54264 25.5304 6.55209C26.9492 6.55209 28.3099 7.1157 29.3131 8.11894C30.3164 9.12218 30.88 10.4829 30.88 11.9017C30.88 13.3205 30.3164 14.6812 29.3131 15.6844C28.3099 16.6876 26.9492 17.2513 25.5304 17.2513ZM30.3096 30.4479H29.2612C28.9546 30.4479 28.6605 30.3261 28.4436 30.1093C28.2268 29.8924 28.105 29.5983 28.105 29.2917C28.105 28.985 28.2268 28.6909 28.4436 28.4741C28.6605 28.2572 28.9546 28.1354 29.2612 28.1354H30.3096C32.0748 28.1354 32.7608 27.4571 32.7608 25.715C32.8137 25.0652 32.7248 24.4117 32.5005 23.7995C32.2761 23.1874 31.9216 22.6313 31.4613 22.1695C31.001 21.7078 30.446 21.3515 29.8346 21.1252C29.2232 20.8989 28.5699 20.808 27.92 20.8588H25.5921C25.2854 20.8588 24.9913 20.7369 24.7745 20.5201C24.5576 20.3033 24.4358 20.0092 24.4358 19.7025C24.4358 19.3958 24.5576 19.1018 24.7745 18.8849C24.9913 18.6681 25.2854 18.5463 25.5921 18.5463H27.92C28.877 18.4834 29.8363 18.6259 30.7338 18.9641C31.6312 19.3024 32.4459 19.8286 33.1233 20.5075C33.8007 21.1863 34.3252 22.0022 34.6615 22.9003C34.9978 23.7985 35.1382 24.7582 35.0733 25.715C35.1392 26.3555 35.061 27.0025 34.8445 27.6088C34.6279 28.2152 34.2785 28.7654 33.8217 29.2191C33.365 29.6729 32.8126 30.0188 32.2048 30.2314C31.5971 30.444 30.9496 30.518 30.3096 30.4479Z" fill="#FC746C"/>
</svg>
