<svg width="44" height="44" viewBox="0 0 44 44" fill="none" xmlns="http://www.w3.org/2000/svg">
<rect x="0.5" y="0.5" width="43" height="43" rx="5.5" stroke="#DE672E"/>
<path d="M14.9221 22.4027L10.5412 20.5773L10.2404 21.298L13.1252 22.5V26.0156C13.1252 26.1192 13.1664 26.2186 13.2396 26.2918C13.3129 26.3651 13.4122 26.4062 13.5158 26.4062H15.4904C15.694 26.7302 15.9329 27.0306 16.2025 27.302C16.3024 27.402 16.4234 27.4782 16.5568 27.525C16.6901 27.5718 16.8323 27.588 16.9727 27.5723C17.1131 27.5566 17.2482 27.5095 17.368 27.4344C17.4877 27.3593 17.589 27.2582 17.6643 27.1387L17.7396 27.2336C17.8443 27.3649 17.983 27.4648 18.1406 27.5226C18.2983 27.5803 18.4687 27.5935 18.6334 27.5608C18.798 27.5281 18.9505 27.4507 19.0741 27.3371C19.1977 27.2235 19.2877 27.0781 19.3342 26.9168C19.4364 27.0179 19.5605 27.0941 19.6969 27.1395C19.8333 27.1849 19.9783 27.1984 20.1208 27.1788C20.2632 27.1593 20.3992 27.1072 20.5183 27.0267C20.6374 26.9462 20.7364 26.8393 20.8076 26.7145C21.0024 26.8032 21.2221 26.8209 21.4285 26.7646C21.635 26.7083 21.8153 26.5815 21.9381 26.4062H27.5783C27.6819 26.4062 27.7813 26.3651 27.8545 26.2918C27.9278 26.2186 27.9689 26.1192 27.9689 26.0156V13.5156C27.9689 13.412 27.9278 13.3127 27.8545 13.2394C27.7813 13.1662 27.6819 13.125 27.5783 13.125H13.5158C13.4122 13.125 13.3129 13.1662 13.2396 13.2394C13.1664 13.3127 13.1252 13.412 13.1252 13.5156V16.773L10.6029 15.141L10.1787 15.7969L16.4963 19.8848L14.9221 22.4027ZM13.9064 25.625V22.8258L14.6877 23.1512V23.6441C14.6863 24.3237 14.8191 24.9968 15.0783 25.625H13.9064ZM21.0783 25.9648L19.285 23.8125L18.6842 24.3129L19.6557 25.4781L20.0975 26.0672C20.1356 26.1185 20.1563 26.1806 20.1564 26.2445C20.154 26.2753 20.143 26.3049 20.1248 26.3298C20.1066 26.3548 20.0819 26.3743 20.0533 26.3861C20.0248 26.398 19.9935 26.4017 19.963 26.3969C19.9324 26.3921 19.9038 26.379 19.8803 26.359L18.0889 24.5676L17.5365 25.1203L18.2729 25.8566L18.5217 26.3539C18.5692 26.4489 18.5939 26.5536 18.5939 26.6598C18.5913 26.6868 18.581 26.7125 18.5643 26.7339C18.5475 26.7552 18.525 26.7714 18.4994 26.7804C18.4738 26.7894 18.4462 26.7909 18.4198 26.7848C18.3933 26.7787 18.3692 26.7651 18.3502 26.7457L16.9439 24.9906L16.3338 25.4785L16.9893 26.2988C17.0151 26.4095 17.0282 26.5227 17.0283 26.6363C17.0258 26.6671 17.0149 26.6967 16.9967 26.7216C16.9785 26.7466 16.9538 26.7661 16.9252 26.7779C16.8967 26.7898 16.8654 26.7935 16.8349 26.7887C16.8043 26.7839 16.7757 26.7708 16.7521 26.7508C16.3435 26.3435 16.0197 25.8592 15.7995 25.3259C15.5792 24.7927 15.4669 24.2211 15.4689 23.6441V23.0023L17.2068 20.2215L18.4607 20.3609C19.5763 20.4846 20.6978 20.5467 21.8201 20.5469C21.8892 20.5466 21.9562 20.5711 22.0089 20.6158C22.0616 20.6605 22.0966 20.7226 22.1076 20.7908C22.1186 20.8591 22.1049 20.929 22.069 20.988C22.033 21.0471 21.9772 21.0914 21.9115 21.1129C21.4842 21.2555 21.0366 21.3282 20.5861 21.3281H19.7658C19.6992 21.3281 19.6336 21.345 19.5754 21.3775C19.5172 21.4099 19.4682 21.4567 19.4332 21.5134C19.3981 21.5701 19.3782 21.6348 19.3752 21.7014C19.3722 21.7679 19.3864 21.8342 19.4162 21.8938L21.258 25.5766C21.3041 25.669 21.3282 25.7709 21.3283 25.8742C21.3258 25.902 21.3154 25.9285 21.2983 25.9506C21.2813 25.9727 21.2583 25.9894 21.2321 25.9989C21.2059 26.0085 21.1775 26.0103 21.1503 26.0043C21.123 25.9982 21.0981 25.9845 21.0783 25.9648ZM19.3752 13.9062H21.7189V17.0312H19.3752V13.9062ZM13.9064 17.2785V13.9062H18.5939V17.4219C18.5939 17.5255 18.6351 17.6248 18.7084 17.6981C18.7816 17.7713 18.881 17.8125 18.9846 17.8125H22.1096C22.2132 17.8125 22.3125 17.7713 22.3858 17.6981C22.459 17.6248 22.5002 17.5255 22.5002 17.4219V13.9062H27.1877V25.625H22.0803C22.0588 25.4871 22.0172 25.3532 21.9568 25.2273L21.765 24.8438H26.4064V24.0625H21.3744L20.3979 22.1094H20.5861C21.121 22.1094 21.6524 22.0233 22.16 21.8543C22.4015 21.7737 22.6065 21.6098 22.7382 21.3919C22.8699 21.174 22.9197 20.9163 22.8787 20.665C22.8377 20.4137 22.7086 20.1852 22.5145 20.0204C22.3204 19.8556 22.074 19.7653 21.8193 19.7656C20.7261 19.7653 19.6337 19.7049 18.5471 19.5848L17.2459 19.4402L17.2436 19.4379L13.9064 17.2785Z" fill="#DE672E"/>
<path d="M26.9118 27.2229L24.9364 27.5049C24.6951 27.5406 24.4745 27.6612 24.3142 27.8451C24.154 28.0291 24.0648 28.2641 24.0625 28.5081L21.668 28.0291C21.0761 27.9042 20.4594 27.978 19.9137 28.2393C19.741 28.3253 19.5976 28.4606 19.5019 28.6281C19.4062 28.7957 19.3623 28.9879 19.376 29.1804C19.3896 29.3728 19.4601 29.5569 19.5785 29.7093C19.6969 29.8617 19.8579 29.9754 20.0411 30.0362L25.0801 31.7159C25.6446 31.904 26.251 31.9273 26.8282 31.7831L29.161 31.1998C29.1816 31.2766 29.2253 31.3452 29.2863 31.3962C29.3472 31.4472 29.4224 31.4782 29.5016 31.485L34.5797 31.8756L34.6395 31.0936L29.9219 30.7319V28.3592H34.6094V27.578H29.5313C29.4772 27.5783 29.4239 27.59 29.3746 27.6123C29.3254 27.6346 29.2813 27.6669 29.2454 27.7073C28.5472 27.2801 27.7223 27.1089 26.9118 27.2229ZM26.6383 31.0237C26.2053 31.1316 25.7505 31.1141 25.327 30.9733L20.2879 29.2936C20.2518 29.2815 20.2201 29.2589 20.1967 29.2288C20.1734 29.1986 20.1595 29.1622 20.1569 29.1242C20.1542 29.0862 20.1628 29.0482 20.1817 29.0151C20.2006 28.982 20.2289 28.9552 20.2629 28.9381C20.6532 28.7541 21.0932 28.7039 21.5149 28.7952L24.6204 29.4163C24.7624 29.4907 24.9202 29.53 25.0805 29.5311H26.4063V28.7498H25.0805C25.021 28.7492 24.9638 28.7262 24.9205 28.6853C24.8772 28.6445 24.8508 28.5888 24.8466 28.5294C24.8424 28.47 24.8607 28.4112 24.8979 28.3647C24.9351 28.3182 24.9884 28.2874 25.0473 28.2784L27.0223 27.9963C27.6906 27.9027 28.37 28.0568 28.9325 28.4295L29.1407 28.5686V30.3983L26.6383 31.0237Z" fill="#DE672E"/>
<path d="M26.4062 22.5H23.2812V23.2812H26.4062V22.5Z" fill="#DE672E"/>
</svg>
