<svg width="35" height="35" viewBox="0 0 35 35" fill="none" xmlns="http://www.w3.org/2000/svg">
<path d="M28.8431 6.15681C27.3547 4.66199 25.586 3.47542 23.6384 2.66503C21.6907 1.85464 19.6024 1.43634 17.4929 1.43409C15.3834 1.43184 13.2942 1.84567 11.3448 2.6519C9.39545 3.45813 7.62425 4.64093 6.1326 6.13257C4.64096 7.62421 3.45816 9.3954 2.65192 11.3448C1.84569 13.2941 1.43185 15.3833 1.43409 17.4928C1.43634 19.6023 1.85462 21.6907 2.66501 23.6383C3.47539 25.586 4.66196 27.3546 6.15677 28.8431C7.64523 30.3379 9.4139 31.5245 11.3615 32.3349C13.3092 33.1453 15.3975 33.5636 17.507 33.5658C19.6165 33.5681 21.7057 33.1542 23.6551 32.348C25.6045 31.5418 27.3757 30.359 28.8673 28.8673C30.3589 27.3757 31.5417 25.6045 32.348 23.6551C33.1542 21.7058 33.5681 19.6166 33.5658 17.5071C33.5636 15.3976 33.1453 13.3092 32.3349 11.3616C31.5245 9.41395 30.3379 7.64527 28.8431 6.15681ZM30.126 10.2083H29.1598C29.025 10.2079 28.8959 10.1544 28.8004 10.0594L28.65 9.90899C28.2804 9.54148 27.7807 9.33454 27.2594 9.33306H26.3145C26.0089 9.33333 25.7075 9.40439 25.434 9.54067L24.2088 10.154C24.1377 10.1896 24.0593 10.2081 23.9798 10.208H23.7596C23.6248 10.2078 23.4957 10.1542 23.4004 10.0589C23.3051 9.96367 23.2515 9.83448 23.2513 9.69974C23.2513 9.63299 23.2645 9.5669 23.29 9.50524C23.3156 9.44358 23.353 9.38756 23.4002 9.34037L24.6464 8.09411C24.6848 8.05565 24.729 8.02353 24.7775 7.99896L26.0865 7.34483C26.1573 7.30962 26.2354 7.2913 26.3145 7.2913H27.9036C28.7634 8.16686 29.5101 9.14683 30.126 10.2083ZM9.9486 5.02799L11.6901 6.23747C11.7735 6.29558 11.841 6.37368 11.8865 6.46463L12.0939 6.87855C12.2641 7.22256 12.5274 7.51195 12.8538 7.71385C13.1803 7.91574 13.5568 8.02205 13.9406 8.02069H15.4252C15.586 8.02088 15.7402 8.08484 15.854 8.19857C15.9677 8.31229 16.0317 8.46648 16.0319 8.62732V8.65357C16.0323 8.76628 16.001 8.87685 15.9417 8.9727C15.8824 9.06855 15.7974 9.14584 15.6963 9.19579L12.1344 10.9771C12.0578 11.0154 11.9836 11.0583 11.9123 11.1058L10.0889 12.3216C9.79011 12.5214 9.54832 12.7953 9.38716 13.1165L9.11612 13.6599C8.97256 13.9464 8.8978 14.2625 8.8978 14.583C8.8978 14.9034 8.97256 15.2195 9.11612 15.506C9.17314 15.6201 9.19279 15.7492 9.17227 15.8751C9.15176 16.0009 9.09212 16.1171 9.00182 16.2071L8.96204 16.247C8.86655 16.3429 8.74166 16.4039 8.60736 16.4204C8.47306 16.4368 8.33712 16.4078 8.22129 16.3378L5.89311 14.9417C5.76896 14.8671 5.67565 14.7504 5.63006 14.6129L5.05694 12.8943C5.00853 12.7491 4.91568 12.6229 4.79153 12.5334C4.66738 12.444 4.51823 12.3958 4.36521 12.3958C4.19706 12.401 4.03021 12.3648 3.87938 12.2903C5.04439 9.26537 7.17862 6.7116 9.9486 5.02799ZM2.91661 17.5C2.91607 16.2116 3.08663 14.9289 3.42383 13.6855C3.55299 13.7362 3.68638 13.7754 3.82244 13.8025L4.24627 15.074C4.40192 15.542 4.71994 15.9388 5.1428 16.1927L7.47037 17.5886C7.86494 17.8264 8.32784 17.9251 8.7851 17.8689C9.24236 17.8127 9.66758 17.6049 9.99283 17.2786L10.0327 17.2388C10.3395 16.9325 10.542 16.5373 10.6116 16.1094C10.6811 15.6815 10.6141 15.2425 10.4201 14.8549C10.3776 14.7707 10.3556 14.6777 10.3556 14.5834C10.3557 14.4891 10.3779 14.3962 10.4204 14.312L10.6909 13.7696C10.7385 13.6749 10.8098 13.5941 10.8979 13.5352L12.7208 12.3197C12.7417 12.3058 12.7635 12.2932 12.7861 12.282L16.3476 10.5009C16.6916 10.3306 16.9809 10.0673 17.1828 9.74089C17.3847 9.41444 17.491 9.03793 17.4897 8.65411V8.62786C17.4892 8.0804 17.2715 7.5555 16.8845 7.16829C16.4975 6.78109 15.9727 6.56321 15.4252 6.56245H13.9406C13.8279 6.56276 13.7173 6.53144 13.6214 6.47203C13.5256 6.41262 13.4483 6.32752 13.3984 6.2264L13.1909 5.812C13.036 5.5027 12.8062 5.23713 12.5223 5.03954L11.3955 4.25751C13.7822 3.15548 16.4228 2.72026 19.037 2.99807C21.6512 3.27588 24.1413 4.25634 26.2431 5.83538C25.9621 5.84546 25.6865 5.91538 25.4346 6.04046L24.124 6.69568C23.9359 6.7903 23.7642 6.91441 23.6154 7.06332L22.3694 8.30938C22.1867 8.49198 22.0417 8.7088 21.9428 8.94743C21.8439 9.18606 21.793 9.44183 21.793 9.70015C21.7935 10.2215 22.0009 10.7214 22.3696 11.0901C22.7383 11.4588 23.2382 11.6661 23.7596 11.6667H23.9798C24.2854 11.6662 24.5867 11.5952 24.8603 11.4591L26.0864 10.8453C26.1573 10.8101 26.2353 10.7918 26.3144 10.7918H27.2595C27.3942 10.7922 27.5234 10.8457 27.6189 10.9407L27.7693 11.0911C28.1389 11.4587 28.6386 11.6656 29.1599 11.6671H30.8642C31.0833 12.1664 31.274 12.6776 31.4353 13.1984H28.6647C28.5862 13.1983 28.5082 13.1856 28.4337 13.1607L26.8734 12.6406C26.4788 12.5092 26.0549 12.493 25.6514 12.5938L23.3903 13.1593C23.1476 13.22 22.9172 13.322 22.7091 13.4608L21.3816 14.3458C21.0815 14.5452 20.8354 14.8158 20.6654 15.1334C20.4953 15.451 20.4065 15.8058 20.4069 16.1661V17.3359C20.4069 17.5711 20.4449 17.8048 20.5194 18.0279L20.8407 18.9932C20.9854 19.4292 21.2639 19.8085 21.6366 20.0771C22.0092 20.3458 22.4571 20.4901 22.9165 20.4896H22.9793C23.3187 20.4894 23.6535 20.4104 23.9571 20.2587L24.4562 20.0094C24.5673 19.9538 24.6909 19.9276 24.815 19.9333C24.9391 19.9389 25.0598 19.9762 25.1655 20.0415C25.2712 20.1069 25.3584 20.1982 25.4189 20.3067C25.4794 20.4152 25.5112 20.5374 25.5112 20.6617V20.8746C25.5113 21.2141 25.5904 21.5488 25.742 21.8525L26.8932 24.1549C26.9434 24.2558 26.9696 24.3669 26.9695 24.4796V26.086C26.9695 26.3214 27.0075 26.5552 27.0821 26.7784C27.0867 26.7926 27.0919 26.8067 27.0977 26.8207L27.5842 28.0251C24.8743 30.6314 21.2598 32.0859 17.5 32.0833C9.45867 32.0833 2.91661 25.5412 2.91661 17.5ZM28.6822 26.8499L28.4597 26.2989C28.4385 26.2299 28.4277 26.1581 28.4277 26.0859V24.4794C28.4275 24.1401 28.3485 23.8055 28.1969 23.5019L27.0457 21.1995C26.9954 21.0987 26.9693 20.9875 26.9693 20.8749V20.6619C26.9707 20.2553 26.8581 19.8565 26.6443 19.5106C26.4305 19.1648 26.1241 18.8858 25.7598 18.7052C25.4561 18.5534 25.1213 18.4744 24.7818 18.4744C24.4423 18.4744 24.1075 18.5534 23.8038 18.7052L23.304 18.9551C23.2031 19.0054 23.092 19.0315 22.9793 19.0315H22.9166C22.7634 19.0317 22.614 18.9835 22.4898 18.8939C22.3655 18.8043 22.2727 18.6779 22.2244 18.5325L21.9028 17.5667C21.8779 17.4923 21.8652 17.4143 21.8651 17.3359V16.1656C21.865 16.0455 21.8946 15.9273 21.9514 15.8214C22.0081 15.7156 22.0901 15.6254 22.1901 15.559L23.5188 14.6732C23.588 14.6272 23.6647 14.5934 23.7454 14.5732L26.0045 14.0082C26.1393 13.9746 26.2809 13.98 26.4128 14.0238L27.9726 14.5438C28.1957 14.6182 28.4294 14.6562 28.6646 14.6562H31.804C32.2285 16.7928 32.1684 18.9974 31.6281 21.1077C31.0878 23.2179 30.0812 25.1802 28.6822 26.8499Z" fill="#FC746C"/>
<path d="M18.7764 20.2448L16.8561 19.2844C16.8274 19.2702 16.8033 19.2482 16.7864 19.221C16.7696 19.1938 16.7608 19.1624 16.7609 19.1304C16.7604 18.6982 16.5884 18.2838 16.2827 17.9782C15.9771 17.6726 15.5627 17.5007 15.1305 17.5002H14.9468C14.9012 17.5001 14.8575 17.4819 14.8251 17.4497L14.6239 17.2485C14.4728 17.0966 14.2931 16.9762 14.0952 16.8943C13.8973 16.8123 13.6851 16.7704 13.4709 16.771H12.2138C11.9108 16.77 11.6136 16.8539 11.3558 17.0132C11.098 17.1725 10.8901 17.4008 10.7555 17.6723L10.4098 18.3637C10.3931 18.397 10.3661 18.424 10.3328 18.4407L9.64156 18.7864C9.37008 18.921 9.14173 19.1289 8.98243 19.3867C8.82312 19.6444 8.73922 19.9417 8.74024 20.2447V20.8731C8.73994 21.195 8.83525 21.5098 9.01409 21.7775L10.1882 23.5388C10.3457 23.7747 10.5619 23.9656 10.8156 24.0925L11.5618 24.4655C11.5905 24.4797 11.6146 24.5017 11.6314 24.5289C11.6482 24.5561 11.6571 24.5875 11.6569 24.6195V27.4955C11.6573 27.7486 11.7162 27.9982 11.8291 28.2247L12.3978 29.3621C12.4761 29.5189 12.5792 29.662 12.7031 29.7859L13.5986 30.6815C13.8404 30.9237 14.1524 31.0836 14.4903 31.1385C14.8282 31.1933 15.1747 31.1403 15.4808 30.9869L15.9636 30.7454C16.1862 30.6351 16.3804 30.4749 16.5312 30.2775C16.682 30.08 16.7854 29.8505 16.8332 29.6066L17.4224 26.6604C17.4291 26.627 17.4455 26.5964 17.4696 26.5724L18.5845 25.4576C18.7632 25.2784 18.898 25.0602 18.9784 24.8202L19.5936 22.9737C19.6492 22.8074 19.6775 22.6331 19.6774 22.4578V21.7031C19.6784 21.4001 19.5946 21.1029 19.4353 20.8451C19.2761 20.5874 19.0478 20.3794 18.7764 20.2448ZM18.2193 22.4581C18.2194 22.4767 18.2164 22.4952 18.2104 22.5128L17.5948 24.3597C17.5864 24.385 17.5721 24.408 17.5533 24.4269L16.4384 25.5418C16.2105 25.7692 16.0553 26.0592 15.9925 26.375L15.4033 29.3213C15.3982 29.347 15.3873 29.3713 15.3714 29.3921C15.3554 29.4129 15.3349 29.4298 15.3114 29.4414L14.8284 29.6829C14.7961 29.6992 14.7595 29.7048 14.7238 29.699C14.6882 29.6932 14.6552 29.6763 14.6297 29.6507L13.7342 28.7552C13.7212 28.7421 13.7103 28.727 13.702 28.7105L13.1335 27.5736C13.1215 27.5496 13.1152 27.5232 13.1152 27.4963V24.6198C13.1162 24.3168 13.0323 24.0195 12.873 23.7618C12.7137 23.504 12.4854 23.296 12.2139 23.1614L11.4678 22.7884C11.441 22.775 11.4182 22.7548 11.4015 22.73L10.2274 20.9687C10.2085 20.9404 10.1984 20.907 10.1985 20.873V20.2446C10.1984 20.2125 10.2072 20.1812 10.224 20.1539C10.2409 20.1267 10.265 20.1048 10.2937 20.0906L10.9852 19.7451C11.3004 19.5868 11.5561 19.3311 11.7145 19.0159L12.0602 18.3245C12.0744 18.2958 12.0963 18.2717 12.1235 18.2548C12.1507 18.238 12.1821 18.2292 12.2141 18.2293H13.4713C13.5169 18.2295 13.5606 18.2476 13.5929 18.2798L13.7942 18.481C13.9453 18.6329 14.1249 18.7533 14.3228 18.8352C14.5207 18.9172 14.7329 18.9591 14.9471 18.9585H15.1309C15.1765 18.9585 15.2203 18.9767 15.2526 19.009C15.2848 19.0412 15.303 19.085 15.303 19.1306C15.302 19.4336 15.3859 19.7309 15.5452 19.9886C15.7045 20.2464 15.9328 20.4543 16.2043 20.5889L18.1245 21.5491C18.1532 21.5633 18.1774 21.5852 18.1942 21.6125C18.211 21.6397 18.2198 21.6711 18.2197 21.7031L18.2193 22.4581Z" fill="#FC746C"/>
</svg>
