<svg width="248" height="105" viewBox="0 0 248 105" fill="none" xmlns="http://www.w3.org/2000/svg">
<g id="Group" opacity="0.5">
<path id="Vector" d="M248.001 13.3569C216.266 0.973929 178.231 -3.42008 139.1 2.81692C67.3106 14.2589 13.3856 58.0189 0.931641 109H248.001V13.3569Z" fill="#FFDDDD"/>
<g id="Group_2">
<path id="Vector_2" d="M132.9 109C135.318 105.467 136.208 101.764 133.571 98.6646C129.713 94.1316 120.801 94.1916 113.466 95.2166C106.131 96.2416 97.8485 97.6196 92.0345 94.4696C84.5265 90.4016 85.4416 80.9626 78.0306 76.7996C72.2966 73.5786 63.6156 74.7076 57.4296 71.9686C52.7166 69.8816 50.2285 65.9086 48.2385 62.0696C45.0365 55.8916 41.1155 52.2306 36.7515 50.5146C18.6755 67.5046 6.16255 87.6176 0.935547 109H132.9Z" fill="#4D1A2D"/>
<path id="Vector_3" d="M248.001 13.3666C246.981 12.9686 245.966 12.5646 244.933 12.1836C236.078 20.0776 235.194 31.7796 222.754 38.9066C216.215 42.6536 207.685 43.2746 199.934 45.1406C192.878 46.8396 186.233 49.6746 180.605 53.3876C177.215 55.6246 173.946 59.0656 175.737 61.9786C176.415 63.0816 177.717 63.8686 178.98 64.6196C182.951 66.9796 186.923 69.3386 190.894 71.6986C194.827 74.0356 198.866 76.4156 203.707 77.5706C214.59 80.1676 226.547 76.1136 237.979 73.9666C240.038 73.5796 242.26 73.2616 244.156 73.8436C245.855 74.3646 246.99 75.5156 248 76.6626L248.001 13.3666Z" fill="#4D1A2D"/>
</g>
</g>
</svg>
