<svg width="21" height="23" viewBox="0 0 21 23" fill="none" xmlns="http://www.w3.org/2000/svg">
<path d="M16.9419 19.6193L15.4815 17.1868C14.8083 16.0637 14.4527 14.7789 14.4527 13.4695V11.3389C14.4527 9.76115 13.826 8.24805 12.7104 7.13244C11.5948 6.01683 10.0817 5.39008 8.50394 5.39008C6.92623 5.39008 5.41313 6.01683 4.29752 7.13244C3.1819 8.24805 2.55516 9.76115 2.55516 11.3389V13.4695C2.55519 14.7789 2.1996 16.0637 1.52636 17.1868L0.0660045 19.6193C0.0274601 19.6839 0.00671438 19.7574 0.00588524 19.8326C0.0050561 19.9078 0.0241745 19.9818 0.0612859 20.0471C0.0983973 20.1125 0.152175 20.1669 0.21714 20.2047C0.282105 20.2425 0.355932 20.2624 0.431093 20.2623H16.5746C16.6498 20.2624 16.7236 20.2425 16.7886 20.2047C16.8535 20.1669 16.9073 20.1125 16.9444 20.0471C16.9815 19.9818 17.0006 19.9078 16.9998 19.8326C16.999 19.7574 16.9782 19.6839 16.9397 19.6193H16.9419ZM1.18089 19.4133L2.25436 17.625C3.00749 16.3701 3.40529 14.9341 3.40521 13.4706V11.3389C3.39533 10.663 3.51992 9.99196 3.77172 9.36469C4.02352 8.73742 4.39751 8.16647 4.87195 7.68504C5.34639 7.20361 5.91181 6.82132 6.53533 6.56037C7.15885 6.29943 7.82802 6.16505 8.50394 6.16505C9.17986 6.16505 9.84904 6.29943 10.4726 6.56037C11.0961 6.82132 11.6615 7.20361 12.1359 7.68504C12.6104 8.16647 12.9844 8.73742 13.2362 9.36469C13.488 9.99196 13.6126 10.663 13.6027 11.3389V13.4695C13.6026 14.9328 14 16.3688 14.7524 17.6239L15.827 19.4123L1.18089 19.4133Z" fill="#4D1A2D"/>
<path d="M10.3373 19.6226C10.2802 19.5252 10.1867 19.4544 10.0775 19.4259C9.96826 19.3974 9.85217 19.4135 9.75476 19.4706C9.65735 19.5277 9.58661 19.6211 9.5581 19.7303C9.52959 19.8396 9.54565 19.9557 9.60274 20.0531C9.71475 20.2469 9.77376 20.4668 9.77383 20.6907C9.77391 20.9145 9.71503 21.1345 9.60313 21.3284C9.49124 21.5223 9.33026 21.6833 9.1364 21.7953C8.94253 21.9072 8.72262 21.9662 8.49875 21.9662C8.27487 21.9662 8.05494 21.9072 7.86108 21.7953C7.66721 21.6833 7.50624 21.5223 7.39434 21.3284C7.28245 21.1345 7.22357 20.9145 7.22364 20.6907C7.22371 20.4668 7.28274 20.2469 7.39476 20.0531C7.45184 19.9557 7.46788 19.8396 7.43937 19.7303C7.41086 19.6211 7.34012 19.5277 7.24271 19.4706C7.14531 19.4135 7.02921 19.3974 6.91997 19.4259C6.81073 19.4544 6.71729 19.5252 6.66021 19.6226C6.47273 19.9456 6.3737 20.3123 6.37305 20.6857C6.37241 21.0592 6.47017 21.4262 6.65653 21.7499C6.84289 22.0735 7.11125 22.3423 7.43457 22.5292C7.75788 22.7161 8.12474 22.8145 8.4982 22.8145C8.87165 22.8145 9.23851 22.7161 9.56183 22.5292C9.88514 22.3423 10.1535 22.0735 10.3398 21.7499C10.5262 21.4262 10.624 21.0592 10.6233 20.6857C10.6227 20.3123 10.5236 19.9456 10.3362 19.6226H10.3373Z" fill="#4D1A2D"/>
<path d="M15.0008 3.34375C15.0008 1.6869 16.344 0.34375 18.0008 0.34375C19.6577 0.34375 21.0008 1.6869 21.0008 3.34375C21.0008 5.0006 19.6577 6.34375 18.0008 6.34375C16.344 6.34375 15.0008 5.0006 15.0008 3.34375Z" fill="#DA1414"/>
</svg>
