<svg width="19" height="19" viewBox="0 0 19 19" fill="none" xmlns="http://www.w3.org/2000/svg">
<g id="20456401901582956836" clip-path="url(#clip0_181_4358)">
<path id="Vector" d="M18.2887 7.0687L17.2138 5.78665L16.8578 4.1519C16.817 3.96454 16.7313 3.78988 16.6081 3.64294C16.4849 3.496 16.3278 3.38117 16.1505 3.30832L14.6028 2.67268L13.5279 1.39062C13.4047 1.24368 13.2476 1.12885 13.0703 1.056C12.8929 0.983145 12.7005 0.954448 12.5096 0.972372L10.8438 1.12875L9.29618 0.49311C9.1188 0.420257 8.92639 0.391559 8.73547 0.409482C8.54456 0.427405 8.36085 0.491414 8.20013 0.596007L6.79785 1.50859L5.13211 1.66497C4.94119 1.68289 4.75748 1.7469 4.59676 1.8515C4.43604 1.95609 4.30312 2.09814 4.20942 2.26544L3.39186 3.72516L1.98959 4.63774C1.82887 4.74233 1.69595 4.88439 1.60225 5.05169C1.50855 5.21899 1.45686 5.40654 1.45164 5.59823L1.4061 7.27068L0.588542 8.7304C0.49484 8.8977 0.443158 9.08525 0.437939 9.27694C0.432719 9.46862 0.474118 9.65871 0.558577 9.83086L1.29548 11.3329L1.24993 13.0054C1.24471 13.1971 1.28611 13.3871 1.37057 13.5593C1.45503 13.7314 1.58002 13.8805 1.73481 13.9937L3.08534 14.9812L3.82224 16.4833C3.9067 16.6555 4.03169 16.8045 4.18648 16.9177C4.34127 17.0309 4.52122 17.1048 4.71088 17.1331L6.36565 17.3799L7.71618 18.3674C7.87097 18.4806 8.05092 18.5545 8.24058 18.5828C8.43024 18.6111 8.62393 18.5929 8.80501 18.5298L10.3849 17.9794L12.0397 18.2262C12.2294 18.2545 12.423 18.2363 12.6041 18.1732C12.7852 18.1101 12.9483 18.004 13.0793 17.864L14.2224 16.6423L15.8023 16.0918C15.9834 16.0287 16.1465 15.9226 16.2775 15.7826C16.4085 15.6426 16.5036 15.4729 16.5545 15.288L16.999 13.675L18.1421 12.4534C18.2731 12.3134 18.3682 12.1436 18.4191 11.9588C18.4701 11.7739 18.4754 11.5794 18.4346 11.3921L18.0785 9.75732L18.523 8.14437C18.5739 7.9595 18.5792 7.76503 18.5384 7.57766C18.4976 7.3903 18.4119 7.21564 18.2887 7.0687ZM9.50154 15.4728C8.32025 15.4728 7.16548 15.1225 6.18328 14.4662C5.20107 13.8099 4.43553 12.8771 3.98347 11.7857C3.53141 10.6943 3.41314 9.49342 3.64359 8.33483C3.87405 7.17624 4.4429 6.112 5.2782 5.2767C6.1135 4.4414 7.17773 3.87256 8.33632 3.6421C9.49492 3.41164 10.6958 3.52992 11.7872 3.98198C12.8786 4.43404 13.8114 5.19958 14.4677 6.18179C15.124 7.16399 15.4743 8.31876 15.4743 9.50005C15.4743 10.2844 15.3198 11.0611 15.0196 11.7857C14.7194 12.5103 14.2795 13.1688 13.7249 13.7234C13.1703 14.278 12.5118 14.718 11.7872 15.0181C11.0626 15.3183 10.2859 15.4728 9.50154 15.4728Z" fill="#FC746C"/>
<path id="Vector_2" d="M9.06239 11.9317C8.75937 11.9139 8.45992 11.8571 8.17151 11.7625C7.9988 11.7027 7.8294 11.6337 7.66406 11.5558L7.98732 10.6912C8.1896 10.7865 8.39959 10.8645 8.61505 10.9242C8.86567 10.9955 9.12511 11.0309 9.38565 11.0295C9.69135 11.0295 9.90061 10.9881 10.0134 10.9054C10.0684 10.8658 10.1127 10.8131 10.1422 10.752C10.1718 10.691 10.1856 10.6236 10.1826 10.5559C10.1851 10.4695 10.1615 10.3843 10.1149 10.3115C10.063 10.2374 9.9965 10.1747 9.91947 10.1273C9.81695 10.0635 9.70871 10.0094 9.59616 9.96565C9.46579 9.91306 9.31543 9.85669 9.14508 9.79652C8.97969 9.73635 8.81805 9.66994 8.66017 9.59728C8.50639 9.52722 8.36236 9.43751 8.23168 9.33039C8.09266 9.21758 7.98188 9.0739 7.90813 8.91077C7.83439 8.74763 7.79972 8.56954 7.80687 8.39066C7.80632 8.22881 7.83041 8.06782 7.87831 7.91322C7.92532 7.76143 8.00056 7.61988 8.10007 7.496C8.20782 7.36453 8.34074 7.25591 8.49103 7.17651C8.67003 7.08251 8.86292 7.01779 9.06239 6.9848V6.17285H10.0096V6.95471C10.2366 6.97411 10.4616 7.01183 10.6825 7.06749C10.8354 7.10571 10.985 7.15599 11.1299 7.21786L10.8968 8.12C10.7106 8.04333 10.5182 7.98295 10.3216 7.93955C10.0959 7.88863 9.86514 7.86342 9.63374 7.86441C9.45252 7.84926 9.2711 7.89131 9.11503 7.98466C9.06502 8.0205 9.02451 8.06799 8.997 8.12301C8.9695 8.17804 8.95582 8.23894 8.95716 8.30045C8.95511 8.37244 8.97195 8.44371 9.00601 8.50716C9.04398 8.57039 9.09691 8.62332 9.16014 8.66129C9.24256 8.71272 9.32935 8.75679 9.4195 8.79299C9.52217 8.83575 9.64622 8.88223 9.79166 8.93243C10.001 9.00799 10.2056 9.09605 10.4044 9.19614C10.5807 9.28374 10.7449 9.3937 10.893 9.52329C11.0291 9.64378 11.1391 9.79082 11.2163 9.95537C11.2974 10.1373 11.3372 10.3349 11.3328 10.534C11.3327 10.6856 11.3098 10.8362 11.2652 10.9811C11.2186 11.1315 11.1419 11.2708 11.0397 11.3906C10.9249 11.5233 10.7858 11.633 10.6299 11.7137C10.4353 11.8125 10.2257 11.8785 10.0096 11.9091V12.8263H9.06239L9.06239 11.9317Z" fill="black"/>
</g>
<defs>
<clipPath id="clip0_181_4358">
<rect width="19" height="19" fill="white"/>
</clipPath>
</defs>
</svg>
