<svg width="44" height="44" viewBox="0 0 44 44" fill="none" xmlns="http://www.w3.org/2000/svg">
<rect x="0.5" y="0.5" width="43" height="43" rx="5.5" stroke="#7FA695"/>
<g clip-path="url(#clip0_46_1024)">
<path d="M33.7467 14.4067L24.0101 9.06022C23.8638 8.97993 23.6864 8.97993 23.5401 9.06022L19.8702 11.0753C19.7927 11.0957 19.7204 11.1347 19.6605 11.1905L13.8036 14.4067C13.6474 14.4924 13.5503 14.6564 13.5503 14.8347V21.301C12.5623 21.61 11.6569 22.1549 10.9041 22.908C8.9418 24.8701 8.4415 27.8627 9.65916 30.3546C9.77741 30.5969 10.0698 30.6974 10.312 30.5789C10.5545 30.4605 10.6548 30.1681 10.5365 29.9259C9.50199 27.8085 9.92714 25.2658 11.5945 23.5984C12.6373 22.5557 14.0236 21.9814 15.4981 21.9814C16.9727 21.9814 18.359 22.5557 19.4017 23.5984C20.4443 24.641 21.0186 26.0272 21.0186 27.5018C21.0186 28.9764 20.4443 30.3626 19.4015 31.4054C17.7341 33.0728 15.1914 33.4979 13.0741 32.4634C12.8318 32.345 12.5394 32.4455 12.4212 32.6877C12.3027 32.9301 12.4031 33.2225 12.6455 33.3408C13.5532 33.7844 14.5271 34 15.4939 34C17.1806 33.9998 18.8448 33.3433 20.0922 32.0959C20.6642 31.5238 21.1162 30.8639 21.4361 30.1465L23.5401 31.3018C23.6133 31.3421 23.6942 31.3621 23.7751 31.3621C23.8559 31.3621 23.937 31.3421 24.0101 31.3018L33.7467 25.9555C33.9029 25.8697 34 25.7057 34 25.5275V22.1342C34 21.8645 33.7814 21.6459 33.5117 21.6459C33.242 21.6459 33.0234 21.8645 33.0234 22.1342V25.2386L24.2649 30.0479V20.4692L27.1555 18.8819V21.3981C27.1555 21.5709 27.2466 21.7307 27.3952 21.8185C27.4719 21.8637 27.5577 21.8864 27.6437 21.8864C27.7246 21.8864 27.8057 21.8664 27.8791 21.8259L29.9656 20.6775C30.1216 20.5917 30.2183 20.4278 30.2183 20.2499V17.2L33.0234 15.6598V18.2281C33.0234 18.4978 33.242 18.7164 33.5117 18.7164C33.7814 18.7164 34 18.4978 34 18.2281V14.8347C34 14.6566 33.9029 14.4924 33.7467 14.4067ZM23.7751 10.0452L32.4972 14.8347L29.7458 16.3455L21.0237 11.556L23.7751 10.0452ZM23.7751 19.6241L15.0529 14.8347L17.9052 13.2684L26.6275 18.0578L23.7751 19.6241ZM27.6418 17.5008L18.9197 12.7115L20.0092 12.1131L28.7315 16.9025L27.6418 17.5008ZM20.0922 22.908C18.865 21.6808 17.2334 21.005 15.4981 21.005C15.1699 21.005 14.8456 21.0292 14.5269 21.0767V15.6598L23.2885 20.4709V30.0497L21.7678 29.2146C21.9175 28.6634 21.9949 28.0885 21.9949 27.5018C21.9949 25.7665 21.3192 24.135 20.0922 22.908ZM29.2419 19.9613L28.132 20.5722V18.3458L29.2419 17.7364V19.9613Z" fill="#7FA695"/>
<path d="M33.5117 19.6904C33.3834 19.6904 33.2573 19.7427 33.1665 19.8335C33.0757 19.9243 33.0234 20.0502 33.0234 20.1787C33.0234 20.3071 33.0757 20.433 33.1665 20.5238C33.2573 20.6147 33.3834 20.6668 33.5117 20.6668C33.6401 20.6668 33.7662 20.6147 33.8569 20.5238C33.9477 20.433 34 20.3071 34 20.1787C34 20.0502 33.9477 19.9243 33.8569 19.8335C33.7662 19.7427 33.6401 19.6904 33.5117 19.6904Z" fill="#7FA695"/>
<path d="M13.8563 27.9901C13.9812 27.9901 14.1064 27.9424 14.2015 27.8472C14.3923 27.6565 14.3923 27.3473 14.2015 27.1566L13.8634 26.8182H16.7492C17.4492 26.8182 18.0187 27.3878 18.0187 28.0877C18.0187 28.7877 17.4492 29.3573 16.7492 29.3573H15.0392C14.7695 29.3573 14.551 29.5759 14.551 29.8456C14.551 30.1151 14.7695 30.3337 15.0392 30.3337H16.7492C17.9876 30.3337 18.9953 29.3262 18.9953 28.0877C18.9953 26.8493 17.9876 25.8418 16.7492 25.8418H13.8634L14.2015 25.5035C14.3923 25.3127 14.3923 25.0036 14.2015 24.8128C14.011 24.6223 13.7018 24.6223 13.5111 24.8128L12.3392 25.9847C12.1487 26.1754 12.1487 26.4846 12.3392 26.6754L13.5111 27.847C13.6064 27.9424 13.7314 27.9901 13.8563 27.9901Z" fill="#7FA695"/>
<path d="M11.2498 32.2396C11.111 32.2396 10.9731 32.1805 10.8767 32.0659L10.8758 32.0647C10.7022 31.8583 10.7289 31.5505 10.9353 31.3769C11.1417 31.2032 11.4497 31.2299 11.6233 31.4362C11.7967 31.6428 11.7705 31.9512 11.5641 32.1248C11.4724 32.2018 11.3608 32.2396 11.2498 32.2396Z" fill="#7FA695"/>
</g>
<defs>
<clipPath id="clip0_46_1024">
<rect width="25" height="25" fill="white" transform="translate(9 9)"/>
</clipPath>
</defs>
</svg>
