<svg width="44" height="44" viewBox="0 0 44 44" fill="none" xmlns="http://www.w3.org/2000/svg">
<rect x="0.5" y="0.5" width="43" height="43" rx="5.5" stroke="#636AE8"/>
<g clip-path="url(#clip0_46_907)">
<path d="M33.2592 15.8165C33.2585 15.8153 33.2585 15.8138 33.2578 15.8125C33.2569 15.8111 33.2557 15.8099 33.2548 15.8085C33.0438 15.479 32.7426 15.212 32.3835 15.0376L22.4464 10.2139C21.8573 9.92921 21.1477 9.92804 20.546 10.2143L10.6049 15.0395C10.2576 15.2128 9.9583 15.4778 9.73974 15.8055C9.73776 15.8084 9.73781 15.8122 9.7359 15.8152C9.73521 15.8148 9.73452 15.815 9.73383 15.8145C9.50859 16.1725 9.38965 16.5816 9.38965 16.9971V27.9904C9.38965 28.8284 9.85592 29.5789 10.6085 29.9499L20.5511 34.7842C20.8484 34.9236 21.1847 35 21.4966 35C21.8124 35 22.1393 34.9252 22.4472 34.781L32.3835 29.9499C33.1404 29.5821 33.6106 28.8307 33.6106 27.9904V16.9971C33.6106 16.5777 33.489 16.1695 33.2592 15.8165ZM17.446 12.6173L28.2313 17.8576L25.551 19.1602L14.7654 13.92L17.446 12.6173ZM20.8953 10.9413C21.2737 10.7605 21.7218 10.7601 22.0944 10.9397L32.0307 15.7629C32.1118 15.8023 32.1874 15.8483 32.2574 15.9015L29.1545 17.4092L18.367 12.1684L20.8953 10.9413ZM10.9609 15.7629L13.8387 14.3662L24.6284 19.6084L21.4966 21.1302L12.059 16.5446L10.738 15.9027C10.8081 15.8488 10.8829 15.8019 10.9609 15.7629ZM10.9633 29.2261C10.4899 28.9922 10.1962 28.5188 10.1962 27.9904V16.9971C10.1962 16.8542 10.2198 16.7089 10.2646 16.5696L21.0933 21.831V34.1305C21.0264 34.1108 10.9633 29.2261 10.9633 29.2261ZM32.8041 27.9904C32.8041 28.5196 32.508 28.993 32.0307 29.2253C32.0307 29.2253 21.9676 34.11 21.8998 34.1305V21.831L25.1487 20.2524V23.7799C25.1487 24.0729 25.3361 24.332 25.6141 24.4241C25.6842 24.447 25.7567 24.458 25.8276 24.458C26.0379 24.458 26.2411 24.3596 26.371 24.1839L27.4934 22.6686L28.644 23.1002C28.8528 23.1789 29.0859 23.1506 29.2686 23.0222C29.4513 22.8962 29.56 22.6879 29.56 22.4654V18.109L32.7332 16.5671C32.7797 16.7061 32.8041 16.8522 32.8041 16.9971L32.8041 27.9904ZM28.7535 18.505V22.2799L27.4918 21.8066C27.3224 21.7428 27.1326 21.7991 27.0263 21.9444L25.9552 23.3908V19.8636L28.7535 18.505Z" fill="#636AE8"/>
</g>
<defs>
<clipPath id="clip0_46_907">
<rect width="25" height="25" fill="white" transform="translate(9 10)"/>
</clipPath>
</defs>
</svg>
