<svg width="44" height="44" viewBox="0 0 44 44" fill="none" xmlns="http://www.w3.org/2000/svg">
<rect x="0.5" y="0.5" width="43" height="43" rx="5.5" stroke="#E8618C"/>
<path d="M24.0899 28.1701L30.5774 26.7951C30.5024 27.5518 30.3057 28.2818 29.9874 28.9851L23.5149 30.3601C23.5815 29.5935 23.7732 28.8635 24.0899 28.1701ZM29.9874 24.8576L23.5149 26.2326V22.1076L21.4949 22.5401V24.8301C21.4949 25.0351 21.4382 25.2218 21.3249 25.3901L20.2724 26.9476C19.9924 27.351 19.6174 27.5993 19.1474 27.6926L13.4224 28.9151C13.4974 28.1568 13.694 27.4268 14.0124 26.7251L19.4724 25.5601V22.9601L14.3774 24.0426C14.4524 23.2843 14.6482 22.5593 14.9649 21.8676L19.4724 20.8976V12.8826C20.0424 12.1893 20.7165 11.6226 21.4949 11.1826V20.4776L23.5149 20.0426V13.8926C24.0865 13.201 24.7557 12.6343 25.5224 12.1926V19.6201L30.5774 18.5401C30.5024 19.2985 30.3057 20.0285 29.9874 20.7301L25.5224 21.6851V23.7351L30.5774 22.6676C30.5024 23.4343 30.3057 24.1643 29.9874 24.8576Z" fill="#E8618C"/>
</svg>
