<svg width="17" height="17" viewBox="0 0 17 17" fill="none" xmlns="http://www.w3.org/2000/svg">
<g clip-path="url(#clip0_181_1904)">
<path d="M7.36047 0.664062H2.125C1.73775 0.664764 1.36656 0.818909 1.09274 1.09274C0.818909 1.36656 0.664764 1.73775 0.664062 2.125V7.36047C0.664062 7.46613 0.706042 7.5675 0.780762 7.64222C0.855483 7.71694 0.956829 7.75891 1.0625 7.75891H6.29797C6.68544 7.75891 7.05702 7.60498 7.33101 7.33101C7.60498 7.05702 7.75891 6.68544 7.75891 6.29797V1.0625C7.75891 0.956829 7.71694 0.855483 7.64222 0.780762C7.5675 0.706042 7.46613 0.664062 7.36047 0.664062ZM6.96203 6.29797C6.96203 6.38517 6.94485 6.47153 6.91148 6.55209C6.87812 6.63266 6.82919 6.70586 6.76754 6.76754C6.70586 6.82919 6.63266 6.87812 6.55209 6.91148C6.47153 6.94485 6.38517 6.96203 6.29797 6.96203H1.46094V2.125C1.46094 1.94888 1.5309 1.77997 1.65544 1.65544C1.77997 1.5309 1.94888 1.46094 2.125 1.46094H6.96203V6.29797Z" fill="#858C94"/>
<path d="M6.29797 9.24121H1.0625C0.956829 9.24121 0.855483 9.28321 0.780762 9.35793C0.706042 9.43265 0.664062 9.53398 0.664062 9.63965V14.8751C0.664764 15.2624 0.818909 15.6336 1.09274 15.9074C1.36656 16.1812 1.73775 16.3354 2.125 16.3361H7.36047C7.46613 16.3361 7.5675 16.2941 7.64222 16.2194C7.71694 16.1446 7.75891 16.0433 7.75891 15.9376V10.7021C7.75891 10.3147 7.60498 9.9431 7.33101 9.66913C7.05702 9.39514 6.68544 9.24121 6.29797 9.24121ZM6.96203 15.5392H2.125C1.94888 15.5392 1.77997 15.4692 1.65544 15.3447C1.5309 15.2202 1.46094 15.0513 1.46094 14.8751V10.0381H6.29797C6.38517 10.0381 6.47153 10.0553 6.55209 10.0886C6.63266 10.122 6.70586 10.1709 6.76754 10.2326C6.82919 10.2943 6.87812 10.3675 6.91148 10.448C6.94485 10.5286 6.96203 10.6149 6.96203 10.7021V15.5392Z" fill="#858C94"/>
<path d="M15.9366 9.24121H10.7012C10.3137 9.24121 9.94212 9.39514 9.66816 9.66913C9.39416 9.9431 9.24023 10.3147 9.24023 10.7021V15.9376C9.24023 16.0433 9.28223 16.1446 9.35695 16.2194C9.43167 16.2941 9.53301 16.3361 9.63867 16.3361H14.8741C15.2614 16.3354 15.6326 16.1812 15.9064 15.9074C16.1802 15.6336 16.3344 15.2624 16.3351 14.8751V9.63965C16.3351 9.53398 16.2931 9.43265 16.2184 9.35793C16.1437 9.28321 16.0423 9.24121 15.9366 9.24121ZM15.5382 14.8751C15.5382 15.0513 15.4682 15.2202 15.3437 15.3447C15.2192 15.4692 15.0503 15.5392 14.8741 15.5392H10.0371V10.7021C10.0371 10.526 10.1071 10.3571 10.2316 10.2326C10.3562 10.1081 10.5251 10.0381 10.7012 10.0381H15.5382V14.8751Z" fill="#858C94"/>
<path d="M10.7012 5.67375H11.3254V6.29797C11.3254 6.68544 11.4793 7.05702 11.7533 7.33101C12.0273 7.60498 12.3989 7.75891 12.7863 7.75891C13.1738 7.75891 13.5454 7.60498 13.8194 7.33101C14.0934 7.05702 14.2473 6.68544 14.2473 6.29797V5.67375H14.8741C15.2616 5.67375 15.6332 5.51982 15.9072 5.24585C16.1812 4.97186 16.3351 4.60028 16.3351 4.21281C16.3351 3.82535 16.1812 3.45376 15.9072 3.17977C15.6332 2.9058 15.2616 2.75187 14.8741 2.75187H14.2473V2.125C14.2473 1.73754 14.0934 1.36594 13.8194 1.09196C13.5454 0.817982 13.1738 0.664062 12.7863 0.664062C12.3989 0.664062 12.0273 0.817982 11.7533 1.09196C11.4793 1.36594 11.3254 1.73754 11.3254 2.125V2.75187H10.7012C10.3137 2.75187 9.94212 2.9058 9.66816 3.17977C9.39416 3.45376 9.24023 3.82535 9.24023 4.21281C9.24023 4.60028 9.39416 4.97186 9.66816 5.24585C9.94212 5.51982 10.3137 5.67375 10.7012 5.67375ZM10.7012 3.54875H11.7238C11.8295 3.54875 11.9309 3.50678 12.0056 3.43206C12.0803 3.35734 12.1223 3.25598 12.1223 3.15031V2.125C12.1223 1.94888 12.1922 1.77997 12.3168 1.65544C12.4413 1.5309 12.6102 1.46094 12.7863 1.46094C12.9625 1.46094 13.1314 1.5309 13.2559 1.65544C13.3804 1.77997 13.4504 1.94888 13.4504 2.125V3.15031C13.4504 3.25598 13.4924 3.35734 13.5671 3.43206C13.6418 3.50678 13.7432 3.54875 13.8488 3.54875H14.8741C15.0503 3.54875 15.2192 3.61872 15.3437 3.74324C15.4682 3.86779 15.5382 4.0367 15.5382 4.21281C15.5382 4.38892 15.4682 4.55783 15.3437 4.68238C15.2192 4.80691 15.0503 4.87687 14.8741 4.87687H13.8488C13.7432 4.87687 13.6418 4.91884 13.5671 4.99356C13.4924 5.06828 13.4504 5.16965 13.4504 5.27531V6.29797C13.4504 6.47408 13.3804 6.64299 13.2559 6.76754C13.1314 6.89207 12.9625 6.96203 12.7863 6.96203C12.6102 6.96203 12.4413 6.89207 12.3168 6.76754C12.1922 6.64299 12.1223 6.47408 12.1223 6.29797V5.27531C12.1223 5.16965 12.0803 5.06828 12.0056 4.99356C11.9309 4.91884 11.8295 4.87687 11.7238 4.87687H10.7012C10.5251 4.87687 10.3562 4.80691 10.2316 4.68238C10.1071 4.55783 10.0371 4.38892 10.0371 4.21281C10.0371 4.0367 10.1071 3.86779 10.2316 3.74324C10.3562 3.61872 10.5251 3.54875 10.7012 3.54875Z" fill="#858C94"/>
</g>
<defs>
<clipPath id="clip0_181_1904">
<rect width="17" height="17" fill="white"/>
</clipPath>
</defs>
</svg>
