<svg width="41" height="41" viewBox="0 0 41 41" fill="none" xmlns="http://www.w3.org/2000/svg">
<rect x="0.652344" y="0.30957" width="39.9667" height="39.9667" rx="8.32639" fill="#FFDDDD"/>
<path d="M28.9621 20.8093V22.5245C28.9621 22.9908 28.5791 23.3738 28.1045 23.3738H26.4975C25.5983 23.3738 24.7739 22.716 24.699 21.8167C24.649 21.2922 24.8489 20.8009 25.1986 20.4595C25.5067 20.1431 25.9313 19.96 26.3976 19.96H28.1045C28.5791 19.96 28.9621 20.343 28.9621 20.8093Z" fill="#4D1A2D"/>
<path d="M23.4493 21.9258C23.3744 21.0515 23.6908 20.1939 24.3236 19.5694C24.8565 19.0282 25.5975 18.7118 26.3968 18.7118H26.8714C27.1046 18.7118 27.2961 18.5203 27.2628 18.2871C27.038 16.6718 25.6391 15.4229 23.9655 15.4229H15.6391C13.799 15.4229 12.3086 16.9133 12.3086 18.7534V24.5819C12.3086 26.422 13.799 27.9124 15.6391 27.9124H23.9655C25.6475 27.9124 27.038 26.6635 27.2628 25.0482C27.2961 24.815 27.1046 24.6235 26.8714 24.6235H26.4968C24.9147 24.6235 23.5825 23.4412 23.4493 21.9258ZM21.4676 20.2105H16.4718C16.1304 20.2105 15.8473 19.9358 15.8473 19.586C15.8473 19.2363 16.1304 18.9616 16.4718 18.9616H21.4676C21.809 18.9616 22.0921 19.2447 22.0921 19.586C22.0921 19.9274 21.809 20.2105 21.4676 20.2105Z" fill="#4D1A2D"/>
<path d="M22.4752 13.6157C22.6917 13.8405 22.5002 14.1736 22.1838 14.1736H15.6642C14.7566 14.1736 13.9074 14.44 13.1996 14.898C12.8749 15.1061 12.4336 14.8813 12.5918 14.5233C13.0581 13.4325 14.1488 12.6748 15.4061 12.6748H20.0855C21.0514 12.6748 21.909 13.0162 22.4752 13.6157Z" fill="#4D1A2D"/>
</svg>
