<svg width="44" height="44" viewBox="0 0 44 44" fill="none" xmlns="http://www.w3.org/2000/svg">
<rect x="0.5" y="0.5" width="43" height="43" rx="5.5" stroke="#E8618C"/>
<path d="M21.3191 21.7554C20.5399 21.48 19.6785 21.1477 19.1985 20.7712C19.0598 20.6624 19.001 20.4073 19.0519 20.1365C19.0778 19.9995 19.1981 19.5418 19.6635 19.4016C20.5858 19.1238 21.1834 19.6231 21.2083 19.6443L21.4522 19.8028C21.8409 20.0553 22.355 19.9908 22.6692 19.6501C23.0597 19.2266 22.9888 18.5531 22.5147 18.2258C21.8756 17.7846 21.4809 17.6889 21.0065 17.5803V17.2895C21.0065 16.7939 20.6211 16.3717 20.1258 16.3541C19.6057 16.3356 19.1784 16.7517 19.1784 17.2675V17.6402C19.1642 17.6443 19.1504 17.6469 19.1362 17.6512C18.1708 17.942 17.4502 18.7647 17.2555 19.798C17.076 20.7505 17.3883 21.6746 18.0704 22.2096C18.625 22.6446 19.3897 23.0124 20.7099 23.479C21.5505 23.7761 21.5325 24.4551 21.4858 24.7333C21.3901 25.3023 20.9114 25.9172 20.0865 25.9227C19.2534 25.9284 19.0128 25.8909 18.3883 25.4841C17.9756 25.2152 17.4141 25.3075 17.1287 25.7089C16.8264 26.1341 16.9402 26.7213 17.3727 27.0043C18.0581 27.4527 18.5675 27.6403 19.1785 27.7117V28.0417C19.1785 28.5373 19.5639 28.9594 20.0592 28.9771C20.5792 28.9956 21.0066 28.5795 21.0066 28.0636V27.6202C22.2853 27.2479 23.1039 26.1347 23.2886 25.0363C23.5338 23.5771 22.7424 22.2586 21.3191 21.7554Z" stroke="#E8618C" stroke-miterlimit="10" stroke-linecap="round" stroke-linejoin="round"/>
<path d="M30.2932 22.6661C30.2932 28.2699 25.7504 32.8126 20.1466 32.8126C14.5428 32.8126 10 28.2699 10 22.6661C10 17.0623 14.5428 12.5195 20.1466 12.5195C21.705 12.5195 23.1813 12.8708 24.5008 13.4986" stroke="#E8618C" stroke-miterlimit="10" stroke-linecap="round" stroke-linejoin="round"/>
<path d="M15.1758 16.3534C16.5435 15.2746 18.2703 14.6309 20.1475 14.6309C21.7546 14.6309 23.2516 15.1027 24.5074 15.9155" stroke="#E8618C" stroke-miterlimit="10" stroke-linecap="round" stroke-linejoin="round"/>
<path d="M27.9569 20.7666C28.1044 21.3753 28.1826 22.0111 28.1826 22.6652C28.1826 27.1026 24.5854 30.6999 20.1479 30.6999C15.7105 30.6999 12.1133 27.1026 12.1133 22.6652C12.1133 20.7421 12.7889 18.9768 13.9157 17.5938" stroke="#E8618C" stroke-miterlimit="10" stroke-linecap="round" stroke-linejoin="round"/>
<path d="M29.3834 15.6087V19.4334C29.3135 19.4334 29.2435 19.4169 29.1791 19.384L26.4537 17.9946C26.2956 17.9141 26.1953 17.7473 26.1953 17.5648V14.2747C26.1953 14.1826 26.2208 14.0947 26.2664 14.0195L29.3834 15.6087Z" stroke="#E8618C" stroke-miterlimit="10" stroke-linecap="round" stroke-linejoin="round"/>
<path d="M32.5708 14.2746V17.5647C32.5708 17.7472 32.4707 17.9141 32.3125 17.9946L29.5872 19.384C29.5228 19.4169 29.4528 19.4333 29.3828 19.4333V15.6086L32.4998 14.0195C32.5453 14.0946 32.5708 14.1826 32.5708 14.2746Z" stroke="#E8618C" stroke-miterlimit="10" stroke-linecap="round" stroke-linejoin="round"/>
<path d="M32.4998 14.0202L29.3828 15.6093L26.2656 14.0202C26.3088 13.9493 26.3698 13.8899 26.4442 13.85L29.1695 12.3859C29.1702 12.3856 29.1708 12.3851 29.1716 12.3849C29.3048 12.3141 29.4629 12.3144 29.5958 12.3859L32.3211 13.85C32.3956 13.8898 32.4567 13.9493 32.4998 14.0202Z" stroke="#E8618C" stroke-miterlimit="10" stroke-linecap="round" stroke-linejoin="round"/>
<path d="M26.2665 11H25.443C24.9222 11 24.5 11.4222 24.5 11.943V22.1878C24.5 22.637 25.0505 22.8535 25.3565 22.5248L26.5894 21.2005C26.8469 20.9239 27.2078 20.7668 27.5856 20.7668H33.3239C33.8447 20.7668 34.2668 20.3446 34.2668 19.8238V11.943C34.2668 11.4222 33.8447 11 33.3239 11H28.0781" stroke="#E8618C" stroke-miterlimit="10" stroke-linecap="round" stroke-linejoin="round"/>
</svg>
