<svg width="22" height="22" viewBox="0 0 22 22" fill="none" xmlns="http://www.w3.org/2000/svg">
<path fill-rule="evenodd" clip-rule="evenodd" d="M13.7928 21.9141H8.20682C7.64823 21.9141 7.21854 21.4844 7.21854 20.9688V18.6914C6.87479 18.5195 6.57401 18.3477 6.23026 18.1328L4.29666 19.25C4.03885 19.3789 3.78104 19.4219 3.52323 19.3359C3.30838 19.293 3.09354 19.1211 2.96463 18.9062L0.128694 14.0078C-0.000212105 13.793 -0.0431808 13.5352 0.0427567 13.2773C0.128694 13.0195 0.2576 12.8477 0.472444 12.7188L2.44901 11.5586C2.44901 11.3867 2.44901 11.2148 2.44901 11C2.44901 10.7852 2.44901 10.6133 2.44901 10.4414L0.472444 9.32422C0.0427567 9.02344 -0.129118 8.42188 0.128694 7.99219L2.96463 3.09375C3.09354 2.87891 3.26541 2.70703 3.52323 2.66406C3.78104 2.57812 4.03885 2.62109 4.29666 2.75L6.23026 3.86719C6.53104 3.65234 6.87479 3.48047 7.21854 3.30859V1.03125C7.21854 0.515625 7.64823 0.0859375 8.16385 0.0859375H13.7928C14.3514 0.0859375 14.781 0.515625 14.781 1.03125V3.30859C15.1248 3.48047 15.4685 3.65234 15.7693 3.86719L17.7029 2.75C17.9178 2.62109 18.2185 2.57812 18.4334 2.66406C18.6912 2.70703 18.906 2.87891 19.0349 3.09375L21.8709 7.99219C22.1287 8.42188 21.9568 9.02344 21.4842 9.32422L19.5506 10.4414C19.5506 10.6133 19.5935 10.8281 19.5935 11C19.5935 11.1719 19.5506 11.3867 19.5506 11.5586L21.5271 12.7188C21.742 12.8047 21.8709 13.0195 21.9568 13.2773C22.0428 13.5352 21.9998 13.793 21.8709 14.0078L19.0349 18.9062C18.7771 19.3789 18.1756 19.5078 17.7459 19.25L15.7693 18.1328C15.4685 18.3477 15.1248 18.5195 14.781 18.6914V20.9688C14.781 21.4844 14.3514 21.9141 13.7928 21.9141ZM10.9998 15.9414C8.29276 15.9414 6.05838 13.707 6.05838 11C6.05838 8.29297 8.29276 6.05859 10.9998 6.05859C13.7068 6.05859 15.9412 8.29297 15.9412 11C15.9412 13.707 13.7068 15.9414 10.9998 15.9414Z" fill="#4D1A2D"/>
<path fill-rule="evenodd" clip-rule="evenodd" d="M11 17.6602C7.34766 17.6602 4.33984 14.6523 4.33984 11C4.33984 7.34766 7.34766 4.33984 11 4.33984C14.6523 4.33984 17.6602 7.34766 17.6602 11C17.6602 14.6523 14.6523 17.6602 11 17.6602ZM11 15.9414C8.29297 15.9414 6.05859 13.707 6.05859 11C6.05859 8.29297 8.29297 6.05859 11 6.05859C13.707 6.05859 15.9414 8.29297 15.9414 11C15.9414 13.707 13.707 15.9414 11 15.9414Z" fill="#F0EDED"/>
<path fill-rule="evenodd" clip-rule="evenodd" d="M11.4727 12.8477C11.3438 12.8477 11.2148 12.7617 11.2148 12.6328V11.3008C11.2148 11.1719 11.3438 11.0859 11.4727 11.0859H12.2891C12.6758 11.0859 12.9336 11 13.0625 10.8711C13.2344 10.6992 13.2773 10.5273 13.2773 10.3125C13.2773 10.1836 13.2344 10.0977 13.1914 9.96875C13.1484 9.88281 13.1055 9.79688 13.0195 9.75391C12.9336 9.71094 12.8477 9.66797 12.7188 9.625C12.6328 9.625 12.5039 9.625 12.2461 9.625H11.4727C11.3438 9.625 11.2148 9.49609 11.2148 9.36719C11.2148 9.23828 11.3438 9.15234 11.4727 9.15234H12.2461C12.4609 9.15234 12.6758 9.15234 12.8047 9.19531C12.9766 9.19531 13.1484 9.28125 13.2773 9.36719C13.4492 9.45312 13.5352 9.58203 13.6211 9.75391C13.707 9.92578 13.75 10.1406 13.75 10.3125C13.75 10.6562 13.6211 10.957 13.4062 11.1719C13.1914 11.4297 12.8047 11.5586 12.2891 11.5586H11.6875V12.6328C11.6875 12.7617 11.6016 12.8477 11.4727 12.8477Z" fill="#4D1A2D"/>
<path fill-rule="evenodd" clip-rule="evenodd" d="M7.64893 12.8477C7.64893 12.8477 7.60596 12.8477 7.56299 12.8477C7.43408 12.8047 7.39111 12.6758 7.43408 12.5469L8.68018 9.28125C8.72314 9.19531 8.80908 9.15234 8.89502 9.15234H9.36768C9.45361 9.15234 9.53955 9.19531 9.58252 9.28125L10.9146 12.5469C10.9575 12.6328 10.9146 12.8047 10.7856 12.8477C10.6567 12.8906 10.5278 12.8477 10.4849 12.7188L9.1958 9.625H9.06689L7.86377 12.7188C7.86377 12.8047 7.73486 12.8477 7.64893 12.8477Z" fill="#4D1A2D"/>
<path fill-rule="evenodd" clip-rule="evenodd" d="M11.4727 11.5586C11.3438 11.5586 11.2148 11.4297 11.2148 11.3008V9.36719C11.2148 9.23828 11.3438 9.15234 11.4727 9.15234C11.6016 9.15234 11.6875 9.23828 11.6875 9.36719V11.3008C11.6875 11.4297 11.6016 11.5586 11.4727 11.5586Z" fill="#4D1A2D"/>
<path fill-rule="evenodd" clip-rule="evenodd" d="M14.3516 12.8477C14.2227 12.8477 14.0938 12.7617 14.0938 12.6328V9.36719C14.0938 9.23828 14.2227 9.15234 14.3516 9.15234C14.4805 9.15234 14.5664 9.23828 14.5664 9.36719V12.6328C14.5664 12.7617 14.4805 12.8477 14.3516 12.8477Z" fill="#4D1A2D"/>
<path fill-rule="evenodd" clip-rule="evenodd" d="M10.0117 11.2578H8.29297C8.16406 11.2578 8.03516 11.1289 8.03516 11C8.03516 10.8711 8.16406 10.7852 8.29297 10.7852H10.0117C10.1406 10.7852 10.2695 10.8711 10.2695 11C10.2695 11.1289 10.1406 11.2578 10.0117 11.2578Z" fill="#4D1A2D"/>
</svg>
