<svg width="41" height="40" viewBox="0 0 41 40" fill="none" xmlns="http://www.w3.org/2000/svg">
<rect x="0.113281" width="39.9667" height="39.9667" rx="8.32639" fill="#FFDDDD"/>
<path d="M20.7227 23.248H21.2639C21.8051 23.248 22.2547 22.7651 22.2547 22.1822C22.2547 21.4578 21.9966 21.3163 21.5719 21.1664L20.731 20.875V23.248H20.7227Z" fill="#4D1A2D"/>
<path d="M20.071 11.5742C15.4748 11.5909 11.7529 15.3294 11.7696 19.9256C11.7862 24.5218 15.5248 28.2437 20.121 28.227C24.7171 28.2104 28.439 24.4718 28.4224 19.8756C28.4057 15.2795 24.6672 11.5659 20.071 11.5742ZM21.9777 19.9839C22.6272 20.2087 23.5015 20.6916 23.5015 22.1821C23.5015 23.4643 22.494 24.4968 21.2617 24.4968H20.7205V24.9797C20.7205 25.3211 20.4374 25.6042 20.096 25.6042C19.7546 25.6042 19.4715 25.3211 19.4715 24.9797V24.4968H19.1717C17.8062 24.4968 16.6988 23.3477 16.6988 21.9323C16.6988 21.5909 16.9819 21.3078 17.3233 21.3078C17.6647 21.3078 17.9478 21.5909 17.9478 21.9323C17.9478 22.6567 18.4973 23.2478 19.1717 23.2478H19.4715V20.4335L18.2142 19.9839C17.5648 19.7591 16.6905 19.2761 16.6905 17.7857C16.6905 16.5035 17.698 15.471 18.9303 15.471H19.4715V14.9881C19.4715 14.6467 19.7546 14.3636 20.096 14.3636C20.4374 14.3636 20.7205 14.6467 20.7205 14.9881V15.471H21.0202C22.3857 15.471 23.4931 16.62 23.4931 18.0355C23.4931 18.3769 23.21 18.66 22.8687 18.66C22.5273 18.66 22.2442 18.3769 22.2442 18.0355C22.2442 17.3111 21.6946 16.7199 21.0202 16.7199H20.7205V19.5343L21.9777 19.9839Z" fill="#4D1A2D"/>
<path d="M17.9492 17.7938C17.9492 18.5182 18.2073 18.6598 18.632 18.8097L19.4729 19.1011V16.7197H18.9317C18.3905 16.7197 17.9492 17.2027 17.9492 17.7938Z" fill="#4D1A2D"/>
</svg>
