<svg width="20" height="20" viewBox="0 0 20 20" fill="none" xmlns="http://www.w3.org/2000/svg">
<g clip-path="url(#clip0_46_2202)">
<path fill-rule="evenodd" clip-rule="evenodd" d="M15 15.703C14.6094 15.703 14.6094 15.117 15 15.117H16.4453C16.5625 13.867 17.5781 12.8514 18.8281 12.7342V7.26548C17.5781 7.10923 16.5625 6.13267 16.4453 4.88267H8.16406C7.77344 4.88267 7.77344 4.29673 8.16406 4.29673H19.1016C19.2969 4.29673 19.4141 4.41392 19.4141 4.60923C19.4141 8.20298 19.4141 11.7967 19.4141 15.3905C19.4141 15.5467 19.2969 15.703 19.1016 15.703H15ZM7.10938 4.84361C7.03125 4.84361 6.95312 4.80454 6.91406 4.76548L4.14062 2.65611C3.98438 2.53892 3.98438 2.30454 4.14062 2.18736L6.91406 0.0779813C7.10938 -0.0782687 7.38281 0.0389188 7.38281 0.273294V1.28892H15.6641C15.8203 1.28892 15.9375 1.44517 15.9375 1.60142V3.24204C15.9375 3.39829 15.8203 3.55454 15.6641 3.55454H7.38281V4.57017C7.38281 4.72642 7.26562 4.84361 7.10938 4.84361ZM4.80469 2.42173L6.79688 3.98423V3.24204C6.79688 3.08579 6.95312 2.96861 7.10938 2.96861H15.3906V1.91392H7.10938C6.95312 1.91392 6.79688 1.75767 6.79688 1.60142V0.898294L4.80469 2.42173ZM12.8516 19.9999C12.7344 19.9999 12.5781 19.8827 12.5781 19.7264V18.7108H4.29688C4.14062 18.7108 3.98438 18.5545 3.98438 18.3983V16.7577C3.98438 16.6014 4.14062 16.4842 4.29688 16.4842H12.5781V15.4686C12.5781 15.2342 12.8125 15.078 13.0078 15.2342L15.8203 17.3436C15.9766 17.4608 15.9766 17.6952 15.8203 17.8124L13.0469 19.9217C13.0078 19.9608 12.9297 19.9999 12.8516 19.9999ZM4.57031 18.1249H12.8516C13.0078 18.1249 13.1641 18.242 13.1641 18.4374V19.1405L15.1562 17.578L13.1641 16.0155V16.7577C13.1641 16.9139 13.0078 17.0311 12.8516 17.0311H4.57031V18.1249ZM16.25 10.2733H15.3516C14.9609 10.2733 14.9609 9.68736 15.3516 9.68736H16.25C16.6406 9.68736 16.6406 10.2733 16.25 10.2733ZM4.60938 10.2733H3.71094C3.35938 10.2733 3.35938 9.68736 3.71094 9.68736H4.60938C5 9.68736 5 10.2733 4.60938 10.2733ZM9.6875 12.0311C8.82812 11.8358 8.51562 10.6249 9.10156 10.6249C9.57031 10.6249 9.21875 11.1327 9.6875 11.4452V10.2342C8.51562 9.92173 8.51562 8.28111 9.6875 7.96861C9.6875 7.73423 9.64844 7.38267 10 7.38267C10.3125 7.38267 10.2734 7.73423 10.2734 7.92954C11.1719 8.16392 11.4844 9.37486 10.8984 9.37486C10.4297 9.37486 10.8203 8.82798 10.2734 8.55454V9.76548C11.4844 10.0389 11.4844 11.7577 10.2734 12.0311C10.2734 12.2655 10.3125 12.617 10 12.617C9.64844 12.617 9.6875 12.2655 9.6875 12.0311ZM10.2734 11.4452C10.7422 11.2108 10.7422 10.5858 10.2734 10.3514V11.4452ZM9.6875 8.55454C9.25781 8.78892 9.25781 9.41392 9.6875 9.64829V8.55454ZM10 13.3592C8.125 13.3592 6.64062 11.8749 6.64062 9.99986C6.64062 8.16392 8.125 6.64048 10 6.64048C11.8359 6.64048 13.3594 8.16392 13.3594 9.99986C13.3594 11.8358 11.8359 13.3592 10 13.3592ZM10 7.22642C8.4375 7.22642 7.1875 8.47642 7.1875 9.99986C7.1875 11.5233 8.4375 12.7733 10 12.7733C11.5234 12.7733 12.7734 11.5233 12.7734 9.99986C12.7734 8.47642 11.5234 7.22642 10 7.22642ZM0.585938 4.60923C0.585938 4.41392 0.703125 4.29673 0.898438 4.29673H4.80469C5.19531 4.29673 5.19531 4.88267 4.80469 4.88267H3.55469C3.39844 6.13267 2.42188 7.10923 1.17188 7.26548V12.7342C2.42188 12.8905 3.39844 13.867 3.51562 15.117H11.8359C12.1875 15.117 12.2266 15.703 11.8359 15.703H0.859375C0.703125 15.703 0.585938 15.5467 0.585938 15.3905C0.585938 11.7967 0.585938 8.20298 0.585938 4.60923ZM1.17188 6.67954C2.10938 6.56236 2.85156 5.82017 2.96875 4.88267H1.17188V6.67954ZM18.8281 6.67954V4.88267H17.0312C17.1484 5.82017 17.8906 6.56236 18.8281 6.67954ZM18.8281 15.117V13.3202C17.8906 13.4374 17.1484 14.1795 17.0312 15.117H18.8281ZM1.17188 13.3202V15.117H2.96875C2.85156 14.1795 2.07031 13.4374 1.17188 13.3202Z" fill="#FFDDDD"/>
</g>
<defs>
<clipPath id="clip0_46_2202">
<rect width="20" height="20" fill="white"/>
</clipPath>
</defs>
</svg>
