<svg width="22" height="22" viewBox="0 0 22 22" fill="none" xmlns="http://www.w3.org/2000/svg">
<path d="M18.5255 7.16816L11.4672 11.2565C11.183 11.4215 10.8255 11.4215 10.5322 11.2565L3.47388 7.16816C2.96971 6.87482 2.84138 6.18732 3.22638 5.75649C3.49221 5.45399 3.79471 5.20649 4.11554 5.03232L9.08387 2.28232C10.1472 1.68649 11.8705 1.68649 12.9339 2.28232L17.9022 5.03232C18.223 5.20649 18.5255 5.46316 18.7914 5.75649C19.158 6.18732 19.0297 6.87482 18.5255 7.16816Z" fill="#4D1A2D"/>
<path d="M10.4773 12.9615V19.2131C10.4773 19.9098 9.77145 20.3681 9.14811 20.0656C7.25978 19.1398 4.07895 17.4073 4.07895 17.4073C2.96061 16.7748 2.04395 15.1798 2.04395 13.869V9.13898C2.04395 8.41481 2.80478 7.95647 3.42811 8.31397L10.0189 12.1365C10.2939 12.3106 10.4773 12.6223 10.4773 12.9615Z" fill="#4D1A2D"/>
<path d="M11.5225 12.9615V19.2131C11.5225 19.9098 12.2283 20.3681 12.8516 20.0656C14.74 19.1398 17.9208 17.4073 17.9208 17.4073C19.0391 16.7748 19.9558 15.1798 19.9558 13.869V9.13898C19.9558 8.41481 19.195 7.95647 18.5716 8.31397L11.9808 12.1365C11.7058 12.3106 11.5225 12.6223 11.5225 12.9615Z" fill="#4D1A2D"/>
</svg>
