<svg width="30" height="26" viewBox="0 0 30 26" fill="none" xmlns="http://www.w3.org/2000/svg">
<rect x="0.5" y="0.5" width="29" height="25" rx="4.5" stroke="#4D1A2D"/>
<path d="M13.1229 8.3147L17.8104 13.0022C17.8759 13.0675 17.928 13.1451 17.9634 13.2306C17.9989 13.3161 18.0172 13.4077 18.0172 13.5002C18.0172 13.5928 17.9989 13.6844 17.9634 13.7699C17.928 13.8553 17.8759 13.933 17.8104 13.9983L13.1229 18.6858C12.9908 18.8179 12.8117 18.8921 12.6249 18.8921C12.438 18.8921 12.2589 18.8179 12.1268 18.6858C11.9947 18.5537 11.9205 18.3745 11.9205 18.1877C11.9205 18.0009 11.9947 17.8218 12.1268 17.6897L16.3168 13.4997L12.1262 9.30962C11.9941 9.17753 11.9199 8.99838 11.9199 8.81157C11.9199 8.62477 11.9941 8.44562 12.1262 8.31353C12.2583 8.18144 12.4375 8.10723 12.6243 8.10723C12.8111 8.10723 12.9902 8.18144 13.1223 8.31353L13.1229 8.3147Z" fill="#4D1A2D"/>
</svg>
