<svg width="22" height="21" viewBox="0 0 22 21" fill="none" xmlns="http://www.w3.org/2000/svg">
<path d="M12.4896 0.710678C12.4896 0.32033 12.8835 0 13.3758 0C13.8682 0 14.262 0.316829 14.262 0.710678V3.81595C14.262 4.2063 13.8682 4.52663 13.3758 4.52663C12.8835 4.52663 12.4896 4.2098 12.4896 3.81595V0.710678ZM2.57275 13.6622H4.60303C4.73193 13.6622 4.83757 13.7654 4.83757 13.8915V15.3583C4.83757 15.4844 4.73193 15.5876 4.60303 15.5876H2.57275C2.44385 15.5876 2.33822 15.4844 2.33822 15.3583V13.8915C2.33822 13.7637 2.44385 13.6622 2.57275 13.6622ZM10.3465 9.48212H12.3768C12.4395 9.48212 12.495 9.50663 12.5379 9.54514C11.7412 10.0318 11.0501 10.6654 10.5023 11.4094H10.3465C10.2176 11.4094 10.112 11.3061 10.112 11.18V9.71318C10.112 9.5854 10.2176 9.48212 10.3465 9.48212ZM6.45964 9.48212H8.48991C8.61882 9.48212 8.72445 9.5854 8.72445 9.71143V11.1783C8.72445 11.3043 8.61882 11.4076 8.48991 11.4076H6.45964C6.33073 11.4076 6.2251 11.3043 6.2251 11.1783V9.71143C6.2251 9.5854 6.33073 9.48212 6.45964 9.48212ZM2.57275 9.48212H4.60303C4.73193 9.48212 4.83757 9.5854 4.83757 9.71143V11.1783C4.83757 11.3043 4.73193 11.4076 4.60303 11.4076H2.57275C2.44385 11.4076 2.33822 11.3043 2.33822 11.1783V9.71143C2.33822 9.5854 2.44385 9.48212 2.57275 9.48212ZM6.45964 13.6622H8.48991C8.61882 13.6622 8.72445 13.7654 8.72445 13.8915V15.3583C8.72445 15.4844 8.61882 15.5876 8.48991 15.5876H6.45964C6.33073 15.5876 6.2251 15.4844 6.2251 15.3583V13.8915C6.2251 13.7637 6.33073 13.6622 6.45964 13.6622ZM18.5285 10.4221C20.625 11.2711 22 13.2718 22 15.5019C22 17.0195 21.3698 18.3953 20.3529 19.3896C19.3359 20.3838 17.9305 21 16.3765 21C14.8242 21 13.4188 20.3838 12.4001 19.3896C11.3831 18.3936 10.7529 17.0195 10.7529 15.5019C10.7529 13.2893 12.1602 11.2256 14.2531 10.3853C15.5511 9.86722 17.2394 9.89872 18.5285 10.4221ZM15.5117 15.3548C15.5815 15.2796 15.6675 15.2148 15.7606 15.1658V12.7747C15.7606 12.5314 15.9629 12.3336 16.2118 12.3336C16.4606 12.3336 16.6647 12.5314 16.6647 12.7747V15.1658C16.8294 15.2533 16.9655 15.3846 17.0532 15.5456H18.8006C19.0513 15.5456 19.2518 15.7434 19.2518 15.9867C19.2518 16.2301 19.0495 16.4279 18.8006 16.4279H17.0532C16.8921 16.7219 16.577 16.9215 16.2118 16.9215C15.9253 16.9215 15.6693 16.7972 15.4938 16.6029C15.1698 16.2406 15.1859 15.6997 15.5117 15.3548ZM19.7155 12.3248C17.3862 10.0475 13.4582 10.6917 12.0957 13.5589C11.8164 14.1488 11.6589 14.807 11.6589 15.5001C11.6589 16.7744 12.187 17.928 13.041 18.7629C13.895 19.5979 15.0749 20.1143 16.3783 20.1143C17.6816 20.1143 18.8615 19.5961 19.7155 18.7629C20.5695 17.928 21.0977 16.7744 21.0977 15.5001C21.0977 14.7772 20.9276 14.0928 20.625 13.4836C20.394 13.0233 20.0861 12.6872 19.7155 12.3248ZM4.53499 0.710678C4.53499 0.32033 4.92887 0 5.42122 0C5.91178 0 6.30745 0.316829 6.30745 0.710678V3.81595C6.30745 4.2063 5.91178 4.52663 5.42122 4.52663C4.93066 4.52663 4.53499 4.2098 4.53499 3.81595V0.710678ZM0.975749 6.78995H17.8428V3.21555C17.8428 3.09302 17.7926 2.98625 17.7121 2.90748C17.6315 2.82871 17.5169 2.7797 17.397 2.7797H15.7803C15.5099 2.7797 15.2897 2.56439 15.2897 2.30008C15.2897 2.03576 15.5099 1.82046 15.7803 1.82046H17.397C17.7926 1.82046 18.1489 1.97624 18.4085 2.23006C18.6681 2.48387 18.8275 2.83221 18.8275 3.21905V8.89572C18.5052 8.7872 18.174 8.69968 17.832 8.63491V7.74744H17.8428H0.975749V17.009C0.975749 17.1315 1.02588 17.2383 1.10645 17.3171C1.18701 17.3958 1.3016 17.4449 1.42155 17.4449H9.43701C9.52832 17.7774 9.6429 18.103 9.78076 18.4146H1.4305C1.03662 18.4146 0.678548 18.2588 0.418945 18.005C0.159342 17.7494 0 17.4029 0 17.016V3.21905C0 2.83396 0.159342 2.48562 0.418945 2.23006C0.678548 1.97624 1.03483 1.82046 1.4305 1.82046H3.15641C3.42676 1.82046 3.64697 2.03576 3.64697 2.30008C3.64697 2.56439 3.42676 2.7797 3.15641 2.7797H1.4305C1.30518 2.7797 1.19596 2.82871 1.1154 2.90748C1.03483 2.98625 0.984701 3.09827 0.984701 3.21555V6.7917H0.975749V6.78995ZM7.72184 2.77794C7.4515 2.77794 7.23128 2.56264 7.23128 2.29832C7.23128 2.03401 7.4515 1.8187 7.72184 1.8187H11.0143C11.2847 1.8187 11.5049 2.03401 11.5049 2.29832C11.5049 2.56264 11.2847 2.77794 11.0143 2.77794H7.72184Z" fill="#858C94"/>
</svg>
