<svg width="29" height="29" viewBox="0 0 29 29" fill="none" xmlns="http://www.w3.org/2000/svg">
<path d="M12.2163 13.4728H9.0142C8.25295 13.4728 7.63672 14.089 7.63672 14.8502V21.0369H12.2163V13.4728V13.4728Z" stroke="#292D32" stroke-width="1.5" stroke-miterlimit="10" stroke-linecap="round" stroke-linejoin="round"/>
<path d="M15.4197 7.97479H13.583C12.8218 7.97479 12.2056 8.59106 12.2056 9.35231V21.0249H16.7852V9.35231C16.7852 8.59106 16.181 7.97479 15.4197 7.97479Z" stroke="#292D32" stroke-width="1.5" stroke-miterlimit="10" stroke-linecap="round" stroke-linejoin="round"/>
<path d="M19.9955 15.5269H16.7935V21.0249H21.3731V16.9044C21.361 16.1432 20.7447 15.5269 19.9955 15.5269Z" stroke="#292D32" stroke-width="1.5" stroke-miterlimit="10" stroke-linecap="round" stroke-linejoin="round"/>
<path d="M10.8748 26.5831H18.1248C24.1665 26.5831 26.5832 24.1665 26.5832 18.1248V10.8748C26.5832 4.83314 24.1665 2.41647 18.1248 2.41647H10.8748C4.83317 2.41647 2.4165 4.83314 2.4165 10.8748V18.1248C2.4165 24.1665 4.83317 26.5831 10.8748 26.5831Z" stroke="#292D32" stroke-width="1.5" stroke-linecap="round" stroke-linejoin="round"/>
</svg>
