<svg width="24" height="24" viewBox="0 0 24 24" fill="none" xmlns="http://www.w3.org/2000/svg">
<path d="M11.0401 8.64062H10.0801V9.60062H11.0401V8.64062Z" fill="#858C94"/>
<path d="M12.96 8.64062H12V9.60062H12.96V8.64062Z" fill="#858C94"/>
<path d="M14.8809 8.64062H13.9209V9.60062H14.8809V8.64062Z" fill="#858C94"/>
<path d="M16.8008 8.64062H15.8408V9.60062H16.8008V8.64062Z" fill="#858C94"/>
<path d="M11.0401 10.5605H10.0801V11.5205H11.0401V10.5605Z" fill="#858C94"/>
<path d="M12.96 10.5605H12V11.5205H12.96V10.5605Z" fill="#858C94"/>
<path d="M14.8809 10.5605H13.9209V11.5205H14.8809V10.5605Z" fill="#858C94"/>
<path d="M16.8008 10.5605H15.8408V11.5205H16.8008V10.5605Z" fill="#858C94"/>
<path d="M11.0401 12.4805H10.0801V13.4405H11.0401V12.4805Z" fill="#858C94"/>
<path d="M12.96 12.4805H12V13.4405H12.96V12.4805Z" fill="#858C94"/>
<path d="M14.8809 12.4805H13.9209V13.4405H14.8809V12.4805Z" fill="#858C94"/>
<path d="M16.8008 12.4805H15.8408V13.4405H16.8008V12.4805Z" fill="#858C94"/>
<path d="M11.0401 14.4004H10.0801V15.3604H11.0401V14.4004Z" fill="#858C94"/>
<path d="M12.96 14.4004H12V15.3604H12.96V14.4004Z" fill="#858C94"/>
<path d="M14.8809 14.4004H13.9209V15.3604H14.8809V14.4004Z" fill="#858C94"/>
<path d="M16.8008 14.4004H15.8408V15.3604H16.8008V14.4004Z" fill="#858C94"/>
<path d="M3.36039 11.5205H2.40039V12.4805H3.36039V11.5205Z" fill="#858C94"/>
<path d="M5.28031 11.5205H4.32031V12.4805H5.28031V11.5205Z" fill="#858C94"/>
<path d="M7.20023 11.5205H6.24023V12.4805H7.20023V11.5205Z" fill="#858C94"/>
<path d="M3.36039 13.4404H2.40039V14.4004H3.36039V13.4404Z" fill="#858C94"/>
<path d="M5.28031 13.4404H4.32031V14.4004H5.28031V13.4404Z" fill="#858C94"/>
<path d="M7.20023 13.4404H6.24023V14.4004H7.20023V13.4404Z" fill="#858C94"/>
<path d="M3.36039 15.3604H2.40039V16.3204H3.36039V15.3604Z" fill="#858C94"/>
<path d="M5.28031 15.3604H4.32031V16.3204H5.28031V15.3604Z" fill="#858C94"/>
<path d="M7.20023 15.3604H6.24023V16.3204H7.20023V15.3604Z" fill="#858C94"/>
<path d="M3.36039 17.2803H2.40039V18.2403H3.36039V17.2803Z" fill="#858C94"/>
<path d="M5.28031 17.2803H4.32031V18.2403H5.28031V17.2803Z" fill="#858C94"/>
<path d="M7.20023 17.2803H6.24023V18.2403H7.20023V17.2803Z" fill="#858C94"/>
<path d="M21.6007 10.5605H19.6807V11.5205H21.6007V10.5605Z" fill="#858C94"/>
<path d="M21.6007 8.64062H19.6807V9.60062H21.6007V8.64062Z" fill="#858C94"/>
<path d="M21.6007 12.4805H19.6807V13.4405H21.6007V12.4805Z" fill="#858C94"/>
<path d="M21.6007 14.4004H19.6807V15.3604H21.6007V14.4004Z" fill="#858C94"/>
<path d="M21.6007 16.3203H19.6807V17.2803H21.6007V16.3203Z" fill="#858C94"/>
<path d="M21.6007 18.2402H19.6807V19.2002H21.6007V18.2402Z" fill="#858C94"/>
<path d="M21.6007 20.1602H19.6807V21.1202H21.6007V20.1602Z" fill="#858C94"/>
<path d="M22.0805 4.32047H21.1205V6.23039L17.7605 3.87839V6.72047H16.3205V3.36047H13.9205V0.480469H12.9605V3.36047H10.5605V6.72047H8.16047V9.60047H2.40047V8.83919L2.99711 8.24255C3.38639 8.50079 3.84239 8.64047 4.32047 8.64047C4.96175 8.64047 5.56415 8.39087 6.01727 7.93775L6.35663 7.59839L2.96303 4.20431L2.62367 4.54367C1.80431 5.36303 1.70255 6.63263 2.31839 7.56383L1.44047 8.44175V9.60047H0.480469V23.5205H8.16047H9.12047H11.5205H15.3605H17.7605H18.7205H23.5205V7.91039L22.0805 6.90239V4.32047ZM3.02111 5.61983L4.94159 7.54031C4.41311 7.79327 3.72863 7.68479 3.30239 7.25855C2.85983 6.81647 2.76623 6.15503 3.02111 5.61983ZM11.5205 4.32047H15.3605V6.72047H11.5205V4.32047ZM8.16047 22.5605H1.44047V10.5605H8.16047V22.5605ZM12.4805 22.5605V19.2005H14.4005V22.5605H12.4805ZM17.7605 22.5605H15.3605V18.2405H11.5205V22.5605H9.12047V9.60047V7.68047H10.5605H16.3205H17.7605V22.5605ZM22.5605 22.5605H18.7205V6.72047V5.72207L22.5605 8.41007V22.5605Z" fill="#858C94"/>
</svg>
