<svg width="29" height="30" viewBox="0 0 29 30" fill="none" xmlns="http://www.w3.org/2000/svg">
<path d="M9.66666 26.7684H19.3333C24.1908 26.7684 25.0608 24.8216 25.3146 22.4517L26.2208 12.7786C26.5471 9.82831 25.7012 7.42212 20.5417 7.42212H8.45833C3.29874 7.42212 2.45291 9.82831 2.77916 12.7786L3.68541 22.4517C3.93916 24.8216 4.80916 26.7684 9.66666 26.7684Z" stroke="#4D1A2D" stroke-width="1.5" stroke-miterlimit="10" stroke-linecap="round" stroke-linejoin="round"/>
<path d="M9.6665 7.42211V6.4548C9.6665 4.31463 9.6665 2.58556 13.5332 2.58556H15.4665C19.3332 2.58556 19.3332 4.31463 19.3332 6.4548V7.42211" stroke="#4D1A2D" stroke-width="1.5" stroke-miterlimit="10" stroke-linecap="round" stroke-linejoin="round"/>
<path d="M16.9168 15.8861V17.0952C16.9168 17.1073 16.9168 17.1073 16.9168 17.1194C16.9168 18.4374 16.9047 19.5135 14.5002 19.5135C12.1077 19.5135 12.0835 18.4495 12.0835 17.1315V15.8861C12.0835 14.6769 12.0835 14.6769 13.2918 14.6769H15.7085C16.9168 14.6769 16.9168 14.6769 16.9168 15.8861Z" stroke="#4D1A2D" stroke-width="1.5" stroke-miterlimit="10" stroke-linecap="round" stroke-linejoin="round"/>
<path d="M26.1603 13.4678C23.369 15.4992 20.179 16.7083 16.9165 17.1194" stroke="#4D1A2D" stroke-width="1.5" stroke-miterlimit="10" stroke-linecap="round" stroke-linejoin="round"/>
<path d="M3.16602 13.7943C5.88477 15.6564 8.95393 16.7809 12.0835 17.1315" stroke="#4D1A2D" stroke-width="1.5" stroke-miterlimit="10" stroke-linecap="round" stroke-linejoin="round"/>
</svg>
