<svg width="41" height="41" viewBox="0 0 41 41" fill="none" xmlns="http://www.w3.org/2000/svg">
<rect x="0.472656" y="0.30957" width="39.9667" height="39.9667" rx="8.32639" fill="#FFDDDD"/>
<path d="M20.4055 11.9355L18.3988 16.8499H16.3922C16.0591 16.8499 15.7344 16.8762 15.418 16.9463L16.2506 14.8439L16.2839 14.765L16.3339 14.6249C16.3589 14.5635 16.3755 14.511 16.4005 14.4672C17.3663 12.1107 18.4488 11.3749 20.4055 11.9355Z" fill="#4D1A2D"/>
<path d="M26.0613 17.0864L26.0446 17.0776C25.5451 16.9287 25.0371 16.8499 24.5209 16.8499H19.3086L21.182 12.2684L21.207 12.207C21.3236 12.2508 21.4485 12.3122 21.5734 12.356L23.4135 13.1706C24.4376 13.6174 25.1537 14.0817 25.595 14.6423C25.67 14.7474 25.7366 14.8438 25.8032 14.9577C25.8781 15.0803 25.9364 15.203 25.9697 15.3344C26.003 15.4132 26.028 15.4833 26.0446 15.5621C26.1695 16.0089 26.1779 16.517 26.0613 17.0864Z" fill="#4D1A2D"/>
<path d="M20.8906 25.4698H21.0988C21.3486 25.4698 21.5567 25.2333 21.5567 24.9442C21.5567 24.5762 21.4568 24.5237 21.2403 24.4361L20.8906 24.3047V25.4698Z" fill="#4D1A2D"/>
<path d="M25.6959 18.3394C25.3212 18.2255 24.9299 18.1642 24.5219 18.1642H16.3953C15.8291 18.1642 15.2962 18.2781 14.7966 18.5058C13.3479 19.1628 12.332 20.6783 12.332 22.4391V24.1473C12.332 24.3575 12.3487 24.559 12.3737 24.7693C12.5568 27.555 13.9723 29.0442 16.6201 29.2281C16.8116 29.2544 17.0031 29.2719 17.2113 29.2719H23.7059C26.7866 29.2719 28.4103 27.7302 28.5685 24.6641C28.5768 24.4977 28.5851 24.3225 28.5851 24.1473V22.4391C28.5851 20.5031 27.3612 18.8737 25.6959 18.3394ZM21.5244 23.5779C21.9074 23.7181 22.4236 24.0159 22.4236 24.9445C22.4236 25.7416 21.8324 26.3811 21.0997 26.3811H20.8916V26.5738C20.8916 26.8279 20.7001 27.0294 20.4586 27.0294C20.2171 27.0294 20.0256 26.8279 20.0256 26.5738V26.3811H19.9507C19.1513 26.3811 18.4936 25.6716 18.4936 24.7955C18.4936 24.5415 18.6851 24.34 18.9265 24.34C19.168 24.34 19.3595 24.5415 19.3595 24.7955C19.3595 25.1635 19.6259 25.4701 19.9507 25.4701H20.0256V23.9896L19.3928 23.7531C19.0098 23.6129 18.4936 23.3151 18.4936 22.3865C18.4936 21.5894 19.0847 20.9499 19.8175 20.9499H20.0256V20.7572C20.0256 20.5031 20.2171 20.3016 20.4586 20.3016C20.7001 20.3016 20.8916 20.5031 20.8916 20.7572V20.9499H20.9665C21.7658 20.9499 22.4236 21.6594 22.4236 22.5355C22.4236 22.7895 22.2321 22.991 21.9906 22.991C21.7492 22.991 21.5577 22.7895 21.5577 22.5355C21.5577 22.1675 21.2912 21.8609 20.9665 21.8609H20.8916V23.3414L21.5244 23.5779Z" fill="#4D1A2D"/>
<path d="M19.3594 22.3867C19.3594 22.7546 19.4593 22.8072 19.6758 22.8948L20.0255 23.0262V21.8611H19.8173C19.5592 21.8611 19.3594 22.0976 19.3594 22.3867Z" fill="#4D1A2D"/>
</svg>
