<svg width="24" height="24" viewBox="0 0 24 24" fill="none" xmlns="http://www.w3.org/2000/svg">
<path d="M18.1151 18.4616C18.8798 18.4616 19.4997 17.8417 19.4997 17.077C19.4997 16.3123 18.8798 15.6924 18.1151 15.6924C17.3504 15.6924 16.7305 16.3123 16.7305 17.077C16.7305 17.8417 17.3504 18.4616 18.1151 18.4616Z" fill="#E3E5E6"/>
<path d="M3.11546 7.61523C3.62546 7.61523 4.03854 8.02831 4.03854 8.53831C4.03854 9.04831 3.62546 9.46139 3.11546 9.46139C2.60546 9.46139 2.19238 9.04831 2.19238 8.53831C2.19238 8.02831 2.60546 7.61523 3.11546 7.61523Z" fill="#E3E5E6"/>
<path d="M7.75813 2.51069C7.88367 2.63577 7.96116 2.80885 7.96116 2.99992C7.96116 3.38208 7.65101 3.69223 7.26886 3.69223H6.80732H5.19193H4.73039C4.53932 3.69223 4.36624 3.61469 4.24116 3.48916C4.11562 3.36408 4.03809 3.191 4.03809 2.99992C4.03809 2.61777 4.34829 2.30762 4.73039 2.30762H7.26886C7.45998 2.30762 7.63306 2.38516 7.75813 2.51069Z" fill="#E3E5E6"/>
<path d="M6.80777 3.69238V3.69284C6.80777 6.19254 6.80777 8.69223 6.80777 11.1924C6.80777 11.6572 6.80777 12.1224 6.80777 12.5876V20.3078H5.19238V3.69238H6.80777Z" fill="white"/>
<path d="M19.9472 12.9225C19.9472 13.3877 19.9472 13.8524 19.9472 14.3177C15.5672 9.12583 11.1876 17.7792 6.80762 12.5874C6.80762 12.1222 6.80762 11.6569 6.80762 11.1922C6.80762 8.69203 6.80762 6.19233 6.80762 3.69264C11.1876 8.88449 15.5672 0.231104 19.9472 5.42295C19.9472 7.92264 19.9472 10.4228 19.9472 12.9225Z" fill="#E3E5E6"/>
<path d="M21.787 14.783C21.9707 14.8356 22.0773 15.0271 22.0247 15.2108C21.9725 15.3945 21.7805 15.5011 21.5968 15.4485C21.4131 15.3964 21.3065 15.2044 21.3591 15.0207C21.4118 14.837 21.6033 14.7304 21.787 14.783Z" fill="#858C94"/>
<path d="M20.1718 2.32105C20.3554 2.37321 20.4621 2.56521 20.4094 2.7489C20.3573 2.93259 20.1653 3.03921 19.9816 2.98659C19.7979 2.93398 19.6913 2.74244 19.7439 2.55875C19.7965 2.37505 19.9881 2.26844 20.1718 2.32105Z" fill="#858C94"/>
<path d="M19.7308 21.4615C19.8582 21.4615 19.9615 21.3582 19.9615 21.2308C19.9615 21.1033 19.8582 21 19.7308 21C19.6033 21 19.5 21.1033 19.5 21.2308C19.5 21.3582 19.6033 21.4615 19.7308 21.4615Z" fill="#858C94"/>
<path d="M12.787 16.3982C12.9707 16.4504 13.0773 16.6424 13.0247 16.826C12.9721 17.0097 12.7805 17.1164 12.5968 17.0637C12.4131 17.0111 12.3065 16.8196 12.3591 16.6359C12.4113 16.4522 12.6033 16.3456 12.787 16.3982Z" fill="#858C94"/>
<path d="M10.4794 3.01344C10.663 3.06559 10.7697 3.25759 10.7171 3.44128C10.6644 3.62497 10.4729 3.73159 10.2892 3.67897C10.1055 3.62636 9.99891 3.43482 10.0515 3.25113C10.1036 3.06744 10.2956 2.96082 10.4794 3.01344Z" fill="#858C94"/>
<path d="M5.88409 22.3844C6.01154 22.3844 6.11486 22.2811 6.11486 22.1536C6.11486 22.0262 6.01154 21.9229 5.88409 21.9229C5.75664 21.9229 5.65332 22.0262 5.65332 22.1536C5.65332 22.2811 5.75664 22.3844 5.88409 22.3844Z" fill="#858C94"/>
<path d="M4.0175 18.0134C4.20115 18.0656 4.30781 18.2576 4.25515 18.4413C4.20253 18.625 4.01099 18.7316 3.8273 18.679C3.64361 18.6264 3.53699 18.4348 3.58961 18.2511C3.64176 18.0674 3.83376 17.9608 4.0175 18.0134Z" fill="#858C94"/>
<path d="M2.63371 12.2439C2.81736 12.2965 2.92402 12.4881 2.87136 12.6718C2.81874 12.8554 2.6272 12.9621 2.44351 12.9094C2.25982 12.8573 2.1532 12.6653 2.20582 12.4816C2.25797 12.2979 2.44997 12.1913 2.63371 12.2439Z" fill="#858C94"/>
<path d="M14.4223 20.5387H6.80694C6.67951 20.5387 6.57617 20.4354 6.57617 20.3079C6.57617 20.1804 6.67951 20.0771 6.80694 20.0771H14.4223C14.5498 20.0771 14.6531 20.1804 14.6531 20.3079C14.6531 20.4354 14.5498 20.5387 14.4223 20.5387Z" fill="#858C94"/>
<path d="M5.19201 20.5387H1.96124C1.83381 20.5387 1.73047 20.4354 1.73047 20.3079C1.73047 20.1804 1.83381 20.0771 1.96124 20.0771H5.19201C5.31948 20.0771 5.42278 20.1804 5.42278 20.3079C5.42278 20.4354 5.31948 20.5387 5.19201 20.5387Z" fill="#858C94"/>
<path d="M19.0383 21.4615H12.346C12.2185 21.4615 12.1152 21.3582 12.1152 21.2308C12.1152 21.1033 12.2185 21 12.346 21H19.0383C19.1658 21 19.2691 21.1033 19.2691 21.2308C19.2691 21.3582 19.1658 21.4615 19.0383 21.4615Z" fill="#858C94"/>
<path d="M15.3457 22.3844H6.57647C6.44904 22.3844 6.3457 22.2811 6.3457 22.1536C6.3457 22.0261 6.44904 21.9229 6.57647 21.9229H15.3457C15.4732 21.9229 15.5765 22.0261 15.5765 22.1536C15.5765 22.2811 15.4732 22.3844 15.3457 22.3844Z" fill="#858C94"/>
<path d="M22.0385 21.4615H20.4232C20.2957 21.4615 20.1924 21.3582 20.1924 21.2308C20.1924 21.1033 20.2957 21 20.4232 21H22.0385C22.166 21 22.2693 21.1033 22.2693 21.2308C22.2693 21.3582 22.166 21.4615 22.0385 21.4615Z" fill="#858C94"/>
<path d="M6.80694 3.92368C6.67951 3.92368 6.57617 3.82058 6.57617 3.69314V3.69268C6.57617 3.56525 6.67951 3.46191 6.80694 3.46191C6.93442 3.46191 7.03771 3.56525 7.03771 3.69268C7.03771 3.82011 6.93442 3.92368 6.80694 3.92368Z" fill="#858C94"/>
<path d="M6.80709 20.5388H5.19171C5.06428 20.5388 4.96094 20.4355 4.96094 20.3081V3.69268C4.96094 3.56525 5.06428 3.46191 5.19171 3.46191C5.31918 3.46191 5.42248 3.56525 5.42248 3.69268V20.0773H6.57632V12.5879C6.57632 12.4604 6.67966 12.3571 6.80709 12.3571C6.93457 12.3571 7.03786 12.4604 7.03786 12.5879V20.3081C7.03786 20.4355 6.93457 20.5388 6.80709 20.5388Z" fill="#858C94"/>
<path d="M7.26916 3.9233H4.73069C4.48391 3.9233 4.25212 3.82707 4.07799 3.65233C3.90385 3.47884 3.80762 3.24701 3.80762 3.00023C3.80762 2.49124 4.22176 2.07715 4.73069 2.07715H7.26916C7.51599 2.07715 7.74777 2.17338 7.92191 2.34812C8.096 2.52166 8.19223 2.75344 8.19223 3.00023C8.19223 3.50921 7.77814 3.9233 7.26916 3.9233ZM4.73069 2.53869C4.4762 2.53869 4.26916 2.74573 4.26916 3.00023C4.26916 3.12341 4.31716 3.23912 4.40439 3.32598C4.4918 3.41376 4.60751 3.46176 4.73069 3.46176H7.26916C7.52369 3.46176 7.73069 3.25472 7.73069 3.00023C7.73069 2.87704 7.68269 2.76133 7.59551 2.67447C7.50809 2.58669 7.39239 2.53869 7.26916 2.53869H4.73069Z" fill="#858C94"/>
<path d="M10.0924 14.549C10.0922 14.549 10.092 14.549 10.0917 14.549C8.79146 14.5488 7.65931 13.9559 6.63059 12.7365C6.59546 12.6949 6.57617 12.6422 6.57617 12.5877V3.69291C6.57617 3.59599 6.63668 3.50941 6.72774 3.47618C6.81871 3.44295 6.9209 3.47004 6.98334 3.54411C7.93222 4.66888 8.91996 5.19273 10.0918 5.19273C11.1429 5.19268 12.2353 4.76101 13.2918 4.3435C14.3886 3.91007 15.5226 3.46191 16.6617 3.46191C17.9618 3.46191 19.094 4.05481 20.1229 5.27442C20.158 5.31605 20.1773 5.36876 20.1773 5.42322V14.318C20.1773 14.4149 20.1167 14.5015 20.0258 14.5347C19.9346 14.568 19.8326 14.5409 19.7702 14.4668C18.8213 13.342 17.8336 12.8182 16.6617 12.8182C15.6107 12.8182 14.5183 13.2499 13.4619 13.6674C12.3653 14.1009 11.2313 14.549 10.0924 14.549ZM7.03771 12.5027C7.96979 13.5832 8.9422 14.0873 10.0918 14.0875C10.092 14.0875 10.0922 14.0875 10.0924 14.0875C11.1435 14.0875 12.2358 13.6558 13.2922 13.2383C14.3889 12.8048 15.5228 12.3567 16.6617 12.3567C17.7926 12.3567 18.7964 12.8052 19.7158 13.7248V5.50828C18.7835 4.4275 17.8111 3.92345 16.6617 3.92345C15.6106 3.92345 14.518 4.35518 13.4615 4.77268C12.3648 5.20607 11.2308 5.65422 10.0918 5.65427C8.96089 5.65431 7.95709 5.20574 7.03771 4.28618V12.5027Z" fill="#858C94"/>
<path d="M11.423 6.68137C11.3168 6.68142 11.2213 6.60767 11.1977 6.49971C11.1706 6.37519 11.2495 6.25223 11.374 6.2251C12.0889 6.06923 12.8256 5.7781 13.538 5.49656C14.8904 4.96205 16.289 4.4094 17.6992 4.6915C17.8242 4.71646 17.9052 4.83808 17.8803 4.96302C17.8552 5.08796 17.734 5.1691 17.6087 5.14403C16.3318 4.88853 15.0571 5.39234 13.7076 5.92574C12.9781 6.21406 12.2238 6.51217 11.4724 6.67597C11.4558 6.67962 11.4393 6.68137 11.423 6.68137Z" fill="#858C94"/>
<path d="M19.947 13.1539C19.8814 13.1539 19.8162 13.126 19.7705 13.0719C18.731 11.8398 17.6246 11.3215 16.2894 11.4406C16.1615 11.4517 16.0504 11.3582 16.039 11.2313C16.0277 11.1043 16.1214 10.9922 16.2484 10.9809C17.7466 10.8471 18.9781 11.417 20.1233 12.7742C20.2055 12.8717 20.1931 13.0173 20.0957 13.0994C20.0525 13.136 19.9996 13.1539 19.947 13.1539Z" fill="#858C94"/>
<path d="M10.0928 13.1497C8.94181 13.1497 7.77776 12.7012 6.63056 11.3415C6.54841 11.2441 6.56069 11.0985 6.65816 11.0163C6.75555 10.9341 6.90116 10.9465 6.98336 11.0439C8.88305 13.2956 10.7073 12.8388 12.7243 12.0655C12.8434 12.0199 12.9769 12.0794 13.0225 12.1984C13.0681 12.3174 13.0086 12.4509 12.8896 12.4965C11.9776 12.8461 11.0396 13.1497 10.0928 13.1497Z" fill="#858C94"/>
<path d="M18.1154 18.6927C17.2247 18.6927 16.5 17.968 16.5 17.0773C16.5 16.1866 17.2247 15.4619 18.1154 15.4619C19.0061 15.4619 19.7308 16.1866 19.7308 17.0773C19.7308 17.968 19.0061 18.6927 18.1154 18.6927ZM18.1154 15.9235C17.4792 15.9235 16.9615 16.4411 16.9615 17.0773C16.9615 17.7135 17.4792 18.2311 18.1154 18.2311C18.7516 18.2311 19.2692 17.7135 19.2692 17.0773C19.2692 16.4411 18.7516 15.9235 18.1154 15.9235Z" fill="#858C94"/>
<path d="M3.11478 9.69246C2.47855 9.69246 1.96094 9.17484 1.96094 8.53861C1.96094 7.90238 2.47855 7.38477 3.11478 7.38477C3.75101 7.38477 4.26863 7.90238 4.26863 8.53861C4.26863 9.17484 3.75101 9.69246 3.11478 9.69246ZM3.11478 7.8463C2.73305 7.8463 2.42248 8.15687 2.42248 8.53861C2.42248 8.92035 2.73305 9.23092 3.11478 9.23092C3.49652 9.23092 3.80709 8.92035 3.80709 8.53861C3.80709 8.15687 3.49652 7.8463 3.11478 7.8463Z" fill="#858C94"/>
</svg>
