<svg width="41" height="41" viewBox="0 0 41 41" fill="none" xmlns="http://www.w3.org/2000/svg">
<rect x="0.292969" y="0.30957" width="39.9667" height="39.9667" rx="8.32639" fill="#FFDDDD"/>
<path d="M28.602 16.5873C28.602 17.1368 28.1524 17.5865 27.6028 17.5865H12.9484C12.3988 17.5865 11.9492 17.1368 11.9492 16.5873V16.579C11.9492 14.6722 13.4896 13.1318 15.3963 13.1318H25.1465C27.0533 13.1318 28.602 14.6805 28.602 16.5873Z" fill="#4D1A2D"/>
<path d="M11.9492 19.8341V24.0056C11.9492 25.9124 13.4896 27.4528 15.3963 27.4528H25.1465C27.0533 27.4528 28.602 25.9041 28.602 23.9973V19.8341C28.602 19.2846 28.1524 18.835 27.6028 18.835H12.9484C12.3988 18.835 11.9492 19.2846 11.9492 19.8341ZM16.9451 24.6634H15.2798C14.9384 24.6634 14.6553 24.3803 14.6553 24.039C14.6553 23.6976 14.9384 23.4145 15.2798 23.4145H16.9451C17.2864 23.4145 17.5695 23.6976 17.5695 24.039C17.5695 24.3803 17.2864 24.6634 16.9451 24.6634ZM22.3572 24.6634H19.0266C18.6853 24.6634 18.4022 24.3803 18.4022 24.039C18.4022 23.6976 18.6853 23.4145 19.0266 23.4145H22.3572C22.6986 23.4145 22.9817 23.6976 22.9817 24.039C22.9817 24.3803 22.6986 24.6634 22.3572 24.6634Z" fill="#4D1A2D"/>
</svg>
