<svg width="30" height="30" viewBox="0 0 30 30" fill="none" xmlns="http://www.w3.org/2000/svg">
<path d="M17.0894 21.1701L23.5769 19.7951C23.5019 20.5518 23.3052 21.2818 22.9869 21.9851L16.5144 23.3601C16.581 22.5935 16.7727 21.8635 17.0894 21.1701ZM22.9869 17.8576L16.5144 19.2326V15.1076L14.4944 15.5401V17.8301C14.4944 18.0351 14.4377 18.2218 14.3244 18.3901L13.2719 19.9476C12.9919 20.351 12.6169 20.5993 12.1469 20.6926L6.42188 21.9151C6.49687 21.1568 6.69354 20.4268 7.01188 19.7251L12.4719 18.5601V15.9601L7.37687 17.0426C7.45187 16.2843 7.64771 15.5593 7.96438 14.8676L12.4719 13.8976V5.88262C13.0419 5.18928 13.716 4.62262 14.4944 4.18262V13.4776L16.5144 13.0426V6.89262C17.086 6.20095 17.7552 5.63428 18.5219 5.19262V12.6201L23.5769 11.5401C23.5019 12.2985 23.3052 13.0285 22.9869 13.7301L18.5219 14.6851V16.7351L23.5769 15.6676C23.5019 16.4343 23.3052 17.1643 22.9869 17.8576Z" fill="#F0451B"/>
</svg>
