<svg width="29" height="30" viewBox="0 0 29 30" fill="none" xmlns="http://www.w3.org/2000/svg">
<path d="M9.79647 27.6693H5.01062C2.62955 27.6693 1.48047 26.5669 1.48047 24.2909V5.56153C1.48047 3.28555 2.64139 2.18312 5.01062 2.18312H9.79647C12.1775 2.18312 13.3266 3.28555 13.3266 5.56153V24.2909C13.3266 26.5669 12.1657 27.6693 9.79647 27.6693ZM5.01062 3.96123C3.50616 3.96123 3.25739 4.36427 3.25739 5.56153V24.2909C3.25739 25.4882 3.50616 25.8912 5.01062 25.8912H9.79647C11.3009 25.8912 11.5497 25.4882 11.5497 24.2909V5.56153C11.5497 4.36427 11.3009 3.96123 9.79647 3.96123H5.01062Z" fill="#0C0C0D"/>
<path d="M23.4195 17.0007H18.6337C16.2526 17.0007 15.1035 15.8983 15.1035 13.6223V5.56153C15.1035 3.28555 16.2644 2.18312 18.6337 2.18312H23.4195C25.8006 2.18312 26.9497 3.28555 26.9497 5.56153V13.6223C26.9497 15.8983 25.7887 17.0007 23.4195 17.0007ZM18.6337 3.96123C17.1292 3.96123 16.8804 4.36427 16.8804 5.56153V13.6223C16.8804 14.8195 17.1292 15.2226 18.6337 15.2226H23.4195C24.924 15.2226 25.1727 14.8195 25.1727 13.6223V5.56153C25.1727 4.36427 24.924 3.96123 23.4195 3.96123H18.6337Z" fill="#0C0C0D"/>
<path d="M23.4195 27.6688H18.6337C16.2526 27.6688 15.1035 26.5663 15.1035 24.2903V22.1566C15.1035 19.8806 16.2644 18.7782 18.6337 18.7782H23.4195C25.8006 18.7782 26.9497 19.8806 26.9497 22.1566V24.2903C26.9497 26.5663 25.7887 27.6688 23.4195 27.6688ZM18.6337 20.5563C17.1292 20.5563 16.8804 20.9594 16.8804 22.1566V24.2903C16.8804 25.4876 17.1292 25.8906 18.6337 25.8906H23.4195C24.924 25.8906 25.1727 25.4876 25.1727 24.2903V22.1566C25.1727 20.9594 24.924 20.5563 23.4195 20.5563H18.6337Z" fill="#0C0C0D"/>
</svg>
