<svg viewBox="0 0 24 24" fill="none" xmlns="http://www.w3.org/2000/svg" id="Quick-Reference--Streamline-Outlined-Material" height="24" width="24"><desc>Quick Reference Streamline Icon: https://streamlinehq.com</desc><g id="quick-reference"><path id="Vector" d="M15.875 20.25h1V16.5h-1v3.75Zm0.5 -4.725c0.13335 0 0.25 -0.05125 0.35 -0.15375 0.1 -0.1025 0.15 -0.2221 0.15 -0.35875 0 -0.13665 -0.05 -0.25625 -0.15 -0.35875 -0.1 -0.1025 -0.21665 -0.15375 -0.35 -0.15375 -0.15 0 -0.27085 0.05 -0.3625 0.15 -0.09165 0.1 -0.1375 0.2191 -0.1375 0.35725 0 0.138 0.04585 0.25885 0.1375 0.3625 0.09165 0.1035 0.2125 0.15525 0.3625 0.15525ZM4.5 3.5v7.375V20.5Zm2.475 10h4.1635c0.20765 -0.28335 0.4365 -0.55 0.6865 -0.8s0.51665 -0.48335 0.8 -0.7h-5.65v1.5Zm0 4.25h3.075c-0.03335 -0.23335 -0.04585 -0.47915 -0.0375 -0.7375 0.00835 -0.25835 0.02915 -0.5125 0.0625 -0.7625h-3.1v1.5ZM4.5 22c-0.4 0 -0.75 -0.15 -1.05 -0.45 -0.3 -0.3 -0.45 -0.65 -0.45 -1.05V3.5c0 -0.4 0.15 -0.75 0.45 -1.05C3.75 2.15 4.1 2 4.5 2h9.025L19 7.475v3.875c-0.23335 -0.1 -0.475 -0.19165 -0.725 -0.275 -0.25 -0.08335 -0.50835 -0.15 -0.775 -0.2V8.15h-4.725V3.5H4.5v17h6.475c0.18335 0.28335 0.383 0.55075 0.599 0.80225 0.21585 0.2515 0.45785 0.4841 0.726 0.69775H4.5Zm11.875 -9.725c1.34185 0 2.48565 0.47285 3.4315 1.4185 0.94565 0.94585 1.4185 2.08965 1.4185 3.4315 0 1.34185 -0.47285 2.48565 -1.4185 3.4315 -0.94585 0.94565 -2.08965 1.4185 -3.4315 1.4185 -1.34185 0 -2.48565 -0.47285 -3.4315 -1.4185 -0.94565 -0.94585 -1.4185 -2.08965 -1.4185 -3.4315 0 -1.34185 0.47285 -2.48565 1.4185 -3.4315 0.94585 -0.94565 2.08965 -1.4185 3.4315 -1.4185Z" fill="#000000" stroke-width="0.5"></path></g></svg>