<svg width="24" height="24" viewBox="0 0 24 24" fill="none" xmlns="http://www.w3.org/2000/svg">
<path d="M15.75 22.5H5.25C5.05109 22.5 4.86032 22.421 4.71967 22.2803C4.57902 22.1397 4.5 21.9489 4.5 21.75V2.25C4.5 2.05109 4.57902 1.86032 4.71967 1.71967C4.86032 1.57902 5.05109 1.5 5.25 1.5H16.875C17.0739 1.5 17.2647 1.57902 17.4053 1.71967C17.546 1.86032 17.625 2.05109 17.625 2.25C17.625 2.44891 17.546 2.63968 17.4053 2.78033C17.2647 2.92098 17.0739 3 16.875 3H6V21H15.75C15.9489 21 16.1397 21.079 16.2803 21.2197C16.421 21.3603 16.5 21.5511 16.5 21.75C16.5 21.9489 16.421 22.1397 16.2803 22.2803C16.1397 22.421 15.9489 22.5 15.75 22.5Z" fill="#4D1A2D"/>
<path d="M15.75 22.5H5.25C5.05109 22.5 4.86032 22.421 4.71967 22.2803C4.57902 22.1397 4.5 21.9489 4.5 21.75V2.25C4.5 2.05109 4.57902 1.86032 4.71967 1.71967C4.86032 1.57902 5.05109 1.5 5.25 1.5H16.875C17.0739 1.5 17.2647 1.57902 17.4053 1.71967C17.546 1.86032 17.625 2.05109 17.625 2.25C17.625 2.44891 17.546 2.63968 17.4053 2.78033C17.2647 2.92098 17.0739 3 16.875 3H6V21H15.75C15.9489 21 16.1397 21.079 16.2803 21.2197C16.421 21.3603 16.5 21.5511 16.5 21.75C16.5 21.9489 16.421 22.1397 16.2803 22.2803C16.1397 22.421 15.9489 22.5 15.75 22.5Z" stroke="#4D1A2D"/>
<path d="M18.75 19.5C18.5511 19.5 18.3603 19.421 18.2197 19.2803C18.079 19.1397 18 18.9489 18 18.75V11.625C18 11.4261 18.079 11.2353 18.2197 11.0947C18.3603 10.954 18.5511 10.875 18.75 10.875C18.9489 10.875 19.1397 10.954 19.2803 11.0947C19.421 11.2353 19.5 11.4261 19.5 11.625V18.75C19.5 18.9489 19.421 19.1397 19.2803 19.2803C19.1397 19.421 18.9489 19.5 18.75 19.5Z" fill="#4D1A2D"/>
<path d="M18.75 19.5C18.5511 19.5 18.3603 19.421 18.2197 19.2803C18.079 19.1397 18 18.9489 18 18.75V11.625C18 11.4261 18.079 11.2353 18.2197 11.0947C18.3603 10.954 18.5511 10.875 18.75 10.875C18.9489 10.875 19.1397 10.954 19.2803 11.0947C19.421 11.2353 19.5 11.4261 19.5 11.625V18.75C19.5 18.9489 19.421 19.1397 19.2803 19.2803C19.1397 19.421 18.9489 19.5 18.75 19.5Z" stroke="#4D1A2D"/>
<path d="M16.875 12C19.5674 12 21.75 9.81739 21.75 7.125C21.75 4.43261 19.5674 2.25 16.875 2.25C14.1826 2.25 12 4.43261 12 7.125C12 9.81739 14.1826 12 16.875 12Z" fill="#FFE6DE"/>
<path d="M16.875 12C19.5674 12 21.75 9.81739 21.75 7.125C21.75 4.43261 19.5674 2.25 16.875 2.25C14.1826 2.25 12 4.43261 12 7.125C12 9.81739 14.1826 12 16.875 12Z" stroke="#4D1A2D"/>
<path d="M16.875 12.75C15.7625 12.75 14.6749 12.4201 13.7499 11.802C12.8249 11.1839 12.1039 10.3054 11.6782 9.2776C11.2524 8.24976 11.141 7.11876 11.3581 6.02762C11.5751 4.93648 12.1109 3.9342 12.8975 3.14753C13.6842 2.36086 14.6865 1.82513 15.7776 1.60809C16.8688 1.39104 17.9998 1.50244 19.0276 1.92818C20.0554 2.35392 20.9339 3.07489 21.552 3.99992C22.1701 4.92495 22.5 6.01248 22.5 7.125C22.4984 8.61636 21.9053 10.0462 20.8507 11.1007C19.7962 12.1553 18.3664 12.7484 16.875 12.75ZM16.875 3C16.0592 3 15.2616 3.24193 14.5833 3.69519C13.9049 4.14845 13.3762 4.79269 13.064 5.54643C12.7518 6.30018 12.6701 7.12958 12.8293 7.92975C12.9884 8.72992 13.3813 9.46493 13.9582 10.0418C14.5351 10.6187 15.2701 11.0116 16.0703 11.1707C16.8704 11.3299 17.6998 11.2482 18.4536 10.936C19.2073 10.6238 19.8516 10.0951 20.3048 9.41673C20.7581 8.73838 21 7.94085 21 7.125C20.9988 6.03135 20.5638 4.98283 19.7905 4.2095C19.0172 3.43617 17.9687 3.00119 16.875 3Z" fill="#4D1A2D"/>
<path d="M16.875 12.75C15.7625 12.75 14.6749 12.4201 13.7499 11.802C12.8249 11.1839 12.1039 10.3054 11.6782 9.2776C11.2524 8.24976 11.141 7.11876 11.3581 6.02762C11.5751 4.93648 12.1109 3.9342 12.8975 3.14753C13.6842 2.36086 14.6865 1.82513 15.7776 1.60809C16.8688 1.39104 17.9998 1.50244 19.0276 1.92818C20.0554 2.35392 20.9339 3.07489 21.552 3.99992C22.1701 4.92495 22.5 6.01248 22.5 7.125C22.4984 8.61636 21.9053 10.0462 20.8507 11.1007C19.7962 12.1553 18.3664 12.7484 16.875 12.75ZM16.875 3C16.0592 3 15.2616 3.24193 14.5833 3.69519C13.9049 4.14845 13.3762 4.79269 13.064 5.54643C12.7518 6.30018 12.6701 7.12958 12.8293 7.92975C12.9884 8.72992 13.3813 9.46493 13.9582 10.0418C14.5351 10.6187 15.2701 11.0116 16.0703 11.1707C16.8704 11.3299 17.6998 11.2482 18.4536 10.936C19.2073 10.6238 19.8516 10.0951 20.3048 9.41673C20.7581 8.73838 21 7.94085 21 7.125C20.9988 6.03135 20.5638 4.98283 19.7905 4.2095C19.0172 3.43617 17.9687 3.00119 16.875 3Z" stroke="#4D1A2D"/>
<path d="M15.75 22.5C15.5511 22.5 15.3603 22.421 15.2197 22.2803C15.079 22.1397 15 21.9489 15 21.75V18.75C15 18.5511 15.079 18.3603 15.2197 18.2197C15.3603 18.079 15.5511 18 15.75 18H18.75C18.8983 18 19.0433 18.044 19.1666 18.1264C19.2899 18.2089 19.386 18.326 19.4428 18.463C19.4995 18.6 19.5144 18.7508 19.4854 18.8963C19.4565 19.0417 19.3851 19.1754 19.2803 19.2803L16.2803 22.2803C16.1396 22.4209 15.9489 22.5 15.75 22.5ZM16.5 19.5V19.9395L16.9395 19.5H16.5Z" fill="#4D1A2D"/>
<path d="M15.75 22.5C15.5511 22.5 15.3603 22.421 15.2197 22.2803C15.079 22.1397 15 21.9489 15 21.75V18.75C15 18.5511 15.079 18.3603 15.2197 18.2197C15.3603 18.079 15.5511 18 15.75 18H18.75C18.8983 18 19.0433 18.044 19.1666 18.1264C19.2899 18.2089 19.386 18.326 19.4428 18.463C19.4995 18.6 19.5144 18.7508 19.4854 18.8963C19.4565 19.0417 19.3851 19.1754 19.2803 19.2803L16.2803 22.2803C16.1396 22.4209 15.9489 22.5 15.75 22.5ZM16.5 19.5V19.9395L16.9395 19.5H16.5Z" stroke="#4D1A2D"/>
<path d="M16.8682 9.93566V9.29966C16.4724 9.28889 16.0839 9.1908 15.7305 9.01241L15.9307 8.22866C16.2714 8.41675 16.6531 8.51798 17.0422 8.52341C17.4232 8.52341 17.685 8.37341 17.685 8.10866C17.685 7.85366 17.4705 7.69316 16.9755 7.52591C16.2592 7.28441 15.7702 6.94991 15.7702 6.30041C15.7802 5.99782 15.9008 5.70941 16.1093 5.48988C16.3178 5.27035 16.5996 5.13496 16.9012 5.10941V4.47266H17.5575V5.06216C17.8943 5.06679 18.2264 5.1419 18.5325 5.28266L18.3375 6.03941C18.0373 5.89277 17.7078 5.81585 17.3737 5.81441C16.9387 5.81441 16.7985 6.00191 16.7985 6.18941C16.7985 6.40991 17.0325 6.55016 17.6017 6.76466C18.3982 7.04591 18.7192 7.41416 18.7192 8.01716C18.7091 8.33445 18.5816 8.63669 18.3614 8.86542C18.1413 9.09415 17.8441 9.23311 17.5275 9.25541V9.93791L16.8682 9.93566Z" fill="#4D1A2D"/>
<path d="M9.75 7.5H7.5C7.30109 7.5 7.11032 7.42098 6.96967 7.28033C6.82902 7.13968 6.75 6.94891 6.75 6.75C6.75 6.55109 6.82902 6.36032 6.96967 6.21967C7.11032 6.07902 7.30109 6 7.5 6H9.75C9.94891 6 10.1397 6.07902 10.2803 6.21967C10.421 6.36032 10.5 6.55109 10.5 6.75C10.5 6.94891 10.421 7.13968 10.2803 7.28033C10.1397 7.42098 9.94891 7.5 9.75 7.5Z" fill="#4D1A2D"/>
<path d="M9.75 7.5H7.5C7.30109 7.5 7.11032 7.42098 6.96967 7.28033C6.82902 7.13968 6.75 6.94891 6.75 6.75C6.75 6.55109 6.82902 6.36032 6.96967 6.21967C7.11032 6.07902 7.30109 6 7.5 6H9.75C9.94891 6 10.1397 6.07902 10.2803 6.21967C10.421 6.36032 10.5 6.55109 10.5 6.75C10.5 6.94891 10.421 7.13968 10.2803 7.28033C10.1397 7.42098 9.94891 7.5 9.75 7.5Z" stroke="#4D1A2D"/>
<path d="M9.75 9.75H7.5C7.30109 9.75 7.11032 9.67098 6.96967 9.53033C6.82902 9.38968 6.75 9.19891 6.75 9C6.75 8.80109 6.82902 8.61032 6.96967 8.46967C7.11032 8.32902 7.30109 8.25 7.5 8.25H9.75C9.94891 8.25 10.1397 8.32902 10.2803 8.46967C10.421 8.61032 10.5 8.80109 10.5 9C10.5 9.19891 10.421 9.38968 10.2803 9.53033C10.1397 9.67098 9.94891 9.75 9.75 9.75Z" fill="#4D1A2D"/>
<path d="M9.75 9.75H7.5C7.30109 9.75 7.11032 9.67098 6.96967 9.53033C6.82902 9.38968 6.75 9.19891 6.75 9C6.75 8.80109 6.82902 8.61032 6.96967 8.46967C7.11032 8.32902 7.30109 8.25 7.5 8.25H9.75C9.94891 8.25 10.1397 8.32902 10.2803 8.46967C10.421 8.61032 10.5 8.80109 10.5 9C10.5 9.19891 10.421 9.38968 10.2803 9.53033C10.1397 9.67098 9.94891 9.75 9.75 9.75Z" stroke="#4D1A2D"/>
<path d="M12 14.25H7.5C7.30109 14.25 7.11032 14.171 6.96967 14.0303C6.82902 13.8897 6.75 13.6989 6.75 13.5C6.75 13.3011 6.82902 13.1103 6.96967 12.9697C7.11032 12.829 7.30109 12.75 7.5 12.75H12C12.1989 12.75 12.3897 12.829 12.5303 12.9697C12.671 13.1103 12.75 13.3011 12.75 13.5C12.75 13.6989 12.671 13.8897 12.5303 14.0303C12.3897 14.171 12.1989 14.25 12 14.25Z" fill="#4D1A2D"/>
<path d="M12 14.25H7.5C7.30109 14.25 7.11032 14.171 6.96967 14.0303C6.82902 13.8897 6.75 13.6989 6.75 13.5C6.75 13.3011 6.82902 13.1103 6.96967 12.9697C7.11032 12.829 7.30109 12.75 7.5 12.75H12C12.1989 12.75 12.3897 12.829 12.5303 12.9697C12.671 13.1103 12.75 13.3011 12.75 13.5C12.75 13.6989 12.671 13.8897 12.5303 14.0303C12.3897 14.171 12.1989 14.25 12 14.25Z" stroke="#4D1A2D"/>
<path d="M15 16.5H7.5C7.30109 16.5 7.11032 16.421 6.96967 16.2803C6.82902 16.1397 6.75 15.9489 6.75 15.75C6.75 15.5511 6.82902 15.3603 6.96967 15.2197C7.11032 15.079 7.30109 15 7.5 15H15C15.1989 15 15.3897 15.079 15.5303 15.2197C15.671 15.3603 15.75 15.5511 15.75 15.75C15.75 15.9489 15.671 16.1397 15.5303 16.2803C15.3897 16.421 15.1989 16.5 15 16.5Z" fill="#4D1A2D"/>
<path d="M15 16.5H7.5C7.30109 16.5 7.11032 16.421 6.96967 16.2803C6.82902 16.1397 6.75 15.9489 6.75 15.75C6.75 15.5511 6.82902 15.3603 6.96967 15.2197C7.11032 15.079 7.30109 15 7.5 15H15C15.1989 15 15.3897 15.079 15.5303 15.2197C15.671 15.3603 15.75 15.5511 15.75 15.75C15.75 15.9489 15.671 16.1397 15.5303 16.2803C15.3897 16.421 15.1989 16.5 15 16.5Z" stroke="#4D1A2D"/>
</svg>
