<svg width="24" height="24" viewBox="0 0 24 24" fill="none" xmlns="http://www.w3.org/2000/svg">
<path d="M11.492 2.78906H7.753C4.678 2.78906 2.75 4.96606 2.75 8.04806V16.3621C2.75 19.4441 4.669 21.6211 7.753 21.6211H16.577C19.662 21.6211 21.581 19.4441 21.581 16.3621V12.3341" stroke="#4D1A2D" stroke-width="1.5" stroke-linecap="round" stroke-linejoin="round"/>
<path fill-rule="evenodd" clip-rule="evenodd" d="M8.82763 10.9205L16.3006 3.4475C17.2316 2.5175 18.7406 2.5175 19.6716 3.4475L20.8886 4.6645C21.8196 5.5955 21.8196 7.1055 20.8886 8.0355L13.3796 15.5445C12.9726 15.9515 12.4206 16.1805 11.8446 16.1805H8.09863L8.19263 12.4005C8.20663 11.8445 8.43363 11.3145 8.82763 10.9205Z" stroke="#4D1A2D" stroke-width="1.5" stroke-linecap="round" stroke-linejoin="round"/>
<path d="M15.165 4.60254L19.731 9.16854" stroke="#4D1A2D" stroke-width="1.5" stroke-linecap="round" stroke-linejoin="round"/>
</svg>
