<svg width="44" height="44" viewBox="0 0 44 44" fill="none" xmlns="http://www.w3.org/2000/svg">
<rect x="0.5" y="0.5" width="43" height="43" rx="5.5" stroke="#7BAED3"/>
<path d="M23.5885 32.3958H13.1667C12.4763 32.395 11.8144 32.1204 11.3262 31.6322C10.838 31.144 10.5633 30.4821 10.5625 29.7917V14.1667C10.5633 13.4763 10.838 12.8144 11.3262 12.3262C11.8144 11.838 12.4763 11.5633 13.1667 11.5625H27.75C28.4404 11.5633 29.1023 11.838 29.5905 12.3262C30.0787 12.8144 30.3533 13.4763 30.3542 14.1667V23.5469C30.3542 23.685 30.2993 23.8175 30.2016 23.9152C30.1039 24.0128 29.9715 24.0677 29.8333 24.0677C29.6952 24.0677 29.5627 24.0128 29.465 23.9152C29.3674 23.8175 29.3125 23.685 29.3125 23.5469V14.1667C29.3125 13.7523 29.1479 13.3548 28.8549 13.0618C28.5618 12.7688 28.1644 12.6042 27.75 12.6042H13.1667C12.7523 12.6042 12.3548 12.7688 12.0618 13.0618C11.7688 13.3548 11.6042 13.7523 11.6042 14.1667V29.7917C11.6042 30.2061 11.7688 30.6035 12.0618 30.8965C12.3548 31.1895 12.7523 31.3542 13.1667 31.3542H23.5885C23.7267 31.3542 23.8592 31.409 23.9568 31.5067C24.0545 31.6044 24.1094 31.7369 24.1094 31.875C24.1094 32.0131 24.0545 32.1456 23.9568 32.2433C23.8592 32.341 23.7267 32.3958 23.5885 32.3958Z" fill="#7BAED3"/>
<path d="M20.4596 19.8958C20.2439 19.8659 20.037 19.7907 19.8523 19.6752C19.6677 19.5596 19.5096 19.4064 19.3883 19.2255C19.1279 18.9406 18.8549 18.6458 18.5826 18.6458C18.5049 18.6458 18.4263 18.6724 18.218 18.999C18.0983 19.1905 17.9196 19.3379 17.7088 19.419C17.4981 19.5002 17.2667 19.5106 17.0495 19.4488C16.8323 19.3869 16.641 19.2562 16.5046 19.0763C16.3681 18.8963 16.2939 18.6769 16.293 18.451V12.0833C16.293 11.9452 16.3478 11.8127 16.4455 11.715C16.5432 11.6174 16.6757 11.5625 16.8138 11.5625H24.1055C24.2436 11.5625 24.3761 11.6174 24.4738 11.715C24.5714 11.8127 24.6263 11.9452 24.6263 12.0833V18.613C24.6263 18.8312 24.5578 19.0439 24.4304 19.221C24.3031 19.3982 24.1233 19.5309 23.9165 19.6004C23.7097 19.6699 23.4863 19.6728 23.2778 19.6085C23.0693 19.5442 22.8862 19.4161 22.7544 19.2422L22.6992 19.1667C22.4544 18.8417 22.294 18.6458 22.1227 18.6458C21.8997 18.6458 21.7232 18.8594 21.4789 19.1849C21.3781 19.3762 21.233 19.5405 21.0556 19.6642C20.8783 19.7879 20.6739 19.8673 20.4596 19.8958ZM18.5846 17.6042C18.8968 17.6363 19.1985 17.7346 19.4697 17.8926C19.7408 18.0506 19.9751 18.2646 20.157 18.5203C20.2482 18.6232 20.3447 18.7212 20.4461 18.8141C20.5076 18.7469 20.5878 18.6396 20.6466 18.5609C20.7961 18.2934 21.0087 18.0664 21.2658 17.8997C21.5229 17.733 21.8169 17.6315 22.1221 17.6042C22.4148 17.6353 22.6956 17.7368 22.9405 17.9001C23.1854 18.0634 23.3871 18.2835 23.5284 18.5417L23.5805 18.613V12.6042H17.3346V18.4594C17.4463 18.2172 17.6215 18.0098 17.8416 17.8592C18.0617 17.7086 18.3185 17.6205 18.5846 17.6042Z" fill="#7BAED3"/>
<path d="M26.7096 33.4369C25.5765 33.4369 24.4688 33.1008 23.5267 32.4713C22.5845 31.8418 21.8502 30.947 21.4166 29.9001C20.983 28.8533 20.8695 27.7013 21.0906 26.59C21.3116 25.4786 21.8573 24.4578 22.6585 23.6566C23.4597 22.8553 24.4806 22.3097 25.5919 22.0886C26.7033 21.8675 27.8552 21.981 28.9021 22.4146C29.949 22.8483 30.8437 23.5826 31.4733 24.5247C32.1028 25.4669 32.4388 26.5746 32.4388 27.7077C32.437 29.2266 31.8328 30.6828 30.7588 31.7568C29.6848 32.8309 28.2286 33.4351 26.7096 33.4369ZM26.7096 23.0202C25.7825 23.0202 24.8763 23.2951 24.1054 23.8102C23.3345 24.3252 22.7337 25.0573 22.379 25.9139C22.0242 26.7704 21.9313 27.7129 22.1122 28.6222C22.2931 29.5315 22.7395 30.3667 23.3951 31.0222C24.0506 31.6778 24.8859 32.1242 25.7952 32.3051C26.7044 32.486 27.6469 32.3932 28.5035 32.0384C29.36 31.6836 30.0921 31.0828 30.6072 30.3119C31.1222 29.5411 31.3971 28.6348 31.3971 27.7077C31.3958 26.4649 30.9015 25.2734 30.0227 24.3946C29.1439 23.5159 27.9524 23.0216 26.7096 23.0202Z" fill="#7BAED3"/>
<path d="M26.7083 28.2292C26.3735 28.2292 26.0463 28.1299 25.7679 27.9439C25.4896 27.7579 25.2726 27.4935 25.1445 27.1842C25.0164 26.8749 24.9828 26.5346 25.0482 26.2062C25.1135 25.8779 25.2747 25.5763 25.5114 25.3395C25.7481 25.1028 26.0497 24.9416 26.3781 24.8763C26.7065 24.811 27.0468 24.8445 27.3561 24.9726C27.6654 25.1007 27.9298 25.3177 28.1158 25.596C28.3018 25.8744 28.401 26.2017 28.401 26.5365C28.401 26.6746 28.3462 26.8071 28.2485 26.9047C28.1508 27.0024 28.0183 27.0573 27.8802 27.0573C27.7421 27.0573 27.6096 27.0024 27.5119 26.9047C27.4142 26.8071 27.3594 26.6746 27.3594 26.5365C27.3594 26.4077 27.3212 26.2818 27.2497 26.1748C27.1781 26.0677 27.0764 25.9843 26.9575 25.935C26.8385 25.8857 26.7076 25.8728 26.5813 25.8979C26.455 25.923 26.339 25.9851 26.248 26.0761C26.1569 26.1672 26.0949 26.2832 26.0698 26.4094C26.0447 26.5357 26.0576 26.6666 26.1068 26.7856C26.1561 26.9046 26.2396 27.0062 26.3466 27.0778C26.4537 27.1493 26.5796 27.1875 26.7083 27.1875C26.8465 27.1875 26.9789 27.2424 27.0766 27.34C27.1743 27.4377 27.2292 27.5702 27.2292 27.7083C27.2292 27.8465 27.1743 27.9789 27.0766 28.0766C26.9789 28.1743 26.8465 28.2292 26.7083 28.2292Z" fill="#7BAED3"/>
<path d="M26.7083 30.5729C26.2596 30.5724 25.8293 30.3939 25.512 30.0765C25.1947 29.7592 25.0162 29.329 25.0156 28.8802C25.0156 28.7421 25.0705 28.6096 25.1682 28.5119C25.2658 28.4142 25.3983 28.3594 25.5365 28.3594C25.6746 28.3594 25.8071 28.4142 25.9047 28.5119C26.0024 28.6096 26.0573 28.7421 26.0573 28.8802C26.0573 29.009 26.0955 29.1348 26.167 29.2419C26.2385 29.349 26.3402 29.4324 26.4592 29.4817C26.5782 29.531 26.7091 29.5439 26.8353 29.5187C26.9616 29.4936 27.0776 29.4316 27.1687 29.3406C27.2597 29.2495 27.3217 29.1335 27.3469 29.0072C27.372 28.8809 27.3591 28.75 27.3098 28.6311C27.2605 28.5121 27.1771 28.4104 27.07 28.3389C26.963 28.2673 26.8371 28.2292 26.7083 28.2292C26.5702 28.2292 26.4377 28.1743 26.34 28.0766C26.2424 27.9789 26.1875 27.8465 26.1875 27.7083C26.1875 27.5702 26.2424 27.4377 26.34 27.34C26.4377 27.2424 26.5702 27.1875 26.7083 27.1875C27.1573 27.1875 27.5878 27.3658 27.9053 27.6833C28.2227 28.0007 28.401 28.4313 28.401 28.8802C28.401 29.3291 28.2227 29.7597 27.9053 30.0771C27.5878 30.3946 27.1573 30.5729 26.7083 30.5729Z" fill="#7BAED3"/>
<path d="M26.7083 25.8854C26.5702 25.8854 26.4377 25.8305 26.34 25.7329C26.2424 25.6352 26.1875 25.5027 26.1875 25.3646V24.5833C26.1875 24.4452 26.2424 24.3127 26.34 24.215C26.4377 24.1174 26.5702 24.0625 26.7083 24.0625C26.8465 24.0625 26.9789 24.1174 27.0766 24.215C27.1743 24.3127 27.2292 24.4452 27.2292 24.5833V25.3646C27.2292 25.5027 27.1743 25.6352 27.0766 25.7329C26.9789 25.8305 26.8465 25.8854 26.7083 25.8854Z" fill="#7BAED3"/>
<path d="M26.7083 31.3542C26.5702 31.3542 26.4377 31.2993 26.34 31.2016C26.2424 31.1039 26.1875 30.9715 26.1875 30.8333V30.0521C26.1875 29.9139 26.2424 29.7815 26.34 29.6838C26.4377 29.5861 26.5702 29.5312 26.7083 29.5312C26.8465 29.5312 26.9789 29.5861 27.0766 29.6838C27.1743 29.7815 27.2292 29.9139 27.2292 30.0521V30.8333C27.2292 30.9715 27.1743 31.1039 27.0766 31.2016C26.9789 31.2993 26.8465 31.3542 26.7083 31.3542Z" fill="#7BAED3"/>
</svg>
