<svg width="44" height="44" viewBox="0 0 44 44" fill="none" xmlns="http://www.w3.org/2000/svg">
<rect x="0.5" y="0.5" width="43" height="43" rx="5.5" stroke="#7BAED3"/>
<g clip-path="url(#clip0_223_12903)">
<path d="M33.9993 21.6087H30.265L33.1224 18.7513L31.8671 17.4959L27.7543 21.6087H23.6409L30.9635 14.2861L29.7082 13.0307L22.3906 20.3483V16.2637L26.499 12.1553L25.2437 10.9L22.3906 13.753V10H20.6152V13.7241L17.7629 10.8718L16.5075 12.1271L20.6152 16.2348V20.3555L13.2912 13.0314L12.0358 14.2868L19.3577 21.6087H15.2804L11.1676 17.4952L9.91226 18.7506L12.7698 21.6087H9V23.3841H12.7307L9.8834 26.2313L11.1387 27.4867L15.2414 23.3841H19.3548L12.0308 30.7081L13.2861 31.9635L20.6152 24.6344V28.7189L16.5075 32.8266L17.7629 34.082L20.6152 31.2296V35H22.3906V31.2585L25.2429 34.1108L26.4983 32.8555L22.3906 28.7478V24.6416L29.7132 31.9642L30.9686 30.7088L23.6438 23.3841H27.7356L31.8389 27.4874L33.0943 26.2321L30.2462 23.3841H33.9993V21.6087Z" fill="#7BAED3"/>
</g>
<defs>
<clipPath id="clip0_223_12903">
<rect width="25" height="25" fill="white" transform="translate(9 10)"/>
</clipPath>
</defs>
</svg>
