<svg width="14" height="14" viewBox="0 0 14 14" fill="none" xmlns="http://www.w3.org/2000/svg">
<path d="M11.6438 13.1094H2.35728C2.02417 13.109 1.70482 12.9765 1.46928 12.7409C1.23374 12.5054 1.10123 12.186 1.10083 11.8529V5.24283C1.10083 5.12688 1.14689 5.01569 1.22887 4.93371C1.31085 4.85173 1.42205 4.80566 1.53799 4.80566C1.65393 4.80566 1.76512 4.85173 1.8471 4.93371C1.92909 5.01569 1.97515 5.12688 1.97515 5.24283V11.8529C1.97515 11.9543 2.01541 12.0515 2.08707 12.1231C2.15873 12.1948 2.25593 12.2351 2.35728 12.2351H11.6438C11.7452 12.2351 11.8424 12.1948 11.914 12.1231C11.9857 12.0515 12.0259 11.9543 12.0259 11.8529V5.24283C12.0259 5.12688 12.072 5.01569 12.154 4.93371C12.236 4.85173 12.3472 4.80566 12.4631 4.80566C12.579 4.80566 12.6902 4.85173 12.7722 4.93371C12.8542 5.01569 12.9003 5.12688 12.9003 5.24283V11.8529C12.8999 12.186 12.7673 12.5054 12.5318 12.7409C12.2963 12.9765 11.9769 13.109 11.6438 13.1094Z" fill="#4D1A2D"/>
<path d="M13.5551 6.77225C13.4403 6.77142 13.3304 6.72527 13.2494 6.64385L7.81172 1.20995C7.70525 1.10331 7.57879 1.0187 7.43958 0.960977C7.30038 0.903252 7.15116 0.87354 7.00046 0.87354C6.84976 0.87354 6.70054 0.903252 6.56133 0.960977C6.42213 1.0187 6.29567 1.10331 6.1892 1.20995L0.75377 6.64385C0.671678 6.72574 0.560419 6.77166 0.444468 6.77152C0.328516 6.77138 0.217371 6.72518 0.135482 6.64309C0.0535936 6.56099 0.00766951 6.44974 0.00781283 6.33378C0.00795616 6.21783 0.0541551 6.10669 0.136246 6.0248L5.57091 0.590901C5.95029 0.212502 6.46425 0 7.00008 0C7.53591 0 8.04987 0.212502 8.42925 0.590901L13.8647 6.0248C13.9255 6.08575 13.967 6.1633 13.9839 6.24772C14.0008 6.33215 13.9924 6.41969 13.9597 6.49936C13.9271 6.57903 13.8716 6.64728 13.8003 6.69556C13.729 6.74383 13.6451 6.76998 13.559 6.77072L13.5551 6.77225Z" fill="#4D1A2D"/>
<path d="M8.74832 13.1102H5.25259C5.13665 13.1102 5.02546 13.0642 4.94348 12.9822C4.86149 12.9002 4.81543 12.789 4.81543 12.6731V8.79444C4.81583 8.43234 4.95986 8.08521 5.21589 7.82917C5.47193 7.57314 5.81908 7.42912 6.18117 7.42871H7.81974C8.18183 7.42912 8.52898 7.57314 8.78501 7.82917C9.04105 8.08521 9.18507 8.43234 9.18548 8.79444V12.6731C9.18548 12.789 9.13942 12.9002 9.05743 12.9822C8.97545 13.0642 8.86426 13.1102 8.74832 13.1102ZM5.69127 12.2359H8.31345V8.79675C8.31325 8.66647 8.26142 8.5416 8.1693 8.44948C8.07718 8.35737 7.95231 8.30552 7.82204 8.30532H6.18345C6.05318 8.30552 5.92831 8.35737 5.83619 8.44948C5.74407 8.5416 5.69224 8.66647 5.69204 8.79675L5.69127 12.2359Z" fill="#4D1A2D"/>
</svg>
