<svg width="35" height="35" viewBox="0 0 35 35" fill="none" xmlns="http://www.w3.org/2000/svg">
<path d="M19.9381 24.6983L27.5068 23.0942C27.4193 23.9769 27.1899 24.8286 26.8185 25.6492L19.2673 27.2533C19.345 26.3589 19.5686 25.5072 19.9381 24.6983ZM26.8185 20.8337L19.2673 22.4379V17.6254L16.9106 18.13V20.8017C16.9106 21.0408 16.8445 21.2586 16.7123 21.455L15.4843 23.2721C15.1577 23.7426 14.7202 24.0324 14.1718 24.1412L7.49268 25.5675C7.58018 24.6828 7.80962 23.8311 8.18101 23.0125L14.551 21.6533V18.62L8.60684 19.8829C8.69434 18.9982 8.92281 18.1524 9.29226 17.3454L14.551 16.2137V6.86291C15.216 6.05402 16.0025 5.39291 16.9106 4.87958V15.7237L19.2673 15.2162V8.04124C19.9342 7.2343 20.7149 6.57319 21.6093 6.05791V14.7233L27.5068 13.4633C27.4193 14.3481 27.1899 15.1997 26.8185 16.0183L21.6093 17.1325V19.5242L27.5068 18.2787C27.4193 19.1732 27.1899 20.0249 26.8185 20.8337Z" fill="#FFDE6B"/>
</svg>
