<svg width="25" height="25" viewBox="0 0 25 25" fill="none" xmlns="http://www.w3.org/2000/svg">
<path d="M24.4186 12.2093C24.4186 5.46629 18.9523 0 12.2093 0C5.46629 0 0 5.46629 0 12.2093C0 18.9523 5.46629 24.4186 12.2093 24.4186C18.9523 24.4186 24.4186 18.9523 24.4186 12.2093Z" fill="#AEAEAE"/>
<path d="M9.40764 18.3148C9.29451 18.3148 9.23788 18.3148 9.12474 18.2582C8.95497 18.2016 8.7852 18.0884 8.672 17.9187L6.46497 15.7116C6.35183 15.5985 6.18206 15.4287 6.12544 15.2589C6.06887 15.0892 6.06887 14.9193 6.12544 14.7496C6.18206 14.5798 6.2952 14.41 6.46497 14.2969L14.331 6.48743C14.4442 6.31766 14.614 6.20452 14.7837 6.1479C14.9535 6.09133 15.1233 6.09133 15.2931 6.1479C15.4628 6.20452 15.6326 6.31766 15.7458 6.48743L17.9528 8.69447C18.1225 8.86423 18.2357 8.97743 18.2923 9.1472C18.3489 9.31697 18.3489 9.48673 18.2923 9.6565C18.2357 9.82627 18.1225 9.99604 17.9528 10.1092L10.1433 17.9187C9.97358 18.0884 9.86038 18.2016 9.69061 18.2582C9.57747 18.3148 9.52084 18.3148 9.40764 18.3148ZM7.37044 15.0325L9.40764 17.0698L17.1039 9.37354L15.0667 7.33633L14.1612 8.24173L14.8969 8.97743C15.1233 9.20377 15.1233 9.5433 14.8969 9.7697C14.6706 9.99604 14.331 9.99604 14.1046 9.7697L13.369 9.034L12.4635 9.93947L13.1992 10.6751C13.4256 10.9015 13.4256 11.241 13.1992 11.4674C12.9728 11.6938 12.6333 11.6938 12.4069 11.4674L11.6712 10.7317L10.7658 11.6371L11.5015 12.3728C11.7279 12.5992 11.7279 12.9387 11.5015 13.1651C11.2751 13.3914 10.9356 13.3914 10.7093 13.1651L9.97358 12.4294L9.06811 13.3349L9.80381 14.0705C10.0301 14.2969 10.0301 14.6364 9.80381 14.8628C9.57747 15.0892 9.23788 15.0892 9.01154 14.8628L8.27584 14.1271L7.37044 15.0325Z" fill="white"/>
</svg>
