<svg width="44" height="44" viewBox="0 0 44 44" fill="none" xmlns="http://www.w3.org/2000/svg">
<rect x="0.5" y="0.5" width="43" height="43" rx="5.5" stroke="#636AE8"/>
<path d="M15.0732 17.2112C14.9704 17.2113 14.8687 17.2317 14.7738 17.2712C14.6789 17.3107 14.5927 17.3685 14.5202 17.4414C14.4477 17.5142 14.3903 17.6007 14.3512 17.6958C14.3122 17.7909 14.2923 17.8927 14.2927 17.9955C14.2929 18.2024 14.3752 18.4008 14.5216 18.5472C14.6679 18.6935 14.8663 18.7758 15.0732 18.776H28.6374C29.4839 18.776 30.0677 19.3471 30.0677 19.9832V21.3481C30.0673 21.4509 30.0872 21.5528 30.1262 21.6479C30.1652 21.7429 30.2226 21.8294 30.2951 21.9023C30.3676 21.9751 30.4538 22.033 30.5487 22.0725C30.6436 22.112 30.7454 22.1323 30.8482 22.1324C30.9509 22.1323 31.0527 22.112 31.1476 22.0725C31.2425 22.033 31.3287 21.9751 31.4012 21.9023C31.4737 21.8294 31.5311 21.7429 31.5701 21.6479C31.6092 21.5528 31.629 21.4509 31.6286 21.3481V19.9832C31.6286 18.4156 30.2389 17.2112 28.6374 17.2112H15.0732Z" fill="#636AE8"/>
<path d="M28.6619 20.5679C27.5194 20.5679 26.5742 21.513 26.5742 22.6556V24.2204C26.5742 25.3629 27.5194 26.3081 28.6619 26.3081H30.8342C31.9767 26.3081 32.918 25.3629 32.918 24.2204V22.6556C32.918 21.513 31.9767 20.5679 30.8342 20.5679H28.6619ZM28.6619 22.1327H30.8342C31.1323 22.1327 31.3571 22.3575 31.3571 22.6556V24.2204C31.3571 24.5185 31.1323 24.7433 30.8342 24.7433H28.6619C28.3638 24.7433 28.139 24.5185 28.139 24.2204V22.6556C28.139 22.3575 28.3638 22.1327 28.6619 22.1327Z" fill="#636AE8"/>
<path d="M21.964 26.104C21.8612 26.1036 21.7594 26.1235 21.6643 26.1625C21.5692 26.2016 21.4827 26.259 21.4099 26.3315C21.337 26.404 21.2792 26.4902 21.2397 26.5851C21.2002 26.68 21.1798 26.7817 21.1797 26.8845V30.983C21.1798 31.0858 21.2002 31.1875 21.2397 31.2824C21.2792 31.3773 21.337 31.4635 21.4099 31.536C21.4827 31.6085 21.5692 31.6659 21.6643 31.7049C21.7594 31.744 21.8612 31.7639 21.964 31.7635C22.1709 31.7633 22.3693 31.681 22.5157 31.5346C22.662 31.3883 22.7443 31.1899 22.7445 30.983V26.8845C22.7443 26.6776 22.662 26.4792 22.5157 26.3328C22.3694 26.1865 22.1709 26.1042 21.964 26.104Z" fill="#636AE8"/>
<path d="M19.8971 28.1304C19.6911 28.1305 19.4935 28.2121 19.3473 28.3572C19.2007 28.5031 19.1179 28.7013 19.1172 28.9081C19.1165 29.115 19.1978 29.3137 19.3433 29.4606L21.408 31.533C21.5539 31.6796 21.752 31.7623 21.9589 31.763C22.1657 31.7638 22.3644 31.6825 22.5114 31.5369C22.658 31.391 22.7408 31.1928 22.7415 30.986C22.7422 30.7791 22.6609 30.5804 22.5153 30.4335L20.4507 28.3611C20.3782 28.2881 20.2919 28.2301 20.1969 28.1906C20.1019 28.151 20 28.1305 19.8971 28.1304Z" fill="#636AE8"/>
<path d="M24.0222 28.1304C23.9193 28.1305 23.8174 28.151 23.7224 28.1906C23.6274 28.2301 23.5411 28.2881 23.4686 28.3611L21.4078 30.4334C21.2617 30.5799 21.1797 30.7783 21.1797 30.9852C21.1797 31.192 21.2617 31.3904 21.4078 31.5369C21.4807 31.6095 21.5671 31.6671 21.6623 31.7062C21.7574 31.7454 21.8594 31.7653 21.9623 31.765C22.0652 31.7646 22.167 31.7439 22.2618 31.7041C22.3567 31.6643 22.4428 31.6061 22.5151 31.5329L24.5759 29.4606C24.7214 29.3137 24.8028 29.115 24.802 28.9081C24.8013 28.7012 24.7185 28.5031 24.5719 28.3572C24.4257 28.2121 24.2282 28.1306 24.0222 28.1304Z" fill="#636AE8"/>
<path d="M12.8664 15.2236C12.6595 15.2238 12.4611 15.3061 12.3148 15.4525C12.1684 15.5988 12.0861 15.7972 12.0859 16.0041V26.9462C12.0859 28.5139 13.4718 29.7144 15.0733 29.7144H17.2917C17.4986 29.7142 17.697 29.6319 17.8434 29.4856C17.9897 29.3393 18.072 29.1409 18.0722 28.934C18.072 28.727 17.9897 28.5286 17.8434 28.3823C17.697 28.236 17.4986 28.1537 17.2917 28.1535H15.0733C14.2268 28.1535 13.6469 27.5824 13.6469 26.9462V16.0041C13.6467 15.7972 13.5644 15.5988 13.4181 15.4525C13.2718 15.3061 13.0734 15.2238 12.8664 15.2236ZM30.8482 24.7432C30.7455 24.7433 30.6437 24.7637 30.5488 24.8032C30.4539 24.8427 30.3677 24.9005 30.2952 24.9734C30.2227 25.0462 30.1653 25.1327 30.1263 25.2278C30.0872 25.3229 30.0674 25.4247 30.0678 25.5275V26.9462C30.0678 27.5824 29.484 28.1535 28.6375 28.1535H26.669C26.5662 28.1531 26.4644 28.173 26.3693 28.212C26.2742 28.251 26.1877 28.3084 26.1149 28.3809C26.042 28.4534 25.9842 28.5396 25.9447 28.6345C25.9052 28.7294 25.8848 28.8312 25.8847 28.934C25.8848 29.0367 25.9052 29.1385 25.9447 29.2334C25.9842 29.3283 26.042 29.4145 26.1149 29.487C26.1877 29.5595 26.2742 29.6169 26.3693 29.6559C26.4644 29.695 26.5662 29.7148 26.669 29.7144H28.6375C30.239 29.7144 31.6287 28.5139 31.6287 26.9462V25.5275C31.6291 25.4247 31.6092 25.3229 31.5702 25.2278C31.5312 25.1327 31.4738 25.0462 31.4013 24.9734C31.3288 24.9005 31.2426 24.8427 31.1477 24.8032C31.0528 24.7637 30.951 24.7433 30.8482 24.7432Z" fill="#636AE8"/>
<path d="M15.0733 13.2358C13.4729 13.2358 12.0859 14.4366 12.0859 16.004C12.0859 17.5715 13.4729 18.7761 15.0733 18.7761C15.1761 18.7765 15.2779 18.7566 15.373 18.7176C15.4681 18.6786 15.5546 18.6212 15.6274 18.5486C15.7003 18.4761 15.7581 18.39 15.7976 18.2951C15.8371 18.2002 15.8575 18.0984 15.8576 17.9956C15.858 17.8925 15.838 17.7903 15.7987 17.695C15.7595 17.5996 15.7017 17.513 15.6288 17.4401C15.5559 17.3672 15.4693 17.3094 15.3739 17.2702C15.2786 17.2309 15.1764 17.2109 15.0733 17.2113C14.233 17.2113 13.6469 16.6333 13.6469 16.004C13.6469 15.3748 14.233 14.7968 15.0733 14.7968H26.892C27.4359 14.7968 27.8609 15.2218 27.8609 15.7657V17.9956C27.8611 18.2026 27.9434 18.401 28.0897 18.5473C28.236 18.6936 28.4344 18.7759 28.6414 18.7761C28.8483 18.7759 29.0467 18.6936 29.193 18.5473C29.3393 18.401 29.4216 18.2026 29.4218 17.9956V15.7657C29.4218 14.3773 28.2804 13.2358 26.892 13.2358H15.0733Z" fill="#636AE8"/>
</svg>
