<svg width="20" height="20" viewBox="0 0 20 20" fill="none" xmlns="http://www.w3.org/2000/svg">
<path fill-rule="evenodd" clip-rule="evenodd" d="M14.439 4.18018H11.0307C10.6707 4.18018 10.6707 3.63331 11.0307 3.63331H14.439C14.7989 3.63331 14.7991 4.18018 14.439 4.18018ZM17.531 11.3967H2.46696V15.4717C3.54845 15.6067 4.38808 16.5317 4.38808 17.6492C4.38808 18.8593 3.40358 19.8437 2.19353 19.8437C0.983473 19.8437 -0.000976562 18.8593 -0.000976562 17.6492C-0.000976562 16.5317 0.838657 15.6067 1.9201 15.4717L1.92019 11.1162C1.92162 11.0442 1.95075 10.9813 2.00015 10.9299C2.00015 10.9299 2.07027 10.8498 2.19353 10.8498H17.531V8.85536H15.756V9.54173C15.756 9.80306 15.5434 10.0156 15.2821 10.0156H12.1704C11.9091 10.0156 11.6965 9.80301 11.6965 9.54173V8.85536H10.1845V9.54173C10.1845 9.80306 9.9719 10.0156 9.71062 10.0156H6.59892C6.33763 10.0156 6.125 9.80301 6.125 9.54173V8.85536H2.19349C2.04249 8.85536 1.92006 8.73293 1.92006 8.58193V3.04776C1.92006 2.89675 2.04249 2.77432 2.19349 2.77432H8.89332V0.69934C8.89332 0.31373 9.20705 0 9.59266 0H17.1402C17.5258 0 17.8395 0.313732 17.8395 0.69934V4.77679C17.8395 5.16235 17.5259 5.47609 17.1402 5.47609H9.59266C9.207 5.47609 8.89332 5.16236 8.89332 4.77675V3.32124H2.46694V8.30849H6.12503V7.62212C6.12503 7.36083 6.33762 7.14825 6.59895 7.14825H9.71065C9.97194 7.14825 10.1845 7.36083 10.1845 7.62212V8.30844L11.6965 8.30849V7.62212C11.6965 7.36083 11.9091 7.14825 12.1704 7.14825H15.2821C15.5434 7.14825 15.756 7.36083 15.756 7.62212V8.30845L17.8045 8.30849C17.9555 8.30849 18.0779 8.43092 18.0779 8.58192L18.0779 15.3229C19.1594 15.4579 19.999 16.3829 19.999 17.5003C19.999 18.7104 19.0146 19.6949 17.8045 19.6949C16.5944 19.6949 15.6099 18.7104 15.6099 17.5003C15.6099 16.3829 16.4496 15.4579 17.531 15.3229L17.531 11.3967ZM15.2092 8.5855V7.69513V9.46876V8.5855ZM17.8045 15.8528C16.896 15.8528 16.1568 16.5919 16.1568 17.5004C16.1568 18.409 16.8959 19.1481 17.8045 19.1481C18.713 19.1481 19.4521 18.409 19.4521 17.5004C19.4522 16.5919 18.713 15.8528 17.8045 15.8528ZM2.19356 16.0016C1.28505 16.0016 0.545917 16.7408 0.545917 17.6493C0.545917 18.5578 1.28501 19.2969 2.19356 19.2969C3.10212 19.2969 3.84121 18.5578 3.84121 17.6492C3.84121 16.7407 3.10208 16.0016 2.19356 16.0016ZM2.19356 18.3227C2.12358 18.3227 2.05359 18.296 2.00023 18.2426L1.2002 17.4426C0.945655 17.188 1.33233 16.8014 1.58688 17.0559L2.19357 17.6625L2.80021 17.0559C3.05476 16.8014 3.44143 17.188 3.18688 17.4426L2.3869 18.2425C2.33349 18.296 2.26355 18.3227 2.19356 18.3227ZM17.8045 18.1739C17.732 18.1739 17.6624 18.1451 17.6111 18.0938L16.8111 17.2937C16.5567 17.0391 16.9433 16.6525 17.1978 16.9071L17.8045 17.5137L18.4111 16.9071C18.6656 16.6525 19.0523 17.0392 18.7978 17.2937L17.9979 18.0938C17.9466 18.145 17.8771 18.1739 17.8045 18.1739ZM9.59267 0.546902C9.50999 0.546902 9.44019 0.616702 9.44019 0.699382V4.77683C9.44019 4.85951 9.50999 4.92931 9.59267 4.92931H17.1402C17.2229 4.92931 17.2927 4.85951 17.2927 4.77683V0.699382C17.2927 0.616702 17.2229 0.546902 17.1402 0.546902H9.59267ZM15.7023 1.84282H11.0307C10.6707 1.84282 10.6707 1.29591 11.0307 1.29591H15.7023C16.0623 1.29591 16.0623 1.84282 15.7023 1.84282ZM15.7023 3.01156H11.0307C10.6707 3.01156 10.6707 2.46465 11.0307 2.46465L15.7023 2.4647C16.0623 2.4647 16.0623 3.01156 15.7023 3.01156Z" fill="#858C94"/>
</svg>
