<svg width="22" height="22" viewBox="0 0 22 22" fill="none" xmlns="http://www.w3.org/2000/svg">
<path d="M18.3333 6.18766C19.7256 6.18766 20.8542 5.05905 20.8542 3.66683C20.8542 2.27461 19.7256 1.146 18.3333 1.146C16.9411 1.146 15.8125 2.27461 15.8125 3.66683C15.8125 5.05905 16.9411 6.18766 18.3333 6.18766Z" fill="#4D1A2D"/>
<path d="M17.453 7.471C16.0138 7.15933 14.8405 5.986 14.5288 4.54683C14.4097 3.98766 14.4005 3.44683 14.5013 2.9335C14.6205 2.36516 14.1988 1.8335 13.6122 1.8335H6.41634C3.88634 1.8335 1.83301 3.88683 1.83301 6.41683V12.7877C1.83301 15.3177 3.88634 17.371 6.41634 17.371H7.79134C8.04801 17.371 8.37801 17.536 8.52467 17.7377L9.89967 19.5618C10.5047 20.3685 11.4947 20.3685 12.0997 19.5618L13.4747 17.7377C13.6488 17.5085 13.9147 17.371 14.208 17.371H15.5922C18.1222 17.371 20.1663 15.3268 20.1663 12.7968V8.38766C20.1663 7.81016 19.6347 7.3885 19.0663 7.4985C18.553 7.59016 18.0122 7.59016 17.453 7.471ZM7.33301 11.0002C6.81967 11.0002 6.41634 10.5877 6.41634 10.0835C6.41634 9.57933 6.81967 9.16683 7.33301 9.16683C7.83717 9.16683 8.24967 9.57933 8.24967 10.0835C8.24967 10.5877 7.84634 11.0002 7.33301 11.0002ZM10.9997 11.0002C10.4863 11.0002 10.083 10.5877 10.083 10.0835C10.083 9.57933 10.4863 9.16683 10.9997 9.16683C11.5038 9.16683 11.9163 9.57933 11.9163 10.0835C11.9163 10.5877 11.513 11.0002 10.9997 11.0002ZM14.6663 11.0002C14.153 11.0002 13.7497 10.5877 13.7497 10.0835C13.7497 9.57933 14.153 9.16683 14.6663 9.16683C15.1705 9.16683 15.583 9.57933 15.583 10.0835C15.583 10.5877 15.1797 11.0002 14.6663 11.0002Z" fill="#4D1A2D"/>
</svg>
