<svg width="24" height="24" viewBox="0 0 24 24" fill="none" xmlns="http://www.w3.org/2000/svg">
<mask id="mask0_181_4166" style="mask-type:alpha" maskUnits="userSpaceOnUse" x="3" y="3" width="18" height="18">
<path d="M19.2222 15.2686L16.6822 14.9786C16.0722 14.9086 15.4722 15.1186 15.0422 15.5486L13.2022 17.3886C10.3722 15.9486 8.05223 13.6386 6.61223 10.7986L8.46223 8.94855C8.89223 8.51855 9.10223 7.91855 9.03223 7.30855L8.74223 4.78855C8.62223 3.77855 7.77223 3.01855 6.75223 3.01855H5.02223C3.89223 3.01855 2.95223 3.95855 3.02223 5.08855C3.55223 13.6286 10.3822 20.4486 18.9122 20.9786C20.0422 21.0486 20.9822 20.1086 20.9822 18.9786V17.2486C20.9922 16.2386 20.2322 15.3886 19.2222 15.2686Z" fill="black"/>
</mask>
<g mask="url(#mask0_181_4166)">
<rect width="24" height="24" fill="#FC746C"/>
</g>
</svg>
