<svg width="24" height="24" viewBox="0 0 24 24" fill="none" xmlns="http://www.w3.org/2000/svg">
<path d="M16.875 12H14.625V22.5H16.875V12Z" fill="#858C94"/>
<path d="M12.0784 12H4.70965L2.1709 16.125H9.53965L12.0784 12Z" fill="#858C94"/>
<path d="M22.5002 5.4375C22.499 4.39358 22.0838 3.39275 21.3457 2.65458C20.6075 1.91642 19.6067 1.50119 18.5627 1.5H11.1152C11.3646 1.66539 11.597 1.85507 11.809 2.06625C12.2275 2.48389 12.5593 2.98021 12.7852 3.52662C13.0111 4.07303 13.1267 4.65874 13.1252 5.25V11.25H22.5002V5.4375Z" fill="#858C94"/>
<path d="M12.3004 4.50044C12.1264 3.65473 11.666 2.89495 10.9968 2.34937C10.3276 1.8038 9.49064 1.50586 8.62723 1.50586C7.76382 1.50586 6.92686 1.8038 6.25766 2.34937C5.58846 2.89495 5.12803 3.65473 4.9541 4.50044H12.3004Z" fill="#858C94"/>
<path d="M12.3747 5.25H1.86719L7.51844 8.565L12.3747 5.7V5.25Z" fill="#858C94"/>
<path d="M12.375 6.57L7.71 9.3225C7.65191 9.35635 7.58598 9.37444 7.51875 9.375C7.45159 9.37396 7.38578 9.35589 7.3275 9.3225L1.5 5.90625V11.25H12.375V6.57Z" fill="#858C94"/>
</svg>
