<svg width="23" height="23" viewBox="0 0 23 23" fill="none" xmlns="http://www.w3.org/2000/svg">
<path d="M22.1367 8.5567L20.8355 7.00474L20.4045 5.02583C20.3551 4.79902 20.2514 4.5876 20.1022 4.40972C19.9531 4.23185 19.763 4.09284 19.5483 4.00465L17.6749 3.23519L16.3736 1.68323C16.2245 1.50535 16.0344 1.36635 15.8196 1.27816C15.6049 1.18997 15.372 1.15523 15.1409 1.17693L13.1245 1.36623L11.251 0.596769C11.0363 0.508578 10.8034 0.473839 10.5723 0.495535C10.3412 0.517231 10.1188 0.594715 9.92421 0.721328L8.22672 1.82603L6.21029 2.01534C5.97918 2.03703 5.75679 2.11452 5.56224 2.24113C5.36769 2.36774 5.20678 2.5397 5.09335 2.74222L4.10368 4.50925L2.40619 5.61395C2.21164 5.74057 2.05073 5.91252 1.9373 6.11505C1.82387 6.31757 1.76131 6.54461 1.75499 6.77665L1.69986 8.8012L0.710184 10.5682C0.596755 10.7707 0.534193 10.9978 0.527875 11.2298C0.521557 11.4619 0.57167 11.692 0.67391 11.9004L1.56595 13.7186L1.51082 15.7432C1.5045 15.9752 1.55461 16.2053 1.65685 16.4137C1.75909 16.6221 1.9104 16.8026 2.09777 16.9396L3.73263 18.135L4.62466 19.9533C4.7269 20.1617 4.87821 20.3422 5.06559 20.4792C5.25296 20.6162 5.4708 20.7057 5.70039 20.7399L7.70352 21.0387L9.33838 22.2341C9.52575 22.3711 9.74359 22.4606 9.97318 22.4949C10.2028 22.5291 10.4372 22.5071 10.6564 22.4307L12.569 21.7643L14.5721 22.0631C14.8017 22.0973 15.0362 22.0753 15.2554 21.999C15.4746 21.9226 15.6719 21.7941 15.8305 21.6246L17.2143 20.1458L19.1269 19.4794C19.3461 19.4031 19.5435 19.2746 19.7021 19.1051C19.8607 18.9356 19.9757 18.7302 20.0374 18.5064L20.5754 16.5538L21.9592 15.075C22.1178 14.9055 22.2329 14.7 22.2946 14.4763C22.3562 14.2525 22.3626 14.0171 22.3133 13.7903L21.8823 11.8113L22.4203 9.85882C22.482 9.63503 22.4884 9.39962 22.439 9.17281C22.3896 8.946 22.2859 8.73457 22.1367 8.5567ZM11.4996 18.73C10.0696 18.73 8.67175 18.306 7.48276 17.5115C6.29377 16.7171 5.36707 15.5879 4.81984 14.2668C4.27261 12.9456 4.12943 11.4919 4.40841 10.0894C4.68738 8.68687 5.37598 7.39858 6.38714 6.38743C7.39829 5.37628 8.68657 4.68768 10.0891 4.4087C11.4916 4.12973 12.9453 4.27291 14.2665 4.82014C15.5876 5.36737 16.7168 6.29407 17.5112 7.48306C18.3057 8.67205 18.7297 10.0699 18.7297 11.4999C18.7297 12.4494 18.5427 13.3896 18.1794 14.2668C17.816 15.144 17.2835 15.941 16.6121 16.6124C15.9407 17.2838 15.1437 17.8163 14.2665 18.1797C13.3893 18.543 12.4491 18.73 11.4996 18.73Z" fill="#858C94"/>
<path d="M10.9725 14.4438C10.6057 14.4224 10.2432 14.3536 9.89407 14.239C9.68499 14.1666 9.47993 14.0831 9.27979 13.9888L9.6711 12.9422C9.91596 13.0576 10.1702 13.152 10.431 13.2243C10.7344 13.3106 11.0484 13.3534 11.3638 13.3517C11.7339 13.3517 11.9872 13.3017 12.1238 13.2016C12.1903 13.1536 12.2439 13.0898 12.2797 13.0159C12.3154 12.942 12.3322 12.8604 12.3285 12.7784C12.3315 12.6738 12.303 12.5707 12.2466 12.4826C12.1838 12.3929 12.1033 12.317 12.01 12.2596C11.8859 12.1824 11.7549 12.1169 11.6186 12.0639C11.4608 12.0003 11.2788 11.932 11.0726 11.8592C10.8724 11.7864 10.6767 11.706 10.4856 11.618C10.2994 11.5332 10.1251 11.4246 9.9669 11.2949C9.79861 11.1584 9.66451 10.9845 9.57524 10.787C9.48597 10.5895 9.444 10.3739 9.45266 10.1574C9.45199 9.96145 9.48115 9.76656 9.53913 9.57942C9.59604 9.39567 9.68712 9.22432 9.80759 9.07436C9.93802 8.91522 10.0989 8.78373 10.2809 8.68761C10.4975 8.57383 10.731 8.49547 10.9725 8.45554V7.47266H12.1192V8.41912C12.3939 8.4426 12.6663 8.48826 12.9337 8.55564C13.1188 8.6019 13.2998 8.66277 13.4752 8.73767L13.1931 9.82973C12.9678 9.73692 12.7348 9.66383 12.4969 9.61129C12.2236 9.54965 11.9442 9.51914 11.6641 9.52033C11.4448 9.50199 11.2251 9.5529 11.0362 9.6659C10.9757 9.70928 10.9266 9.76677 10.8933 9.83338C10.86 9.89999 10.8435 9.97371 10.8451 10.0482C10.8426 10.1353 10.863 10.2216 10.9043 10.2984C10.9502 10.3749 11.0143 10.439 11.0908 10.485C11.1906 10.5472 11.2957 10.6006 11.4048 10.6444C11.5291 10.6962 11.6792 10.7524 11.8553 10.8132C12.1087 10.9047 12.3564 11.0113 12.597 11.1324C12.8104 11.2385 13.0092 11.3716 13.1886 11.5285C13.3533 11.6743 13.4864 11.8523 13.5799 12.0515C13.678 12.2717 13.7262 12.5109 13.7209 12.7519C13.7207 12.9354 13.6931 13.1178 13.639 13.2931C13.5827 13.4752 13.4898 13.6439 13.366 13.7888C13.2271 13.9496 13.0587 14.0823 12.87 14.18C12.6344 14.2996 12.3808 14.3795 12.1192 14.4165V15.5268H10.9725L10.9725 14.4438Z" fill="black"/>
</svg>
