<svg width="44" height="44" viewBox="0 0 44 44" fill="none" xmlns="http://www.w3.org/2000/svg">
<rect x="0.5" y="0.5" width="43" height="43" rx="5.5" stroke="#7BAED3"/>
<path d="M22.321 22.7554C21.5418 22.48 20.6805 22.1477 20.2005 21.7712C20.0618 21.6624 20.0029 21.4073 20.0539 21.1365C20.0797 20.9995 20.2001 20.5418 20.6654 20.4016C21.5877 20.1238 22.1854 20.6231 22.2103 20.6443L22.4542 20.8028C22.8428 21.0553 23.3569 20.9908 23.6711 20.6501C24.0616 20.2266 23.9907 19.5531 23.5167 19.2258C22.8776 18.7846 22.4829 18.6889 22.0084 18.5803V18.2895C22.0084 17.7939 21.623 17.3717 21.1277 17.3541C20.6077 17.3356 20.1803 17.7517 20.1803 18.2675V18.6402C20.1661 18.6443 20.1524 18.6469 20.1381 18.6512C19.1728 18.942 18.4522 19.7647 18.2575 20.798C18.078 21.7505 18.3903 22.6746 19.0723 23.2096C19.627 23.6446 20.3916 24.0124 21.7118 24.479C22.5525 24.7761 22.5345 25.4551 22.4877 25.7333C22.392 26.3023 21.9134 26.9172 21.0884 26.9227C20.2554 26.9284 20.0148 26.8909 19.3903 26.4841C18.9776 26.2152 18.4161 26.3075 18.1307 26.7089C17.8283 27.1341 17.9421 27.7213 18.3747 28.0043C19.0601 28.4527 19.5695 28.6403 20.1804 28.7117V29.0417C20.1804 29.5373 20.5658 29.9594 21.0612 29.9771C21.5812 29.9956 22.0085 29.5795 22.0085 29.0636V28.6202C23.2873 28.2479 24.1059 27.1347 24.2906 26.0363C24.5358 24.5771 23.7443 23.2586 22.321 22.7554Z" stroke="#7BAED3" stroke-miterlimit="10" stroke-linecap="round" stroke-linejoin="round"/>
<path d="M31.2932 23.6653C31.2932 29.2691 26.7504 33.8119 21.1466 33.8119C15.5428 33.8119 11 29.2691 11 23.6653C11 18.0615 15.5428 13.5188 21.1466 13.5188C22.705 13.5188 24.1813 13.8701 25.5008 14.4979" stroke="#7BAED3" stroke-miterlimit="10" stroke-linecap="round" stroke-linejoin="round"/>
<path d="M16.1758 17.3534C17.5435 16.2746 19.2703 15.6309 21.1475 15.6309C22.7546 15.6309 24.2516 16.1027 25.5074 16.9155" stroke="#7BAED3" stroke-miterlimit="10" stroke-linecap="round" stroke-linejoin="round"/>
<path d="M28.9569 21.7666C29.1044 22.3753 29.1826 23.0111 29.1826 23.6652C29.1826 28.1026 25.5854 31.6999 21.1479 31.6999C16.7105 31.6999 13.1133 28.1026 13.1133 23.6652C13.1133 21.7421 13.7889 19.9768 14.9157 18.5938" stroke="#7BAED3" stroke-miterlimit="10" stroke-linecap="round" stroke-linejoin="round"/>
<path d="M30.3834 16.6099V20.4346C30.3135 20.4346 30.2435 20.4182 30.1791 20.3853L27.4537 18.9958C27.2956 18.9153 27.1953 18.7485 27.1953 18.566V15.2759C27.1953 15.1838 27.2208 15.0959 27.2664 15.0208L30.3834 16.6099Z" stroke="#7BAED3" stroke-miterlimit="10" stroke-linecap="round" stroke-linejoin="round"/>
<path d="M33.5708 15.2756V18.5657C33.5708 18.7482 33.4707 18.915 33.3125 18.9956L30.5872 20.385C30.5228 20.4179 30.4528 20.4343 30.3828 20.4343V16.6096L33.4998 15.0205C33.5453 15.0956 33.5708 15.1836 33.5708 15.2756Z" stroke="#7BAED3" stroke-miterlimit="10" stroke-linecap="round" stroke-linejoin="round"/>
<path d="M33.4998 15.0207L30.3828 16.6098L27.2656 15.0207C27.3088 14.9498 27.3698 14.8904 27.4442 14.8505L30.1695 13.3864C30.1702 13.3861 30.1708 13.3856 30.1716 13.3853C30.3048 13.3146 30.4629 13.3149 30.5958 13.3864L33.3211 14.8505C33.3956 14.8903 33.4567 14.9497 33.4998 15.0207Z" stroke="#7BAED3" stroke-miterlimit="10" stroke-linecap="round" stroke-linejoin="round"/>
<path d="M27.2665 12H26.443C25.9222 12 25.5 12.4222 25.5 12.943V23.1878C25.5 23.637 26.0505 23.8535 26.3565 23.5248L27.5894 22.2005C27.8469 21.9239 28.2078 21.7668 28.5856 21.7668H34.3239C34.8447 21.7668 35.2668 21.3446 35.2668 20.8238V12.943C35.2668 12.4222 34.8447 12 34.3239 12H29.0781" stroke="#7BAED3" stroke-miterlimit="10" stroke-linecap="round" stroke-linejoin="round"/>
</svg>
