<svg width="20" height="21" viewBox="0 0 20 21" fill="none" xmlns="http://www.w3.org/2000/svg">
<path d="M4.16667 10.5C4.16667 10.9602 3.79357 11.3333 3.33333 11.3333C2.8731 11.3333 2.5 10.9602 2.5 10.5V5.5C2.5 4.11928 3.61929 3 5 3H15C16.3807 3 17.5 4.11928 17.5 5.5V10.5C17.5 10.9602 17.1269 11.3333 16.6667 11.3333C16.2064 11.3333 15.8333 10.9602 15.8333 10.5V5.5C15.8333 5.03976 15.4602 4.66666 15 4.66666H5C4.53976 4.66666 4.16667 5.03976 4.16667 5.5V10.5Z" fill="#111111"/>
<path d="M10.5875 18.591C10.4368 18.7408 10.2292 18.8333 10 18.8333C9.88701 18.8333 9.77927 18.8108 9.68101 18.7701C9.58273 18.7294 9.49064 18.6691 9.41074 18.5893L6.07741 15.2559C5.75197 14.9305 5.75197 14.4028 6.07741 14.0774C6.40285 13.752 6.93049 13.752 7.25592 14.0774L9.16667 15.9882V8.83333C9.16667 8.37309 9.53976 8 10 8C10.4602 8 10.8333 8.37309 10.8333 8.83333V15.9882L12.7441 14.0774C13.0695 13.752 13.5972 13.752 13.9226 14.0774C14.248 14.4028 14.248 14.9305 13.9226 15.2559L10.5875 18.591Z" fill="#111111"/>
</svg>
