<svg width="22" height="22" viewBox="0 0 22 22" fill="none" xmlns="http://www.w3.org/2000/svg"><path d="M19.9829 10.8418C19.9532 10.3574 19.883 9.87634 19.7729 9.40368C19.6628 8.9318 19.5141 8.46974 19.3285 8.02214C19.1412 7.5764 18.9184 7.14641 18.6623 6.73633L17.8337 7.24341C18.0514 7.61278 18.2391 7.99895 18.3952 8.39824C18.5488 8.79733 18.6696 9.20832 18.7562 9.62708C18.8425 10.0452 18.8935 10.4699 18.9086 10.8966C18.9182 11.1096 18.9153 11.3231 18.9051 11.5359L18.8989 11.6956L18.8845 11.8546L18.8703 12.0136C18.8677 12.0401 18.866 12.0666 18.8628 12.093L18.8516 12.172C18.7994 12.5936 18.7108 13.01 18.5867 13.4163C18.465 13.8223 18.3097 14.2173 18.1225 14.5975C17.9335 14.9759 17.7145 15.3386 17.4674 15.6819C17.2217 16.0253 16.9469 16.347 16.6461 16.6435C15.6025 17.6839 14.2776 18.3968 12.8344 18.6946C11.3911 18.9924 9.89225 18.8622 8.52199 18.3198C8.34182 18.2483 8.16486 18.1691 7.99107 18.0836L8.49645 17.2083H5L6.74823 20.2363L7.23377 19.3953C7.48107 19.5131 7.73328 19.6203 7.99018 19.7149C8.45698 19.8859 8.93706 20.0183 9.42557 20.1106C10.8914 20.3837 12.4018 20.291 13.8232 19.8408C14.2925 19.6889 14.7486 19.4993 15.1873 19.2739L15.3506 19.1878C15.4051 19.1592 15.4596 19.1308 15.5121 19.0986C15.618 19.0359 15.7243 18.974 15.8294 18.9103L16.1375 18.7077C16.2393 18.639 16.3369 18.5642 16.4366 18.4925C16.8292 18.198 17.1975 17.8723 17.5379 17.5187C17.8779 17.1658 18.1871 16.7846 18.4622 16.3791C18.7378 15.9749 18.9802 15.5492 19.1873 15.1061C19.392 14.6626 19.5593 14.2028 19.6877 13.7316C19.8179 13.2619 19.9073 12.7818 19.955 12.2968L19.9653 12.2062C19.9682 12.1759 19.9696 12.1455 19.9717 12.1152L19.9834 11.9333L19.9949 11.7514L19.9976 11.5693C20.003 11.3266 19.9998 11.0839 19.9829 10.8418Z" fill="#2563EB"/><path d="M3.06727 10.8849C3.06894 10.8583 3.07197 10.8318 3.07423 10.8052L3.08877 10.646L3.10308 10.4868L3.12558 10.3286L3.14799 10.1705L3.15938 10.0915L3.17468 10.0132C3.19543 9.90887 3.21435 9.80421 3.23613 9.70022L3.31246 9.39072C3.32382 9.33882 3.34118 9.28849 3.35597 9.23751L3.40173 9.08498C3.52863 8.68017 3.68773 8.28616 3.8775 7.90673C4.26181 7.1515 4.766 6.46356 5.37044 5.86967C5.67293 5.57608 5.99831 5.30706 6.34351 5.06514C6.68703 4.82282 7.05083 4.6106 7.43085 4.43085C7.80952 4.25146 8.20192 4.10262 8.60431 3.98575L8.90722 3.90454L9.21366 3.83846C9.23922 3.83313 9.2646 3.82698 9.29028 3.82228L9.36765 3.8098L9.52227 3.78463C9.57386 3.77667 9.62511 3.76668 9.67692 3.76024L9.83262 3.74301C10.0396 3.71554 10.2486 3.70704 10.4568 3.69596L10.77 3.69279C10.8221 3.69105 10.8743 3.69467 10.9264 3.69584L11.0828 3.70093C11.4985 3.72273 11.9119 3.77749 12.3189 3.8647C12.7242 3.95358 13.1215 4.07518 13.5071 4.22831C13.6674 4.2925 13.8253 4.36234 13.9806 4.43781L13.4908 5.28614H17L15.2454 2.24707L14.7397 3.12304C14.5108 3.01613 14.2778 2.91888 14.0408 2.8313C13.5744 2.66073 13.0948 2.52843 12.6069 2.4357C12.1201 2.34524 11.6268 2.29379 11.1318 2.28183L10.9466 2.28077C10.8849 2.28103 10.8232 2.27894 10.7615 2.28232L10.3916 2.29642C10.1456 2.31557 9.89939 2.33366 9.65549 2.37225L9.4723 2.39808C9.41137 2.40749 9.35099 2.42054 9.29034 2.43166L9.10868 2.46655L9.0179 2.48409C8.98775 2.4905 8.95791 2.49838 8.92791 2.50547L8.5688 2.59369L8.21449 2.69913C7.74559 2.84928 7.28952 3.03689 6.85069 3.26013C6.41276 3.4826 5.99472 3.74223 5.60116 4.03615C5.20791 4.32825 4.83864 4.65132 4.4969 5.00229C3.81786 5.7068 3.25778 6.51695 2.83855 7.40108C2.63256 7.84253 2.46242 8.29984 2.32976 8.76857L2.28221 8.94467C2.26692 9.00349 2.24914 9.06166 2.23744 9.12137L2.16012 9.4776C2.13835 9.59707 2.11978 9.71714 2.0997 9.83682L2.08497 9.92663L2.07427 10.017L2.05363 10.1978L2.03336 10.3785L2.02177 10.56L2.01041 10.7414C2.00871 10.7716 2.00627 10.8018 2.00521 10.832L2.00399 10.9228L2 11.2858C2.00445 11.4068 2.00514 11.5277 2.01308 11.6484C2.06437 12.6157 2.27621 13.5677 2.63991 14.4654C2.82226 14.9115 3.03995 15.3423 3.2909 15.7537L4.08868 15.2781C3.65908 14.5335 3.35629 13.7226 3.1927 12.8787C3.11253 12.4586 3.06626 12.0327 3.05431 11.6052C3.0501 11.4985 3.05286 11.3916 3.05157 11.2848L3.06417 10.9648L3.06727 10.8849Z" fill="#2563EB"/></svg>