<svg width="23" height="23" viewBox="0 0 23 23" fill="none" xmlns="http://www.w3.org/2000/svg">
<path d="M15.8125 9.70312H14.0156V10.4219H15.8125V9.70312Z" fill="#858C94"/>
<path d="M15.8125 8.26562H14.0156V8.98438H15.8125V8.26562Z" fill="#858C94"/>
<path d="M10.4219 19.0469H8.625V19.7656H10.4219V19.0469Z" fill="#858C94"/>
<path d="M10.4219 17.6094H8.625V18.3281H10.4219V17.6094Z" fill="#858C94"/>
<path d="M22.2812 11.1406H17.25V2.15625C17.25 1.95787 17.0894 1.79688 16.8906 1.79688H6.10938C5.91064 1.79688 5.75 1.95787 5.75 2.15625V11.1406H0.71875C0.520016 11.1406 0.359375 11.3016 0.359375 11.5V20.8438C0.359375 21.0421 0.520016 21.2031 0.71875 21.2031H11.5H22.2812C22.48 21.2031 22.6406 21.0421 22.6406 20.8438V11.5C22.6406 11.3016 22.48 11.1406 22.2812 11.1406ZM17.9688 11.8594V14.2262L17.8635 14.1209C17.7229 13.9804 17.4958 13.9804 17.3553 14.1209L16.8906 14.5856L16.426 14.1209C16.2854 13.9804 16.0583 13.9804 15.9178 14.1209L15.8125 14.2262V11.8594H17.9688ZM10.4219 2.51562H12.5781V4.88247L12.4728 4.77717C12.3323 4.63666 12.1052 4.63666 11.9647 4.77717L11.5 5.24184L11.0353 4.77717C10.8948 4.63666 10.6677 4.63666 10.5272 4.77717L10.4219 4.88247V2.51562ZM6.46875 2.51562H9.70312V5.75C9.70312 5.89519 9.79045 6.02636 9.92486 6.08206C10.0593 6.13777 10.2138 6.10686 10.3166 6.00408L10.7812 5.53941L11.2459 6.00408C11.3864 6.14459 11.6136 6.14459 11.7541 6.00408L12.2188 5.53941L12.6834 6.00408C12.7521 6.07272 12.8441 6.10938 12.9375 6.10938C12.9839 6.10938 13.0306 6.10039 13.0751 6.08206C13.2095 6.02636 13.2969 5.89519 13.2969 5.75V2.51562H16.5312V11.1406H13.2969V7.90625C13.2969 7.76106 13.2095 7.62989 13.0751 7.57419C12.9407 7.51848 12.7862 7.54939 12.6834 7.65217L12.2188 8.11684L11.7541 7.65217C11.6136 7.51166 11.3864 7.51166 11.2459 7.65217L10.7812 8.11684L10.3166 7.65217C10.2138 7.54939 10.0593 7.51884 9.92486 7.57419C9.79045 7.62989 9.70312 7.76106 9.70312 7.90625V11.1406H6.46875V2.51562ZM5.03125 11.8594H7.1875V14.2262L7.0822 14.1209C6.94169 13.9804 6.71456 13.9804 6.57405 14.1209L6.10938 14.5856L5.6447 14.1209C5.50419 13.9804 5.27706 13.9804 5.13655 14.1209L5.03125 14.2262V11.8594ZM7.1875 20.4844H5.03125V18.1175L5.13655 18.2228C5.27706 18.3633 5.50419 18.3633 5.6447 18.2228L6.10938 17.7582L6.57405 18.2228C6.71456 18.3633 6.94169 18.3633 7.0822 18.2228L7.1875 18.1175V20.4844ZM11.1406 20.4844H7.90625V17.25C7.90625 17.1048 7.81892 16.9736 7.68452 16.9179C7.55047 16.8622 7.39558 16.8931 7.2928 16.9959L6.82812 17.4606L6.36345 16.9959C6.22294 16.8554 5.99581 16.8554 5.8553 16.9959L5.39062 17.4606L4.92595 16.9959C4.82317 16.8931 4.669 16.8626 4.53423 16.9179C4.39983 16.9736 4.3125 17.1048 4.3125 17.25V20.4844H1.07812V11.8594H4.3125V15.0938C4.3125 15.2389 4.39983 15.3701 4.53423 15.4258C4.669 15.4815 4.82317 15.4506 4.92595 15.3478L5.39062 14.8832L5.8553 15.3478C5.99581 15.4883 6.22294 15.4883 6.36345 15.3478L6.82812 14.8832L7.2928 15.3478C7.36144 15.4165 7.45344 15.4531 7.54688 15.4531C7.59323 15.4531 7.63995 15.4441 7.68452 15.4258C7.81892 15.3701 7.90625 15.2389 7.90625 15.0938V11.8594H11.1406V20.4844ZM10.4219 11.1406V8.77378L10.5272 8.87908C10.6677 9.01959 10.8948 9.01959 11.0353 8.87908L11.5 8.41441L11.9647 8.87908C12.1052 9.01959 12.3323 9.01959 12.4728 8.87908L12.5781 8.77378V11.1406H10.4219ZM17.9688 20.4844H15.8125V18.1175L15.9178 18.2228C16.0583 18.3633 16.2854 18.3633 16.426 18.2228L16.8906 17.7582L17.3553 18.2228C17.4958 18.3633 17.7229 18.3633 17.8635 18.2228L17.9688 18.1175V20.4844ZM21.9219 20.4844H18.6875V17.25C18.6875 17.1048 18.6002 16.9736 18.4658 16.9179C18.3317 16.8622 18.1772 16.8931 18.074 16.9959L17.6094 17.4606L17.1447 16.9959C17.0042 16.8554 16.7771 16.8554 16.6365 16.9959L16.1719 17.4606L15.7072 16.9959C15.6044 16.8931 15.4503 16.8626 15.3155 16.9179C15.1811 16.9736 15.0938 17.1048 15.0938 17.25V20.4844H11.8594V11.8594H15.0938V15.0938C15.0938 15.2389 15.1811 15.3701 15.3155 15.4258C15.4499 15.4815 15.6044 15.4506 15.7072 15.3478L16.1719 14.8832L16.6365 15.3478C16.7771 15.4883 17.0042 15.4883 17.1447 15.3478L17.6094 14.8832L18.074 15.3478C18.1427 15.4165 18.2347 15.4531 18.3281 15.4531C18.3745 15.4531 18.4212 15.4441 18.4658 15.4258C18.6002 15.3701 18.6875 15.2389 18.6875 15.0938V11.8594H21.9219V20.4844Z" fill="#858C94"/>
<path d="M21.2031 19.0469H19.4062V19.7656H21.2031V19.0469Z" fill="#858C94"/>
<path d="M21.2031 17.6094H19.4062V18.3281H21.2031V17.6094Z" fill="#858C94"/>
</svg>
