<svg width="155" height="155" viewBox="0 0 155 155" fill="none" xmlns="http://www.w3.org/2000/svg">
<rect width="155" height="155" rx="28" fill="#FFDDDD"/>
<path d="M45.5 71.5C48.8091 71.5 51.5 68.8091 51.5 65.5C51.5 62.1909 48.8091 59.5 45.5 59.5C42.1909 59.5 39.5 62.1909 39.5 65.5C39.5 68.8091 42.1909 71.5 45.5 71.5ZM45.5 62.5C47.1537 62.5 48.5 63.8463 48.5 65.5C48.5 67.1537 47.1537 68.5 45.5 68.5C43.8463 68.5 42.5 67.1537 42.5 65.5C42.5 63.8463 43.8463 62.5 45.5 62.5Z" fill="#4D1A2D"/>
<path d="M90.5 34H51.5C50.671 34 50 34.671 50 35.5C50 36.3291 50.671 37 51.5 37H90.5C91.329 37 92 36.3291 92 35.5C92 34.671 91.329 34 90.5 34Z" fill="#4D1A2D"/>
<path d="M37.7993 101.5H47V127C47 127.829 47.6709 128.5 48.5 128.5H105.5C106.329 128.5 107 127.829 107 127V101.5H116.201C121.88 101.5 126.5 96.8799 126.5 91.2007V60.7993C126.5 55.1201 121.88 50.5 116.201 50.5H113V26.5C113 25.671 112.329 25 111.5 25H42.5C41.6709 25 41 25.671 41 26.5V50.5H37.7993C32.1201 50.5 27.5 55.1201 27.5 60.7993V91.2007C27.5 96.8799 32.1201 101.5 37.7993 101.5ZM104 125.5H50V100V85H104V100V125.5ZM44 28H110V50.5H44V28ZM30.5 60.7993C30.5 56.7739 33.7739 53.5 37.7993 53.5H42.5H111.5H116.201C120.226 53.5 123.5 56.7739 123.5 60.7993V91.2007C123.5 95.2261 120.226 98.5 116.201 98.5H107V83.5C107 82.671 106.329 82 105.5 82H48.5C47.6709 82 47 82.671 47 83.5V98.5H37.7993C33.7739 98.5 30.5 95.2261 30.5 91.2007V60.7993Z" fill="#4D1A2D"/>
<path d="M66.5 94H60.5C59.671 94 59 94.671 59 95.5V113.5C59 114.329 59.671 115 60.5 115H66.5C67.3291 115 68 114.329 68 113.5V95.5C68 94.671 67.3291 94 66.5 94ZM65 112H62V97H65V112Z" fill="#4D1A2D"/>
<path d="M80 94H74C73.171 94 72.5 94.6709 72.5 95.5V107.5C72.5 108.329 73.171 109 74 109H80C80.8291 109 81.5 108.329 81.5 107.5V95.5C81.5 94.6709 80.8291 94 80 94ZM78.5 106H75.5V97H78.5V106Z" fill="#4D1A2D"/>
<path d="M93.5 94H87.5C86.671 94 86 94.671 86 95.5V104.5C86 105.329 86.671 106 87.5 106H93.5C94.3291 106 95 105.329 95 104.5V95.5C95 94.671 94.3291 94 93.5 94ZM92 103H89V97H92V103Z" fill="#4D1A2D"/>
</svg>
