<svg width="44" height="44" viewBox="0 0 44 44" fill="none" xmlns="http://www.w3.org/2000/svg">
<rect x="0.5" y="0.5" width="43" height="43" rx="5.5" stroke="#7FA695"/>
<g clip-path="url(#clip0_546_2969)">
<path d="M33.3334 25.6834V18.5146L33.5584 18.4517C34.6079 18.1575 35.2201 17.0684 34.926 16.019C34.8786 15.8498 34.8088 15.6878 34.7185 15.5371L33.2743 13.1204L33.2705 13.1229C33.2177 13.0314 33.1318 12.9635 33.0305 12.9333L22.9505 10.0625C22.6558 9.97916 22.3436 9.97916 22.0489 10.0625L11.9697 12.9334C11.8684 12.9636 11.7825 13.0314 11.7297 13.123L11.7259 13.1205L10.2822 15.5371C9.72084 16.4713 10.0231 17.6836 10.9573 18.2449C11.1087 18.3359 11.2716 18.4062 11.4417 18.4538L11.6667 18.5167V25.6834C11.668 26.2427 12.0407 26.7332 12.5792 26.8842L15.4284 27.6834C15.4259 27.7613 15.4167 27.838 15.4167 27.9167C15.4167 31.8287 18.5881 35.0001 22.5001 35.0001C26.4121 35.0001 29.5834 31.8287 29.5834 27.9167C29.5834 27.838 29.5743 27.7613 29.5718 27.6834L32.4201 26.8846C32.9592 26.7339 33.3323 26.2431 33.3334 25.6834ZM34.0834 16.975C33.9531 17.305 33.6754 17.5546 33.3334 17.6492L26.0293 19.6954C25.535 19.8331 25.0096 19.6239 24.7451 19.1842L23.138 16.5046L32.7214 13.8213L34.0022 15.965C34.1863 16.2695 34.2164 16.6429 34.0834 16.9729V16.975ZM22.2759 10.8642C22.4223 10.8234 22.577 10.8234 22.7234 10.8642L31.3834 13.3308L22.5001 15.8179L13.6168 13.3309L22.2759 10.8642ZM10.9168 16.9729C10.7843 16.6423 10.8152 16.2686 11.0001 15.9642L12.2776 13.8213L21.861 16.5046L20.2539 19.1842C19.9895 19.624 19.4641 19.8333 18.9697 19.6954L11.6668 17.6492C11.3244 17.5542 11.0466 17.3037 10.9168 16.9729ZM12.8035 26.0834C12.6244 26.0327 12.5005 25.8695 12.5001 25.6834V18.75L18.746 20.5C19.6017 20.7381 20.5111 20.3763 20.9693 19.6154L22.0835 17.7554V20.8546C18.7563 21.0541 16.0183 23.5462 15.5077 26.84L12.8035 26.0834ZM22.5001 34.1667C19.0483 34.1667 16.2501 31.3685 16.2501 27.9167C16.2501 24.465 19.0483 21.6667 22.5001 21.6667C25.9518 21.6667 28.7501 24.465 28.7501 27.9167C28.7462 31.3669 25.9503 34.1628 22.5001 34.1667ZM32.1963 26.0834L29.4926 26.8413C28.9824 23.547 26.2443 21.0542 22.9167 20.8546V17.7554L24.0309 19.613C24.3882 20.2074 25.031 20.5712 25.7247 20.5713C25.9037 20.5715 26.0819 20.547 26.2542 20.4984L32.5001 18.75V25.6834C32.4996 25.8696 32.3756 26.0329 32.1963 26.0834Z" fill="#7FA695"/>
<path d="M24.1667 25.8333C24.1667 26.0634 24.3532 26.25 24.5833 26.25C24.8135 26.25 25 26.0634 25 25.8333C24.9977 24.6147 24.118 23.5749 22.9166 23.3708V22.9166C22.9166 22.6865 22.7301 22.5 22.5 22.5C22.2698 22.5 22.0833 22.6865 22.0833 22.9166V23.3708C20.7233 23.5995 19.8062 24.8875 20.035 26.2475C20.2115 27.297 21.0338 28.1193 22.0833 28.2958V31.6075C21.3497 31.4181 20.8362 30.7576 20.8333 30C20.8333 29.7698 20.6468 29.5833 20.4167 29.5833C20.1866 29.5833 20 29.7698 20 30C20.0023 31.2186 20.882 32.2584 22.0834 32.4625V32.9166C22.0834 33.1467 22.2699 33.3333 22.5 33.3333C22.7301 33.3333 22.9167 33.1467 22.9167 32.9166V32.4625C24.2767 32.2337 25.1938 30.9458 24.965 29.5858C24.7885 28.5363 23.9662 27.714 22.9167 27.5375V24.2258C23.6503 24.4152 24.1638 25.0756 24.1667 25.8333ZM20.8333 25.8333C20.8362 25.0756 21.3497 24.4152 22.0833 24.2258V27.4408C21.3497 27.2514 20.8362 26.591 20.8333 25.8333ZM24.1667 30C24.1638 30.7576 23.6503 31.418 22.9167 31.6075V28.3925C23.6503 28.5819 24.1638 29.2423 24.1667 30Z" fill="#7FA695"/>
</g>
<defs>
<clipPath id="clip0_546_2969">
<rect width="25" height="25" fill="white" transform="translate(10 10)"/>
</clipPath>
</defs>
</svg>
