<svg width="15" height="15" viewBox="0 0 15 15" fill="none" xmlns="http://www.w3.org/2000/svg">
<g clip-path="url(#clip0_181_6877)">
<path d="M6.20649 0.046875C4.97896 0.046875 3.779 0.410879 2.75835 1.09286C1.7377 1.77483 0.942198 2.74415 0.472443 3.87824C0.00268916 5.01233 -0.12022 6.26025 0.119259 7.46419C0.358737 8.66813 0.949848 9.77402 1.81784 10.642C2.68583 11.51 3.79172 12.1011 4.99566 12.3406C6.1996 12.5801 7.44752 12.4572 8.58161 11.9874C9.7157 11.5177 10.685 10.7222 11.367 9.7015C12.049 8.68085 12.413 7.48089 12.413 6.25336C12.4111 4.60787 11.7566 3.0303 10.5931 1.86676C9.42955 0.703217 7.85198 0.0487264 6.20649 0.046875ZM6.20649 11.3137C5.20565 11.3137 4.22729 11.0169 3.39513 10.4609C2.56296 9.90483 1.91437 9.11451 1.53136 8.18986C1.14836 7.26521 1.04815 6.24775 1.2434 5.26614C1.43866 4.28454 1.9206 3.38287 2.6283 2.67517C3.336 1.96748 4.23766 1.48553 5.21927 1.29027C6.20088 1.09502 7.21834 1.19523 8.14299 1.57824C9.06764 1.96124 9.85796 2.60983 10.414 3.442C10.97 4.27416 11.2668 5.25252 11.2668 6.25336C11.2652 7.59495 10.7316 8.88114 9.78292 9.82979C8.83427 10.7784 7.54808 11.3121 6.20649 11.3137Z" fill="#86898E"/>
<path d="M13.925 13.1614L10.6403 9.87683C10.5329 9.76936 10.3871 9.70898 10.2351 9.70898C10.0832 9.70898 9.93739 9.76936 9.82993 9.87683C9.72246 9.9843 9.66211 10.13 9.66211 10.282C9.66211 10.434 9.72246 10.5797 9.82993 10.6872L13.1146 13.9718C13.222 14.0793 13.3678 14.1397 13.5197 14.1397C13.6717 14.1397 13.8175 14.0793 13.925 13.9718C14.0324 13.8644 14.0928 13.7186 14.0928 13.5666C14.0928 13.4146 14.0324 13.2689 13.925 13.1614Z" fill="#86898E"/>
</g>
<defs>
<clipPath id="clip0_181_6877">
<rect width="14.0938" height="14.0938" fill="white" transform="translate(0 0.046875)"/>
</clipPath>
</defs>
</svg>
