<svg width="14" height="12" viewBox="0 0 14 12" fill="none" xmlns="http://www.w3.org/2000/svg">
<g clip-path="url(#clip0_524_2066)">
<path d="M2.91616 5.83231C2.3394 5.83231 1.77559 5.66128 1.29603 5.34085C0.816468 5.02042 0.442697 4.56498 0.22198 4.03212C0.00126352 3.49926 -0.0564861 2.91292 0.0560344 2.34724C0.168555 1.78156 0.446292 1.26195 0.854123 0.854123C1.26195 0.446292 1.78156 0.168555 2.34724 0.0560344C2.91292 -0.0564861 3.49926 0.00126352 4.03212 0.22198C4.56498 0.442697 5.02042 0.816468 5.34085 1.29603C5.66128 1.77559 5.83231 2.3394 5.83231 2.91616C5.83145 3.6893 5.52394 4.43054 4.97724 4.97724C4.43054 5.52394 3.6893 5.83145 2.91616 5.83231ZM2.91616 0.875904C2.5124 0.875743 2.11767 0.995334 1.7819 1.21955C1.44612 1.44376 1.18439 1.76252 1.0298 2.13551C0.875217 2.5085 0.834729 2.91896 0.913458 3.31496C0.992187 3.71096 1.1866 4.07472 1.47209 4.36022C1.75759 4.64572 2.12135 4.84013 2.51735 4.91885C2.91335 4.99758 3.32381 4.9571 3.6968 4.80251C4.06979 4.64793 4.38855 4.38619 4.61277 4.05042C4.83698 3.71464 4.95657 3.31991 4.95641 2.91616C4.95576 2.37517 4.74063 1.85652 4.35817 1.4739C3.97571 1.09129 3.45714 0.876764 2.91616 0.875904Z" fill="#4D1A2D"/>
<path d="M12.2482 4.43106H5.10366C5.04695 4.43461 4.99012 4.4265 4.93666 4.40724C4.8832 4.38798 4.83427 4.35797 4.79285 4.31907C4.75144 4.28017 4.71842 4.23319 4.69586 4.18104C4.6733 4.1289 4.66167 4.07268 4.66167 4.01586C4.66167 3.95904 4.6733 3.90282 4.69586 3.85067C4.71842 3.79852 4.75144 3.75154 4.79285 3.71264C4.83427 3.67374 4.8832 3.64373 4.93666 3.62447C4.99012 3.60521 5.04695 3.59711 5.10366 3.60066H12.2482C12.3603 3.60562 12.4723 3.58781 12.5774 3.54832C12.6825 3.50883 12.7785 3.44846 12.8596 3.37086C12.9407 3.29326 13.0052 3.20004 13.0493 3.09682C13.0934 2.99359 13.1162 2.8825 13.1162 2.77025C13.1162 2.658 13.0934 2.54692 13.0493 2.44369C13.0052 2.34047 12.9407 2.24725 12.8596 2.16965C12.7785 2.09205 12.6825 2.03168 12.5774 1.99219C12.4723 1.9527 12.3603 1.93489 12.2482 1.93985H4.92248C4.86577 1.9434 4.80893 1.9353 4.75547 1.91604C4.70202 1.89678 4.65307 1.86677 4.61165 1.82787C4.57024 1.78896 4.53724 1.74199 4.51468 1.68984C4.49211 1.63769 4.48047 1.58147 4.48047 1.52465C4.48047 1.46783 4.49211 1.41161 4.51468 1.35947C4.53724 1.30732 4.57024 1.26034 4.61165 1.22144C4.65307 1.18254 4.70202 1.15253 4.75547 1.13327C4.80893 1.11401 4.86577 1.1059 4.92248 1.10945H12.2482C12.4732 1.09832 12.698 1.13302 12.9092 1.21144C13.1203 1.28986 13.3133 1.41036 13.4765 1.56564C13.6396 1.72091 13.7695 1.90773 13.8583 2.11473C13.947 2.32174 13.9928 2.54462 13.9928 2.76985C13.9928 2.99508 13.947 3.21796 13.8583 3.42497C13.7695 3.63197 13.6396 3.81878 13.4765 3.97406C13.3133 4.12934 13.1203 4.24984 12.9092 4.32826C12.698 4.40668 12.4732 4.44219 12.2482 4.43106Z" fill="#4D1A2D"/>
<path d="M11.0822 11.8118C10.5054 11.8118 9.9416 11.6408 9.46204 11.3203C8.98248 10.9999 8.60871 10.5445 8.38799 10.0116C8.16727 9.47876 8.10953 8.89241 8.22205 8.32673C8.33457 7.76105 8.61232 7.24145 9.02015 6.83362C9.42798 6.42579 9.94758 6.14805 10.5133 6.03553C11.0789 5.92301 11.6653 5.98075 12.1981 6.20147C12.731 6.42218 13.1864 6.79596 13.5069 7.27552C13.8273 7.75508 13.9983 8.31887 13.9983 8.89564C13.9975 9.66878 13.69 10.41 13.1433 10.9567C12.5966 11.5034 11.8553 11.8109 11.0822 11.8118ZM11.0822 6.85539C10.6785 6.85539 10.2839 6.97509 9.94822 7.19937C9.61257 7.42364 9.35096 7.74241 9.19647 8.11537C9.04199 8.48833 9.00157 8.89873 9.08033 9.29466C9.15908 9.69059 9.35347 10.0543 9.63891 10.3397C9.92436 10.6251 10.2881 10.8196 10.684 10.8983C11.0799 10.9771 11.4903 10.9366 11.8632 10.7822C12.2362 10.6277 12.555 10.3661 12.7792 10.0304C13.0035 9.69476 13.1232 9.30014 13.1232 8.89645C13.1228 8.35519 12.9076 7.83619 12.525 7.45338C12.1423 7.07057 11.6234 6.85522 11.0822 6.85458V6.85539Z" fill="#4D1A2D"/>
<path d="M8.89507 10.3601H1.74972C1.52733 10.3781 1.30361 10.3499 1.09267 10.2772C0.881737 10.2044 0.688155 10.0888 0.524133 9.93749C0.36011 9.78623 0.229205 9.60264 0.139668 9.39827C0.0501316 9.1939 0.00390625 8.9732 0.00390625 8.75007C0.00390625 8.52695 0.0501316 8.30624 0.139668 8.10187C0.229205 7.8975 0.36011 7.71389 0.524133 7.56263C0.688155 7.41136 0.881737 7.29572 1.09267 7.22299C1.30361 7.15026 1.52733 7.12202 1.74972 7.14005H9.07545C9.13288 7.13229 9.1913 7.13691 9.24679 7.15359C9.30228 7.17027 9.35356 7.19862 9.39719 7.23675C9.44082 7.27489 9.47579 7.32191 9.49975 7.37467C9.52371 7.42743 9.5361 7.48472 9.5361 7.54267C9.5361 7.60061 9.52371 7.65788 9.49975 7.71064C9.47579 7.76339 9.44082 7.81042 9.39719 7.84855C9.35356 7.88668 9.30228 7.91504 9.24679 7.93172C9.1913 7.9484 9.13288 7.95301 9.07545 7.94526H1.74972C1.63835 7.93589 1.52624 7.94973 1.42049 7.98592C1.31474 8.02211 1.21766 8.07986 1.13538 8.15551C1.0531 8.23115 0.987414 8.32307 0.942484 8.42541C0.897554 8.52776 0.874355 8.6383 0.874355 8.75007C0.874355 8.86184 0.897554 8.97239 0.942484 9.07473C0.987414 9.17707 1.0531 9.26897 1.13538 9.34461C1.21766 9.42026 1.31474 9.478 1.42049 9.5142C1.52624 9.55039 1.63835 9.56423 1.74972 9.55486H8.89426C8.95168 9.54711 9.0101 9.55174 9.06559 9.56843C9.12109 9.58511 9.17237 9.61346 9.216 9.65159C9.25963 9.68972 9.2946 9.73675 9.31855 9.78951C9.34251 9.84227 9.35491 9.89953 9.35491 9.95748C9.35491 10.0154 9.34251 10.0727 9.31855 10.1254C9.2946 10.1782 9.25963 10.2252 9.216 10.2634C9.17237 10.3015 9.12109 10.3299 9.06559 10.3465C9.0101 10.3632 8.9525 10.3679 8.89507 10.3601Z" fill="#4D1A2D"/>
</g>
<defs>
<clipPath id="clip0_524_2066">
<rect width="13.9982" height="11.8125" fill="white"/>
</clipPath>
</defs>
</svg>
