<svg width="24" height="24" viewBox="0 0 24 24" fill="none" xmlns="http://www.w3.org/2000/svg">
<path fill-rule="evenodd" clip-rule="evenodd" d="M22.9853 20.1598L21.4438 20.1495C21.3089 20.1495 21.1978 19.9847 21.1978 19.7845C21.1978 18.4712 20.4766 17.4012 19.5913 17.4012C18.7062 17.4012 17.9849 18.4711 17.9849 19.7845C17.9849 19.9847 17.8738 20.1495 17.7388 20.1495H10.963C10.8263 20.1495 10.7169 19.9847 10.7169 19.7845C10.7169 18.4712 9.99577 17.4012 9.11048 17.4012C8.22532 17.4012 7.50405 18.4711 7.50405 19.7845C7.50405 19.9847 7.39467 20.1495 7.25797 20.1495H5.8276C4.923 20.2386 4.70312 18.5523 4.70312 18.2126V14.9927C4.70312 14.7924 4.81251 14.6276 4.94921 14.6276H14.5719C14.9034 14.6276 15.1735 14.2271 15.1735 13.7351V5.89341C15.1735 5.6906 15.2846 5.52832 15.4196 5.52832H20.5139C20.601 5.52832 20.6796 5.59677 20.7258 5.70575L23.9641 13.7147C23.9864 13.7705 24 13.8364 24 13.9023L23.9983 18.2555C23.9562 18.685 23.7322 20.1596 22.9849 20.1596L22.9853 20.1598ZM5.19554 18.1848C5.22691 18.4886 5.3833 19.507 5.76978 19.4245L7.02591 19.4194C7.14723 17.8729 8.03584 16.671 9.11073 16.671C10.1856 16.671 11.0725 17.8752 11.1956 19.4194H17.5065C17.6278 17.8729 18.5164 16.671 19.5913 16.671C20.6645 16.671 21.5531 17.8752 21.6761 19.4194L22.9321 19.4245C23.3282 19.5152 23.4965 18.3772 23.5064 18.1848V14.0066L20.374 6.26123H15.6659V13.7353C15.6659 14.6303 15.1755 15.3579 14.5722 15.3579H5.19542V18.1848H5.19554Z" fill="#858C94"/>
<path fill-rule="evenodd" clip-rule="evenodd" d="M23.7521 17.6751H22.8772C22.5542 17.6751 22.291 17.3049 22.291 16.8485V15.6215C22.291 15.1651 22.5542 14.7949 22.8772 14.7949H23.7521C23.8871 14.7949 23.9982 14.9598 23.9982 15.16V17.31C23.9982 17.5128 23.8871 17.6751 23.7521 17.6751ZM22.8772 15.5251C22.8242 15.5251 22.7849 15.5758 22.7849 15.6215V16.8485C22.7849 17.0163 23.2921 16.9449 23.5043 16.9449V15.5251H22.8772Z" fill="#858C94"/>
<path fill-rule="evenodd" clip-rule="evenodd" d="M23.3569 13.2864H17.3125C17.1775 13.2864 17.0664 13.1241 17.0664 12.9213V8.05356C17.0664 7.85076 17.1775 7.68848 17.3125 7.68848H21.3883C21.4754 7.68848 21.554 7.75693 21.6001 7.86591L23.5688 12.7338C23.6674 12.9748 23.5495 13.2866 23.3569 13.2866V13.2864ZM17.5586 12.5562H22.9211L21.2481 8.41847H17.5586V12.5562Z" fill="#858C94"/>
<path fill-rule="evenodd" clip-rule="evenodd" d="M9.10934 22.8949C7.95238 22.8949 7.01074 21.4979 7.01074 19.7814C7.01074 18.065 7.95238 16.668 9.10934 16.668C10.2663 16.668 11.2079 18.065 11.2079 19.7814C11.2079 21.4979 10.2663 22.8949 9.10934 22.8949ZM9.10934 17.3983C8.22418 17.3983 7.50291 18.4682 7.50291 19.7816C7.50291 21.0948 8.22406 22.1649 9.10934 22.1649C9.99451 22.1649 10.7158 21.095 10.7158 19.7816C10.7158 18.4684 9.99463 17.3983 9.10934 17.3983Z" fill="#858C94"/>
<path fill-rule="evenodd" clip-rule="evenodd" d="M19.5908 22.8949C18.4338 22.8949 17.4922 21.4979 17.4922 19.7814C17.4922 18.065 18.4338 16.668 19.5908 16.668C20.7478 16.668 21.6894 18.065 21.6894 19.7814C21.6894 21.4979 20.7478 22.8949 19.5908 22.8949ZM19.5908 17.3983C18.7056 17.3983 17.9844 18.4682 17.9844 19.7816C17.9844 21.0948 18.7055 22.1649 19.5908 22.1649C20.476 22.1649 21.1972 21.095 21.1972 19.7816C21.1972 18.4684 20.4761 17.3983 19.5908 17.3983Z" fill="#858C94"/>
<path fill-rule="evenodd" clip-rule="evenodd" d="M4.09372 15.3546C3.49044 15.3546 3 14.627 3 13.7319V4.62263C3 3.72762 3.49044 3 4.09372 3H14.5744C15.1777 3 15.6681 3.72762 15.6681 4.62263V13.7319C15.6681 14.627 15.1777 15.3546 14.5744 15.3546H4.09372ZM4.09372 3.73255C3.76224 3.73255 3.49217 4.13305 3.49217 4.62501V13.7343C3.49217 14.2261 3.76212 14.6268 4.09372 14.6268H14.5744C14.9059 14.6268 15.1743 14.2263 15.1743 13.7369V4.62245C15.1743 4.13068 14.9043 3.72999 14.5744 3.72999H4.09372V3.73255Z" fill="#858C94"/>
<path fill-rule="evenodd" clip-rule="evenodd" d="M19.5922 21.5299C18.9428 21.5299 18.4131 20.7464 18.4131 19.7806C18.4131 18.8171 18.9412 18.0312 19.5922 18.0312C20.2433 18.0312 20.7713 18.8147 20.7713 19.7806C20.7696 20.744 20.2415 21.5299 19.5922 21.5299ZM19.5922 18.7638C18.688 18.7638 18.6886 20.7997 19.5922 20.7997C20.4985 20.7997 20.4952 18.7638 19.5922 18.7638Z" fill="#858C94"/>
<path fill-rule="evenodd" clip-rule="evenodd" d="M9.11173 21.5299C8.46231 21.5299 7.93262 20.7464 7.93262 19.7806C7.93262 18.8171 8.46071 18.0312 9.11173 18.0312C9.76114 18.0312 10.2908 18.8147 10.2908 19.7806C10.2908 20.744 9.76102 21.5299 9.11173 21.5299ZM9.11173 18.7638C8.20749 18.7638 8.20811 20.7997 9.11173 20.7997C10.0163 20.7997 10.0155 18.7638 9.11173 18.7638Z" fill="#858C94"/>
<path fill-rule="evenodd" clip-rule="evenodd" d="M19.7327 14.9157H18.145C17.8214 14.9157 17.8214 14.1855 18.145 14.1855H19.7327C20.0555 14.1855 20.0574 14.9157 19.7327 14.9157Z" fill="#858C94"/>
<path fill-rule="evenodd" clip-rule="evenodd" d="M11.3707 12.566H7.29491C7.15821 12.566 7.04883 12.4037 7.04883 12.2009V6.15415C7.04883 5.95134 7.15821 5.78906 7.29491 5.78906H11.3707C11.5074 5.78906 11.6168 5.95134 11.6168 6.15415V12.2009C11.6168 12.4037 11.5074 12.566 11.3707 12.566ZM7.541 11.8358H11.1246V6.51924H7.541V11.8358Z" fill="#858C94"/>
<path fill-rule="evenodd" clip-rule="evenodd" d="M11.3698 7.946H7.29404C6.9697 7.946 6.9697 7.21582 7.29404 7.21582H11.3698C11.6941 7.21582 11.6941 7.946 11.3698 7.946Z" fill="#858C94"/>
<path fill-rule="evenodd" clip-rule="evenodd" d="M8.80565 10.0655C8.6692 10.0655 8.55957 9.90195 8.55957 9.70043V7.58091C8.55957 7.3781 8.66895 7.21582 8.80565 7.21582H9.78482C9.92152 7.21582 10.0309 7.3781 10.0309 7.58091V9.70043C10.0309 10.0131 9.78285 10.1798 9.62413 9.9768L9.29598 9.55585C9.13848 9.75775 8.9522 10.0655 8.80553 10.0655H8.80565ZM9.29438 8.70666C9.40438 8.70666 9.45888 8.80048 9.53702 8.90198V7.94618H9.05002V8.90198C9.12704 8.80194 9.18425 8.70666 9.29438 8.70666Z" fill="#858C94"/>
<path fill-rule="evenodd" clip-rule="evenodd" d="M14.2151 7.50068H12.9454C12.6211 7.50068 12.6211 6.77051 12.9454 6.77051H14.2151C14.5382 6.77051 14.5403 7.50068 14.2151 7.50068Z" fill="#858C94"/>
<path fill-rule="evenodd" clip-rule="evenodd" d="M14.2151 6.12666H12.9454C12.6211 6.12666 12.6211 5.39648 12.9454 5.39648H14.2151C14.5382 5.39648 14.5403 6.12666 14.2151 6.12666Z" fill="#858C94"/>
<path fill-rule="evenodd" clip-rule="evenodd" d="M5.72105 11.5847H4.45126C4.12692 11.5847 4.12692 10.8545 4.45126 10.8545H5.72105C6.04539 10.8545 6.04539 11.5847 5.72105 11.5847Z" fill="#858C94"/>
<path fill-rule="evenodd" clip-rule="evenodd" d="M5.72105 12.9587H4.45126C4.12692 12.9587 4.12692 12.2285 4.45126 12.2285H5.72105C6.04539 12.2285 6.04539 12.9587 5.72105 12.9587Z" fill="#858C94"/>
</svg>
