<svg width="20" height="20" viewBox="0 0 20 20" fill="none" xmlns="http://www.w3.org/2000/svg">
<g clip-path="url(#clip0_524_2499)">
<path fill-rule="evenodd" clip-rule="evenodd" d="M19.0335 14.6303L17.5653 14.6237C17.4368 14.6237 17.331 14.5179 17.331 14.3893C17.331 13.5463 16.6441 12.8593 15.801 12.8593C14.9579 12.8593 14.2709 13.5462 14.2709 14.3893C14.2709 14.5179 14.1651 14.6237 14.0366 14.6237H7.58315C7.45295 14.6237 7.34877 14.5179 7.34877 14.3893C7.34877 13.5463 6.66193 12.8593 5.81877 12.8593C4.97572 12.8593 4.28876 13.5462 4.28876 14.3893C4.28876 14.5179 4.18458 14.6237 4.05438 14.6237H2.69207C1.83051 14.6809 1.62109 13.5983 1.62109 13.3802V11.3131C1.62109 11.1846 1.72527 11.0788 1.85547 11.0788H11.0204C11.3361 11.0788 11.5933 10.8217 11.5933 10.5058V5.47168C11.5933 5.34148 11.6991 5.2373 11.8277 5.2373H16.6796C16.7626 5.2373 16.8375 5.28125 16.8814 5.35121L19.9657 10.4927C19.9869 10.5286 19.9999 10.5709 19.9999 10.6132L19.9983 13.4078C19.9582 13.6835 19.7448 14.6302 19.0331 14.6302L19.0335 14.6303ZM2.09008 13.3624C2.11996 13.5574 2.26891 14.2112 2.637 14.1582L3.83337 14.155C3.94892 13.1621 4.79525 12.3906 5.819 12.3906C6.84276 12.3906 7.68745 13.1637 7.80463 14.155H13.8153C13.9309 13.1621 14.7772 12.3906 15.801 12.3906C16.8231 12.3906 17.6694 13.1637 17.7866 14.155L18.9828 14.1582C19.3601 14.2165 19.5204 13.4859 19.5298 13.3624V10.6801L16.5464 5.70781H12.0623V10.506C12.0623 11.0805 11.5952 11.5476 11.0206 11.5476H2.08996V13.3624H2.09008Z" fill="#4D1A2D"/>
<path fill-rule="evenodd" clip-rule="evenodd" d="M19.7647 13.0345H18.9313C18.6237 13.0345 18.373 12.7969 18.373 12.5039V11.7162C18.373 11.4232 18.6237 11.1855 18.9313 11.1855H19.7647C19.8932 11.1855 19.999 11.2914 19.999 11.4199V12.8002C19.999 12.9304 19.8932 13.0345 19.7647 13.0345ZM18.9313 11.6543C18.8808 11.6543 18.8434 11.6869 18.8434 11.7162V12.5039C18.8434 12.6116 19.3265 12.5658 19.5286 12.5658V11.6543H18.9313Z" fill="#4D1A2D"/>
<path fill-rule="evenodd" clip-rule="evenodd" d="M19.3877 10.2177H13.6309C13.5023 10.2177 13.3965 10.1135 13.3965 9.98333V6.8584C13.3965 6.7282 13.5023 6.62402 13.6309 6.62402H17.5127C17.5957 6.62402 17.6706 6.66797 17.7145 6.73793L19.5895 9.86298C19.6834 10.0177 19.5711 10.2178 19.3877 10.2178V10.2177ZM13.8652 9.74896H18.9726L17.3792 7.09266H13.8652V9.74896Z" fill="#4D1A2D"/>
<path fill-rule="evenodd" clip-rule="evenodd" d="M5.81907 16.3862C4.71715 16.3862 3.82031 15.4893 3.82031 14.3874C3.82031 13.2855 4.71715 12.3887 5.81907 12.3887C6.92099 12.3887 7.81783 13.2855 7.81783 14.3874C7.81783 15.4893 6.92099 16.3862 5.81907 16.3862ZM5.81907 12.8575C4.97602 12.8575 4.28906 13.5444 4.28906 14.3875C4.28906 15.2306 4.9759 15.9176 5.81907 15.9176C6.66212 15.9176 7.34908 15.2307 7.34908 14.3875C7.34908 13.5445 6.66224 12.8575 5.81907 12.8575Z" fill="#4D1A2D"/>
<path fill-rule="evenodd" clip-rule="evenodd" d="M15.8015 16.3862C14.6996 16.3862 13.8027 15.4893 13.8027 14.3874C13.8027 13.2855 14.6996 12.3887 15.8015 12.3887C16.9034 12.3887 17.8003 13.2855 17.8003 14.3874C17.8003 15.4893 16.9034 16.3862 15.8015 16.3862ZM15.8015 12.8575C14.9584 12.8575 14.2715 13.5444 14.2715 14.3875C14.2715 15.2306 14.9583 15.9176 15.8015 15.9176C16.6445 15.9176 17.3315 15.2307 17.3315 14.3875C17.3315 13.5445 16.6447 12.8575 15.8015 12.8575Z" fill="#4D1A2D"/>
<path fill-rule="evenodd" clip-rule="evenodd" d="M1.04168 11.5455C0.467111 11.5455 0 11.0784 0 10.5039V4.65594C0 4.08137 0.467111 3.61426 1.04168 3.61426H11.0238C11.5983 3.61426 12.0654 4.08137 12.0654 4.65594V10.5039C12.0654 11.0784 11.5983 11.5455 11.0238 11.5455H1.04168ZM1.04168 4.08453C0.725979 4.08453 0.468752 4.34164 0.468752 4.65747V10.5054C0.468752 10.8211 0.725862 11.0783 1.04168 11.0783H11.0238C11.3395 11.0783 11.595 10.8212 11.595 10.507V4.65582C11.595 4.34012 11.3379 4.08289 11.0238 4.08289H1.04168V4.08453Z" fill="#4D1A2D"/>
<path fill-rule="evenodd" clip-rule="evenodd" d="M15.8027 15.5107C15.1842 15.5107 14.6797 15.0077 14.6797 14.3877C14.6797 13.7691 15.1827 13.2646 15.8027 13.2646C16.4229 13.2646 16.9257 13.7676 16.9257 14.3877C16.9241 15.0062 16.4211 15.5107 15.8027 15.5107ZM15.8027 13.7349C14.9415 13.7349 14.9421 15.0419 15.8027 15.0419C16.6659 15.0419 16.6627 13.7349 15.8027 13.7349Z" fill="#4D1A2D"/>
<path fill-rule="evenodd" clip-rule="evenodd" d="M5.82028 15.5107C5.20176 15.5107 4.69727 15.0077 4.69727 14.3877C4.69727 13.7691 5.20024 13.2646 5.82028 13.2646C6.4388 13.2646 6.94329 13.7676 6.94329 14.3877C6.94329 15.0062 6.43868 15.5107 5.82028 15.5107ZM5.82028 13.7349C4.95906 13.7349 4.95965 15.0419 5.82028 15.0419C6.68184 15.0419 6.68102 13.7349 5.82028 13.7349Z" fill="#4D1A2D"/>
<path fill-rule="evenodd" clip-rule="evenodd" d="M15.9366 11.2637H14.4245C14.1163 11.2637 14.1163 10.7949 14.4245 10.7949H15.9366C16.2441 10.7949 16.2458 11.2637 15.9366 11.2637Z" fill="#4D1A2D"/>
<path fill-rule="evenodd" clip-rule="evenodd" d="M7.9717 9.7549H4.08984C3.95965 9.7549 3.85547 9.65072 3.85547 9.52052V5.63867C3.85547 5.50848 3.95965 5.4043 4.08984 5.4043H7.9717C8.10189 5.4043 8.20607 5.50848 8.20607 5.63867V9.52052C8.20607 9.65072 8.10189 9.7549 7.9717 9.7549ZM4.32422 9.28615H7.73732V5.87305H4.32422V9.28615Z" fill="#4D1A2D"/>
<path fill-rule="evenodd" clip-rule="evenodd" d="M7.97291 6.79004H4.09106C3.78215 6.79004 3.78215 6.32129 4.09106 6.32129H7.97291C8.28181 6.32129 8.28181 6.79004 7.97291 6.79004Z" fill="#4D1A2D"/>
<path fill-rule="evenodd" clip-rule="evenodd" d="M5.5293 8.15071C5.39934 8.15071 5.29492 8.04571 5.29492 7.91633V6.55566C5.29492 6.42547 5.3991 6.32129 5.5293 6.32129H6.46188C6.59208 6.32129 6.69626 6.42547 6.69626 6.55566V7.91633C6.69626 8.11708 6.46 8.22407 6.30883 8.09376L5.99629 7.82352C5.84629 7.95313 5.66887 8.15071 5.52918 8.15071H5.5293ZM5.99477 7.27836C6.09953 7.27836 6.15145 7.3386 6.22586 7.40375V6.79016H5.76203V7.40375C5.83539 7.33954 5.88989 7.27836 5.99477 7.27836Z" fill="#4D1A2D"/>
<path fill-rule="evenodd" clip-rule="evenodd" d="M10.6812 6.50293H9.47191C9.16301 6.50293 9.16301 6.03418 9.47191 6.03418H10.6812C10.9889 6.03418 10.9909 6.50293 10.6812 6.50293Z" fill="#4D1A2D"/>
<path fill-rule="evenodd" clip-rule="evenodd" d="M10.6812 5.6211H9.47191C9.16301 5.6211 9.16301 5.15234 9.47191 5.15234H10.6812C10.9889 5.15234 10.9909 5.6211 10.6812 5.6211Z" fill="#4D1A2D"/>
<path fill-rule="evenodd" clip-rule="evenodd" d="M2.59145 9.125H1.38207C1.07316 9.125 1.07316 8.65625 1.38207 8.65625H2.59145C2.90036 8.65625 2.90036 9.125 2.59145 9.125Z" fill="#4D1A2D"/>
<path fill-rule="evenodd" clip-rule="evenodd" d="M2.59145 10.0078H1.38207C1.07316 10.0078 1.07316 9.53906 1.38207 9.53906H2.59145C2.90036 9.53906 2.90036 10.0078 2.59145 10.0078Z" fill="#4D1A2D"/>
</g>
<defs>
<clipPath id="clip0_524_2499">
<rect width="20" height="20" fill="white"/>
</clipPath>
</defs>
</svg>
