<svg width="19" height="19" viewBox="0 0 19 19" fill="none" xmlns="http://www.w3.org/2000/svg">
<g clip-path="url(#clip0_433_10272)">
<path d="M18.9505 7.28829C18.8261 6.90356 18.4849 6.6303 18.0811 6.59392L12.5972 6.09597L10.4287 1.02041C10.2688 0.648436 9.90469 0.407654 9.5001 0.407654C9.09551 0.407654 8.73136 0.648436 8.57147 1.02128L6.40298 6.09597L0.918188 6.59392C0.515193 6.63117 0.174822 6.90356 0.0497197 7.28829C-0.0753828 7.67302 0.0401521 8.095 0.345008 8.36101L4.4902 11.9964L3.26788 17.3807C3.17844 17.7766 3.3321 18.1858 3.66058 18.4233C3.83715 18.5508 4.04372 18.6158 4.25203 18.6158C4.43164 18.6158 4.6098 18.5674 4.76969 18.4717L9.5001 15.6445L14.2288 18.4717C14.5748 18.6799 15.011 18.6609 15.3387 18.4233C15.6674 18.1851 15.8209 17.7757 15.7314 17.3807L14.5091 11.9964L18.6543 8.36173C18.9592 8.095 19.0756 7.67374 18.9505 7.28829Z" fill="#FFC107"/>
</g>
<defs>
<clipPath id="clip0_433_10272">
<rect width="19" height="19" fill="white"/>
</clipPath>
</defs>
</svg>
