<svg width="20" height="12" viewBox="0 0 20 12" fill="none" xmlns="http://www.w3.org/2000/svg">
<path d="M19.2057 5.05375V10.14C19.2049 10.3055 19.1388 10.464 19.0217 10.581C18.9047 10.698 18.7462 10.7642 18.5807 10.765H13.2422V10.2539H13.9453V6.37211C13.9457 6.12446 14.0443 5.88708 14.2194 5.71197C14.3945 5.53686 14.6319 5.43829 14.8796 5.43786H16.4242C16.6718 5.43829 16.9092 5.53686 17.0843 5.71197C17.2594 5.88708 17.358 6.12446 17.3584 6.37211V10.2539H18.5758C18.6046 10.2536 18.6321 10.2419 18.6523 10.2214C18.6627 10.2115 18.6709 10.1996 18.6765 10.1865C18.682 10.1733 18.6849 10.1592 18.6849 10.1449V5.0684C18.8568 5.08459 19.0301 5.07967 19.2008 5.05375H19.2057ZM7.04916 8.96976C7.08463 8.96977 7.11931 8.98031 7.14879 9.00005C7.17827 9.0198 7.20121 9.04786 7.21471 9.08067C7.22822 9.11348 7.23166 9.14956 7.22462 9.18433C7.21758 9.2191 7.20037 9.251 7.17517 9.27598C7.14996 9.30095 7.11791 9.31787 7.08307 9.32459C7.04824 9.33132 7.01219 9.32754 6.97951 9.31374C6.94682 9.29994 6.91897 9.27674 6.8995 9.24708C6.88002 9.21742 6.8698 9.18265 6.87012 9.14717C6.87012 9.12374 6.87476 9.10053 6.88378 9.0789C6.89279 9.05727 6.90601 9.03764 6.92265 9.02115C6.9393 9.00465 6.95905 8.99162 6.98076 8.9828C7.00248 8.97398 7.02572 8.96955 7.04916 8.96976ZM11.6699 5.44763V10.8448C11.6686 11.0201 11.5984 11.1878 11.4745 11.3118C11.3505 11.4357 11.1828 11.5059 11.0075 11.5072H1.51042C1.42354 11.5069 1.33756 11.4896 1.25741 11.4561C1.17725 11.4225 1.1045 11.3736 1.0433 11.3119C0.919353 11.188 0.849684 11.02 0.849611 10.8448V5.45251C1.02997 5.48504 1.21337 5.49759 1.39649 5.48995V10.8448C1.39642 10.8597 1.39942 10.8745 1.4053 10.8882C1.41118 10.9019 1.41981 10.9143 1.43067 10.9245C1.44122 10.9354 1.45387 10.9441 1.46786 10.9499C1.48184 10.9558 1.49688 10.9588 1.51205 10.9587H6.09212V6.84737C6.09384 6.58503 6.19915 6.334 6.38511 6.14895C6.57107 5.96391 6.82262 5.85984 7.08496 5.85941H8.72396C8.98658 5.86027 9.2382 5.96498 9.4239 6.15068C9.60961 6.33638 9.71431 6.588 9.71517 6.85062V10.9603H11.0075C11.0225 10.9599 11.0373 10.9565 11.0509 10.9504C11.0646 10.9442 11.077 10.9354 11.0872 10.9245C11.0979 10.9142 11.1065 10.9018 11.1123 10.8881C11.1182 10.8744 11.1213 10.8597 11.1214 10.8448V5.4639C11.3043 5.47966 11.4883 5.4742 11.6699 5.44763ZM6.55274 10.9603H9.25456V6.84737C9.25413 6.70635 9.19792 6.57122 9.0982 6.4715C8.99848 6.37178 8.86336 6.31557 8.72233 6.31514H7.08496C6.94394 6.31557 6.80882 6.37178 6.7091 6.4715C6.60938 6.57122 6.55316 6.70635 6.55274 6.84737V10.9603ZM3.05501 6.61299H4.69564C4.75665 6.61342 4.81502 6.63796 4.85801 6.68126C4.90101 6.72456 4.92513 6.7831 4.92513 6.84411V9.27738C4.92513 9.33825 4.90095 9.39662 4.85791 9.43966C4.81488 9.48269 4.7565 9.50687 4.69564 9.50687H3.05501C3.02474 9.50709 2.99472 9.50131 2.96669 9.48987C2.93866 9.47844 2.91317 9.46157 2.89169 9.44024C2.8702 9.4189 2.85315 9.39353 2.84152 9.36558C2.82988 9.33763 2.82389 9.30766 2.82389 9.27738V6.83598C2.82389 6.80562 2.82987 6.77557 2.84149 6.74753C2.8531 6.71949 2.87013 6.69401 2.89159 6.67255C2.91305 6.65109 2.93853 6.63406 2.96657 6.62245C2.99461 6.61083 3.02466 6.60486 3.05501 6.60486V6.61299ZM4.46452 7.07523H3.28451V9.05114H4.46615V7.07523H4.46452ZM10.8122 4.81124C10.6852 4.75264 10.3711 4.66963 10.2718 4.57198C10.1855 4.4856 10.1126 4.38686 10.0553 4.27901C9.99814 4.38646 9.92579 4.48513 9.8405 4.57198C9.61751 4.79008 9.11458 4.92517 8.78906 4.92517C8.46354 4.92517 7.95736 4.79008 7.74089 4.57198C7.65459 4.4856 7.58164 4.38686 7.52442 4.27901C7.46719 4.38686 7.39424 4.4856 7.30794 4.57198C7.08985 4.79008 6.59017 4.92517 6.25977 4.92517C5.92936 4.92517 5.42969 4.79008 5.21159 4.57198C5.1263 4.48513 5.05395 4.38646 4.99675 4.27901C4.93952 4.38686 4.86657 4.4856 4.78027 4.57198C4.55729 4.79008 4.06901 4.92517 3.73047 4.92517C3.39193 4.92517 2.90039 4.79008 2.68229 4.57198C2.596 4.4856 2.52304 4.38686 2.46582 4.27901C2.40862 4.38646 2.33627 4.48513 2.25098 4.57198C2.10612 4.71521 1.72852 4.82263 1.52832 4.87959C1.1263 4.92842 0.652671 4.87146 0.353191 4.57198C0.241302 4.46057 0.152506 4.32818 0.0918976 4.18238C0.0312889 4.03659 5.97972e-05 3.88026 1.3178e-06 3.72237V3.25525C-0.000103416 3.22922 0.00603618 3.20354 0.017905 3.18038L0.864259 0.468787C0.934246 0.244178 1.10352 0.100949 1.43392 0.0846727H11.0173C11.3135 0.117225 11.5055 0.247433 11.5853 0.465532C11.8066 1.12471 12.4186 2.66117 12.5163 3.24222C12.5293 3.37406 12.5163 3.58239 12.5163 3.72237C12.5154 4.04112 12.3885 4.34657 12.1631 4.57198C11.8083 4.9268 11.2679 4.91703 10.8057 4.81124H10.8122ZM14.3799 10.2539H16.9271V6.37211C16.9262 6.23957 16.8731 6.11273 16.7792 6.01916C16.6853 5.92559 16.5583 5.87286 16.4258 5.87243H14.8796C14.747 5.87243 14.6199 5.92508 14.5262 6.01878C14.4325 6.11249 14.3799 6.23959 14.3799 6.37211V10.2539ZM18.3919 4.45479C18.2715 4.39782 17.9753 4.32133 17.8825 4.22855C17.8011 4.14713 17.7325 4.05384 17.679 3.95186C17.6256 4.05384 17.557 4.14713 17.4756 4.22855C17.2705 4.43363 16.7985 4.55407 16.4876 4.55407C16.1768 4.55407 15.7048 4.42712 15.4997 4.22855C15.4194 4.1469 15.3519 4.05363 15.2995 3.95186C15.2443 4.05543 15.1735 4.14986 15.0895 4.23181C14.8844 4.43689 14.4141 4.55733 14.1016 4.55733H14.0332C14.0764 4.38321 14.0982 4.20449 14.0983 4.0251C14.0983 2.76371 13.5221 1.66345 13.1217 0.454139L13.1022 0.389035C13.0513 0.250282 12.9811 0.119345 12.8939 3.72956e-05H18.5905C18.7055 -0.00128192 18.8181 0.0324244 18.9135 0.0966757C19.0089 0.160927 19.0824 0.25268 19.1244 0.359738L19.9837 2.91508C19.995 2.93327 20.0017 2.95394 20.0033 2.9753V3.42777C20.0052 3.7273 19.8881 4.01535 19.6777 4.22855C19.3424 4.56384 18.8346 4.55407 18.3984 4.45479H18.3919Z" fill="#858C94"/>
</svg>
