<svg width="19" height="5" viewBox="0 0 19 5" fill="none" xmlns="http://www.w3.org/2000/svg">
<path d="M0.09375 2.125C0.09375 1.54167 0.291667 1.05208 0.6875 0.65625C1.08333 0.25 1.61979 0.046875 2.29688 0.046875C2.98438 0.046875 3.52083 0.25 3.90625 0.65625C4.30208 1.05208 4.5 1.54167 4.5 2.125C4.5 2.70833 4.30208 3.19792 3.90625 3.59375C3.52083 3.98958 2.98438 4.1875 2.29688 4.1875C1.61979 4.1875 1.08333 3.98958 0.6875 3.59375C0.291667 3.19792 0.09375 2.70833 0.09375 2.125ZM7.08 2.125C7.08 1.54167 7.27792 1.05208 7.67375 0.65625C8.06958 0.25 8.60604 0.046875 9.28312 0.046875C9.97062 0.046875 10.5071 0.25 10.8925 0.65625C11.2883 1.05208 11.4862 1.54167 11.4862 2.125C11.4862 2.70833 11.2883 3.19792 10.8925 3.59375C10.5071 3.98958 9.97062 4.1875 9.28312 4.1875C8.60604 4.1875 8.06958 3.98958 7.67375 3.59375C7.27792 3.19792 7.08 2.70833 7.08 2.125ZM14.0662 2.125C14.0662 1.54167 14.2642 1.05208 14.66 0.65625C15.0558 0.25 15.5923 0.046875 16.2694 0.046875C16.9569 0.046875 17.4933 0.25 17.8787 0.65625C18.2746 1.05208 18.4725 1.54167 18.4725 2.125C18.4725 2.70833 18.2746 3.19792 17.8787 3.59375C17.4933 3.98958 16.9569 4.1875 16.2694 4.1875C15.5923 4.1875 15.0558 3.98958 14.66 3.59375C14.2642 3.19792 14.0662 2.70833 14.0662 2.125Z" fill="#4D1A2D"/>
</svg>
