<svg width="204" height="190" viewBox="0 0 204 190" fill="none" xmlns="http://www.w3.org/2000/svg">
<rect width="204" height="190" rx="28" fill="#FFDDDD"/>
<path d="M168.458 54.1854H134.272V47.1125H136.63C138.505 47.1103 140.303 46.3645 141.629 45.0385C142.955 43.7126 143.7 41.9148 143.703 40.0397V28.2516C143.7 26.3764 142.955 24.5787 141.629 23.2527C140.303 21.9268 138.505 21.1809 136.63 21.1787H68.2588C66.3836 21.1809 64.5859 21.9268 63.26 23.2527C61.934 24.5787 61.1881 26.3764 61.186 28.2516V40.0397C61.1881 41.9148 61.934 43.7126 63.26 45.0385C64.5859 46.3645 66.3836 47.1103 68.2588 47.1125H70.6164V54.1854H36.431C35.493 54.1854 34.5935 54.558 33.9303 55.2212C33.2671 55.8844 32.8945 56.7839 32.8945 57.7218V86.0132C32.8985 88.8344 33.8209 91.5775 35.5224 93.8278C37.2238 96.0781 39.6117 97.7132 42.325 98.4859V166.172C42.325 167.11 42.6976 168.01 43.3608 168.673C44.024 169.336 44.9235 169.709 45.8614 169.709H159.027C159.965 169.709 160.865 169.336 161.528 168.673C162.191 168.01 162.564 167.11 162.564 166.172V98.4859C165.277 97.7132 167.665 96.0781 169.366 93.8278C171.068 91.5775 171.99 88.8344 171.994 86.0132V57.7218C171.994 56.7839 171.621 55.8844 170.958 55.2212C170.295 54.558 169.396 54.1854 168.458 54.1854ZM146.06 86.0132C146.06 87.5764 145.439 89.0756 144.334 90.1809C143.229 91.2863 141.729 91.9073 140.166 91.9073C138.603 91.9073 137.104 91.2863 135.998 90.1809C134.893 89.0756 134.272 87.5764 134.272 86.0132V61.2582H146.06V86.0132ZM127.199 86.0132C127.199 87.5764 126.578 89.0756 125.473 90.1809C124.368 91.2863 122.868 91.9073 121.305 91.9073C119.742 91.9073 118.243 91.2863 117.137 90.1809C116.032 89.0756 115.411 87.5764 115.411 86.0132V61.2582H127.199V86.0132ZM108.338 86.0132C108.338 87.5764 107.717 89.0756 106.612 90.1809C105.507 91.2863 104.007 91.9073 102.444 91.9073C100.881 91.9073 99.3819 91.2863 98.2766 90.1809C97.1712 89.0756 96.5502 87.5764 96.5502 86.0132V61.2582H108.338V86.0132ZM89.4774 86.0132C89.4774 87.5764 88.8564 89.0756 87.751 90.1809C86.6457 91.2863 85.1465 91.9073 83.5833 91.9073C82.0201 91.9073 80.521 91.2863 79.4156 90.1809C78.3103 89.0756 77.6893 87.5764 77.6893 86.0132V61.2582H89.4774V86.0132ZM68.2588 28.2516H136.63L136.634 40.0397H68.2588V28.2516ZM127.199 47.1125V54.1854H77.6893V47.1125H127.199ZM70.6164 86.0132C70.6164 87.5764 69.9954 89.0756 68.8901 90.1809C67.7848 91.2863 66.2856 91.9073 64.7224 91.9073C63.1592 91.9073 61.66 91.2863 60.5547 90.1809C59.4493 89.0756 58.8283 87.5764 58.8283 86.0132V61.2582H70.6164V86.0132ZM39.9674 86.0132V61.2582H51.7555V86.0132C51.7555 87.5764 51.1345 89.0756 50.0292 90.1809C48.9238 91.2863 47.4246 91.9073 45.8614 91.9073C44.2982 91.9073 42.7991 91.2863 41.6937 90.1809C40.5884 89.0756 39.9674 87.5764 39.9674 86.0132ZM63.5436 162.636V113.126H91.835V162.636H63.5436ZM98.9078 162.636V109.589C98.9078 108.651 98.5353 107.752 97.872 107.089C97.2088 106.426 96.3093 106.053 95.3714 106.053H60.0071C59.0692 106.053 58.1697 106.426 57.5065 107.089C56.8433 107.752 56.4707 108.651 56.4707 109.589V162.636H49.3979V98.4859C51.6502 97.8439 53.6868 96.6045 55.2919 94.8991C56.5018 96.1873 57.9627 97.214 59.5846 97.9158C61.2066 98.6176 62.9551 98.9797 64.7224 98.9797C66.4896 98.9797 68.2382 98.6176 69.8601 97.9158C71.482 97.214 72.943 96.1873 74.1529 94.8991C75.3627 96.1873 76.8237 97.214 78.4456 97.9158C80.0675 98.6176 81.8161 98.9797 83.5833 98.9797C85.3506 98.9797 87.0991 98.6176 88.7211 97.9158C90.343 97.214 91.8039 96.1873 93.0138 94.8991C94.2237 96.1873 95.6846 97.214 97.3065 97.9158C98.9285 98.6176 100.677 98.9797 102.444 98.9797C104.212 98.9797 105.96 98.6176 107.582 97.9158C109.204 97.214 110.665 96.1873 111.875 94.8991C113.085 96.1873 114.546 97.214 116.167 97.9158C117.789 98.6176 119.538 98.9797 121.305 98.9797C123.072 98.9797 124.821 98.6176 126.443 97.9158C128.065 97.214 129.526 96.1873 130.736 94.8991C131.946 96.1873 133.407 97.214 135.028 97.9158C136.65 98.6176 138.399 98.9797 140.166 98.9797C141.933 98.9797 143.682 98.6176 145.304 97.9158C146.926 97.214 148.387 96.1873 149.597 94.8991C151.202 96.6045 153.238 97.8439 155.491 98.4859V162.636H98.9078ZM164.921 86.0132C164.921 87.5764 164.3 89.0756 163.195 90.1809C162.089 91.2863 160.59 91.9073 159.027 91.9073C157.464 91.9073 155.965 91.2863 154.859 90.1809C153.754 89.0756 153.133 87.5764 153.133 86.0132V61.2582H164.921V86.0132Z" fill="#4D1A2D"/>
<path d="M144.881 106.053H109.517C108.579 106.053 107.679 106.425 107.016 107.089C106.353 107.752 105.98 108.651 105.98 109.589V137.881C105.98 138.818 106.353 139.718 107.016 140.381C107.679 141.044 108.579 141.417 109.517 141.417H144.881C145.819 141.417 146.719 141.044 147.382 140.381C148.045 139.718 148.418 138.818 148.418 137.881V109.589C148.418 108.651 148.045 107.752 147.382 107.089C146.719 106.425 145.819 106.053 144.881 106.053ZM141.345 134.344H113.053V113.126H141.345V134.344Z" fill="#4D1A2D"/>
</svg>
