<svg width="204" height="190" viewBox="0 0 204 190" fill="none" xmlns="http://www.w3.org/2000/svg">
<rect width="204" height="190" rx="28" fill="#FFDDDD"/>
<g clip-path="url(#clip0_181_3375)">
<path d="M40.7604 155.941H114.156C123.707 169.028 142.1 171.858 155.188 162.485C168.275 152.934 171.105 134.541 161.731 121.454C155.188 112.434 144.046 107.836 132.904 109.781C126.537 99.8769 116.81 92.6259 105.491 89.0887C122.646 80.2456 129.366 59.0229 120.347 41.8674C111.327 24.7119 90.281 17.9916 73.1255 27.0113C55.97 36.0309 49.4266 57.077 58.2694 74.2321C61.6297 80.599 66.7586 85.728 73.1255 89.0883C52.0794 95.6321 37.7539 115.087 37.7539 137.017V152.757C37.7539 154.526 39.1687 155.941 40.7604 155.941ZM132.196 116.324C144.576 113.141 157.133 120.746 160.317 133.126C163.5 145.506 155.895 158.063 143.515 161.247C129.013 164.784 114.864 153.642 114.864 138.609C114.864 127.997 121.938 118.801 132.196 116.324ZM60.5687 58.3149C60.5687 42.3978 73.3024 29.4871 89.2196 29.4871C105.137 29.4871 118.047 42.2209 118.047 58.1381C118.047 74.0552 105.314 86.9659 89.2196 86.9659C73.4793 86.9659 60.5687 74.0556 60.5687 58.3149ZM43.9439 137.017C43.9439 112.787 63.5752 93.1559 87.9817 92.979H90.9882C105.137 92.979 118.578 99.8765 126.891 111.549C116.279 115.97 108.851 126.582 108.851 138.608C108.851 142.145 109.559 146.036 110.973 149.75H43.9439V137.017Z" fill="#4D1A2D"/>
<path d="M126.006 141.792H134.849V150.635C134.849 152.403 136.264 153.818 138.032 153.818C139.801 153.818 141.216 152.403 141.216 150.635V141.792H150.059C151.827 141.792 153.242 140.377 153.242 138.608C153.242 136.84 151.827 135.425 150.059 135.425H141.216V126.759C141.216 124.99 139.801 123.575 138.032 123.575C136.264 123.575 134.849 124.99 134.849 126.759V135.425H126.006C124.237 135.425 122.822 136.84 122.822 138.608C122.822 140.377 124.237 141.792 126.006 141.792Z" fill="#4D1A2D"/>
</g>
<defs>
<clipPath id="clip0_181_3375">
<rect width="145" height="145" fill="white" transform="translate(30 23)"/>
</clipPath>
</defs>
</svg>
