<svg width="204" height="190" viewBox="0 0 204 190" fill="none" xmlns="http://www.w3.org/2000/svg">
<rect width="204" height="190" rx="28" fill="#FFDDDD"/>
<path d="M164.15 108.526L153.099 89.3858C152.841 88.9392 152.438 88.594 151.958 88.4071L128.626 79.3349C129.352 76.8838 129.744 74.2905 129.744 71.6072C129.744 56.5846 117.522 44.363 102.5 44.363C87.4771 44.363 75.2554 56.5846 75.2554 71.6072C75.2554 74.2908 75.6474 76.8838 76.3735 79.3349L53.0413 88.4071C52.5607 88.594 52.158 88.9392 51.9002 89.3858L40.8494 108.526C40.5189 109.098 40.4549 109.787 40.6743 110.41C40.8935 111.034 41.3744 111.531 41.9904 111.77L51.5964 115.505V146.68C51.5964 147.615 52.1701 148.453 53.0413 148.792L101.678 167.703C101.943 167.806 102.221 167.857 102.499 167.857C102.778 167.857 103.056 167.806 103.32 167.703L151.957 148.792C152.828 148.453 153.402 147.615 153.402 146.68V115.505L163.008 111.77C163.624 111.531 164.105 111.034 164.324 110.41C164.544 109.787 164.48 109.098 164.15 108.526ZM102.5 48.8943C115.024 48.8943 125.213 59.0833 125.213 71.6072C125.213 84.131 115.024 94.3201 102.5 94.3201C89.976 94.3201 79.787 84.131 79.787 71.6072C79.787 59.0833 89.9758 48.8943 102.5 48.8943ZM102.5 98.8513C113.295 98.8513 122.644 92.5401 127.05 83.4136L144.93 90.5011L102.5 106.999L60.0689 90.5011L77.949 83.4136C82.3556 92.5401 91.7044 98.8513 102.5 98.8513ZM46.0946 108.504L54.8529 93.3345L99.217 110.585L90.4586 125.754L46.0946 108.504ZM56.1282 117.267L90.6283 130.682C91.6702 131.087 92.8523 130.671 93.4113 129.703L100.234 117.886V162.28L56.1282 145.13V117.267ZM148.872 145.13L104.765 162.28V117.886L111.588 129.703C112.148 130.672 113.33 131.087 114.371 130.682L148.872 117.267V145.13ZM114.541 125.754L105.782 110.585L150.147 93.3345L158.905 108.504L114.541 125.754ZM96.8627 86.3241C98.4311 86.3241 99.9071 85.7118 101.019 84.6002L118.68 66.9388C120.975 64.6438 120.975 60.9094 118.68 58.6138C117.569 57.5022 116.09 56.8899 114.518 56.8899C112.946 56.8899 111.468 57.5022 110.356 58.6138L97.3552 71.6148L93.8854 67.2487C92.7633 65.8372 91.0848 65.0275 89.2805 65.0275C87.9588 65.0275 86.6603 65.4812 85.6238 66.3047C83.0863 68.3226 82.6632 72.0286 84.6802 74.5658L92.0726 83.8684C93.1777 85.4079 94.9624 86.3244 96.8627 86.3241ZM88.4431 69.8516C88.7478 69.6094 89.0664 69.5585 89.2802 69.5585C89.6951 69.5585 90.0805 69.7442 90.3377 70.0677L95.3872 76.4222C95.7891 76.9277 96.3872 77.2378 97.0321 77.2746C97.6752 77.3106 98.3065 77.0713 98.763 76.6148L113.56 61.818C113.815 61.5619 114.156 61.4212 114.518 61.4212C114.88 61.4212 115.22 61.5622 115.476 61.8177C116.004 62.3464 116.004 63.2065 115.476 63.735L97.8145 81.3964C97.4866 81.724 97.1156 81.7928 96.8621 81.7928C96.4087 81.7928 96.0006 81.5804 95.7421 81.2103C95.7152 81.1718 95.6874 81.1344 95.6582 81.0979L88.2273 71.7465C87.7645 71.1645 87.8617 70.3143 88.4431 69.8516ZM100.234 36.0176V25.4062C100.234 24.1551 101.248 23.1406 102.5 23.1406C103.751 23.1406 104.765 24.1551 104.765 25.4062V36.0176C104.765 37.2688 103.751 38.2832 102.5 38.2832C101.248 38.2832 100.234 37.2688 100.234 36.0176ZM77.3574 32.4305C76.7318 31.347 77.1033 29.9613 78.1869 29.3357C79.2701 28.7104 80.6561 29.0814 81.2817 30.1649L86.5872 39.3546C87.2128 40.4381 86.8416 41.8238 85.758 42.4494C85.4012 42.6553 85.0115 42.7533 84.6272 42.7533C83.8441 42.7533 83.0829 42.3469 82.6629 41.6202L77.3574 32.4305ZM60.2284 46.8575C60.854 45.7737 62.2397 45.4024 63.3232 46.0283L72.5129 51.3338C73.5964 51.9594 73.9677 53.3451 73.3421 54.4286C72.9227 55.1553 72.1609 55.5617 71.3778 55.5617C70.9935 55.5617 70.6041 55.4637 70.2473 55.2578L61.0576 49.9523C59.9741 49.3267 59.6028 47.941 60.2284 46.8575ZM53.4372 71.0107C53.4372 69.7595 54.4513 68.7451 55.7028 68.7451H66.3139C67.5653 68.7451 68.5795 69.7595 68.5795 71.0107C68.5795 72.2619 67.5653 73.2764 66.3139 73.2764H55.7028C54.4513 73.2764 53.4372 72.2622 53.4372 71.0107ZM118.253 39.9507L123.558 30.7611C124.184 29.6772 125.57 29.3057 126.653 29.9318C127.737 30.5574 128.108 31.9431 127.483 33.0267L122.177 42.2163C121.757 42.943 120.996 43.3494 120.213 43.3494C119.828 43.3494 119.439 43.2514 119.082 43.0456C117.998 42.4202 117.627 41.0345 118.253 39.9507ZM131.061 55.4615C130.436 54.3779 130.807 52.9922 131.891 52.3666L141.08 47.0611C142.164 46.4358 143.55 46.8071 144.175 47.8903C144.801 48.9738 144.429 50.3596 143.346 50.9852L134.156 56.2907C133.799 56.4966 133.41 56.5946 133.026 56.5946C132.242 56.5946 131.481 56.1882 131.061 55.4615ZM137.493 69.9377H148.104C149.356 69.9377 150.37 70.9521 150.37 72.2033C150.37 73.4545 149.356 74.4689 148.104 74.4689H137.493C136.242 74.4689 135.228 73.4545 135.228 72.2033C135.228 70.9521 136.242 69.9377 137.493 69.9377Z" fill="#4D1A2D"/>
</svg>
