<svg width="25" height="25" viewBox="0 0 25 25" fill="none" xmlns="http://www.w3.org/2000/svg">
<g clip-path="url(#clip0_46_2217)">
<path d="M3.41846 8.7124H1.09863C0.694336 8.7124 0.366211 9.04053 0.366211 9.44482V19.3467C0.366211 19.7515 0.694336 20.0791 1.09863 20.0791H5.06689L6.42871 22.3545L7.7959 20.0791H12.3042" stroke="#FFDDDD" stroke-width="0.75" stroke-miterlimit="10" stroke-linecap="round" stroke-linejoin="round"/>
<path d="M18.9424 8.7124H23.9014C24.3057 8.7124 24.6338 9.04053 24.6338 9.44482V19.3467C24.6338 19.7515 24.3057 20.0791 23.9014 20.0791H13.9004" stroke="#FFDDDD" stroke-width="0.75" stroke-miterlimit="10" stroke-linecap="round" stroke-linejoin="round"/>
<path d="M17.3462 8.7124H10.9653" stroke="#FFDDDD" stroke-width="0.75" stroke-miterlimit="10" stroke-linecap="round" stroke-linejoin="round"/>
<path d="M5.48036 5.70371C5.96913 5.4542 6.51844 5.30772 7.0995 5.29405C9.23573 5.24375 10.9833 6.96006 10.9833 9.08506C10.9833 10.3678 10.3461 11.5011 9.37098 12.1871C8.96034 12.4762 8.7079 12.94 8.7079 13.4425V14.3937H5.67469V13.4239C5.67469 12.9317 5.42665 12.4767 5.02284 12.1949C4.03358 11.504 3.38905 10.3536 3.39979 9.05284C3.40711 8.17442 3.71864 7.36289 4.23377 6.71983" stroke="#FFDDDD" stroke-width="0.75" stroke-miterlimit="10" stroke-linecap="round" stroke-linejoin="round"/>
<path d="M8.7082 14.3936H5.6748V15.5685C5.6748 15.7572 5.82783 15.9103 6.0166 15.9103H8.36641C8.55518 15.9103 8.7082 15.7572 8.7082 15.5685V14.3936Z" stroke="#FFDDDD" stroke-width="0.75" stroke-miterlimit="10" stroke-linecap="round" stroke-linejoin="round"/>
<path d="M7.84077 17.054H6.54224L6.05396 15.9102H8.32905L7.84077 17.054Z" stroke="#FFDDDD" stroke-width="0.75" stroke-miterlimit="10" stroke-linecap="round" stroke-linejoin="round"/>
<path d="M7.1915 14.3939V11.3608L5.6748 9.08545" stroke="#FFDDDD" stroke-width="0.75" stroke-miterlimit="10" stroke-linecap="round" stroke-linejoin="round"/>
<path d="M8.70811 9.08545L7.19141 11.3608" stroke="#FFDDDD" stroke-width="0.75" stroke-miterlimit="10" stroke-linecap="round" stroke-linejoin="round"/>
<path d="M13.2583 11.2515H22.3586" stroke="#FFDDDD" stroke-width="0.75" stroke-miterlimit="10" stroke-linecap="round" stroke-linejoin="round"/>
<path d="M13.2583 12.7661H22.3586" stroke="#FFDDDD" stroke-width="0.75" stroke-miterlimit="10" stroke-linecap="round" stroke-linejoin="round"/>
<path d="M13.2583 14.2812H22.3586" stroke="#FFDDDD" stroke-width="0.75" stroke-miterlimit="10" stroke-linecap="round" stroke-linejoin="round"/>
<path d="M13.2583 15.7959H22.3586" stroke="#FFDDDD" stroke-width="0.75" stroke-miterlimit="10" stroke-linecap="round" stroke-linejoin="round"/>
<path d="M13.2583 17.311H18.5668" stroke="#FFDDDD" stroke-width="0.75" stroke-miterlimit="10" stroke-linecap="round" stroke-linejoin="round"/>
<path d="M7.19141 2.64551V3.40386" stroke="#FFDDDD" stroke-width="0.75" stroke-miterlimit="10" stroke-linecap="round" stroke-linejoin="round"/>
<path d="M10.9832 3.66162L10.604 4.31836" stroke="#FFDDDD" stroke-width="0.75" stroke-miterlimit="10" stroke-linecap="round" stroke-linejoin="round"/>
<path d="M13.7591 6.4375L13.1023 6.81665" stroke="#FFDDDD" stroke-width="0.75" stroke-miterlimit="10" stroke-linecap="round" stroke-linejoin="round"/>
<path d="M3.39966 3.66162L3.77886 4.31836" stroke="#FFDDDD" stroke-width="0.75" stroke-miterlimit="10" stroke-linecap="round" stroke-linejoin="round"/>
<path d="M0.624023 6.4375L1.28076 6.81665" stroke="#FFDDDD" stroke-width="0.75" stroke-miterlimit="10" stroke-linecap="round" stroke-linejoin="round"/>
</g>
<defs>
<clipPath id="clip0_46_2217">
<rect width="25" height="25" fill="white"/>
</clipPath>
</defs>
</svg>
