<svg width="18" height="16" viewBox="0 0 18 16" fill="none" xmlns="http://www.w3.org/2000/svg">
<path d="M3.75031 7.90526C3.00857 7.90526 2.28349 7.68531 1.66675 7.27322C1.05002 6.86113 0.56933 6.27541 0.285477 5.59013C0.00162495 4.90485 -0.0726438 4.15079 0.0720629 3.4233C0.21677 2.69581 0.573952 2.02757 1.09844 1.50308C1.62293 0.978585 2.29118 0.621402 3.01866 0.476695C3.74615 0.331989 4.50022 0.406258 5.1855 0.69011C5.87078 0.973962 6.4565 1.45465 6.86859 2.07138C7.28067 2.68812 7.50063 3.41321 7.50063 4.15495C7.49952 5.14925 7.10404 6.10252 6.40096 6.8056C5.69788 7.50868 4.74462 7.90415 3.75031 7.90526ZM3.75031 1.53109C3.23107 1.53088 2.72343 1.68468 2.2916 1.97303C1.85978 2.26138 1.52318 2.67132 1.32437 3.151C1.12557 3.63068 1.0735 4.15855 1.17475 4.66783C1.276 5.17711 1.52602 5.64492 1.89318 6.01208C2.26034 6.37924 2.72815 6.62926 3.23743 6.73051C3.74671 6.83176 4.27458 6.77969 4.75426 6.58089C5.23394 6.38209 5.64388 6.04548 5.93223 5.61366C6.22058 5.18184 6.37438 4.67419 6.37417 4.15495C6.37335 3.45921 6.09667 2.7922 5.60481 2.30014C5.11295 1.80809 4.44605 1.53219 3.75031 1.53109Z" fill="#5D6679"/>
<path d="M15.7525 6.10257H6.56432C6.49138 6.10713 6.41829 6.09671 6.34954 6.07194C6.28079 6.04717 6.21786 6.00858 6.1646 5.95855C6.11134 5.90852 6.06888 5.84811 6.03987 5.78104C6.01085 5.71397 5.99589 5.64168 5.99589 5.5686C5.99589 5.49553 6.01085 5.42323 6.03987 5.35616C6.06888 5.28909 6.11134 5.22868 6.1646 5.17865C6.21786 5.12862 6.28079 5.09003 6.34954 5.06526C6.41829 5.04049 6.49138 5.03007 6.56432 5.03463H15.7525C15.8967 5.04101 16.0408 5.01812 16.1759 4.96733C16.311 4.91654 16.4345 4.8389 16.5388 4.73911C16.6431 4.63931 16.7261 4.51942 16.7828 4.38667C16.8395 4.25392 16.8688 4.11106 16.8688 3.9667C16.8688 3.82234 16.8395 3.67948 16.7828 3.54672C16.7261 3.41397 16.6431 3.29408 16.5388 3.19429C16.4345 3.09449 16.311 3.01686 16.1759 2.96607C16.0408 2.91528 15.8967 2.89238 15.7525 2.89876H6.3313C6.25837 2.90333 6.18527 2.8929 6.11653 2.86813C6.04778 2.84336 5.98483 2.80477 5.93157 2.75474C5.87831 2.70471 5.83587 2.6443 5.80685 2.57724C5.77783 2.51017 5.76286 2.43787 5.76286 2.36479C5.76286 2.29172 5.77783 2.21942 5.80685 2.15236C5.83587 2.08529 5.87831 2.02488 5.93157 1.97485C5.98483 1.92482 6.04778 1.88622 6.11653 1.86145C6.18527 1.83669 6.25837 1.82626 6.3313 1.83083H15.7525C16.0418 1.81651 16.331 1.86114 16.6026 1.96199C16.8741 2.06284 17.1223 2.21781 17.3321 2.4175C17.5419 2.6172 17.709 2.85744 17.8231 3.12366C17.9373 3.38988 17.9962 3.67652 17.9962 3.96618C17.9962 4.25583 17.9373 4.54247 17.8231 4.80869C17.709 5.07491 17.5419 5.31515 17.3321 5.51485C17.1223 5.71454 16.8741 5.86952 16.6026 5.97037C16.331 6.07122 16.0418 6.11688 15.7525 6.10257Z" fill="#5D6679"/>
<path d="M14.2493 15.5954C13.5076 15.5954 12.7825 15.3754 12.1658 14.9633C11.549 14.5513 11.0683 13.9655 10.7845 13.2803C10.5006 12.595 10.4264 11.8409 10.5711 11.1134C10.7158 10.3859 11.073 9.7177 11.5975 9.19321C12.122 8.66872 12.7902 8.31153 13.5177 8.16682C14.2452 8.02212 14.9992 8.09637 15.6845 8.38023C16.3698 8.66408 16.9555 9.14477 17.3676 9.76151C17.7797 10.3782 17.9997 11.1033 17.9997 11.8451C17.9985 12.8394 17.6031 13.7926 16.9 14.4957C16.1969 15.1988 15.2436 15.5943 14.2493 15.5954ZM14.2493 9.22121C13.7302 9.22121 13.2227 9.37515 12.791 9.66358C12.3594 9.952 12.0229 10.362 11.8242 10.8416C11.6256 11.3212 11.5736 11.849 11.6749 12.3582C11.7762 12.8674 12.0261 13.3351 12.3932 13.7022C12.7603 14.0693 13.2281 14.3193 13.7372 14.4206C14.2464 14.5219 14.7742 14.4699 15.2538 14.2712C15.7335 14.0725 16.1434 13.7361 16.4319 13.3044C16.7203 12.8728 16.8743 12.3653 16.8743 11.8461C16.8737 11.15 16.597 10.4826 16.1049 9.99025C15.6127 9.49794 14.9454 9.22099 14.2493 9.22016V9.22121Z" fill="#5D6679"/>
<path d="M11.438 13.7286H2.24872C1.96271 13.7518 1.675 13.7155 1.40372 13.622C1.13245 13.5284 0.883494 13.3797 0.672553 13.1852C0.461613 12.9906 0.293262 12.7545 0.178113 12.4917C0.0629651 12.2289 0.00351715 11.945 0.00351715 11.6581C0.00351715 11.3711 0.0629651 11.0873 0.178113 10.8245C0.293262 10.5616 0.461613 10.3255 0.672553 10.131C0.883494 9.93643 1.13245 9.78772 1.40372 9.69418C1.675 9.60065 1.96271 9.56433 2.24872 9.58751H11.67C11.7438 9.57754 11.8189 9.58347 11.8903 9.60492C11.9617 9.62637 12.0276 9.66284 12.0837 9.71188C12.1398 9.76092 12.1848 9.8214 12.2156 9.88925C12.2464 9.9571 12.2624 10.0308 12.2624 10.1053C12.2624 10.1798 12.2464 10.2535 12.2156 10.3213C12.1848 10.3892 12.1398 10.4496 12.0837 10.4987C12.0276 10.5477 11.9617 10.5842 11.8903 10.6056C11.8189 10.6271 11.7438 10.633 11.67 10.6231H2.24872C2.10548 10.611 1.96131 10.6288 1.82531 10.6753C1.68931 10.7219 1.56446 10.7962 1.45864 10.8934C1.35283 10.9907 1.26835 11.1089 1.21057 11.2406C1.15279 11.3722 1.12296 11.5143 1.12296 11.6581C1.12296 11.8018 1.15279 11.944 1.21057 12.0756C1.26835 12.2072 1.35283 12.3254 1.45864 12.4227C1.56446 12.52 1.68931 12.5942 1.82531 12.6408C1.96131 12.6873 2.10548 12.7051 2.24872 12.6931H11.4369C11.5108 12.6831 11.5859 12.6891 11.6573 12.7105C11.7286 12.732 11.7946 12.7684 11.8507 12.8175C11.9068 12.8665 11.9518 12.927 11.9826 12.9948C12.0134 13.0627 12.0293 13.1363 12.0293 13.2109C12.0293 13.2854 12.0134 13.359 11.9826 13.4269C11.9518 13.4947 11.9068 13.5552 11.8507 13.6042C11.7946 13.6533 11.7286 13.6898 11.6573 13.7112C11.5859 13.7327 11.5118 13.7386 11.438 13.7286Z" fill="#5D6679"/>
</svg>
