<svg width="22" height="22" viewBox="0 0 22 22" fill="none" xmlns="http://www.w3.org/2000/svg">
<g clip-path="url(#clip0_433_11233)">
<path d="M19.7083 20.1666H2.29167C1.0285 20.1666 0 19.1381 0 17.875V16.0416C0 15.7886 0.205333 15.5833 0.458333 15.5833H0.916667C1.92775 15.5833 2.75 14.7611 2.75 13.75C2.75 12.7389 1.92775 11.9166 0.916667 11.9166H0.458333C0.205333 11.9166 0 11.7113 0 11.4583V9.62498C0 8.36181 1.0285 7.33331 2.29167 7.33331H19.7083C20.9715 7.33331 22 8.36181 22 9.62498V11.4583C22 11.7113 21.7947 11.9166 21.5417 11.9166H21.0833C20.0723 11.9166 19.25 12.7389 19.25 13.75C19.25 14.2395 19.4407 14.6996 19.7872 15.0461C20.1328 15.3926 20.5929 15.5833 21.0824 15.5833H21.5408C21.7938 15.5833 21.9991 15.7886 21.9991 16.0416V17.875C22 19.1381 20.9715 20.1666 19.7083 20.1666ZM0.916667 16.5V17.875C0.916667 18.6331 1.53358 19.25 2.29167 19.25H19.7083C20.4664 19.25 21.0833 18.6331 21.0833 17.875V16.5C20.3491 16.5 19.6579 16.214 19.1391 15.6951C18.6193 15.1754 18.3333 14.4842 18.3333 13.75C18.3333 12.2338 19.5672 11 21.0833 11V9.62498C21.0833 8.8669 20.4664 8.24998 19.7083 8.24998H2.29167C1.53358 8.24998 0.916667 8.8669 0.916667 9.62498V11C2.43283 11 3.66667 12.2338 3.66667 13.75C3.66667 15.2661 2.43283 16.5 0.916667 16.5Z" fill="#4D1A2D"/>
<path d="M7.79232 9.16683C7.53932 9.16683 7.33398 8.9615 7.33398 8.7085V7.79183C7.33398 7.53883 7.53932 7.3335 7.79232 7.3335C8.04532 7.3335 8.25065 7.53883 8.25065 7.79183V8.7085C8.25065 8.9615 8.04532 9.16683 7.79232 9.16683Z" fill="#4D1A2D"/>
<path d="M7.79232 16.9228C7.53932 16.9228 7.33398 16.7175 7.33398 16.4645V14.9144C7.33398 14.6614 7.53932 14.4561 7.79232 14.4561C8.04532 14.4561 8.25065 14.6605 8.25065 14.9144V16.4654C8.25065 16.7184 8.04532 16.9228 7.79232 16.9228ZM7.79232 13.0453C7.53932 13.0453 7.33398 12.84 7.33398 12.587V11.036C7.33398 10.783 7.53932 10.5776 7.79232 10.5776C8.04532 10.5776 8.25065 10.783 8.25065 11.036V12.587C8.25065 12.84 8.04532 13.0453 7.79232 13.0453Z" fill="#4D1A2D"/>
<path d="M7.79232 20.1668C7.53932 20.1668 7.33398 19.9615 7.33398 19.7085V18.7918C7.33398 18.5388 7.53932 18.3335 7.79232 18.3335C8.04532 18.3335 8.25065 18.5388 8.25065 18.7918V19.7085C8.25065 19.9615 8.04532 20.1668 7.79232 20.1668Z" fill="#4D1A2D"/>
<path d="M2.29231 8.24988C2.10622 8.24988 1.93114 8.13622 1.86331 7.95197C1.77439 7.71455 1.89447 7.45055 2.13189 7.36255L16.7069 1.9203C17.4155 1.65447 18.2478 2.0523 18.4898 2.76638L20.1426 7.64397C20.2232 7.88413 20.0949 8.14355 19.8556 8.22513C19.6182 8.30672 19.3561 8.17747 19.2745 7.93822L17.6217 3.06063C17.5411 2.8223 17.2642 2.69213 17.0268 2.7783L2.45181 8.22055C2.39956 8.24072 2.34547 8.24988 2.29231 8.24988Z" fill="#4D1A2D"/>
</g>
<defs>
<clipPath id="clip0_433_11233">
<rect width="22" height="22" fill="white"/>
</clipPath>
</defs>
</svg>
