<svg width="44" height="44" viewBox="0 0 44 44" fill="none" xmlns="http://www.w3.org/2000/svg">
<rect x="0.5" y="0.5" width="43" height="43" rx="5.5" stroke="#7BAED3"/>
<g clip-path="url(#clip0_487_1959)">
<path d="M30.7083 30.1666H13.2917C12.0285 30.1666 11 29.1381 11 27.875V26.0416C11 25.7886 11.2053 25.5833 11.4583 25.5833H11.9167C12.9278 25.5833 13.75 24.7611 13.75 23.75C13.75 22.7389 12.9278 21.9166 11.9167 21.9166H11.4583C11.2053 21.9166 11 21.7113 11 21.4583V19.625C11 18.3618 12.0285 17.3333 13.2917 17.3333H30.7083C31.9715 17.3333 33 18.3618 33 19.625V21.4583C33 21.7113 32.7947 21.9166 32.5417 21.9166H32.0833C31.0723 21.9166 30.25 22.7389 30.25 23.75C30.25 24.2395 30.4407 24.6996 30.7872 25.0461C31.1328 25.3926 31.5929 25.5833 32.0824 25.5833H32.5408C32.7938 25.5833 32.9991 25.7886 32.9991 26.0416V27.875C33 29.1381 31.9715 30.1666 30.7083 30.1666ZM11.9167 26.5V27.875C11.9167 28.6331 12.5336 29.25 13.2917 29.25H30.7083C31.4664 29.25 32.0833 28.6331 32.0833 27.875V26.5C31.3491 26.5 30.6579 26.214 30.1391 25.6951C29.6193 25.1754 29.3333 24.4842 29.3333 23.75C29.3333 22.2338 30.5672 21 32.0833 21V19.625C32.0833 18.8669 31.4664 18.25 30.7083 18.25H13.2917C12.5336 18.25 11.9167 18.8669 11.9167 19.625V21C13.4328 21 14.6667 22.2338 14.6667 23.75C14.6667 25.2661 13.4328 26.5 11.9167 26.5Z" fill="#7BAED3"/>
<path d="M18.7923 19.1668C18.5393 19.1668 18.334 18.9615 18.334 18.7085V17.7918C18.334 17.5388 18.5393 17.3335 18.7923 17.3335C19.0453 17.3335 19.2507 17.5388 19.2507 17.7918V18.7085C19.2507 18.9615 19.0453 19.1668 18.7923 19.1668Z" fill="#7BAED3"/>
<path d="M18.7923 26.9228C18.5393 26.9228 18.334 26.7175 18.334 26.4645V24.9144C18.334 24.6614 18.5393 24.4561 18.7923 24.4561C19.0453 24.4561 19.2507 24.6605 19.2507 24.9144V26.4654C19.2507 26.7184 19.0453 26.9228 18.7923 26.9228ZM18.7923 23.0453C18.5393 23.0453 18.334 22.84 18.334 22.587V21.036C18.334 20.783 18.5393 20.5776 18.7923 20.5776C19.0453 20.5776 19.2507 20.783 19.2507 21.036V22.587C19.2507 22.84 19.0453 23.0453 18.7923 23.0453Z" fill="#7BAED3"/>
<path d="M18.7923 30.1668C18.5393 30.1668 18.334 29.9615 18.334 29.7085V28.7918C18.334 28.5388 18.5393 28.3335 18.7923 28.3335C19.0453 28.3335 19.2507 28.5388 19.2507 28.7918V29.7085C19.2507 29.9615 19.0453 30.1668 18.7923 30.1668Z" fill="#7BAED3"/>
<path d="M13.2923 18.2499C13.1062 18.2499 12.9311 18.1362 12.8633 17.952C12.7744 17.7145 12.8945 17.4505 13.1319 17.3625L27.7069 11.9203C28.4155 11.6545 29.2478 12.0523 29.4898 12.7664L31.1426 17.644C31.2232 17.8841 31.0949 18.1435 30.8556 18.2251C30.6182 18.3067 30.3561 18.1775 30.2745 17.9382L28.6217 13.0606C28.5411 12.8223 28.2642 12.6921 28.0268 12.7783L13.4518 18.2205C13.3996 18.2407 13.3455 18.2499 13.2923 18.2499Z" fill="#7BAED3"/>
</g>
<defs>
<clipPath id="clip0_487_1959">
<rect width="22" height="22" fill="white" transform="translate(11 10)"/>
</clipPath>
</defs>
</svg>
