<svg width="29" height="29" viewBox="0 0 29 29" fill="none" xmlns="http://www.w3.org/2000/svg">
<path d="M10.8753 26.5833H18.1253C24.167 26.5833 26.5837 24.1667 26.5837 18.125V10.875C26.5837 4.83332 24.167 2.41666 18.1253 2.41666H10.8753C4.83366 2.41666 2.41699 4.83332 2.41699 10.875V18.125C2.41699 24.1667 4.83366 26.5833 10.8753 26.5833Z" stroke="#292D32" stroke-width="1.5" stroke-linecap="round" stroke-linejoin="round"/>
<mask id="path-2-inside-1_433_10119" fill="white">
<path d="M10.5313 13.5219L14.7531 15.9594C14.8004 15.9875 14.8544 16.0026 14.9094 16.0031C14.9644 16.0026 15.0183 15.9875 15.0656 15.9594L19.2938 13.5219C19.3414 13.4943 19.381 13.4547 19.4084 13.407C19.4359 13.3592 19.4502 13.3051 19.45 13.25V8.375C19.4502 8.31994 19.4359 8.26579 19.4084 8.21805C19.381 8.17031 19.3414 8.13066 19.2938 8.10313L15.0656 5.6625C15.0181 5.63508 14.9642 5.62064 14.9094 5.62064C14.8545 5.62064 14.8006 5.63508 14.7531 5.6625L10.5313 8.1C10.4836 8.12754 10.444 8.16718 10.4166 8.21492C10.3891 8.26267 10.3748 8.31681 10.375 8.37188V13.25C10.3748 13.3051 10.3891 13.3592 10.4166 13.407C10.444 13.4547 10.4836 13.4943 10.5313 13.5219ZM11 8.91563L14.5969 10.9906V15.15L11 13.0625V8.91563ZM12.9031 7.45313L16.25 9.68125L14.9156 10.45L11.3094 8.375L12.9031 7.45313ZM15.2219 15.15V10.9906L16.525 10.25V11.3688C16.525 11.4516 16.5579 11.5311 16.6165 11.5897C16.6751 11.6483 16.7546 11.6813 16.8375 11.6813C16.9204 11.6813 16.9999 11.6483 17.0585 11.5897C17.1171 11.5311 17.15 11.4516 17.15 11.3688V9.88125L18.825 8.9125V13.0625L15.2219 15.15ZM14.9094 6.29375L18.5125 8.375L16.8469 9.33438L13.5063 7.10313L14.9094 6.29375Z"/>
</mask>
<path d="M10.5313 13.5219L14.7531 15.9594C14.8004 15.9875 14.8544 16.0026 14.9094 16.0031C14.9644 16.0026 15.0183 15.9875 15.0656 15.9594L19.2938 13.5219C19.3414 13.4943 19.381 13.4547 19.4084 13.407C19.4359 13.3592 19.4502 13.3051 19.45 13.25V8.375C19.4502 8.31994 19.4359 8.26579 19.4084 8.21805C19.381 8.17031 19.3414 8.13066 19.2938 8.10313L15.0656 5.6625C15.0181 5.63508 14.9642 5.62064 14.9094 5.62064C14.8545 5.62064 14.8006 5.63508 14.7531 5.6625L10.5313 8.1C10.4836 8.12754 10.444 8.16718 10.4166 8.21492C10.3891 8.26267 10.3748 8.31681 10.375 8.37188V13.25C10.3748 13.3051 10.3891 13.3592 10.4166 13.407C10.444 13.4547 10.4836 13.4943 10.5313 13.5219ZM11 8.91563L14.5969 10.9906V15.15L11 13.0625V8.91563ZM12.9031 7.45313L16.25 9.68125L14.9156 10.45L11.3094 8.375L12.9031 7.45313ZM15.2219 15.15V10.9906L16.525 10.25V11.3688C16.525 11.4516 16.5579 11.5311 16.6165 11.5897C16.6751 11.6483 16.7546 11.6813 16.8375 11.6813C16.9204 11.6813 16.9999 11.6483 17.0585 11.5897C17.1171 11.5311 17.15 11.4516 17.15 11.3688V9.88125L18.825 8.9125V13.0625L15.2219 15.15ZM14.9094 6.29375L18.5125 8.375L16.8469 9.33438L13.5063 7.10313L14.9094 6.29375Z" fill="#292D32"/>
<path d="M10.5313 13.5219L11.5313 11.7898L11.5312 11.7898L10.5313 13.5219ZM14.7531 15.9594L15.7739 14.2395L15.7635 14.2333L15.7531 14.2273L14.7531 15.9594ZM14.9094 16.0031L14.8886 18.003L14.9094 18.0032L14.9301 18.003L14.9094 16.0031ZM15.0656 15.9594L14.0667 14.2267L14.0558 14.233L14.0449 14.2395L15.0656 15.9594ZM19.2938 13.5219L20.2926 15.2546L20.2937 15.2539L19.2938 13.5219ZM19.45 13.25L17.45 13.25L17.45 13.2579L19.45 13.25ZM19.45 8.375L17.45 8.36706V8.375H19.45ZM19.2938 8.10313L20.2937 6.37107L20.2936 6.37099L19.2938 8.10313ZM15.0656 5.6625L14.0656 7.39455L14.0658 7.39464L15.0656 5.6625ZM14.9094 5.62064V3.62064V5.62064ZM14.7531 5.6625L15.7531 7.39455L14.7531 5.6625ZM10.5313 8.1L11.5312 9.83206L11.5313 9.83205L10.5313 8.1ZM10.375 8.37188H12.375L12.375 8.36394L10.375 8.37188ZM10.375 13.25L12.375 13.2579V13.25H10.375ZM11 8.91563L11.9994 7.18323L9 5.45291V8.91563H11ZM14.5969 10.9906H16.5969V9.83547L15.5963 9.25823L14.5969 10.9906ZM14.5969 15.15L13.593 16.8798L16.5969 18.6232V15.15H14.5969ZM11 13.0625H9V14.2142L9.99609 14.7923L11 13.0625ZM12.9031 7.45313L14.0115 5.78831L12.9772 5.09979L11.9017 5.72189L12.9031 7.45313ZM16.25 9.68125L17.2484 11.4142L20.0434 9.80399L17.3583 8.01644L16.25 9.68125ZM14.9156 10.45L13.9182 12.1835L14.9163 12.7578L15.914 12.183L14.9156 10.45ZM11.3094 8.375L10.308 6.64376L7.30709 8.37957L10.3119 10.1085L11.3094 8.375ZM15.2219 15.15H13.2219V18.6201L16.2245 16.8805L15.2219 15.15ZM15.2219 10.9906L14.2336 9.25184L13.2219 9.82687V10.9906H15.2219ZM16.525 10.25H18.525V6.81286L15.5368 8.51121L16.525 10.25ZM17.15 9.88125L16.1487 8.14996L15.15 8.72756V9.88125H17.15ZM18.825 8.9125H20.825V5.44538L17.8237 7.18121L18.825 8.9125ZM18.825 13.0625L19.8276 14.793L20.825 14.2152V13.0625H18.825ZM14.9094 6.29375L15.9097 4.56191L14.9101 3.98447L13.91 4.56132L14.9094 6.29375ZM18.5125 8.375L19.5107 10.1081L22.5153 8.37746L19.5129 6.64316L18.5125 8.375ZM16.8469 9.33438L15.736 10.9975L16.7689 11.6874L17.8451 11.0675L16.8469 9.33438ZM13.5063 7.10313L12.5069 5.37069L9.71917 6.97877L12.3954 8.76627L13.5063 7.10313ZM9.53125 15.2539L13.7531 17.6914L15.7531 14.2273L11.5313 11.7898L9.53125 15.2539ZM13.7324 17.6793C14.0825 17.8871 14.4814 17.9988 14.8886 18.003L14.9301 14.0032C15.2273 14.0063 15.5184 14.0878 15.7739 14.2395L13.7324 17.6793ZM14.9301 18.003C15.3373 17.9988 15.7362 17.8871 16.0864 17.6793L14.0449 14.2395C14.3004 14.0878 14.5915 14.0063 14.8886 14.0032L14.9301 18.003ZM16.0645 17.6921L20.2926 15.2546L18.2949 11.7892L14.0667 14.2267L16.0645 17.6921ZM20.2937 15.2539C20.6466 15.0502 20.9394 14.7568 21.1425 14.4035L17.6744 12.4104C17.8226 12.1526 18.0362 11.9385 18.2938 11.7898L20.2937 15.2539ZM21.1425 14.4035C21.3455 14.0502 21.4516 13.6496 21.45 13.2421L17.45 13.2579C17.4488 12.9606 17.5263 12.6682 17.6744 12.4104L21.1425 14.4035ZM21.45 13.25V8.375H17.45V13.25H21.45ZM21.45 8.38294C21.4516 7.97544 21.3455 7.57476 21.1425 7.22148L17.6744 9.21462C17.5263 8.95682 17.4488 8.66443 17.45 8.36706L21.45 8.38294ZM21.1425 7.22148C20.9394 6.86819 20.6466 6.57482 20.2937 6.37107L18.2938 9.83519C18.0362 9.68651 17.8226 9.47242 17.6744 9.21462L21.1425 7.22148ZM20.2936 6.37099L16.0655 3.93037L14.0658 7.39464L18.2939 9.83526L20.2936 6.37099ZM16.0656 3.93045C15.7141 3.72749 15.3153 3.62064 14.9094 3.62064V7.62064C14.6132 7.62064 14.3222 7.54266 14.0656 7.39455L16.0656 3.93045ZM14.9094 3.62064C14.5034 3.62064 14.1047 3.72749 13.7531 3.93045L15.7531 7.39455C15.4966 7.54266 15.2056 7.62064 14.9094 7.62064V3.62064ZM13.7531 3.93045L9.53125 6.36795L11.5313 9.83205L15.7531 7.39455L13.7531 3.93045ZM9.53127 6.36794C9.17838 6.57168 8.88558 6.86505 8.68253 7.21836L12.1506 9.21149C12.0024 9.46931 11.7887 9.68339 11.5312 9.83206L9.53127 6.36794ZM8.68253 7.21836C8.47948 7.57166 8.3734 7.97234 8.37502 8.37982L12.375 8.36394C12.3762 8.66128 12.2988 8.95367 12.1506 9.21149L8.68253 7.21836ZM8.375 8.37188V13.25H12.375V8.37188H8.375ZM8.37502 13.2421C8.3734 13.6495 8.47948 14.0502 8.68253 14.4035L12.1506 12.4104C12.2988 12.6682 12.3762 12.9606 12.375 13.2579L8.37502 13.2421ZM8.68253 14.4035C8.88558 14.7568 9.17839 15.0502 9.53127 15.2539L11.5312 11.7898C11.7887 11.9385 12.0024 12.1526 12.1506 12.4104L8.68253 14.4035ZM10.0006 10.648L13.5975 12.723L15.5963 9.25823L11.9994 7.18323L10.0006 10.648ZM12.5969 10.9906V15.15H16.5969V10.9906H12.5969ZM15.6008 13.4202L12.0039 11.3327L9.99609 14.7923L13.593 16.8798L15.6008 13.4202ZM13 13.0625V8.91563H9V13.0625H13ZM11.7948 9.11795L15.1417 11.3461L17.3583 8.01644L14.0115 5.78831L11.7948 9.11795ZM15.2516 7.94827L13.9172 8.71702L15.914 12.183L17.2484 11.4142L15.2516 7.94827ZM15.9131 8.71648L12.3068 6.64148L10.3119 10.1085L13.9182 12.1835L15.9131 8.71648ZM12.3108 10.1062L13.9045 9.18437L11.9017 5.72189L10.308 6.64376L12.3108 10.1062ZM17.2219 15.15V10.9906H13.2219V15.15H17.2219ZM16.2101 12.7294L17.5132 11.9888L15.5368 8.51121L14.2336 9.25184L16.2101 12.7294ZM14.525 10.25V11.3688H18.525V10.25H14.525ZM14.525 11.3688C14.525 11.9821 14.7686 12.5703 15.2023 13.0039L18.0307 10.1755C18.3472 10.492 18.525 10.9212 18.525 11.3688H14.525ZM15.2023 13.0039C15.636 13.4376 16.2242 13.6813 16.8375 13.6813V9.68125C17.2851 9.68125 17.7143 9.85904 18.0307 10.1755L15.2023 13.0039ZM16.8375 13.6813C17.4508 13.6813 18.039 13.4376 18.4727 13.0039L15.6443 10.1755C15.9607 9.85904 16.39 9.68125 16.8375 9.68125V13.6813ZM18.4727 13.0039C18.9064 12.5703 19.15 11.9821 19.15 11.3688H15.15C15.15 10.9212 15.3278 10.492 15.6443 10.1755L18.4727 13.0039ZM19.15 11.3688V9.88125H15.15V11.3688H19.15ZM18.1513 11.6125L19.8263 10.6438L17.8237 7.18121L16.1487 8.14996L18.1513 11.6125ZM16.825 8.9125V13.0625H20.825V8.9125H16.825ZM17.8224 11.332L14.2193 13.4195L16.2245 16.8805L19.8276 14.793L17.8224 11.332ZM13.909 8.0256L17.5121 10.1068L19.5129 6.64316L15.9097 4.56191L13.909 8.0256ZM17.5143 6.64193L15.8487 7.6013L17.8451 11.0675L19.5107 10.1081L17.5143 6.64193ZM17.9577 7.67124L14.6171 5.43999L12.3954 8.76627L15.736 10.9975L17.9577 7.67124ZM14.5056 8.83556L15.9087 8.02619L13.91 4.56132L12.5069 5.37069L14.5056 8.83556Z" fill="black" mask="url(#path-2-inside-1_433_10119)"/>
<path d="M15.7467 20.325L15.9676 20.104L15.7467 20.325Z" fill="#292D32" stroke="black" stroke-width="2"/>
<mask id="path-5-inside-2_433_10119" fill="white">
<path d="M8.40591 19.15C8.43511 19.179 8.46974 19.2019 8.50782 19.2174C8.54589 19.233 8.58666 19.2409 8.62779 19.2406H8.64341C8.68744 19.2385 8.73053 19.2272 8.76984 19.2072C8.80916 19.1873 8.84382 19.1593 8.87154 19.125L10.434 17.1719C10.4598 17.1397 10.479 17.1028 10.4904 17.0632C10.5019 17.0236 10.5054 16.9821 10.5007 16.9412C10.4961 16.9002 10.4834 16.8606 10.4634 16.8246C10.4433 16.7885 10.4164 16.7568 10.384 16.7313C10.3193 16.6802 10.2369 16.6567 10.155 16.6661C10.073 16.6755 9.9981 16.7169 9.94654 16.7813L8.60591 18.4625L8.01216 17.8719C7.98311 17.8426 7.94855 17.8194 7.91047 17.8035C7.87239 17.7876 7.83154 17.7795 7.79029 17.7795C7.74903 17.7795 7.70819 17.7876 7.67011 17.8035C7.63203 17.8194 7.59746 17.8426 7.56841 17.8719C7.51021 17.9304 7.47754 18.0096 7.47754 18.0922C7.47754 18.1748 7.51021 18.254 7.56841 18.3125L8.40591 19.15Z"/>
</mask>
<path d="M8.40591 19.15C8.43511 19.179 8.46974 19.2019 8.50782 19.2174C8.54589 19.233 8.58666 19.2409 8.62779 19.2406H8.64341C8.68744 19.2385 8.73053 19.2272 8.76984 19.2072C8.80916 19.1873 8.84382 19.1593 8.87154 19.125L10.434 17.1719C10.4598 17.1397 10.479 17.1028 10.4904 17.0632C10.5019 17.0236 10.5054 16.9821 10.5007 16.9412C10.4961 16.9002 10.4834 16.8606 10.4634 16.8246C10.4433 16.7885 10.4164 16.7568 10.384 16.7313C10.3193 16.6802 10.2369 16.6567 10.155 16.6661C10.073 16.6755 9.9981 16.7169 9.94654 16.7813L8.60591 18.4625L8.01216 17.8719C7.98311 17.8426 7.94855 17.8194 7.91047 17.8035C7.87239 17.7876 7.83154 17.7795 7.79029 17.7795C7.74903 17.7795 7.70819 17.7876 7.67011 17.8035C7.63203 17.8194 7.59746 17.8426 7.56841 17.8719C7.51021 17.9304 7.47754 18.0096 7.47754 18.0922C7.47754 18.1748 7.51021 18.254 7.56841 18.3125L8.40591 19.15Z" fill="#292D32"/>
<path d="M8.40591 19.15L6.99169 20.5642L6.99747 20.57L8.40591 19.15ZM8.62779 19.2406V17.2406L8.61622 17.2407L8.62779 19.2406ZM8.64341 19.2406V21.2406H8.69095L8.73843 21.2384L8.64341 19.2406ZM8.87154 19.125L10.4266 20.3828L10.4333 20.3744L8.87154 19.125ZM10.434 17.1719L8.87366 15.9208L8.8723 15.9225L10.434 17.1719ZM10.384 16.7313L11.6244 15.1624L11.6229 15.1611L10.384 16.7313ZM9.94654 16.7813L8.38538 15.5311L8.38282 15.5344L9.94654 16.7813ZM8.60591 18.4625L7.19543 19.8805L8.77798 21.4547L10.1696 19.7094L8.60591 18.4625ZM8.01216 17.8719L6.59213 19.2803L6.60168 19.2898L8.01216 17.8719ZM7.56841 17.8719L8.98683 19.2819L8.98841 19.2803L7.56841 17.8719ZM7.56841 18.3125L6.14999 19.7225L6.1542 19.7267L7.56841 18.3125ZM6.99747 20.57C7.21356 20.7843 7.46982 20.9539 7.75157 21.069L9.26407 17.3659C9.46966 17.4499 9.65666 17.5736 9.81435 17.73L6.99747 20.57ZM7.75157 21.069C8.0333 21.184 8.33499 21.2424 8.63935 21.2406L8.61622 17.2407C8.83832 17.2394 9.05848 17.282 9.26407 17.3659L7.75157 21.069ZM8.62779 21.2406H8.64341V17.2406H8.62779V21.2406ZM8.73843 21.2384C9.06423 21.2229 9.38308 21.1386 9.67403 20.9912L7.86566 17.4233C8.07798 17.3157 8.31065 17.2542 8.54839 17.2429L8.73843 21.2384ZM9.67403 20.9912C9.96498 20.8437 10.2214 20.6364 10.4266 20.3828L7.31652 17.8673C7.4662 17.6822 7.65334 17.5309 7.86566 17.4233L9.67403 20.9912ZM10.4333 20.3744L11.9958 18.4213L8.8723 15.9225L7.3098 17.8756L10.4333 20.3744ZM11.9944 18.423C12.1852 18.185 12.3271 17.9116 12.4118 17.6186L8.56911 16.5078C8.63092 16.2939 8.73443 16.0945 8.87366 15.9208L11.9944 18.423ZM12.4118 17.6186C12.4965 17.3256 12.5224 17.0187 12.488 16.7157L8.51349 17.1667C8.48839 16.9455 8.5073 16.7216 8.56911 16.5078L12.4118 17.6186ZM12.488 16.7157C12.4536 16.4126 12.3596 16.1193 12.2114 15.8527L8.71534 17.7964C8.60718 17.6018 8.53858 17.3878 8.51349 17.1667L12.488 16.7157ZM12.2114 15.8527C12.0632 15.5861 11.8637 15.3515 11.6244 15.1624L9.14366 18.3002C8.96907 18.1621 8.8235 17.9909 8.71534 17.7964L12.2114 15.8527ZM11.6229 15.1611C11.1437 14.783 10.5344 14.6097 9.92789 14.679L10.3821 18.6532C9.93949 18.7038 9.49488 18.5773 9.14519 18.3014L11.6229 15.1611ZM9.92789 14.679C9.3214 14.7484 8.76693 15.0547 8.38538 15.5311L11.5077 18.0314C11.2293 18.3791 10.8247 18.6026 10.3821 18.6532L9.92789 14.679ZM8.38282 15.5344L7.04219 17.2156L10.1696 19.7094L11.5103 18.0282L8.38282 15.5344ZM10.0164 17.0446L9.42264 16.4539L6.60168 19.2898L7.19543 19.8805L10.0164 17.0446ZM9.43216 16.4635C9.21718 16.2467 8.96141 16.0747 8.67962 15.9573L7.14131 19.6497C6.93568 19.564 6.74904 19.4385 6.59216 19.2803L9.43216 16.4635ZM8.67962 15.9573C8.39783 15.8399 8.09558 15.7795 7.79029 15.7795V19.7795C7.5675 19.7795 7.34694 19.7353 7.14131 19.6497L8.67962 15.9573ZM7.79029 15.7795C7.485 15.7795 7.18274 15.8399 6.90095 15.9573L8.43926 19.6497C8.23363 19.7353 8.01307 19.7795 7.79029 19.7795V15.7795ZM6.90095 15.9573C6.61916 16.0747 6.36339 16.2467 6.14841 16.4635L8.98841 19.2803C8.83154 19.4385 8.6449 19.564 8.43926 19.6497L6.90095 15.9573ZM6.15 16.4619C5.71929 16.8952 5.47754 17.4813 5.47754 18.0922H9.47754C9.47754 18.538 9.30113 18.9657 8.98683 19.2819L6.15 16.4619ZM5.47754 18.0922C5.47754 18.7031 5.7193 19.2892 6.15 19.7225L8.98683 16.9025C9.30112 17.2187 9.47754 17.6464 9.47754 18.0922H5.47754ZM6.1542 19.7267L6.9917 20.5642L9.82013 17.7358L8.98263 16.8983L6.1542 19.7267Z" fill="black" mask="url(#path-5-inside-2_433_10119)"/>
<mask id="path-7-inside-3_433_10119" fill="white">
<path d="M16.2681 16.7813L14.9306 18.4625L14.34 17.8719C14.2802 17.8207 14.2033 17.7939 14.1247 17.797C14.046 17.8 13.9714 17.8326 13.9157 17.8883C13.8601 17.9439 13.8275 18.0185 13.8245 18.0972C13.8214 18.1758 13.8482 18.2527 13.8994 18.3125L14.7369 19.15C14.7951 19.2077 14.8736 19.2403 14.9556 19.2406H14.9744C15.0184 19.2385 15.0615 19.2271 15.1008 19.2072C15.1401 19.1873 15.1748 19.1593 15.2025 19.125L16.765 17.1719C16.8168 17.1068 16.8406 17.0238 16.8312 16.9412C16.8219 16.8586 16.78 16.7831 16.715 16.7313C16.6499 16.6795 16.567 16.6556 16.4843 16.665C16.4017 16.6744 16.3262 16.7162 16.2744 16.7813H16.2681Z"/>
</mask>
<path d="M16.2681 16.7813L14.9306 18.4625L14.34 17.8719C14.2802 17.8207 14.2033 17.7939 14.1247 17.797C14.046 17.8 13.9714 17.8326 13.9157 17.8883C13.8601 17.9439 13.8275 18.0185 13.8245 18.0972C13.8214 18.1758 13.8482 18.2527 13.8994 18.3125L14.7369 19.15C14.7951 19.2077 14.8736 19.2403 14.9556 19.2406H14.9744C15.0184 19.2385 15.0615 19.2271 15.1008 19.2072C15.1401 19.1873 15.1748 19.1593 15.2025 19.125L16.765 17.1719C16.8168 17.1068 16.8406 17.0238 16.8312 16.9412C16.8219 16.8586 16.78 16.7831 16.715 16.7313C16.6499 16.6795 16.567 16.6556 16.4843 16.665C16.4017 16.6744 16.3262 16.7162 16.2744 16.7813H16.2681Z" fill="#292D32"/>
<path d="M16.2681 16.7813V14.7813H15.3035L14.703 15.5361L16.2681 16.7813ZM14.9306 18.4625L13.5164 19.8767L15.1008 21.4611L16.4957 19.7076L14.9306 18.4625ZM14.34 17.8719L15.7542 16.4577L15.6996 16.403L15.6409 16.3528L14.34 17.8719ZM13.8994 18.3125L12.3803 19.6134L12.4305 19.6721L12.4851 19.7267L13.8994 18.3125ZM14.7369 19.15L13.3226 20.5642L13.3284 20.57L14.7369 19.15ZM14.9556 19.2406L14.9472 21.2406H14.9556V19.2406ZM14.9744 19.2406V21.2406H15.0219L15.0694 21.2384L14.9744 19.2406ZM15.2025 19.125L16.7575 20.3828L16.7642 20.3744L15.2025 19.125ZM16.765 17.1719L18.3267 18.4213L18.3296 18.4176L16.765 17.1719ZM16.2744 16.7813V18.7813H17.2385L17.839 18.027L16.2744 16.7813ZM14.703 15.5361L13.3655 17.2174L16.4957 19.7076L17.8332 18.0264L14.703 15.5361ZM16.3448 17.0483L15.7542 16.4577L12.9258 19.2861L13.5164 19.8767L16.3448 17.0483ZM15.6409 16.3528C15.1985 15.9739 14.6295 15.776 14.0475 15.7985L14.2019 19.7955C13.7771 19.8119 13.3619 19.6674 13.0391 19.391L15.6409 16.3528ZM14.0475 15.7985C13.4655 15.8209 12.9134 16.0622 12.5015 16.474L15.33 19.3025C15.0294 19.603 14.6266 19.7791 14.2019 19.7955L14.0475 15.7985ZM12.5015 16.474C12.0897 16.8859 11.8484 17.438 11.8259 18.02L15.823 18.1744C15.8066 18.5991 15.6305 19.0019 15.33 19.3025L12.5015 16.474ZM11.8259 18.02C11.8035 18.602 12.0014 19.171 12.3803 19.6134L15.4184 17.0116C15.6949 17.3344 15.8394 17.7497 15.823 18.1744L11.8259 18.02ZM12.4851 19.7267L13.3226 20.5642L16.1511 17.7358L15.3136 16.8983L12.4851 19.7267ZM13.3284 20.57C13.7592 20.9972 14.3405 21.2381 14.9472 21.2406L14.964 17.2406C15.4067 17.2425 15.831 17.4183 16.1453 17.73L13.3284 20.57ZM14.9556 21.2406H14.9744V17.2406H14.9556V21.2406ZM15.0694 21.2384C15.3952 21.2229 15.714 21.1386 16.005 20.9912L14.1966 17.4233C14.4089 17.3157 14.6416 17.2542 14.8793 17.2429L15.0694 21.2384ZM16.005 20.9912C16.2959 20.8437 16.5524 20.6364 16.7575 20.3827L13.6475 17.8673C13.7972 17.6822 13.9843 17.5309 14.1966 17.4233L16.005 20.9912ZM16.7642 20.3744L18.3267 18.4213L15.2032 15.9225L13.6407 17.8756L16.7642 20.3744ZM18.3296 18.4176C18.7118 17.9376 18.8877 17.3254 18.8185 16.7157L14.844 17.1667C14.7936 16.7223 14.9217 16.276 15.2003 15.9261L18.3296 18.4176ZM18.8185 16.7157C18.7493 16.106 18.4408 15.5488 17.9607 15.1666L15.4692 18.2959C15.1193 18.0173 14.8944 17.6111 14.844 17.1667L18.8185 16.7157ZM17.9607 15.1666C17.4807 14.7844 16.8685 14.6086 16.2588 14.6777L16.7098 18.6522C16.2654 18.7027 15.8192 18.5745 15.4692 18.2959L17.9607 15.1666ZM16.2588 14.6777C15.6491 14.7469 15.0919 15.0555 14.7097 15.5355L17.839 18.027C17.5604 18.3769 17.1542 18.6018 16.7098 18.6522L16.2588 14.6777ZM16.2744 14.7813H16.2681V18.7813H16.2744V14.7813Z" fill="black" mask="url(#path-7-inside-3_433_10119)"/>
</svg>
