<svg width="29" height="29" viewBox="0 0 29 29" fill="none" xmlns="http://www.w3.org/2000/svg">
<path d="M21.9194 26.124C20.8561 26.4381 19.5994 26.5831 18.1252 26.5831H10.8752C9.40105 26.5831 8.14439 26.4381 7.08105 26.124C7.34689 22.9823 10.5731 20.5052 14.5002 20.5052C18.4273 20.5052 21.6536 22.9823 21.9194 26.124Z" stroke="#292D32" stroke-width="1.5" stroke-linecap="round" stroke-linejoin="round"/>
<path d="M18.1248 2.41647H10.8748C4.83317 2.41647 2.4165 4.83314 2.4165 10.8748V18.1248C2.4165 22.6923 3.794 25.1936 7.08067 26.124C7.3465 22.9823 10.5728 20.5052 14.4998 20.5052C18.4269 20.5052 21.6532 22.9823 21.919 26.124C25.2057 25.1936 26.5832 22.6923 26.5832 18.1248V10.8748C26.5832 4.83314 24.1665 2.41647 18.1248 2.41647ZM14.4998 17.1219C12.1073 17.1219 10.174 15.1765 10.174 12.784C10.174 10.3915 12.1073 8.45814 14.4998 8.45814C16.8923 8.45814 18.8257 10.3915 18.8257 12.784C18.8257 15.1765 16.8923 17.1219 14.4998 17.1219Z" stroke="#292D32" stroke-width="1.5" stroke-linecap="round" stroke-linejoin="round"/>
<path d="M18.826 12.784C18.826 15.1765 16.8927 17.1219 14.5002 17.1219C12.1077 17.1219 10.1743 15.1765 10.1743 12.784C10.1743 10.3915 12.1077 8.45816 14.5002 8.45816C16.8927 8.45816 18.826 10.3915 18.826 12.784Z" stroke="#292D32" stroke-width="1.5" stroke-linecap="round" stroke-linejoin="round"/>
</svg>
