<svg width="44" height="44" viewBox="0 0 44 44" fill="none" xmlns="http://www.w3.org/2000/svg">
<rect x="0.5" y="0.5" width="43" height="43" rx="5.5" stroke="#E8618C"/>
<path d="M14 32H22C22.2652 32 22.5196 31.8946 22.7071 31.7071C22.8946 31.5196 23 31.2652 23 31C23 30.7348 22.8946 30.4804 22.7071 30.2929C22.5196 30.1054 22.2652 30 22 30H14C13.7348 30 13.4804 29.8946 13.2929 29.7071C13.1054 29.5196 13 29.2652 13 29V17.816C13.3203 17.9344 13.6586 17.9967 14 18H29V20C29 20.2652 29.1054 20.5196 29.2929 20.7071C29.4804 20.8946 29.7348 21 30 21C30.2652 21 30.5196 20.8946 30.7071 20.7071C30.8946 20.5196 31 20.2652 31 20V17C31 16.7348 30.8946 16.4804 30.7071 16.2929C30.5196 16.1054 30.2652 16 30 16H14C13.7348 16 13.4804 15.8946 13.2929 15.7071C13.1054 15.5196 13 15.2652 13 15C13 14.7348 13.1054 14.4804 13.2929 14.2929C13.4804 14.1054 13.7348 14 14 14H30C30.2652 14 30.5196 13.8946 30.7071 13.7071C30.8946 13.5196 31 13.2652 31 13C31 12.7348 30.8946 12.4804 30.7071 12.2929C30.5196 12.1054 30.2652 12 30 12H14C13.2044 12 12.4413 12.3161 11.8787 12.8787C11.3161 13.4413 11 14.2044 11 15V29C11 29.7956 11.3161 30.5587 11.8787 31.1213C12.4413 31.6839 13.2044 32 14 32Z" fill="#E8618C"/>
<path d="M28 22C27.0111 22 26.0444 22.2932 25.2222 22.8427C24.3999 23.3921 23.759 24.173 23.3806 25.0866C23.0022 26.0002 22.9031 27.0055 23.0961 27.9755C23.289 28.9454 23.7652 29.8363 24.4645 30.5355C25.1637 31.2348 26.0546 31.711 27.0246 31.9039C27.9945 32.0969 28.9998 31.9978 29.9134 31.6194C30.8271 31.241 31.6079 30.6001 32.1574 29.7779C32.7068 28.9556 33 27.9889 33 27C32.9984 25.6744 32.4711 24.4036 31.5338 23.4662C30.5964 22.5289 29.3256 22.0016 28 22ZM28 30C27.4067 30 26.8266 29.8241 26.3333 29.4944C25.8399 29.1648 25.4554 28.6962 25.2284 28.1481C25.0013 27.5999 24.9419 26.9967 25.0576 26.4147C25.1734 25.8328 25.4591 25.2982 25.8787 24.8787C26.2982 24.4591 26.8328 24.1734 27.4147 24.0576C27.9967 23.9419 28.5999 24.0013 29.1481 24.2284C29.6962 24.4554 30.1648 24.8399 30.4944 25.3333C30.8241 25.8266 31 26.4067 31 27C31 27.7956 30.6839 28.5587 30.1213 29.1213C29.5587 29.6839 28.7957 30 28 30Z" fill="#E8618C"/>
</svg>
