<svg width="20" height="20" viewBox="0 0 20 20" fill="none" xmlns="http://www.w3.org/2000/svg">
<g clip-path="url(#clip0_524_2008)">
<path d="M1.875 5C1.875 3.9375 2.6875 3.125 3.75 3.125H6.25" stroke="#4D1A2D" stroke-miterlimit="10" stroke-linecap="round" stroke-linejoin="round"/>
<path d="M11.875 11.875C11.875 10.5 13 9.375 14.375 9.375H16.875C17.5625 9.375 18.125 8.8125 18.125 8.125C18.125 7.4375 17.5625 6.875 16.875 6.875H3.75C2.6875 6.875 1.875 6 1.875 5V15C1.875 16 2.6875 16.875 3.75 16.875H16.875C17.5625 16.875 18.125 16.3125 18.125 15.625C18.125 14.9375 17.5625 14.375 16.875 14.375H14.375C13 14.375 11.875 13.25 11.875 11.875Z" stroke="#4D1A2D" stroke-miterlimit="10" stroke-linecap="round" stroke-linejoin="round"/>
<path d="M6.875 5L15 1.875L16.25 5H4.375" stroke="#4D1A2D" stroke-miterlimit="10" stroke-linecap="round" stroke-linejoin="round"/>
<path d="M14.375 11.875H15.625" stroke="#4D1A2D" stroke-miterlimit="10" stroke-linecap="round" stroke-linejoin="round"/>
<path d="M18.125 8.125V15.625" stroke="#4D1A2D" stroke-miterlimit="10" stroke-linecap="round" stroke-linejoin="round"/>
</g>
<defs>
<clipPath id="clip0_524_2008">
<rect width="20" height="20" fill="white"/>
</clipPath>
</defs>
</svg>
