<svg width="25" height="26" viewBox="0 0 25 26" fill="none" xmlns="http://www.w3.org/2000/svg">
<g clip-path="url(#clip0_433_10599)">
<path d="M2.34375 6.75C2.34375 5.42187 3.35937 4.40625 4.6875 4.40625H7.8125" stroke="#5D6679" stroke-miterlimit="10" stroke-linecap="round" stroke-linejoin="round"/>
<path d="M14.8438 15.3438C14.8438 13.625 16.25 12.2188 17.9688 12.2188H21.0938C21.9531 12.2188 22.6562 11.5156 22.6562 10.6562C22.6562 9.79687 21.9531 9.09375 21.0938 9.09375H4.6875C3.35937 9.09375 2.34375 8 2.34375 6.75V19.25C2.34375 20.5 3.35937 21.5938 4.6875 21.5938H21.0938C21.9531 21.5938 22.6562 20.8906 22.6562 20.0312C22.6562 19.1719 21.9531 18.4688 21.0938 18.4688H17.9688C16.25 18.4688 14.8438 17.0625 14.8438 15.3438Z" stroke="#5D6679" stroke-miterlimit="10" stroke-linecap="round" stroke-linejoin="round"/>
<path d="M8.59375 6.75L18.75 2.84375L20.3125 6.75H5.46875" stroke="#5D6679" stroke-miterlimit="10" stroke-linecap="round" stroke-linejoin="round"/>
<path d="M17.9688 15.3438H19.5312" stroke="#5D6679" stroke-miterlimit="10" stroke-linecap="round" stroke-linejoin="round"/>
<path d="M22.6562 10.6562V20.0312" stroke="#5D6679" stroke-miterlimit="10" stroke-linecap="round" stroke-linejoin="round"/>
</g>
<defs>
<clipPath id="clip0_433_10599">
<rect width="25" height="25" fill="white" transform="translate(0 0.5)"/>
</clipPath>
</defs>
</svg>
