<svg width="23" height="23" viewBox="0 0 23 23" fill="none" xmlns="http://www.w3.org/2000/svg">
<path d="M15.0569 4.74328C12.7203 4.17021 10.2798 4.17021 7.94322 4.74328C7.75322 4.79087 7.575 4.8769 7.41957 4.99608C7.26413 5.11525 7.13478 5.26503 7.03951 5.43616C6.94342 5.60956 6.88393 5.80083 6.86472 5.99814C6.84552 6.19545 6.86701 6.39461 6.92786 6.58328L7.51867 8.40891C7.611 8.69755 7.79287 8.9493 8.03789 9.12764C8.28291 9.30598 8.57837 9.40165 8.88142 9.40078C8.99435 9.40082 9.10691 9.38779 9.21684 9.36197C10.7199 9.01793 12.2812 9.01793 13.7843 9.36197C14.1353 9.44641 14.5052 9.39514 14.82 9.21841C15.1348 9.04168 15.3713 8.75254 15.4819 8.40891L16.0728 6.58328C16.1334 6.39463 16.1547 6.19556 16.1354 5.99835C16.1161 5.80114 16.0567 5.60997 15.9606 5.43664C15.8654 5.26542 15.7361 5.11555 15.5806 4.99629C15.4252 4.87703 15.247 4.79092 15.0569 4.74328ZM15.1609 6.28812L14.5701 8.11374C14.5322 8.22841 14.4524 8.32456 14.3467 8.38293C14.241 8.4413 14.1171 8.45759 13.9999 8.42855C13.3361 8.27684 12.6596 8.18686 11.9792 8.15974V7.18703C11.9792 7.05995 11.9288 6.93807 11.8389 6.84821C11.749 6.75835 11.6272 6.70787 11.5001 6.70787C11.373 6.70787 11.2511 6.75835 11.1612 6.84821C11.0714 6.93807 11.0209 7.05995 11.0209 7.18703V8.15974C10.3403 8.1872 9.66374 8.27751 8.99978 8.42951C8.88262 8.45842 8.75887 8.44205 8.65325 8.38369C8.54764 8.32533 8.46793 8.22927 8.43005 8.1147L7.83924 6.28907C7.81827 6.22562 7.8108 6.15848 7.81732 6.09197C7.82384 6.02545 7.8442 5.96104 7.87709 5.90287C7.90802 5.84632 7.95036 5.79681 8.00141 5.75746C8.05247 5.71812 8.11113 5.6898 8.1737 5.6743C8.32415 5.63693 8.47749 5.60818 8.62938 5.57607L8.7142 6.04566C8.72497 6.10797 8.74797 6.16753 8.78188 6.22091C8.81578 6.2743 8.85991 6.32044 8.91173 6.35668C8.96356 6.39292 9.02204 6.41855 9.08381 6.43208C9.14558 6.44562 9.20942 6.44679 9.27165 6.43553C9.33388 6.42428 9.39326 6.40081 9.44638 6.3665C9.49949 6.33218 9.54529 6.28769 9.58113 6.23559C9.61697 6.18349 9.64215 6.12481 9.6552 6.06293C9.66826 6.00106 9.66893 5.93721 9.65719 5.87507L9.57286 5.40932C10.0531 5.3428 10.5364 5.30122 11.0209 5.28474V5.74953C11.0209 5.87662 11.0714 5.99849 11.1612 6.08835C11.2511 6.17822 11.373 6.2287 11.5001 6.2287C11.6272 6.2287 11.749 6.17822 11.8389 6.08835C11.9288 5.99849 11.9792 5.87662 11.9792 5.74953V5.28474C12.4668 5.30118 12.9532 5.34325 13.4364 5.41076L13.3525 5.87507C13.3408 5.93721 13.3415 6.00106 13.3545 6.06293C13.3676 6.12481 13.3927 6.18349 13.4286 6.23559C13.4644 6.28769 13.5102 6.33218 13.5633 6.3665C13.6165 6.40081 13.6758 6.42428 13.7381 6.43553C13.8003 6.44679 13.8641 6.44562 13.9259 6.43208C13.9877 6.41855 14.0462 6.39292 14.098 6.35668C14.1498 6.32044 14.1939 6.2743 14.2278 6.22091C14.2618 6.16753 14.2848 6.10797 14.2955 6.04566L14.3799 5.57799C14.5289 5.60962 14.6789 5.63789 14.8264 5.67382C14.889 5.68932 14.9477 5.71764 14.9987 5.75698C15.0498 5.79633 15.0921 5.84584 15.123 5.90239C15.156 5.96062 15.1764 6.02512 15.1829 6.09172C15.1894 6.15832 15.1819 6.22555 15.1609 6.28907V6.28812Z" fill="#858C94"/>
<path d="M18.6873 1.91602H4.31234C3.67716 1.91678 3.06821 2.16944 2.61907 2.61858C2.16993 3.06772 1.91726 3.67667 1.9165 4.31185V18.6868C1.91726 19.322 2.16993 19.931 2.61907 20.3801C3.06821 20.8293 3.67716 21.0819 4.31234 21.0827H18.6873C19.3225 21.0819 19.9315 20.8293 20.3806 20.3801C20.8297 19.931 21.0824 19.322 21.0832 18.6868V4.31185C21.0824 3.67667 20.8297 3.06772 20.3806 2.61858C19.9315 2.16944 19.3225 1.91678 18.6873 1.91602ZM20.1248 18.6868C20.1248 19.0681 19.9734 19.4337 19.7038 19.7033C19.4342 19.9729 19.0686 20.1243 18.6873 20.1243H4.31234C3.93109 20.1243 3.56545 19.9729 3.29587 19.7033C3.02629 19.4337 2.87484 19.0681 2.87484 18.6868V4.31185C2.87484 3.9306 3.02629 3.56497 3.29587 3.29538C3.56545 3.0258 3.93109 2.87435 4.31234 2.87435H18.6873C19.0686 2.87435 19.4342 3.0258 19.7038 3.29538C19.9734 3.56497 20.1248 3.9306 20.1248 4.31185V18.6868Z" fill="#858C94"/>
<path d="M11.4997 12.457C11.3726 12.457 11.2507 12.5075 11.1609 12.5974C11.071 12.6872 11.0205 12.8091 11.0205 12.9362V17.2487C11.0205 17.3758 11.071 17.4977 11.1609 17.5875C11.2507 17.6774 11.3726 17.7279 11.4997 17.7279C11.6268 17.7279 11.7486 17.6774 11.8385 17.5875C11.9284 17.4977 11.9788 17.3758 11.9788 17.2487V12.9362C11.9788 12.8091 11.9284 12.6872 11.8385 12.5974C11.7486 12.5075 11.6268 12.457 11.4997 12.457Z" fill="#858C94"/>
</svg>
