<svg width="44" height="44" viewBox="0 0 44 44" fill="none" xmlns="http://www.w3.org/2000/svg">
<rect x="0.5" y="0.5" width="43" height="43" rx="5.5" stroke="#E8618C"/>
<path d="M15 33H23C23.2652 33 23.5196 32.8946 23.7071 32.7071C23.8946 32.5196 24 32.2652 24 32C24 31.7348 23.8946 31.4804 23.7071 31.2929C23.5196 31.1054 23.2652 31 23 31H15C14.7348 31 14.4804 30.8946 14.2929 30.7071C14.1054 30.5196 14 30.2652 14 30V18.816C14.3203 18.9344 14.6586 18.9967 15 19H30V21C30 21.2652 30.1054 21.5196 30.2929 21.7071C30.4804 21.8946 30.7348 22 31 22C31.2652 22 31.5196 21.8946 31.7071 21.7071C31.8946 21.5196 32 21.2652 32 21V18C32 17.7348 31.8946 17.4804 31.7071 17.2929C31.5196 17.1054 31.2652 17 31 17H15C14.7348 17 14.4804 16.8946 14.2929 16.7071C14.1054 16.5196 14 16.2652 14 16C14 15.7348 14.1054 15.4804 14.2929 15.2929C14.4804 15.1054 14.7348 15 15 15H31C31.2652 15 31.5196 14.8946 31.7071 14.7071C31.8946 14.5196 32 14.2652 32 14C32 13.7348 31.8946 13.4804 31.7071 13.2929C31.5196 13.1054 31.2652 13 31 13H15C14.2044 13 13.4413 13.3161 12.8787 13.8787C12.3161 14.4413 12 15.2044 12 16V30C12 30.7956 12.3161 31.5587 12.8787 32.1213C13.4413 32.6839 14.2044 33 15 33Z" fill="#E8618C"/>
<path d="M29 23C28.0111 23 27.0444 23.2932 26.2222 23.8427C25.3999 24.3921 24.759 25.173 24.3806 26.0866C24.0022 27.0002 23.9031 28.0055 24.0961 28.9755C24.289 29.9454 24.7652 30.8363 25.4645 31.5355C26.1637 32.2348 27.0546 32.711 28.0246 32.9039C28.9945 33.0969 29.9998 32.9978 30.9134 32.6194C31.8271 32.241 32.6079 31.6001 33.1574 30.7779C33.7068 29.9556 34 28.9889 34 28C33.9984 26.6744 33.4711 25.4036 32.5338 24.4662C31.5964 23.5289 30.3256 23.0016 29 23ZM29 31C28.4067 31 27.8266 30.8241 27.3333 30.4944C26.8399 30.1648 26.4554 29.6962 26.2284 29.1481C26.0013 28.5999 25.9419 27.9967 26.0576 27.4147C26.1734 26.8328 26.4591 26.2982 26.8787 25.8787C27.2982 25.4591 27.8328 25.1734 28.4147 25.0576C28.9967 24.9419 29.5999 25.0013 30.1481 25.2284C30.6962 25.4554 31.1648 25.8399 31.4944 26.3333C31.8241 26.8266 32 27.4067 32 28C32 28.7956 31.6839 29.5587 31.1213 30.1213C30.5587 30.6839 29.7957 31 29 31Z" fill="#E8618C"/>
</svg>
