<svg width="20" height="21" viewBox="0 0 20 21" fill="none" xmlns="http://www.w3.org/2000/svg">
<path d="M10.0013 19.2702C5.05964 19.2702 1.04297 15.2535 1.04297 10.3118C1.04297 5.37018 5.05964 1.35352 10.0013 1.35352C14.943 1.35352 18.9596 5.37018 18.9596 10.3118C18.9596 15.2535 14.943 19.2702 10.0013 19.2702ZM10.0013 2.60352C5.7513 2.60352 2.29297 6.06185 2.29297 10.3118C2.29297 14.5618 5.7513 18.0202 10.0013 18.0202C14.2513 18.0202 17.7096 14.5618 17.7096 10.3118C17.7096 6.06185 14.2513 2.60352 10.0013 2.60352Z" fill="#4D1A2D"/>
<path d="M12.5 18.4377C12.4333 18.4377 12.3667 18.4294 12.3 18.4044C11.975 18.2961 11.7917 17.9377 11.9083 17.6127C13.475 12.9044 13.475 7.72106 11.9083 3.0044C11.8 2.6794 11.975 2.32106 12.3 2.21273C12.6333 2.1044 12.9833 2.2794 13.0917 2.6044C14.75 7.57106 14.75 13.0377 13.0917 17.9961C13.0083 18.2711 12.7583 18.4377 12.5 18.4377Z" fill="#4D1A2D"/>
<path d="M7.49922 18.4375H6.66589C6.32422 18.4375 6.04089 18.1542 6.04089 17.8125C6.04089 17.4708 6.30755 17.1958 6.64922 17.1875C5.34089 12.7208 5.34089 7.90417 6.64922 3.4375C6.30755 3.42917 6.04089 3.15417 6.04089 2.8125C6.04089 2.47083 6.32422 2.1875 6.66589 2.1875H7.49922C7.69922 2.1875 7.89089 2.2875 8.00755 2.44583C8.12422 2.6125 8.15755 2.82083 8.09089 3.0125C6.52422 7.72083 6.52422 12.9042 8.09089 17.6208C8.15755 17.8125 8.12422 18.0208 8.00755 18.1875C7.89089 18.3375 7.69922 18.4375 7.49922 18.4375Z" fill="#4D1A2D"/>
<path d="M17.4992 8.43698C17.4325 8.43698 17.3658 8.42865 17.2992 8.40365C12.5908 6.83698 7.39917 6.83698 2.69084 8.40365C2.3575 8.51198 2.0075 8.33698 1.89917 8.01198C1.79917 7.67865 1.97417 7.32865 2.29917 7.22031C7.26584 5.56198 12.7325 5.56198 17.6908 7.22031C18.0158 7.32865 18.1992 7.68698 18.0825 8.01198C18.0075 8.27031 17.7575 8.43698 17.4992 8.43698Z" fill="#4D1A2D"/>
<path d="M10 14.6455C7.675 14.6455 5.35833 14.3205 3.125 13.6622C3.11667 13.9955 2.84167 14.2705 2.5 14.2705C2.15833 14.2705 1.875 13.9872 1.875 13.6455V12.8122C1.875 12.6122 1.975 12.4205 2.13333 12.3038C2.3 12.1872 2.50833 12.1538 2.7 12.2205C7.40833 13.7872 12.6 13.7872 17.3083 12.2205C17.5 12.1538 17.7083 12.1872 17.875 12.3038C18.0417 12.4205 18.1333 12.6122 18.1333 12.8122V13.6455C18.1333 13.9872 17.85 14.2705 17.5083 14.2705C17.1667 14.2705 16.8917 14.0038 16.8833 13.6622C14.6417 14.3205 12.325 14.6455 10 14.6455Z" fill="#4D1A2D"/>
</svg>
